<svg width="32" height="32" viewBox="0 0 32 32" fill="none" xmlns="http://www.w3.org/2000/svg">
<g clip-path="url(#clip0_442_2716)">
<path d="M15.6726 22.6098C15.6939 22.6204 15.7117 22.6311 15.733 22.6418C15.7544 22.6524 15.7793 22.656 15.8006 22.6631C15.8219 22.6702 15.8433 22.6773 15.8646 22.6809C15.8859 22.6844 15.9108 22.6844 15.9322 22.688C15.9535 22.688 15.9748 22.6915 15.9997 22.6915C16.0246 22.6915 16.0424 22.6915 16.0673 22.688C16.0886 22.688 16.1135 22.688 16.1348 22.6809C16.1562 22.6773 16.1775 22.6702 16.1988 22.6631C16.2202 22.656 16.245 22.6489 16.2664 22.6418C16.2877 22.6347 16.3055 22.6204 16.3268 22.6098C16.3482 22.5991 16.3695 22.5884 16.3908 22.5742C16.4122 22.56 16.4264 22.5458 16.4477 22.5315C16.4619 22.5173 16.4797 22.5067 16.4975 22.4924L25.3864 13.856C25.6673 13.5822 25.6744 13.1307 25.4006 12.8498C25.1268 12.5689 24.6753 12.5618 24.3944 12.8355L16.0033 20.992L7.6086 12.8355C7.32771 12.5618 6.87615 12.5689 6.60238 12.8498C6.46726 12.9884 6.39971 13.1662 6.39971 13.344C6.39971 13.5218 6.47082 13.7138 6.6166 13.856L15.5055 22.4924C15.5055 22.4924 15.5375 22.5173 15.5553 22.5315C15.573 22.5458 15.5908 22.5635 15.6122 22.5742C15.6335 22.5884 15.6548 22.5991 15.6762 22.6098L15.6726 22.6098Z" fill="#0077B6"/>
<path d="M30.5778 16C30.5778 24.0391 24.0391 30.5778 16 30.5778C7.96089 30.5778 1.42222 24.0391 1.42222 16C1.42222 7.96089 7.96089 1.42222 16 1.42222C24.0391 1.42222 30.5778 7.96089 30.5778 16ZM32 16C32 7.16444 24.8356 3.13168e-07 16 6.99382e-07C7.16444 1.0856e-06 3.13168e-07 7.16445 6.99382e-07 16C1.0856e-06 24.8356 7.16445 32 16 32C24.8356 32 32 24.8356 32 16Z" fill="#0077B6"/>
</g>
<defs>
<clipPath id="clip0_442_2716">
<rect width="32" height="32" fill="white" transform="translate(32) rotate(90)"/>
</clipPath>
</defs>
</svg>
