<svg width="32" height="32" viewBox="0 0 32 32" fill="none" xmlns="http://www.w3.org/2000/svg">
<g clip-path="url(#clip0_442_2711)">
<path d="M15.6726 9.39023C15.6939 9.37956 15.7117 9.3689 15.733 9.35823C15.7544 9.34756 15.7793 9.34401 15.8006 9.3369C15.8219 9.32979 15.8433 9.32268 15.8646 9.31912C15.8859 9.31556 15.9108 9.31556 15.9322 9.31201C15.9535 9.31201 15.9748 9.30845 15.9997 9.30845C16.0246 9.30845 16.0424 9.30845 16.0673 9.31201C16.0886 9.31201 16.1135 9.31201 16.1348 9.31912C16.1562 9.32268 16.1775 9.32979 16.1988 9.3369C16.2202 9.34401 16.245 9.35112 16.2664 9.35823C16.2877 9.36534 16.3055 9.37956 16.3268 9.39023C16.3482 9.4009 16.3695 9.41156 16.3908 9.42579C16.4122 9.44001 16.4264 9.45423 16.4477 9.46845C16.4619 9.48268 16.4797 9.49334 16.4975 9.50756L25.3864 18.144C25.6673 18.4178 25.6744 18.8693 25.4006 19.1502C25.1268 19.4311 24.6753 19.4382 24.3944 19.1645L16.0033 11.008L7.6086 19.1645C7.32771 19.4382 6.87615 19.4311 6.60238 19.1502C6.46726 19.0116 6.39971 18.8338 6.39971 18.656C6.39971 18.4782 6.47082 18.2862 6.6166 18.144L15.5055 9.50756C15.5055 9.50756 15.5375 9.48268 15.5553 9.46845C15.573 9.45423 15.5908 9.43645 15.6122 9.42579C15.6335 9.41156 15.6548 9.4009 15.6762 9.39023L15.6726 9.39023Z" fill="#0077B6"/>
<path d="M30.5778 16C30.5778 7.96089 24.0391 1.42222 16 1.42222C7.96089 1.42222 1.42222 7.96089 1.42222 16C1.42222 24.0391 7.96089 30.5778 16 30.5778C24.0391 30.5778 30.5778 24.0391 30.5778 16ZM32 16C32 24.8356 24.8356 32 16 32C7.16444 32 -3.13168e-07 24.8356 -6.99382e-07 16C-1.0856e-06 7.16445 7.16444 1.0856e-06 16 6.99382e-07C24.8356 3.13168e-07 32 7.16444 32 16Z" fill="#0077B6"/>
</g>
<defs>
<clipPath id="clip0_442_2711">
<rect width="32" height="32" fill="white" transform="matrix(-4.37114e-08 -1 -1 4.37114e-08 32 32)"/>
</clipPath>
</defs>
</svg>
