<svg width="77" height="58" viewBox="0 0 77 58" fill="none" xmlns="http://www.w3.org/2000/svg">
<path d="M38.4998 19.1069C34.5842 19.1069 31.3906 22.2572 31.3906 26.1194C31.3906 29.9816 34.5844 33.1319 38.4998 33.1319C42.4153 33.1319 45.609 29.9816 45.609 26.1194C45.609 22.2572 42.4153 19.1069 38.4998 19.1069ZM38.4998 30.9852C35.7873 30.9852 33.578 28.8059 33.578 26.1303C33.578 23.4547 35.7873 21.2754 38.4998 21.2754C41.2123 21.2754 43.4217 23.4547 43.4217 26.1303C43.4217 28.8059 41.2123 30.9852 38.4998 30.9852Z" fill="#004B8B"/>
<path d="M21.317 34.9878C24.7732 34.9878 27.5841 32.2152 27.5841 28.8059C27.5841 25.3967 24.7732 22.624 21.317 22.624C17.8607 22.624 15.0498 25.3967 15.0498 28.8059C15.0498 32.2152 17.8607 34.9878 21.317 34.9878ZM21.317 24.7819C23.5701 24.7819 25.3966 26.5836 25.3966 28.8061C25.3966 31.0285 23.5701 32.8302 21.317 32.8302C19.0639 32.8302 17.2373 31.0285 17.2373 28.8061C17.2373 26.5836 19.0639 24.7819 21.317 24.7819Z" fill="#004B8B"/>
<path d="M33.3038 9.81795L32.8226 12.5691C32.6804 13.389 33.0195 14.1982 33.6976 14.6837C34.3757 15.1691 35.2617 15.2339 36.0054 14.8455L38.5101 13.5509L41.0148 14.8455C41.3429 15.0181 41.6929 15.0936 42.0319 15.0936C42.4804 15.0936 42.9288 14.9534 43.3116 14.6837C43.9897 14.1982 44.3178 13.389 44.1757 12.5691L43.6944 9.81796L45.7178 7.86522C46.3194 7.28263 46.5272 6.44111 46.2757 5.65356C46.0132 4.866 45.335 4.30499 44.5147 4.18629L41.7147 3.78712L40.4679 1.28414C40.096 0.539737 39.3413 0.0758057 38.5101 0.0758057C37.6788 0.0758057 36.9242 0.539723 36.5522 1.28414L35.2944 3.78712L32.4944 4.18629C31.6632 4.30497 30.9851 4.86598 30.7335 5.65356C30.471 6.44111 30.6897 7.29344 31.2913 7.86522L33.3147 9.81796L33.3038 9.81795ZM35.6007 5.92325C36.3116 5.82615 36.9241 5.38381 37.2523 4.7473L38.4991 2.23355L39.7569 4.7473C40.0741 5.38383 40.6866 5.82617 41.4085 5.92325L44.2085 6.32243L42.1851 8.27516C41.671 8.77144 41.4304 9.48349 41.5507 10.1847L42.032 12.9359L39.5273 11.6412C38.8929 11.3068 38.1273 11.3068 37.493 11.6412L34.9883 12.9359L35.4695 10.1847C35.5898 9.48349 35.3602 8.77141 34.8352 8.27516L32.8117 6.32243L35.6117 5.92325H35.6007Z" fill="#004B8B"/>
<path d="M17.4115 14.0036L17.2365 15.0069C17.0944 15.8269 17.4334 16.636 18.1115 17.1215C18.4944 17.3912 18.9428 17.5315 19.3912 17.5315C19.7412 17.5315 20.0912 17.4452 20.4084 17.2833L21.3162 16.8086L22.224 17.2833C22.9678 17.6717 23.8537 17.607 24.5319 17.1215C25.21 16.636 25.549 15.8269 25.4069 15.0069L25.2319 14.0036L25.9647 13.2916C26.5663 12.709 26.774 11.8675 26.5225 11.0799C26.26 10.2923 25.5819 9.73133 24.7616 9.61264L23.7444 9.4616L23.2851 8.55535C22.9132 7.81095 22.1585 7.35779 21.3272 7.35779C20.4851 7.35779 19.7413 7.82171 19.3694 8.55535L18.91 9.4616L17.8929 9.60185C17.0616 9.72053 16.3835 10.2815 16.1319 11.0691C15.8694 11.8567 16.0882 12.709 16.6897 13.2808L17.4226 13.9928L17.4115 14.0036ZM19.2162 11.6085C19.9271 11.5006 20.5396 11.069 20.8678 10.4325L21.3162 9.5155L21.7756 10.4217C22.0928 11.0583 22.7053 11.5006 23.4272 11.6085L24.4444 11.7488L23.7115 12.4608C23.1975 12.9571 22.9569 13.6691 23.0772 14.3704L23.2522 15.3737L22.3443 14.899C22.0271 14.7372 21.6771 14.6509 21.3272 14.6509C20.9772 14.6509 20.6272 14.7372 20.31 14.899L19.4022 15.3737L19.5772 14.3704C19.6975 13.6691 19.4678 12.9571 18.9428 12.4608L18.2099 11.7488L19.2271 11.6085L19.2162 11.6085Z" fill="#004B8B"/>
<path d="M55.6822 34.9878C59.1385 34.9878 61.9494 32.2152 61.9494 28.8059C61.9494 25.3967 59.1385 22.624 55.6822 22.624C52.226 22.624 49.415 25.3967 49.415 28.8059C49.415 32.2152 52.226 34.9878 55.6822 34.9878ZM55.6822 24.7819C57.9354 24.7819 59.7619 26.5836 59.7619 28.8061C59.7619 31.0285 57.9353 32.8302 55.6822 32.8302C53.4291 32.8302 51.6025 31.0285 51.6025 28.8061C51.6025 26.5836 53.4291 24.7819 55.6822 24.7819Z" fill="#004B8B"/>
<path d="M66.7508 45.8194C66.2258 41.8168 62.7367 38.8069 58.6574 38.8069H52.6965C51.4824 38.8069 50.3012 39.0766 49.2293 39.5837C47.5121 37.4799 44.8762 36.1421 41.9668 36.1421H35.0215C32.1121 36.1421 29.4762 37.4799 27.759 39.5729C26.6871 39.0659 25.5168 38.7961 24.2918 38.7961H18.3309C14.2512 38.7961 10.7625 41.8062 10.248 45.7437L8.93549 52.4543C8.86987 52.7672 8.95737 53.1016 9.16517 53.3498C9.37298 53.5979 9.67924 53.7382 10.0073 53.7382H66.9699C67.298 53.7382 67.6042 53.5979 67.812 53.3498C68.0198 53.1017 68.1073 52.778 68.0417 52.4543L66.7401 45.8085L66.7508 45.8194ZM35.0324 38.2994H41.9777C45.5434 38.2994 48.584 40.9319 49.054 44.4813L50.3556 51.5912H26.6648L27.9664 44.4275C28.0976 43.4025 28.4695 42.4423 29.0055 41.6116L29.0273 41.5901C29.0273 41.5793 29.0273 41.5685 29.0383 41.5469C30.318 39.5833 32.5492 38.2995 35.043 38.2995L35.0324 38.2994ZM12.414 46.0997C12.7968 43.176 15.3453 40.9643 18.3422 40.9643H24.3031C25.1015 40.9643 25.8781 41.1261 26.5999 41.4282C26.2062 42.2589 25.9218 43.1544 25.8015 44.093L24.4343 51.5909H11.3422L12.414 46.0997ZM52.5653 51.5912L51.2091 44.1471C51.0778 43.187 50.7934 42.2699 50.3887 41.4284C51.1106 41.1263 51.8871 40.9537 52.6856 40.9537H58.6465C61.6324 40.9537 64.1808 43.1653 64.5856 46.1538L65.6465 51.5805H52.5649L52.5653 51.5912Z" fill="#004B8B"/>
<path d="M51.7663 14.0036L51.5913 15.0069C51.4491 15.8269 51.7882 16.636 52.4663 17.1215C53.1444 17.607 54.0304 17.6717 54.7742 17.2833L55.682 16.8086L56.5898 17.2833C56.907 17.4559 57.257 17.5315 57.607 17.5315C58.0554 17.5315 58.5038 17.3912 58.8867 17.1215C59.5648 16.636 59.8929 15.8269 59.7507 15.0069L59.5757 14.0036L60.3086 13.2916C60.9101 12.709 61.1179 11.8675 60.8664 11.0799C60.6149 10.2923 59.9257 9.73133 59.0945 9.61264L58.0774 9.4616L57.618 8.55535C57.2461 7.81095 56.4914 7.35779 55.6602 7.35779C54.8289 7.35779 54.0742 7.82171 53.7023 8.55535L53.2539 9.4616L52.2367 9.60185C51.4055 9.72053 50.7274 10.2815 50.4758 11.0691C50.2242 11.8567 50.4321 12.709 51.0336 13.2808L51.7665 13.982L51.7663 14.0036ZM53.582 11.6085C54.2929 11.5006 54.9054 11.069 55.2336 10.4217L55.682 9.51542L56.1414 10.4217C56.4586 11.0582 57.071 11.5005 57.7929 11.6085L58.8101 11.7487L58.0773 12.4607C57.5632 12.957 57.3335 13.6691 57.4539 14.3703L57.6289 15.3736L56.721 14.8989C56.0867 14.5645 55.321 14.5645 54.6867 14.8989L53.7789 15.3736L53.9539 14.3703C54.0742 13.6691 53.8445 12.957 53.3195 12.4607L52.5867 11.7487L53.6038 11.6085H53.582Z" fill="#004B8B"/>
</svg>
