<svg width="66" height="71" viewBox="0 0 66 71" fill="none" xmlns="http://www.w3.org/2000/svg">
<path d="M31.1252 52.6296H20.8124C20.2944 52.6296 19.8749 52.2049 19.8749 51.6806C19.8749 51.1562 20.2944 50.7315 20.8124 50.7315H31.1252C31.6431 50.7315 32.0627 51.1562 32.0627 51.6806C32.0627 52.2049 31.6431 52.6296 31.1252 52.6296ZM20.8124 56.4259C20.2944 56.4259 19.8749 56.8506 19.8749 57.375C19.8749 57.8994 20.2944 58.3241 20.8124 58.3241H29.2496C29.7675 58.3241 30.1871 57.8994 30.1871 57.375C30.1871 56.8506 29.7675 56.4259 29.2496 56.4259H20.8124ZM36.7496 45.9858C36.7496 45.7343 36.6511 45.4923 36.4753 45.3143C36.2996 45.1364 36.0605 45.0367 35.812 45.0367H20.812C20.2941 45.0367 19.8745 45.4614 19.8745 45.9858C19.8745 46.5102 20.2941 46.9349 20.812 46.9349H35.812C36.0605 46.9349 36.2995 46.8352 36.4753 46.6573C36.6511 46.4793 36.7496 46.2373 36.7496 45.9858ZM20.8124 41.2404H26.4374C26.9553 41.2404 27.3749 40.8157 27.3749 40.2914C27.3749 39.767 26.9553 39.3423 26.4374 39.3423H20.8124C20.2944 39.3423 19.8749 39.767 19.8749 40.2914C19.8749 40.8157 20.2944 41.2404 20.8124 41.2404ZM42.3752 40.2914C42.3752 40.0399 42.2767 39.7978 42.1009 39.6199C41.9252 39.4419 41.6861 39.3423 41.4376 39.3423H30.1876C29.6697 39.3423 29.2501 39.767 29.2501 40.2913C29.2501 40.8157 29.6697 41.2404 30.1876 41.2404H41.4376C41.6861 41.2404 41.9251 41.1408 42.1009 40.9628C42.2767 40.7849 42.3752 40.5429 42.3752 40.2914ZM48.0002 34.5969C48.0002 34.3454 47.9017 34.1034 47.7259 33.9254C47.5502 33.7475 47.3111 33.6478 47.0626 33.6478H31.1254C30.6075 33.6478 30.1879 34.0725 30.1879 34.5969C30.1879 35.1213 30.6075 35.546 31.1254 35.546H47.0626C47.3111 35.546 47.5501 35.4463 47.7259 35.2684C47.9017 35.0904 48.0002 34.8484 48.0002 34.5969ZM32.063 28.9025C32.063 29.154 32.1614 29.396 32.3372 29.574C32.513 29.7519 32.752 29.8516 33.0005 29.8516H37.688C38.206 29.8516 38.6255 29.4269 38.6255 28.9025C38.6255 28.3781 38.206 27.9534 37.688 27.9534H33.0005C32.4825 27.9534 32.063 28.3781 32.063 28.9025ZM47.063 27.9534H41.438C40.92 27.9534 40.5005 28.3781 40.5005 28.9025C40.5005 29.4268 40.92 29.8516 41.438 29.8516H47.063C47.5809 29.8516 48.0005 29.4268 48.0005 28.9025C48.0005 28.3781 47.5809 27.9534 47.063 27.9534ZM39.563 24.1571C40.0809 24.1571 40.5005 23.7324 40.5005 23.208C40.5005 22.6837 40.0809 22.259 39.563 22.259H35.813C35.295 22.259 34.8755 22.6837 34.8755 23.208C34.8755 23.7324 35.295 24.1571 35.813 24.1571H39.563ZM32.063 15.6157C32.063 15.0914 32.4825 14.6667 33.0005 14.6667H42.6965C43.941 14.6643 45.134 15.1626 46.0128 16.0571L51.3167 21.4264H51.3144C52.1957 22.3138 52.6902 23.5215 52.6878 24.7814V30.8009C52.6878 31.3253 52.2683 31.75 51.7503 31.75C51.2324 31.75 50.8128 31.3253 50.8128 30.8009V24.7814C50.8105 24.5702 50.7847 24.3614 50.7378 24.1574H46.1253C44.5738 24.155 43.3152 22.8809 43.3128 21.3102V16.6384C43.1113 16.5909 42.905 16.5672 42.6965 16.5648H33.0005C32.4825 16.5648 32.063 16.1401 32.063 15.6157ZM45.188 17.9054V21.3102C45.188 21.8346 45.6075 22.2593 46.1255 22.2593H49.4864L45.188 17.9054ZM51.7508 52.6296C51.2328 52.6296 50.8133 53.0543 50.8133 53.5787V61.1713C50.8109 62.742 49.5523 64.0162 48.0008 64.0185H19.8758C18.3242 64.0162 17.0656 62.742 17.0633 61.1713V40.2917C17.0633 39.7673 16.6437 39.3426 16.1258 39.3426C15.6078 39.3426 15.1883 39.7673 15.1883 40.2917V61.1713C15.1906 63.7907 17.2883 65.9143 19.8758 65.9167H48.0008C50.5883 65.9143 52.6859 63.7907 52.6883 61.1713V53.5787C52.6883 53.3272 52.5898 53.0852 52.414 52.9072C52.2383 52.7293 51.9992 52.6296 51.7508 52.6296ZM59.687 41.1934L41.1644 59.9446C41.0448 60.0657 40.8925 60.1534 40.7284 60.1938L33.2284 62.0919C32.9097 62.1726 32.5698 62.0777 32.3378 61.8428C32.1058 61.6055 32.012 61.2639 32.0917 60.9412L33.9667 53.3486C34.0089 53.1825 34.0933 53.0283 34.2128 52.9072L52.7354 34.156C54.6549 32.2128 57.7674 32.2128 59.687 34.156C61.6065 36.0992 61.6065 39.2501 59.687 41.1934ZM40.5008 57.9305L56.0492 42.1901L54.5632 40.6858L39.0148 56.4262L40.5008 57.9305ZM53.237 39.3426L51.751 37.8383L36.2026 53.5787L37.6886 55.083L53.237 39.3426ZM34.2902 59.8663L38.6683 58.7583L35.3847 55.4341L34.2902 59.8663ZM58.3604 35.4989C57.158 34.3363 55.2642 34.3363 54.0619 35.4989L53.0775 36.4954L57.376 40.847L58.3604 39.8505C59.5463 38.6475 59.5463 36.7019 58.3604 35.4989ZM15.3854 34.0065C14.8791 33.8381 14.3822 33.6316 13.9041 33.3896L12.0572 34.4289C11.3236 34.837 10.4119 34.7065 9.81892 34.1109L8.16892 32.4382C7.58064 31.8379 7.45174 30.9173 7.85486 30.1746L8.8814 28.3049C8.64468 27.8185 8.43843 27.3179 8.27204 26.8054L6.23768 26.217L6.23534 26.2146C5.4338 25.9797 4.87832 25.237 4.87598 24.39V22.0268C4.87832 21.1798 5.43379 20.4371 6.23534 20.2022L8.2697 19.6138L8.27204 19.6114C8.43844 19.0989 8.64469 18.5983 8.8814 18.1119L7.85486 16.2422C7.45173 15.5019 7.58064 14.5789 8.16892 13.9786L9.82126 12.3059C10.4142 11.708 11.3259 11.5799 12.0572 11.9879L13.9041 13.0272C14.3822 12.7851 14.8791 12.5787 15.3854 12.4103L15.9666 10.3484C16.1986 9.53463 16.9346 8.97466 17.7713 8.97229H20.108H20.1057C20.9424 8.97466 21.6783 9.53699 21.9103 10.3508L22.4916 12.4103C22.9978 12.5787 23.4924 12.7852 23.9729 13.0272L25.8221 11.9879H25.8197C26.5533 11.5798 27.465 11.708 28.058 12.3059L29.708 13.9763V13.9786C30.2963 14.5789 30.4252 15.4995 30.0197 16.2422L28.9932 18.1119H28.9955C29.2323 18.5959 29.4362 19.0989 29.6049 19.6114L31.6393 20.1999C32.4431 20.4347 32.9986 21.1798 33.001 22.0268V24.39C32.9986 25.237 32.4431 25.9797 31.6416 26.2146L29.6072 26.803L29.6049 26.8054C29.4385 27.3179 29.2322 27.8185 28.9955 28.3049L30.0221 30.1746C30.4252 30.9149 30.2963 31.8379 29.708 32.4382L28.0557 34.1109C27.4627 34.7065 26.551 34.8369 25.8197 34.4265L23.9729 33.3873V33.3896C23.4947 33.6293 22.9979 33.8357 22.4916 34.0065L21.9103 36.0684C21.6783 36.8822 20.9423 37.4421 20.1056 37.4445H17.7713C16.9346 37.4421 16.1986 36.8798 15.9666 36.066L15.3854 34.0065ZM14.3541 31.482C15.0009 31.8474 15.6877 32.1345 16.4025 32.3362C16.7143 32.4263 16.9604 32.6731 17.0494 32.991L17.7713 35.5464H20.1056L20.8251 32.9886H20.8275C20.9166 32.6731 21.1626 32.4263 21.4744 32.3362C22.1892 32.1345 22.8759 31.8474 23.5228 31.482C23.8064 31.3207 24.1533 31.3183 24.4369 31.4796L26.729 32.768L28.3814 31.0953L27.1087 28.7748V28.7772C26.9493 28.4877 26.9517 28.1389 27.1111 27.8495C27.472 27.1946 27.7556 26.4994 27.9548 25.7757C28.0438 25.4602 28.2876 25.211 28.6016 25.1209L31.1258 24.3901V22.0269L28.6016 21.2962C28.2876 21.206 28.0438 20.9569 27.9548 20.6413C27.7556 19.9176 27.472 19.2201 27.1111 18.5652C26.9517 18.2781 26.9493 17.9293 27.1087 17.6399L28.3814 15.3194L26.7314 13.649L24.4369 14.9374C24.1533 15.0987 23.8064 15.0964 23.5228 14.935C22.876 14.5696 22.1892 14.2825 21.4744 14.0809C21.1626 13.9907 20.9165 13.744 20.8275 13.4284L20.1056 10.8707H17.7713L17.0518 13.4284H17.0494C16.9603 13.744 16.7143 13.9907 16.4025 14.0809C15.6877 14.2826 15.001 14.5697 14.3541 14.935C14.0705 15.0964 13.7236 15.0987 13.44 14.9374L11.1455 13.649L9.49553 15.3194L10.7682 17.6399C10.9276 17.9293 10.9252 18.2781 10.7658 18.5676C10.4049 19.2224 10.1213 19.9176 9.92212 20.6413C9.83306 20.9569 9.58931 21.206 9.27526 21.2962L6.75106 22.0269V24.3901L9.27526 25.1209C9.58933 25.211 9.83308 25.4602 9.92212 25.7757C10.1213 26.4994 10.4049 27.1969 10.7658 27.8518C10.9252 28.1389 10.9276 28.4877 10.7682 28.7772L9.49553 31.0977L11.1479 32.768L13.44 31.4796C13.7236 31.3183 14.0705 31.3207 14.3541 31.482ZM18.9384 29.852C16.2853 29.852 13.8923 28.2338 12.8754 25.752C11.8606 23.2678 12.4208 20.411 14.2981 18.5105C16.1755 16.6099 18.9973 16.0429 21.4513 17.0702C23.9028 18.1 25.5013 20.5225 25.5013 23.2081C25.4966 26.8763 22.5622 29.8471 18.9384 29.852ZM18.9384 27.9538C20.8346 27.9538 22.5431 26.7984 23.2697 25.0236C23.9939 23.2512 23.5932 21.2107 22.2525 19.8535C20.9119 18.4963 18.8963 18.0906 17.1455 18.8238C15.3924 19.5593 14.251 21.289 14.251 23.2085C14.2533 25.828 16.3509 27.9515 18.9384 27.9538Z" fill="#004B8B"/>
</svg>
