<svg width="77" height="71" viewBox="0 0 77 71" fill="none" xmlns="http://www.w3.org/2000/svg">
<g clip-path="url(#clip0_471_1066)">
<path d="M50.0385 61.4873C49.7205 61.4873 49.4233 61.2892 49.3116 60.9728L39.9823 34.4038H36.0337L26.7037 60.9728C26.5627 61.3729 26.1231 61.5826 25.7227 61.4435C25.3215 61.303 25.1097 60.8652 25.2507 60.4651L34.7617 33.3816C34.8703 33.0736 35.1613 32.8678 35.4886 32.8678H40.5298C40.857 32.8678 41.1481 33.0744 41.2567 33.3816L50.7669 60.4651C50.9078 60.8652 50.6961 61.3038 50.2949 61.4435C50.2094 61.4735 50.1232 61.4873 50.0385 61.4873Z" fill="#004B8B"/>
<path d="M33.644 40.2077H42.3704C42.8513 40.2077 43.2404 39.819 43.2404 39.3397C43.2404 38.8602 42.8505 38.4717 42.3704 38.4717H33.644C33.164 38.4717 32.774 38.8602 32.774 39.3397C32.774 39.8191 33.164 40.2077 33.644 40.2077Z" fill="#004B8B" stroke="#004B8B" stroke-width="0.2"/>
<path d="M31.9917 45.6152H44.0653C44.5453 45.6152 44.9353 45.2267 44.9353 44.7472C44.9353 44.2678 44.5453 43.8792 44.0653 43.8792H31.9917C31.5117 43.8792 31.1217 44.2678 31.1217 44.7472C31.1217 45.2267 31.5117 45.6152 31.9917 45.6152Z" fill="#004B8B" stroke="#004B8B" stroke-width="0.2"/>
<path d="M29.7641 50.9905H46.2514C46.7314 50.9905 47.1214 50.6019 47.1214 50.1225C47.1214 49.6431 46.7314 49.2545 46.2514 49.2545H29.7641C29.2841 49.2545 28.8941 49.6431 28.8941 50.1225C28.8941 50.6019 29.2841 50.9905 29.7641 50.9905Z" fill="#004B8B" stroke="#004B8B" stroke-width="0.2"/>
<path d="M28.1118 56.3142H48.1865C48.6665 56.3142 49.0565 55.9256 49.0565 55.4462C49.0565 54.9668 48.6665 54.5782 48.1865 54.5782H28.1118C27.6318 54.5782 27.2418 54.9668 27.2418 55.4462C27.2418 55.9256 27.6318 56.3142 28.1118 56.3142Z" fill="#004B8B" stroke="#004B8B" stroke-width="0.2"/>
<path d="M53.0751 61.9812V61.9812C53.0751 60.7636 51.8229 59.8506 50.2885 59.8506H26.1621C24.6277 59.8506 23.3756 60.7636 23.3756 61.9812C23.3756 63.1995 24.6277 64.1125 26.1621 64.1125H50.2885C51.8222 64.1125 53.0742 63.2002 53.0751 61.9812ZM25.1157 61.9819C25.1158 61.9818 25.1159 61.9816 25.1159 61.9813C25.1176 61.9766 25.1259 61.9521 25.1663 61.9104C25.2093 61.866 25.2767 61.8148 25.3683 61.7662C25.551 61.6694 25.8215 61.5873 26.1621 61.5873H50.2885C50.6292 61.5873 50.8997 61.6694 51.0823 61.7662C51.174 61.8148 51.2414 61.866 51.2844 61.9104C51.3247 61.9521 51.3331 61.9766 51.3347 61.9813C51.3348 61.9816 51.3349 61.9818 51.3349 61.9819C51.3349 61.9821 51.3348 61.9823 51.3347 61.9825C51.3331 61.9873 51.3247 62.0118 51.2843 62.0536C51.2413 62.0981 51.1739 62.1493 51.0823 62.198C50.8996 62.2951 50.6291 62.3773 50.2885 62.3773H26.1621C25.8215 62.3773 25.551 62.2951 25.3684 62.198C25.2767 62.1493 25.2093 62.0981 25.1663 62.0536C25.1259 62.0118 25.1176 61.9873 25.1159 61.9825C25.1159 61.9823 25.1158 61.9821 25.1157 61.9819Z" fill="#004B8B" stroke="#004B8B" stroke-width="0.2"/>
<path d="M26.91 30.8903C27.0796 31.0595 27.3025 31.1445 27.525 31.1445C27.7476 31.1445 27.9704 31.0595 28.14 30.8903C28.4803 30.5509 28.4803 30.0021 28.14 29.6627L12.1479 13.7122C11.8078 13.3729 11.258 13.3729 10.9179 13.7122C10.5776 14.0515 10.5776 14.6003 10.9179 14.9397L26.91 30.8903Z" fill="#004B8B" stroke="#004B8B" stroke-width="0.2"/>
<path d="M41.4299 30.8905L41.4301 30.8903C41.7703 30.5509 41.7703 30.0021 41.4301 29.6627L25.4379 13.7122C25.0978 13.3729 24.548 13.3729 24.2079 13.7122C23.8677 14.0515 23.8677 14.6003 24.2079 14.9397C24.2079 14.9397 24.2079 14.9397 24.2079 14.9397L40.1993 30.8903C40.3689 31.0595 40.5917 31.1445 40.8143 31.1445C41.0369 31.1445 41.2596 31.0595 41.4299 30.8905Z" fill="#004B8B" stroke="#004B8B" stroke-width="0.2"/>
<path d="M53.4881 30.8903C53.6578 31.0595 53.8806 31.1445 54.1031 31.1445C54.3257 31.1445 54.5485 31.0595 54.7182 30.8903C55.0584 30.5509 55.0584 30.0021 54.7182 29.6627L38.726 13.7122C38.3859 13.3729 37.8361 13.3729 37.496 13.7122C37.1558 14.0515 37.1558 14.6003 37.496 14.9397L53.4881 30.8903Z" fill="#004B8B" stroke="#004B8B" stroke-width="0.2"/>
<path d="M67.6629 30.8903C67.8326 31.0595 68.0554 31.1445 68.2779 31.1445C68.5005 31.1445 68.7233 31.0595 68.893 30.8903C69.2332 30.5509 69.2332 30.0021 68.893 29.6627L52.9008 13.7122C52.5607 13.3729 52.0109 13.3729 51.6708 13.7122C51.3306 14.0515 51.3306 14.6003 51.6708 14.9397L67.6629 30.8903Z" fill="#004B8B" stroke="#004B8B" stroke-width="0.2"/>
<path d="M10.8882 63.429H16.6909C17.1709 63.429 17.5609 63.0404 17.5609 62.561V30.603C17.5609 30.1236 17.1709 29.735 16.6909 29.735C16.2109 29.735 15.8209 30.1236 15.8209 30.603V61.693H11.7582V30.7504C11.7582 30.271 11.3682 29.8824 10.8882 29.8824C10.4081 29.8824 10.0182 30.271 10.0182 30.7504V62.561C10.0182 63.0404 10.4081 63.429 10.8882 63.429Z" fill="#004B8B" stroke="#004B8B" stroke-width="0.2"/>
<path d="M10.0182 14.2553C10.0182 14.7347 10.4081 15.1233 10.8882 15.1233C11.3681 15.1233 11.7582 14.7356 11.7582 14.2561V6.58241H15.8209V14.1094C15.8209 14.5888 16.2109 14.9774 16.6909 14.9774C17.1709 14.9774 17.5609 14.5888 17.5609 14.1094V5.71441C17.5609 5.235 17.1709 4.84641 16.6909 4.84641H10.8882C10.4081 4.84641 10.0182 5.235 10.0182 5.71441V14.2553Z" fill="#004B8B" stroke="#004B8B" stroke-width="0.2"/>
<path d="M60.5014 63.429H66.3042C66.7842 63.429 67.1742 63.0404 67.1742 62.561V30.603C67.1742 30.1236 66.7842 29.735 66.3042 29.735C65.8241 29.735 65.4342 30.1236 65.4342 30.603V61.693H61.3714V30.7504C61.3714 30.271 60.9815 29.8824 60.5014 29.8824C60.0214 29.8824 59.6314 30.271 59.6314 30.7504V62.561C59.6314 63.0404 60.0214 63.429 60.5014 63.429Z" fill="#004B8B" stroke="#004B8B" stroke-width="0.2"/>
<path d="M59.6314 14.2553C59.6314 14.7347 60.0214 15.1233 60.5014 15.1233C60.9813 15.1233 61.3714 14.7356 61.3714 14.2561V6.58241H65.4342V14.1094C65.4342 14.5888 65.8241 14.9774 66.3042 14.9774C66.7842 14.9774 67.1742 14.5888 67.1742 14.1094V5.71441C67.1742 5.235 66.7842 4.84641 66.3042 4.84641H60.5014C60.0214 4.84641 59.6314 5.235 59.6314 5.71441V14.2553Z" fill="#004B8B" stroke="#004B8B" stroke-width="0.2"/>
<path d="M7.2407 31.1446H70.3638C70.8438 31.1446 71.2338 30.756 71.2338 30.2766V14.326C71.2338 13.8466 70.8438 13.458 70.3638 13.458H7.2407C6.76068 13.458 6.3707 13.8466 6.3707 14.326V30.2766C6.3707 30.756 6.76068 31.1446 7.2407 31.1446ZM69.4938 15.194V29.4086H8.1107V15.194H69.4938Z" fill="#004B8B" stroke="#004B8B" stroke-width="0.2"/>
</g>
<defs>
<clipPath id="clip0_471_1066">
<rect width="77" height="71" fill="white"/>
</clipPath>
</defs>
</svg>
