<svg width="76" height="64" viewBox="0 0 76 64" fill="none" xmlns="http://www.w3.org/2000/svg">
<path d="M39.0176 63.37H12.5336C12.1585 63.37 11.8535 63.0692 11.8535 62.6991V14.4734C11.8535 14.2232 11.9966 13.9916 12.2233 13.8771L38.71 0.479196C38.9205 0.372715 39.1715 0.380702 39.3739 0.503155C39.5763 0.62561 39.6977 0.841231 39.6977 1.07549V62.6991C39.6977 63.0718 39.3927 63.37 39.0176 63.37ZM13.2135 62.031H38.3398V2.17238L13.2135 14.8834V62.031Z" fill="#004B8B"/>
<path d="M63.4662 63.3699H39.017C38.6419 63.3699 38.3369 63.0691 38.3369 62.6991L38.3396 15.8125C38.3396 15.5756 38.4665 15.3546 38.6743 15.2348C38.8821 15.115 39.1385 15.1124 39.349 15.2268L63.7954 28.622C64.0113 28.7392 64.1436 28.9655 64.1436 29.2077V62.6991C64.1436 63.0718 63.8414 63.3699 63.4662 63.3699ZM39.6976 62.031H62.7864V29.6047L39.6976 16.9523V62.031Z" fill="#004B8B"/>
<path d="M22.7189 29.2079H17.9663C17.5911 29.2079 17.2861 28.9071 17.2861 28.5371V17.1489C17.2861 16.7788 17.5911 16.478 17.9663 16.478H22.7189C23.0941 16.478 23.3991 16.7788 23.3991 17.1489V28.5371C23.3991 28.9098 23.0941 29.2079 22.7189 29.2079ZM18.6464 27.869H22.0416V17.8226H18.6464V27.869Z" fill="#004B8B"/>
<path d="M27.4748 29.2079H22.7221C22.347 29.2079 22.042 28.9071 22.042 28.5371V17.1489C22.042 16.7788 22.347 16.478 22.7221 16.478H27.4748C27.8499 16.478 28.1549 16.7788 28.1549 17.1489V28.5371C28.1522 28.9098 27.8499 29.2079 27.4748 29.2079ZM23.3995 27.869H26.7947V17.8226H23.3995V27.869Z" fill="#004B8B"/>
<path d="M32.2277 29.2079H27.475C27.0999 29.2079 26.7949 28.9071 26.7949 28.5371V17.1489C26.7949 16.7788 27.0999 16.478 27.475 16.478H32.2277C32.6029 16.478 32.9079 16.7788 32.9079 17.1489V28.5371C32.9079 28.9098 32.6029 29.2079 32.2277 29.2079ZM28.1525 27.869H31.5477V17.8226H28.1525V27.869Z" fill="#004B8B"/>
<path d="M22.7189 34.5698H17.9663C17.5911 34.5698 17.2861 34.269 17.2861 33.899V28.5057C17.2861 28.1357 17.5911 27.8348 17.9663 27.8348H22.7189C23.0941 27.8348 23.3991 28.1357 23.3991 28.5057V33.899C23.3991 34.269 23.0941 34.5698 22.7189 34.5698ZM18.6464 33.2281H22.0416V29.1739H18.6464V33.2281Z" fill="#004B8B"/>
<path d="M27.4748 34.5698H22.7221C22.347 34.5698 22.042 34.269 22.042 33.899V28.5057C22.042 28.1357 22.347 27.8348 22.7221 27.8348H27.4748C27.8499 27.8348 28.1549 28.1357 28.1549 28.5057V33.899C28.1522 34.269 27.8499 34.5698 27.4748 34.5698ZM23.3995 33.2281H26.7947V29.1739H23.3995V33.2281Z" fill="#004B8B"/>
<path d="M32.2277 34.5698H27.475C27.0999 34.5698 26.7949 34.269 26.7949 33.899V28.5057C26.7949 28.1357 27.0999 27.8348 27.475 27.8348H32.2277C32.6029 27.8348 32.9079 28.1357 32.9079 28.5057V33.899C32.9079 34.269 32.6029 34.5698 32.2277 34.5698ZM28.1525 33.2281H31.5477V29.1739H28.1525V33.2281Z" fill="#004B8B"/>
<path d="M22.7189 45.9554H17.9663C17.5911 45.9554 17.2861 45.6546 17.2861 45.2845V33.8963C17.2861 33.5263 17.5911 33.2255 17.9663 33.2255H22.7189C23.0941 33.2255 23.3991 33.5263 23.3991 33.8963V45.2845C23.3991 45.6546 23.0941 45.9554 22.7189 45.9554ZM18.6464 44.6164H22.0416V34.57H18.6464V44.6164Z" fill="#004B8B"/>
<path d="M27.4748 45.9554H22.7221C22.347 45.9554 22.042 45.6546 22.042 45.2845V33.8963C22.042 33.5263 22.347 33.2255 22.7221 33.2255H27.4748C27.8499 33.2255 28.1549 33.5263 28.1549 33.8963V45.2845C28.1522 45.6546 27.8499 45.9554 27.4748 45.9554ZM23.3995 44.6164H26.7947V34.57H23.3995V44.6164Z" fill="#004B8B"/>
<path d="M32.2277 45.9554H27.475C27.0999 45.9554 26.7949 45.6546 26.7949 45.2845V33.8963C26.7949 33.5263 27.0999 33.2255 27.475 33.2255H32.2277C32.6029 33.2255 32.9079 33.5263 32.9079 33.8963V45.2845C32.9079 45.6546 32.6029 45.9554 32.2277 45.9554ZM28.1525 44.6164H31.5477V34.57H28.1525V44.6164Z" fill="#004B8B"/>
<path d="M22.7189 51.3138H17.9663C17.5911 51.3138 17.2861 51.013 17.2861 50.643V45.2497C17.2861 44.8797 17.5911 44.5789 17.9663 44.5789H22.7189C23.0941 44.5789 23.3991 44.8797 23.3991 45.2497V50.643C23.3991 51.013 23.0941 51.3138 22.7189 51.3138ZM18.6464 49.9749H22.0416V45.9206H18.6464V49.9749Z" fill="#004B8B"/>
<path d="M27.4748 51.3138H22.7221C22.347 51.3138 22.042 51.013 22.042 50.643V45.2497C22.042 44.8797 22.347 44.5789 22.7221 44.5789H27.4748C27.8499 44.5789 28.1549 44.8797 28.1549 45.2497V50.643C28.1522 51.013 27.8499 51.3138 27.4748 51.3138ZM23.3995 49.9749H26.7947V45.9206H23.3995V49.9749Z" fill="#004B8B"/>
<path d="M32.2277 51.3138H27.475C27.0999 51.3138 26.7949 51.013 26.7949 50.643V45.2497C26.7949 44.8797 27.0999 44.5789 27.475 44.5789H32.2277C32.6029 44.5789 32.9079 44.8797 32.9079 45.2497V50.643C32.9079 51.013 32.6029 51.3138 32.2277 51.3138ZM28.1525 49.9749H31.5477V45.9206H28.1525V49.9749Z" fill="#004B8B"/>
<path d="M63.4663 34.5698H45.1303C44.7552 34.5698 44.4502 34.269 44.4502 33.899C44.4502 33.529 44.7552 33.2281 45.1303 33.2281H63.4663C63.8415 33.2281 64.1465 33.529 64.1465 33.899C64.1438 34.269 63.8415 34.5698 63.4663 34.5698Z" fill="#004B8B"/>
<path d="M63.4663 39.2571H45.1303C44.7552 39.2571 44.4502 38.9563 44.4502 38.5862C44.4502 38.2162 44.7552 37.9154 45.1303 37.9154H63.4663C63.8415 37.9154 64.1465 38.2162 64.1465 38.5862C64.1438 38.9563 63.8415 39.2571 63.4663 39.2571Z" fill="#004B8B"/>
<path d="M63.4663 43.9449H45.1303C44.7552 43.9449 44.4502 43.6441 44.4502 43.2741C44.4502 42.9041 44.7552 42.6033 45.1303 42.6033H63.4663C63.8415 42.6033 64.1465 42.9041 64.1465 43.2741C64.1438 43.6468 63.8415 43.9449 63.4663 43.9449Z" fill="#004B8B"/>
<path d="M63.4663 48.6356H45.1303C44.7552 48.6356 44.4502 48.3348 44.4502 47.9648C44.4502 47.5948 44.7552 47.2939 45.1303 47.2939H63.4663C63.8415 47.2939 64.1465 47.5948 64.1465 47.9648C64.1438 48.3348 63.8415 48.6356 63.4663 48.6356Z" fill="#004B8B"/>
<path d="M63.4663 53.3235H45.1303C44.7552 53.3235 44.4502 53.0227 44.4502 52.6527C44.4502 52.2826 44.7552 51.9818 45.1303 51.9818H63.4663C63.8415 51.9818 64.1465 52.2826 64.1465 52.6527C64.1438 53.0227 63.8415 53.3235 63.4663 53.3235Z" fill="#004B8B"/>
</svg>
