<svg width="47" height="66" viewBox="0 0 47 66" fill="none" xmlns="http://www.w3.org/2000/svg">
<path d="M45.8024 26.2686C46.3132 26.2716 46.7673 25.9462 46.9346 25.4656C47.1019 24.982 46.9406 24.4477 46.5373 24.1342L32.6607 13.3463V9.55228L35.5285 11.7015C35.7795 11.8926 36.0991 11.9762 36.4128 11.9314C36.7264 11.8866 37.0102 11.7195 37.2014 11.4657C37.3926 11.212 37.4732 10.8926 37.4284 10.5791C37.3836 10.2657 37.2163 9.9821 36.9624 9.79407L24.2153 0.241795C23.7911 -0.0805983 23.2056 -0.0805983 22.7814 0.241795L10.0344 9.79407C9.78043 9.98213 9.61314 10.2657 9.56832 10.5791C9.52351 10.8926 9.60417 11.2119 9.79537 11.4657C9.98656 11.7195 10.2704 11.8866 10.584 11.9314C10.8977 11.9762 11.2173 11.8926 11.4682 11.7015L14.3361 9.55228V13.3463L0.457159 24.1342C-0.0596523 24.5402 -0.152265 25.2895 0.251033 25.8089C0.657313 26.3283 1.40712 26.4208 1.92693 26.0178L4.7769 23.8029V30.806C4.7769 31.4657 5.31163 32 5.97184 32C6.63204 32 7.16678 31.4657 7.16678 30.806V21.946L14.3364 16.3729V27.3519C14.3364 28.0116 14.8712 28.5459 15.5314 28.5459C16.1916 28.5459 16.7263 28.0116 16.7263 27.3519V7.76053L23.4987 2.6859L30.271 7.76053V27.3519C30.271 28.0116 30.8057 28.5459 31.466 28.5459C32.1262 28.5459 32.6609 28.0116 32.6609 27.3519V16.3729L39.8305 21.946V30.806C39.8305 31.4657 40.3653 32 41.0255 32C41.6857 32 42.2204 31.4657 42.2204 30.806V23.8029L45.0704 26.0178C45.2795 26.182 45.5365 26.2686 45.8024 26.2686Z" fill="#004B8B"/>
<path d="M39.6076 51.6206C39.7493 51.2177 40.1351 50.9471 40.5693 50.9412C42.4625 50.9382 43.997 49.4412 44 47.5941V44.4029C43.997 42.5559 42.4625 41.0588 40.5693 41.0559C40.1352 41.05 39.7493 40.7794 39.6076 40.3794C39.4207 39.8618 39.2036 39.3559 38.9685 38.8647C38.7725 38.4824 38.8449 38.0235 39.1524 37.7177C40.4879 36.4089 40.4879 34.2941 39.1524 32.9853L36.8401 30.7294C35.4985 29.4235 33.3279 29.4235 31.9894 30.7294C31.6758 31.0294 31.2026 31.1029 30.8137 30.9088C30.3072 30.6765 29.7917 30.4676 29.2611 30.2853V30.2824C28.8511 30.1441 28.5707 29.7706 28.5647 29.3471C28.5647 27.4971 27.0272 26 25.134 26H21.866C19.9728 26 18.4353 27.4971 18.4353 29.3471C18.4293 29.7706 18.1489 30.1441 17.7389 30.2824C17.2083 30.4647 16.6898 30.6765 16.1863 30.9088C15.7944 31.1 15.3241 31.0265 15.0106 30.7265C13.6691 29.4235 11.5015 29.4235 10.1599 30.7294L7.84764 32.9853C6.5121 34.2941 6.5121 36.4089 7.84764 37.7177C8.15514 38.0236 8.2275 38.4824 8.03154 38.8647C7.79338 39.3588 7.57933 39.8618 7.39242 40.3794C7.25074 40.7794 6.86485 41.05 6.43073 41.0559C4.53751 41.0588 3.00301 42.5559 3 44.4029V47.5941C3.00301 49.4412 4.53751 50.9382 6.43073 50.9412C6.86485 50.9471 7.25073 51.2177 7.39242 51.6206C7.57934 52.1382 7.7964 52.6441 8.03154 53.1353V53.1323C8.2275 53.5147 8.15514 53.9765 7.84764 54.2794C6.5121 55.5882 6.5121 57.7059 7.84764 59.0147L10.1599 61.2706V61.2677C11.5015 62.5736 13.6691 62.5736 15.0106 61.2677C15.3242 60.9706 15.7944 60.8971 16.1863 61.0882C16.6928 61.3206 17.2083 61.5294 17.7389 61.7118V61.7147C18.1489 61.8529 18.4293 62.2265 18.4353 62.6529C18.4353 64.5 19.9728 65.9971 21.866 66H25.134C27.0272 65.9971 28.5647 64.5 28.5647 62.6529C28.5707 62.2265 28.8511 61.8529 29.2611 61.7147C29.7887 61.5323 30.3072 61.3206 30.8137 61.0882C31.2056 60.8971 31.6759 60.9706 31.9894 61.2706C33.3309 62.5706 35.4985 62.5706 36.8401 61.2677L39.1524 59.0118V59.0147C40.4879 57.7059 40.4879 55.5882 39.1524 54.2794C38.8449 53.9764 38.7725 53.5147 38.9654 53.1323C39.2066 52.6382 39.4207 52.1353 39.6076 51.6206ZM37.3375 50.8294C37.1747 51.2735 36.9908 51.7059 36.7858 52.1294C36.1618 53.4088 36.424 54.9324 37.446 55.9441C37.636 56.1294 37.7445 56.3824 37.7445 56.6471C37.7445 56.9118 37.636 57.1647 37.446 57.35L35.1337 59.6059C34.7358 59.9912 34.0936 59.9912 33.6927 59.6059C32.6587 58.6089 31.097 58.35 29.7826 58.9588C29.3485 59.1588 28.9054 59.3383 28.4501 59.4971V59.5C27.0815 59.9735 26.162 61.2324 26.1529 62.653C26.1529 63.2 25.6977 63.6471 25.1339 63.6471H21.8659C21.3022 63.6471 20.847 63.2 20.847 62.653C20.8379 61.2324 19.9185 59.9735 18.5498 59.5C18.0945 59.3412 17.6513 59.1618 17.2172 58.9618C16.7499 58.7471 16.2435 58.6353 15.7279 58.6353C14.8205 58.6324 13.9493 58.9794 13.3071 59.603C12.9092 59.9912 12.264 59.9912 11.8661 59.6059L9.55382 57.35C9.15588 56.9618 9.15588 56.3324 9.55382 55.9442C10.5758 54.9354 10.8381 53.4088 10.214 52.1294C10.009 51.7059 9.82514 51.2736 9.66236 50.8294C9.17698 49.4912 7.88367 48.5971 6.43059 48.5882C5.86684 48.5882 5.41163 48.1412 5.41163 47.5941V44.4029C5.41163 43.8559 5.86685 43.4117 6.43059 43.4088C7.88367 43.4029 9.17699 42.5059 9.66236 41.1676C9.82515 40.7235 10.009 40.2911 10.214 39.8676C10.8381 38.5882 10.5758 37.0646 9.55382 36.0529C9.3639 35.8676 9.25536 35.6146 9.25536 35.3499C9.25536 35.0882 9.36389 34.8352 9.55382 34.647L11.8661 32.3911V32.394C12.264 32.0058 12.9062 32.0058 13.3071 32.394C14.3412 33.3881 15.9028 33.647 17.2172 33.0382C17.6513 32.8382 18.0945 32.6587 18.5498 32.4999C19.9184 32.0264 20.8379 30.7646 20.847 29.347C20.847 28.797 21.3022 28.3529 21.8659 28.3529H25.1339C25.6977 28.3529 26.1529 28.797 26.1529 29.347C26.1619 30.7646 27.0814 32.0264 28.4501 32.4999C28.9053 32.6587 29.3485 32.8382 29.7826 33.0382V33.0352C31.094 33.647 32.6587 33.3911 33.6927 32.394C34.0906 32.0058 34.7358 32.0058 35.1337 32.394L37.443 34.6499L37.446 34.647C37.841 35.0352 37.841 35.6647 37.446 36.0529C36.4241 37.0647 36.1617 38.5882 36.7858 39.8705C36.9908 40.2941 37.1747 40.7264 37.3375 41.1706V41.1676C37.8229 42.5058 39.1162 43.4029 40.5693 43.4088C41.133 43.4118 41.5882 43.8559 41.5882 44.4029V47.5941C41.5882 48.1412 41.133 48.5882 40.5693 48.5882C39.1162 48.597 37.8229 49.4911 37.3375 50.8294Z" fill="#004B8B"/>
<path d="M23.5 34C20.4501 34 17.5257 35.2666 15.3669 37.5159C13.211 39.7652 12 42.8194 12 46.0016C12 49.1838 13.211 52.2348 15.3669 54.4841C17.5257 56.7365 20.4501 58 23.5 58C26.5499 58 29.4743 56.7365 31.6331 54.4841C33.789 52.2348 35 49.1837 35 46.0016C34.997 42.8194 33.786 39.7684 31.6272 37.5191C29.4713 35.2698 26.5498 34.0031 23.5 34ZM23.5 55.5045C19.8162 55.5045 16.4942 53.1897 15.0859 49.6363C13.6745 46.086 14.455 41.9991 17.0594 39.2817C19.6638 36.5614 23.5808 35.7502 26.9868 37.2196C30.3896 38.6922 32.6083 42.1582 32.6083 46.0016C32.6023 51.2459 28.5298 55.4984 23.5007 55.504L23.5 55.5045Z" fill="#004B8B"/>
</svg>
