<svg width="57" height="55" viewBox="0 0 57 55" fill="none" xmlns="http://www.w3.org/2000/svg">
<mask id="path-1-outside-1_471_1310" maskUnits="userSpaceOnUse" x="0" y="0" width="57" height="55" fill="black">
<rect fill="white" width="57" height="55"/>
<path d="M1.76273 54H5.33803C5.75924 54 6.10076 53.6543 6.10076 53.2279V43.6755H13.3489V53.2279C13.3489 53.6543 13.6904 54 14.1117 54H50.7473C51.1689 54 51.51 53.6543 51.51 53.2279C51.51 52.8015 51.1689 52.4558 50.7473 52.4558H45.9266V31.0645H47.604C47.9221 31.0645 48.2066 30.8651 48.3183 30.5639C48.4301 30.263 48.3451 29.9233 48.106 29.7115L34.934 18.0441C34.6465 17.7893 34.2175 17.7893 33.93 18.0441L20.7572 29.7115C20.5181 29.9233 20.434 30.263 20.5457 30.5639C20.6574 30.8651 20.942 31.0645 21.2596 31.0645H22.9371V52.4558H14.8744V12.1475H47.3359V22.4429C47.3359 22.8693 47.677 23.215 48.0986 23.215H49.3559V26.3068C49.3559 26.7332 49.697 27.0789 50.1186 27.0789H53.098V30.2317H50.1186C49.697 30.2317 49.3559 30.5774 49.3559 31.0038C49.3559 31.4302 49.697 31.7759 50.1186 31.7759H53.8608C54.2824 31.7759 54.6235 31.4302 54.6235 31.0038V26.3068C54.6235 25.8804 54.2824 25.5347 53.8608 25.5347H50.8814V23.215H52.1394C52.561 23.215 52.9022 22.8693 52.9022 22.4429V12.1475H55.2373C55.6589 12.1475 56 11.8018 56 11.3754V4.25388C56 3.82749 55.6589 3.48178 55.2373 3.48178H14.8744V2.54419H17.3674C17.7886 2.54419 18.1301 2.19848 18.1301 1.77209C18.1301 1.34571 17.7886 1 17.3674 1H5.33803H1.76273C1.34152 1 1 1.34571 1 1.77209V53.2279C1 53.6543 1.34152 54 1.76273 54ZM44.4011 47.6566H34.9259C34.5043 47.6566 34.1631 48.0023 34.1631 48.4287C34.1631 48.8551 34.5043 49.2008 34.9259 49.2008H44.4011V52.4558H24.4625V36.0187H31.6664V38.4899H28.0646C27.6434 38.4899 27.3019 38.8356 27.3019 39.262C27.3019 39.6884 27.6434 40.0341 28.0646 40.0341H32.4291H37.9053V42.7323H31.1837C30.7621 42.7323 30.421 43.078 30.421 43.5044C30.421 43.9307 30.7621 44.2764 31.1837 44.2764H38.668H44.4011V47.6566ZM24.4625 34.4745V31.0645H31.6664V34.4745H24.4625ZM44.4011 42.7323H39.4307V39.262C39.4307 38.8356 39.0896 38.4899 38.668 38.4899H33.1918V31.0645H44.4011V42.7323ZM34.432 19.6509L45.5743 29.5203H23.2897L34.432 19.6509ZM51.3767 21.6708H48.8613V12.1475H51.3767V21.6708ZM14.8744 5.02597H54.4745V10.6033H14.8744V5.02597ZM6.10076 2.54419H13.3489V4.25388V11.3754V15.6891L6.10076 6.40946V2.54419ZM6.10076 8.89949L12.5363 17.1386H6.10076V8.89949ZM6.10076 18.6828H13.3489V28.2858L6.10076 19.0061V18.6828ZM6.10076 21.4962L12.5363 29.7352H6.10076V21.4962ZM6.10076 31.2794H13.3489V40.6819L6.10076 31.4022V31.2794ZM6.10076 33.8923L12.5363 42.1313H6.10076V33.8923ZM2.52546 2.54419H4.5753V52.4558H2.52546V2.54419Z"/>
</mask>
<path d="M1.76273 54H5.33803C5.75924 54 6.10076 53.6543 6.10076 53.2279V43.6755H13.3489V53.2279C13.3489 53.6543 13.6904 54 14.1117 54H50.7473C51.1689 54 51.51 53.6543 51.51 53.2279C51.51 52.8015 51.1689 52.4558 50.7473 52.4558H45.9266V31.0645H47.604C47.9221 31.0645 48.2066 30.8651 48.3183 30.5639C48.4301 30.263 48.3451 29.9233 48.106 29.7115L34.934 18.0441C34.6465 17.7893 34.2175 17.7893 33.93 18.0441L20.7572 29.7115C20.5181 29.9233 20.434 30.263 20.5457 30.5639C20.6574 30.8651 20.942 31.0645 21.2596 31.0645H22.9371V52.4558H14.8744V12.1475H47.3359V22.4429C47.3359 22.8693 47.677 23.215 48.0986 23.215H49.3559V26.3068C49.3559 26.7332 49.697 27.0789 50.1186 27.0789H53.098V30.2317H50.1186C49.697 30.2317 49.3559 30.5774 49.3559 31.0038C49.3559 31.4302 49.697 31.7759 50.1186 31.7759H53.8608C54.2824 31.7759 54.6235 31.4302 54.6235 31.0038V26.3068C54.6235 25.8804 54.2824 25.5347 53.8608 25.5347H50.8814V23.215H52.1394C52.561 23.215 52.9022 22.8693 52.9022 22.4429V12.1475H55.2373C55.6589 12.1475 56 11.8018 56 11.3754V4.25388C56 3.82749 55.6589 3.48178 55.2373 3.48178H14.8744V2.54419H17.3674C17.7886 2.54419 18.1301 2.19848 18.1301 1.77209C18.1301 1.34571 17.7886 1 17.3674 1H5.33803H1.76273C1.34152 1 1 1.34571 1 1.77209V53.2279C1 53.6543 1.34152 54 1.76273 54ZM44.4011 47.6566H34.9259C34.5043 47.6566 34.1631 48.0023 34.1631 48.4287C34.1631 48.8551 34.5043 49.2008 34.9259 49.2008H44.4011V52.4558H24.4625V36.0187H31.6664V38.4899H28.0646C27.6434 38.4899 27.3019 38.8356 27.3019 39.262C27.3019 39.6884 27.6434 40.0341 28.0646 40.0341H32.4291H37.9053V42.7323H31.1837C30.7621 42.7323 30.421 43.078 30.421 43.5044C30.421 43.9307 30.7621 44.2764 31.1837 44.2764H38.668H44.4011V47.6566ZM24.4625 34.4745V31.0645H31.6664V34.4745H24.4625ZM44.4011 42.7323H39.4307V39.262C39.4307 38.8356 39.0896 38.4899 38.668 38.4899H33.1918V31.0645H44.4011V42.7323ZM34.432 19.6509L45.5743 29.5203H23.2897L34.432 19.6509ZM51.3767 21.6708H48.8613V12.1475H51.3767V21.6708ZM14.8744 5.02597H54.4745V10.6033H14.8744V5.02597ZM6.10076 2.54419H13.3489V4.25388V11.3754V15.6891L6.10076 6.40946V2.54419ZM6.10076 8.89949L12.5363 17.1386H6.10076V8.89949ZM6.10076 18.6828H13.3489V28.2858L6.10076 19.0061V18.6828ZM6.10076 21.4962L12.5363 29.7352H6.10076V21.4962ZM6.10076 31.2794H13.3489V40.6819L6.10076 31.4022V31.2794ZM6.10076 33.8923L12.5363 42.1313H6.10076V33.8923ZM2.52546 2.54419H4.5753V52.4558H2.52546V2.54419Z" fill="#004B8B"/>
<path d="M1.76273 54H5.33803C5.75924 54 6.10076 53.6543 6.10076 53.2279V43.6755H13.3489V53.2279C13.3489 53.6543 13.6904 54 14.1117 54H50.7473C51.1689 54 51.51 53.6543 51.51 53.2279C51.51 52.8015 51.1689 52.4558 50.7473 52.4558H45.9266V31.0645H47.604C47.9221 31.0645 48.2066 30.8651 48.3183 30.5639C48.4301 30.263 48.3451 29.9233 48.106 29.7115L34.934 18.0441C34.6465 17.7893 34.2175 17.7893 33.93 18.0441L20.7572 29.7115C20.5181 29.9233 20.434 30.263 20.5457 30.5639C20.6574 30.8651 20.942 31.0645 21.2596 31.0645H22.9371V52.4558H14.8744V12.1475H47.3359V22.4429C47.3359 22.8693 47.677 23.215 48.0986 23.215H49.3559V26.3068C49.3559 26.7332 49.697 27.0789 50.1186 27.0789H53.098V30.2317H50.1186C49.697 30.2317 49.3559 30.5774 49.3559 31.0038C49.3559 31.4302 49.697 31.7759 50.1186 31.7759H53.8608C54.2824 31.7759 54.6235 31.4302 54.6235 31.0038V26.3068C54.6235 25.8804 54.2824 25.5347 53.8608 25.5347H50.8814V23.215H52.1394C52.561 23.215 52.9022 22.8693 52.9022 22.4429V12.1475H55.2373C55.6589 12.1475 56 11.8018 56 11.3754V4.25388C56 3.82749 55.6589 3.48178 55.2373 3.48178H14.8744V2.54419H17.3674C17.7886 2.54419 18.1301 2.19848 18.1301 1.77209C18.1301 1.34571 17.7886 1 17.3674 1H5.33803H1.76273C1.34152 1 1 1.34571 1 1.77209V53.2279C1 53.6543 1.34152 54 1.76273 54ZM44.4011 47.6566H34.9259C34.5043 47.6566 34.1631 48.0023 34.1631 48.4287C34.1631 48.8551 34.5043 49.2008 34.9259 49.2008H44.4011V52.4558H24.4625V36.0187H31.6664V38.4899H28.0646C27.6434 38.4899 27.3019 38.8356 27.3019 39.262C27.3019 39.6884 27.6434 40.0341 28.0646 40.0341H32.4291H37.9053V42.7323H31.1837C30.7621 42.7323 30.421 43.078 30.421 43.5044C30.421 43.9307 30.7621 44.2764 31.1837 44.2764H38.668H44.4011V47.6566ZM24.4625 34.4745V31.0645H31.6664V34.4745H24.4625ZM44.4011 42.7323H39.4307V39.262C39.4307 38.8356 39.0896 38.4899 38.668 38.4899H33.1918V31.0645H44.4011V42.7323ZM34.432 19.6509L45.5743 29.5203H23.2897L34.432 19.6509ZM51.3767 21.6708H48.8613V12.1475H51.3767V21.6708ZM14.8744 5.02597H54.4745V10.6033H14.8744V5.02597ZM6.10076 2.54419H13.3489V4.25388V11.3754V15.6891L6.10076 6.40946V2.54419ZM6.10076 8.89949L12.5363 17.1386H6.10076V8.89949ZM6.10076 18.6828H13.3489V28.2858L6.10076 19.0061V18.6828ZM6.10076 21.4962L12.5363 29.7352H6.10076V21.4962ZM6.10076 31.2794H13.3489V40.6819L6.10076 31.4022V31.2794ZM6.10076 33.8923L12.5363 42.1313H6.10076V33.8923ZM2.52546 2.54419H4.5753V52.4558H2.52546V2.54419Z" stroke="#004B8B" stroke-width="0.8" mask="url(#path-1-outside-1_471_1310)"/>
</svg>
