<svg width="73" height="63" viewBox="0 0 73 63" fill="none" xmlns="http://www.w3.org/2000/svg">
<path d="M8.19538 2.35743L8.19552 2.35743C11.8879 2.35743 14.9465 5.12676 15.4227 8.70477H26.8852V2.03291C26.8852 1.4062 27.3923 0.9 28.0144 0.9H51.6564C52.2817 0.9 52.7855 1.4094 52.7855 2.03291V8.70653C58.9577 8.82437 62.744 10.4801 64.9959 12.7993C67.2593 15.1303 67.957 18.1154 67.9881 20.8329C68.0251 23.9381 67.0075 26.6362 65.0411 28.6326L64.9725 28.565L65.0411 28.6327C62.4393 31.2722 58.3086 32.6501 52.7848 32.7582V39.1545C52.7848 39.7812 52.2778 40.2874 51.6556 40.2874H28.0137C27.3884 40.2874 26.8845 39.778 26.8845 39.1545V32.6349C21.9862 32.7506 18.4234 33.9241 16.2684 36.1119C14.7052 37.7003 13.9262 39.7929 13.9541 42.3427C13.9917 45.571 15.1044 48.0122 17.2688 49.6715C19.4209 51.3213 22.6259 52.2083 26.8844 52.3077V45.3607C26.8844 44.734 27.3915 44.2278 28.0136 44.2278H51.6556C52.2809 44.2278 52.7847 44.7372 52.7847 45.3607V52.3269H68.1489L65.4712 49.6393C65.0319 49.1984 65.0319 48.4817 65.4712 48.0408C65.9106 47.5997 66.6254 47.5997 67.0649 48.0408L71.7319 52.7248L71.7402 52.7246L71.7706 52.7551C72.2098 53.196 72.2098 53.9127 71.7706 54.3536L67.1522 58.9889C66.9326 59.2093 66.6417 59.3211 66.3539 59.3211C66.0631 59.3211 65.7751 59.2092 65.5556 58.9889C65.1164 58.548 65.1164 57.8312 65.5556 57.3904L68.3434 54.5924H52.7879V60.9671C52.7879 61.5938 52.2809 62.1 51.6588 62.1H28.0168C27.3915 62.1 26.8876 61.5906 26.8876 60.9671V54.5706C20.7248 54.4344 16.9427 52.7651 14.6926 50.435C12.4311 48.093 11.7328 45.0994 11.7016 42.3734M8.19538 2.35743L14.7367 34.5961C17.3251 31.9672 21.4474 30.5834 26.985 30.473M8.19538 2.35743C4.17005 2.36317 0.9 5.64553 0.9 9.68207C0.9 13.7186 4.17284 17.0039 8.19552 17.0039C11.7804 17.0039 14.7652 14.3951 15.3738 10.9707H26.8849V17.6397C26.8849 18.2632 27.3887 18.7726 28.014 18.7726H51.656C52.2781 18.7726 52.7852 18.2664 52.7852 17.6397V10.9697C57.0494 11.055 60.2594 11.9289 62.4147 13.5665C64.5822 15.2134 65.6963 17.6431 65.7328 20.8612C65.7608 23.3911 64.9873 25.4695 63.4382 27.0438C61.2834 29.2315 57.7094 30.3969 52.7853 30.4985M8.19538 2.35743L52.7853 30.4985M11.7016 42.3734L11.8016 42.3723L11.7016 42.3734C11.7016 42.3734 11.7016 42.3734 11.7016 42.3734ZM11.7016 42.3734C11.6647 39.2488 12.6879 36.5337 14.6655 34.526C17.2642 31.8865 21.3834 30.5001 26.885 30.3751M26.885 30.3751V30.473H26.985M26.885 30.3751V23.5512C26.885 22.9245 27.392 22.4183 28.0142 22.4183H51.6562C52.2815 22.4183 52.7853 22.9277 52.7853 23.5512V30.4985M26.885 30.3751C26.9176 30.3744 26.9503 30.3737 26.983 30.3731L26.985 30.473M26.985 30.473L52.7853 30.4985M8.19213 14.7405C5.41404 14.7405 3.15209 12.4708 3.15209 9.68171C3.15209 6.89258 5.41404 4.62289 8.19213 4.62289C10.9702 4.62289 13.2322 6.89258 13.2322 9.68171C13.2322 12.4708 10.9702 14.7405 8.19213 14.7405ZM50.5263 16.5092H29.14V3.16574H50.5263V16.5092ZM29.14 24.6809H50.5263V38.0215H29.14V24.6809ZM50.5263 59.8344H29.14V46.4939H50.5263V59.8344Z" fill="#004B8B" stroke="#004B8B" stroke-width="0.2"/>
</svg>
