<svg width="74" height="62" viewBox="0 0 74 62" fill="none" xmlns="http://www.w3.org/2000/svg">
<mask id="path-1-outside-1_471_1313" maskUnits="userSpaceOnUse" x="0" y="0" width="74" height="62" fill="black">
<rect fill="white" width="74" height="62"/>
<path d="M31.195 1.00493C29.9068 1.03026 28.5006 1.44969 27.1 2.47716C24.0316 4.72629 23.0106 8.80797 24.5097 12.8584C26.0031 16.8951 29.8759 20.9683 36.471 23.9294C36.4823 23.935 36.4935 23.9406 36.5048 23.9463C36.5188 23.9519 36.5301 23.9603 36.5413 23.9631C36.5554 23.9688 36.5723 23.9716 36.5863 23.9744C36.6426 23.9997 36.7016 24.0194 36.7635 24.0335C36.7916 24.0392 36.8226 24.042 36.8507 24.0448C36.9013 24.0532 36.9491 24.056 36.9998 24.0589C37.0476 24.056 37.0954 24.0532 37.1432 24.0448C37.1769 24.042 37.2079 24.0392 37.2388 24.0335C37.2979 24.0194 37.3569 23.9997 37.4132 23.9772C37.4272 23.9716 37.4413 23.966 37.4554 23.9603C37.4694 23.9547 37.4807 23.9463 37.4919 23.9434H37.4948C37.5032 23.9378 37.5144 23.9322 37.5257 23.9266C44.121 20.9652 47.9938 16.8921 49.4899 12.8556C50.989 8.80494 49.9652 4.72341 46.8968 2.47434C45.4034 1.37936 43.9127 0.979628 42.5543 1.00211C41.1959 1.02745 39.9697 1.47784 39.0247 2.07461C38.1781 2.60945 37.4975 3.24563 36.9997 3.7889C36.5018 3.24844 35.8212 2.60946 34.9747 2.07461C34.0268 1.47503 32.8118 1.02467 31.4534 1.00211C31.369 0.999296 31.2819 0.999296 31.1975 1.00211L31.195 1.00493ZM31.285 3.1696C32.2272 3.15271 33.0344 3.51302 33.7768 3.9803C35.1718 4.86141 36.0522 6.20688 36.0522 6.20688V6.2097C36.0944 6.27163 36.1422 6.33074 36.1956 6.38141C36.2547 6.44334 36.3222 6.49401 36.3925 6.54186C36.4628 6.5869 36.5387 6.62349 36.6175 6.65164C36.6794 6.67135 36.7384 6.68824 36.8003 6.69668C36.8256 6.70231 36.8481 6.70794 36.8734 6.71357C36.9156 6.71638 36.9578 6.71639 37 6.71639C37.0394 6.71639 37.0816 6.71638 37.1237 6.71357C37.1519 6.70794 37.1828 6.70231 37.2109 6.69668C37.2672 6.68824 37.3263 6.67416 37.3825 6.65446C37.4613 6.62631 37.5344 6.5869 37.6047 6.54186C37.6131 6.53904 37.6187 6.53341 37.6244 6.5306C37.6666 6.50245 37.7031 6.4743 37.7397 6.44052C37.7425 6.43771 37.7453 6.43489 37.7481 6.43208C37.7678 6.418 37.7847 6.40111 37.8016 6.38422C37.8044 6.37859 37.8072 6.37578 37.81 6.37015C37.8466 6.33355 37.8775 6.29696 37.9084 6.25473C37.9112 6.25192 37.9112 6.2491 37.9141 6.24629C37.9253 6.23503 37.9366 6.22095 37.9478 6.20688C37.9478 6.20688 38.8366 4.86133 40.2316 3.9803C41.6266 3.09927 43.2494 2.59253 45.5725 4.29557C47.8169 5.94234 48.6101 8.76004 47.3838 12.0733C46.1856 15.3048 42.9428 18.9388 37.0028 21.6972C31.0628 18.9385 27.8199 15.3045 26.6219 12.0733C25.3956 8.76004 26.1887 5.93953 28.4331 4.29557C29.5215 3.49611 30.4581 3.18365 31.2906 3.16679L31.285 3.1696ZM15.9036 19.099C11.0521 19.099 7.08364 23.0258 7.08364 27.8509C7.08364 30.8995 8.66987 33.5877 11.0577 35.1559C5.20768 37.1488 1 42.6547 1 49.146V59.8768C1 60.1752 1.12094 60.4623 1.33188 60.6735C1.54282 60.8818 1.82969 61 2.13064 61H71.8806H71.8778C72.4966 60.9972 73 60.4961 73 59.8768V49.146C73 42.652 68.7925 37.1491 62.9366 35.1588C65.3272 33.5908 66.9106 30.9026 66.9106 27.8538C66.9106 23.0262 62.9422 19.1019 58.0906 19.1019C53.239 19.1019 49.2706 23.0287 49.2706 27.8538C49.2706 30.9024 50.854 33.5906 53.2418 35.1559C49.5406 36.4114 46.4975 39.0715 44.7624 42.5055C43.8006 41.8412 42.7486 41.3007 41.6264 40.8982C43.7246 39.4401 45.1027 37.022 45.1027 34.2943C45.1027 29.8551 41.4521 26.2406 36.9969 26.2406C32.5418 26.2406 28.8998 29.855 28.8998 34.2943C28.8998 37.022 30.2751 39.4372 32.3704 40.8954C31.2482 41.2979 30.1964 41.8412 29.2345 42.5055C27.4991 39.0741 24.4532 36.414 20.7521 35.1559C23.1399 33.588 24.7234 30.8997 24.7234 27.8538C24.7234 23.0262 20.7549 19.1019 15.9034 19.1019L15.9036 19.099ZM15.9036 21.3509C19.5514 21.3509 22.4736 24.2531 22.4736 27.8506C22.4736 31.4481 19.5514 34.3587 15.9036 34.3587C12.2558 34.3587 9.33645 31.4508 9.33645 27.8506C9.33645 24.2531 12.2558 21.3509 15.9036 21.3509ZM58.0913 21.3509C61.7391 21.3509 64.6613 24.2531 64.6613 27.8506C64.6613 31.4481 61.7391 34.3587 58.0913 34.3587C54.4435 34.3587 51.5241 31.4508 51.5241 27.8506C51.5241 24.2531 54.4435 21.3509 58.0913 21.3509ZM36.9975 28.4924C40.2459 28.4924 42.8531 31.0822 42.8531 34.294C42.8531 37.5058 40.2459 40.0956 36.9975 40.0956C33.749 40.0956 31.1503 37.5058 31.1503 34.294C31.1503 31.0822 33.749 28.4924 36.9975 28.4924ZM15.9036 36.6138C21.0702 36.6138 25.4717 39.6314 27.4488 43.9779C24.9429 46.4297 23.3876 49.8386 23.3876 53.6162V58.745H3.24993V49.1463C3.24993 42.1879 8.86931 36.614 15.9061 36.614L15.9036 36.6138ZM58.0913 36.6138C65.1281 36.6138 70.7475 42.1902 70.7475 49.1462V58.7449H50.6184V53.6161C50.6184 49.8412 49.0631 46.4295 46.5572 43.9806C48.5344 39.6344 52.9244 36.6138 58.0913 36.6138ZM37.0004 42.3478C39.8663 42.3478 42.4707 43.3781 44.4617 45.0868C44.4955 45.1234 44.532 45.1543 44.5742 45.1853C46.9086 47.243 48.3682 50.2493 48.3682 53.6159V58.7447H25.6321V53.6159C25.6321 50.2605 27.0805 47.2682 29.3981 45.2105C29.4852 45.1542 29.5668 45.0838 29.6371 45.0022C31.6143 43.3414 34.1793 42.3449 37.0006 42.3449L37.0004 42.3478Z"/>
</mask>
<path d="M31.195 1.00493C29.9068 1.03026 28.5006 1.44969 27.1 2.47716C24.0316 4.72629 23.0106 8.80797 24.5097 12.8584C26.0031 16.8951 29.8759 20.9683 36.471 23.9294C36.4823 23.935 36.4935 23.9406 36.5048 23.9463C36.5188 23.9519 36.5301 23.9603 36.5413 23.9631C36.5554 23.9688 36.5723 23.9716 36.5863 23.9744C36.6426 23.9997 36.7016 24.0194 36.7635 24.0335C36.7916 24.0392 36.8226 24.042 36.8507 24.0448C36.9013 24.0532 36.9491 24.056 36.9998 24.0589C37.0476 24.056 37.0954 24.0532 37.1432 24.0448C37.1769 24.042 37.2079 24.0392 37.2388 24.0335C37.2979 24.0194 37.3569 23.9997 37.4132 23.9772C37.4272 23.9716 37.4413 23.966 37.4554 23.9603C37.4694 23.9547 37.4807 23.9463 37.4919 23.9434H37.4948C37.5032 23.9378 37.5144 23.9322 37.5257 23.9266C44.121 20.9652 47.9938 16.8921 49.4899 12.8556C50.989 8.80494 49.9652 4.72341 46.8968 2.47434C45.4034 1.37936 43.9127 0.979628 42.5543 1.00211C41.1959 1.02745 39.9697 1.47784 39.0247 2.07461C38.1781 2.60945 37.4975 3.24563 36.9997 3.7889C36.5018 3.24844 35.8212 2.60946 34.9747 2.07461C34.0268 1.47503 32.8118 1.02467 31.4534 1.00211C31.369 0.999296 31.2819 0.999296 31.1975 1.00211L31.195 1.00493ZM31.285 3.1696C32.2272 3.15271 33.0344 3.51302 33.7768 3.9803C35.1718 4.86141 36.0522 6.20688 36.0522 6.20688V6.2097C36.0944 6.27163 36.1422 6.33074 36.1956 6.38141C36.2547 6.44334 36.3222 6.49401 36.3925 6.54186C36.4628 6.5869 36.5387 6.62349 36.6175 6.65164C36.6794 6.67135 36.7384 6.68824 36.8003 6.69668C36.8256 6.70231 36.8481 6.70794 36.8734 6.71357C36.9156 6.71638 36.9578 6.71639 37 6.71639C37.0394 6.71639 37.0816 6.71638 37.1237 6.71357C37.1519 6.70794 37.1828 6.70231 37.2109 6.69668C37.2672 6.68824 37.3263 6.67416 37.3825 6.65446C37.4613 6.62631 37.5344 6.5869 37.6047 6.54186C37.6131 6.53904 37.6187 6.53341 37.6244 6.5306C37.6666 6.50245 37.7031 6.4743 37.7397 6.44052C37.7425 6.43771 37.7453 6.43489 37.7481 6.43208C37.7678 6.418 37.7847 6.40111 37.8016 6.38422C37.8044 6.37859 37.8072 6.37578 37.81 6.37015C37.8466 6.33355 37.8775 6.29696 37.9084 6.25473C37.9112 6.25192 37.9112 6.2491 37.9141 6.24629C37.9253 6.23503 37.9366 6.22095 37.9478 6.20688C37.9478 6.20688 38.8366 4.86133 40.2316 3.9803C41.6266 3.09927 43.2494 2.59253 45.5725 4.29557C47.8169 5.94234 48.6101 8.76004 47.3838 12.0733C46.1856 15.3048 42.9428 18.9388 37.0028 21.6972C31.0628 18.9385 27.8199 15.3045 26.6219 12.0733C25.3956 8.76004 26.1887 5.93953 28.4331 4.29557C29.5215 3.49611 30.4581 3.18365 31.2906 3.16679L31.285 3.1696ZM15.9036 19.099C11.0521 19.099 7.08364 23.0258 7.08364 27.8509C7.08364 30.8995 8.66987 33.5877 11.0577 35.1559C5.20768 37.1488 1 42.6547 1 49.146V59.8768C1 60.1752 1.12094 60.4623 1.33188 60.6735C1.54282 60.8818 1.82969 61 2.13064 61H71.8806H71.8778C72.4966 60.9972 73 60.4961 73 59.8768V49.146C73 42.652 68.7925 37.1491 62.9366 35.1588C65.3272 33.5908 66.9106 30.9026 66.9106 27.8538C66.9106 23.0262 62.9422 19.1019 58.0906 19.1019C53.239 19.1019 49.2706 23.0287 49.2706 27.8538C49.2706 30.9024 50.854 33.5906 53.2418 35.1559C49.5406 36.4114 46.4975 39.0715 44.7624 42.5055C43.8006 41.8412 42.7486 41.3007 41.6264 40.8982C43.7246 39.4401 45.1027 37.022 45.1027 34.2943C45.1027 29.8551 41.4521 26.2406 36.9969 26.2406C32.5418 26.2406 28.8998 29.855 28.8998 34.2943C28.8998 37.022 30.2751 39.4372 32.3704 40.8954C31.2482 41.2979 30.1964 41.8412 29.2345 42.5055C27.4991 39.0741 24.4532 36.414 20.7521 35.1559C23.1399 33.588 24.7234 30.8997 24.7234 27.8538C24.7234 23.0262 20.7549 19.1019 15.9034 19.1019L15.9036 19.099ZM15.9036 21.3509C19.5514 21.3509 22.4736 24.2531 22.4736 27.8506C22.4736 31.4481 19.5514 34.3587 15.9036 34.3587C12.2558 34.3587 9.33645 31.4508 9.33645 27.8506C9.33645 24.2531 12.2558 21.3509 15.9036 21.3509ZM58.0913 21.3509C61.7391 21.3509 64.6613 24.2531 64.6613 27.8506C64.6613 31.4481 61.7391 34.3587 58.0913 34.3587C54.4435 34.3587 51.5241 31.4508 51.5241 27.8506C51.5241 24.2531 54.4435 21.3509 58.0913 21.3509ZM36.9975 28.4924C40.2459 28.4924 42.8531 31.0822 42.8531 34.294C42.8531 37.5058 40.2459 40.0956 36.9975 40.0956C33.749 40.0956 31.1503 37.5058 31.1503 34.294C31.1503 31.0822 33.749 28.4924 36.9975 28.4924ZM15.9036 36.6138C21.0702 36.6138 25.4717 39.6314 27.4488 43.9779C24.9429 46.4297 23.3876 49.8386 23.3876 53.6162V58.745H3.24993V49.1463C3.24993 42.1879 8.86931 36.614 15.9061 36.614L15.9036 36.6138ZM58.0913 36.6138C65.1281 36.6138 70.7475 42.1902 70.7475 49.1462V58.7449H50.6184V53.6161C50.6184 49.8412 49.0631 46.4295 46.5572 43.9806C48.5344 39.6344 52.9244 36.6138 58.0913 36.6138ZM37.0004 42.3478C39.8663 42.3478 42.4707 43.3781 44.4617 45.0868C44.4955 45.1234 44.532 45.1543 44.5742 45.1853C46.9086 47.243 48.3682 50.2493 48.3682 53.6159V58.7447H25.6321V53.6159C25.6321 50.2605 27.0805 47.2682 29.3981 45.2105C29.4852 45.1542 29.5668 45.0838 29.6371 45.0022C31.6143 43.3414 34.1793 42.3449 37.0006 42.3449L37.0004 42.3478Z" fill="#004B8B"/>
<path d="M31.195 1.00493C29.9068 1.03026 28.5006 1.44969 27.1 2.47716C24.0316 4.72629 23.0106 8.80797 24.5097 12.8584C26.0031 16.8951 29.8759 20.9683 36.471 23.9294C36.4823 23.935 36.4935 23.9406 36.5048 23.9463C36.5188 23.9519 36.5301 23.9603 36.5413 23.9631C36.5554 23.9688 36.5723 23.9716 36.5863 23.9744C36.6426 23.9997 36.7016 24.0194 36.7635 24.0335C36.7916 24.0392 36.8226 24.042 36.8507 24.0448C36.9013 24.0532 36.9491 24.056 36.9998 24.0589C37.0476 24.056 37.0954 24.0532 37.1432 24.0448C37.1769 24.042 37.2079 24.0392 37.2388 24.0335C37.2979 24.0194 37.3569 23.9997 37.4132 23.9772C37.4272 23.9716 37.4413 23.966 37.4554 23.9603C37.4694 23.9547 37.4807 23.9463 37.4919 23.9434H37.4948C37.5032 23.9378 37.5144 23.9322 37.5257 23.9266C44.121 20.9652 47.9938 16.8921 49.4899 12.8556C50.989 8.80494 49.9652 4.72341 46.8968 2.47434C45.4034 1.37936 43.9127 0.979628 42.5543 1.00211C41.1959 1.02745 39.9697 1.47784 39.0247 2.07461C38.1781 2.60945 37.4975 3.24563 36.9997 3.7889C36.5018 3.24844 35.8212 2.60946 34.9747 2.07461C34.0268 1.47503 32.8118 1.02467 31.4534 1.00211C31.369 0.999296 31.2819 0.999296 31.1975 1.00211L31.195 1.00493ZM31.285 3.1696C32.2272 3.15271 33.0344 3.51302 33.7768 3.9803C35.1718 4.86141 36.0522 6.20688 36.0522 6.20688V6.2097C36.0944 6.27163 36.1422 6.33074 36.1956 6.38141C36.2547 6.44334 36.3222 6.49401 36.3925 6.54186C36.4628 6.5869 36.5387 6.62349 36.6175 6.65164C36.6794 6.67135 36.7384 6.68824 36.8003 6.69668C36.8256 6.70231 36.8481 6.70794 36.8734 6.71357C36.9156 6.71638 36.9578 6.71639 37 6.71639C37.0394 6.71639 37.0816 6.71638 37.1237 6.71357C37.1519 6.70794 37.1828 6.70231 37.2109 6.69668C37.2672 6.68824 37.3263 6.67416 37.3825 6.65446C37.4613 6.62631 37.5344 6.5869 37.6047 6.54186C37.6131 6.53904 37.6187 6.53341 37.6244 6.5306C37.6666 6.50245 37.7031 6.4743 37.7397 6.44052C37.7425 6.43771 37.7453 6.43489 37.7481 6.43208C37.7678 6.418 37.7847 6.40111 37.8016 6.38422C37.8044 6.37859 37.8072 6.37578 37.81 6.37015C37.8466 6.33355 37.8775 6.29696 37.9084 6.25473C37.9112 6.25192 37.9112 6.2491 37.9141 6.24629C37.9253 6.23503 37.9366 6.22095 37.9478 6.20688C37.9478 6.20688 38.8366 4.86133 40.2316 3.9803C41.6266 3.09927 43.2494 2.59253 45.5725 4.29557C47.8169 5.94234 48.6101 8.76004 47.3838 12.0733C46.1856 15.3048 42.9428 18.9388 37.0028 21.6972C31.0628 18.9385 27.8199 15.3045 26.6219 12.0733C25.3956 8.76004 26.1887 5.93953 28.4331 4.29557C29.5215 3.49611 30.4581 3.18365 31.2906 3.16679L31.285 3.1696ZM15.9036 19.099C11.0521 19.099 7.08364 23.0258 7.08364 27.8509C7.08364 30.8995 8.66987 33.5877 11.0577 35.1559C5.20768 37.1488 1 42.6547 1 49.146V59.8768C1 60.1752 1.12094 60.4623 1.33188 60.6735C1.54282 60.8818 1.82969 61 2.13064 61H71.8806H71.8778C72.4966 60.9972 73 60.4961 73 59.8768V49.146C73 42.652 68.7925 37.1491 62.9366 35.1588C65.3272 33.5908 66.9106 30.9026 66.9106 27.8538C66.9106 23.0262 62.9422 19.1019 58.0906 19.1019C53.239 19.1019 49.2706 23.0287 49.2706 27.8538C49.2706 30.9024 50.854 33.5906 53.2418 35.1559C49.5406 36.4114 46.4975 39.0715 44.7624 42.5055C43.8006 41.8412 42.7486 41.3007 41.6264 40.8982C43.7246 39.4401 45.1027 37.022 45.1027 34.2943C45.1027 29.8551 41.4521 26.2406 36.9969 26.2406C32.5418 26.2406 28.8998 29.855 28.8998 34.2943C28.8998 37.022 30.2751 39.4372 32.3704 40.8954C31.2482 41.2979 30.1964 41.8412 29.2345 42.5055C27.4991 39.0741 24.4532 36.414 20.7521 35.1559C23.1399 33.588 24.7234 30.8997 24.7234 27.8538C24.7234 23.0262 20.7549 19.1019 15.9034 19.1019L15.9036 19.099ZM15.9036 21.3509C19.5514 21.3509 22.4736 24.2531 22.4736 27.8506C22.4736 31.4481 19.5514 34.3587 15.9036 34.3587C12.2558 34.3587 9.33645 31.4508 9.33645 27.8506C9.33645 24.2531 12.2558 21.3509 15.9036 21.3509ZM58.0913 21.3509C61.7391 21.3509 64.6613 24.2531 64.6613 27.8506C64.6613 31.4481 61.7391 34.3587 58.0913 34.3587C54.4435 34.3587 51.5241 31.4508 51.5241 27.8506C51.5241 24.2531 54.4435 21.3509 58.0913 21.3509ZM36.9975 28.4924C40.2459 28.4924 42.8531 31.0822 42.8531 34.294C42.8531 37.5058 40.2459 40.0956 36.9975 40.0956C33.749 40.0956 31.1503 37.5058 31.1503 34.294C31.1503 31.0822 33.749 28.4924 36.9975 28.4924ZM15.9036 36.6138C21.0702 36.6138 25.4717 39.6314 27.4488 43.9779C24.9429 46.4297 23.3876 49.8386 23.3876 53.6162V58.745H3.24993V49.1463C3.24993 42.1879 8.86931 36.614 15.9061 36.614L15.9036 36.6138ZM58.0913 36.6138C65.1281 36.6138 70.7475 42.1902 70.7475 49.1462V58.7449H50.6184V53.6161C50.6184 49.8412 49.0631 46.4295 46.5572 43.9806C48.5344 39.6344 52.9244 36.6138 58.0913 36.6138ZM37.0004 42.3478C39.8663 42.3478 42.4707 43.3781 44.4617 45.0868C44.4955 45.1234 44.532 45.1543 44.5742 45.1853C46.9086 47.243 48.3682 50.2493 48.3682 53.6159V58.7447H25.6321V53.6159C25.6321 50.2605 27.0805 47.2682 29.3981 45.2105C29.4852 45.1542 29.5668 45.0838 29.6371 45.0022C31.6143 43.3414 34.1793 42.3449 37.0006 42.3449L37.0004 42.3478Z" stroke="#004B8B" stroke-width="0.4" mask="url(#path-1-outside-1_471_1313)"/>
</svg>
