<svg width="54" height="54" viewBox="0 0 54 54" fill="none" xmlns="http://www.w3.org/2000/svg">
<path d="M36.7708 26.4292C36.7706 26.4289 36.7704 26.4286 36.7701 26.4284L32.688 22.2348C32.3821 21.9207 31.8875 21.9219 31.5831 22.2376C31.2787 22.5533 31.2799 23.0639 31.5857 23.3781L34.3265 26.1935H17.7812C17.3498 26.1935 17 26.5546 17 27C17 27.4454 17.3498 27.8065 17.7812 27.8065H34.3264L31.5857 30.6219C31.2799 30.9361 31.2787 31.4467 31.5831 31.7624C31.8875 32.0782 32.3822 32.0793 32.688 31.7652L36.7702 27.5716C36.7704 27.5714 36.7706 27.5711 36.7709 27.5708C37.0769 27.2556 37.0759 26.7433 36.7708 26.4292Z" fill="white"/>
<circle cx="27" cy="27" r="26" stroke="white" stroke-width="2"/>
</svg>
