<svg width="123" height="239" viewBox="0 0 123 239" fill="none" xmlns="http://www.w3.org/2000/svg">
<path d="M33.9901 14.4505C33.9901 14.4505 36.8301 13.4705 38.7801 9.95047C38.7801 9.95047 38.9801 9.36047 38.1901 7.41047C38.1901 7.41047 37.5101 4.87047 40.3401 2.81047C40.3401 2.81047 43.2701 1.73047 45.0401 3.49047C45.0401 3.49047 46.0201 4.31047 48.0701 2.48047L51.7901 2.90047C51.7901 2.90047 53.2601 4.47047 54.9201 4.95047C54.9201 4.95047 57.0301 5.05047 58.9101 8.08047L62.2601 8.46047C62.2601 8.46047 64.7101 9.26047 65.7801 9.75047C65.7801 9.75047 68.2301 12.4905 71.6501 14.4505H78.4001L79.2801 15.9205L80.0601 19.7405L80.6501 22.8705V24.1405L85.8301 27.3705L87.8801 33.1405L88.8601 36.0705L94.7301 40.0805L98.0601 42.3305C98.0601 42.3305 99.1401 45.9505 98.0601 47.7105L97.4701 48.7905L99.8201 52.6105H102.07L104.12 53.9805L107.64 55.0605L108.91 56.1405L111.55 57.9005L115.27 60.1505L118.11 61.2305H122.12C122.12 61.2305 123.69 63.1905 119.19 64.3605L120.95 64.8505L120.56 68.5705L120.17 71.7005L120.95 73.9505C120.95 73.9505 121.34 76.9805 119.48 76.7905L116.55 76.3005C116.55 76.3005 118.6 76.9805 119.09 77.6705C119.09 77.6705 120.85 79.1405 119.09 80.6005L117.23 82.8505L116.25 85.3905L114.68 87.2505H111.35C111.35 87.2505 109.2 84.4105 111.15 81.7705L112.42 80.6905C112.42 80.6905 110.17 79.7105 109.29 82.8405C109.29 82.8405 108.12 84.8905 110.76 87.2405C110.76 87.2405 112.52 88.0205 107.43 89.8805H104.01L106.55 91.3505C106.55 91.3505 109.29 89.4905 112.22 89.8805C112.22 89.8805 114.86 90.2705 109.58 93.9905C109.58 93.9905 108.8 94.9705 108.99 99.2705C108.99 99.2705 107.62 103.48 103.32 100.54L101.56 97.1205L100.58 94.8705C100.58 94.8705 99.9001 95.5505 98.5301 95.5505C98.5301 95.5505 99.8001 95.9405 100 97.9005L100.78 100.83C100.78 100.83 101.17 102.1 103.71 103.86C103.71 103.86 107.23 106.7 103.22 109.34C103.22 109.34 101.46 110.22 97.7401 107.77L98.1301 108.75L97.6401 110.02L98.6201 110.8L95.9801 111.39C95.9801 111.39 94.4101 113.05 93.1401 109.63L92.6501 110.71L93.1401 112.86L91.9701 115.01C91.9701 115.01 92.8501 113.64 97.9401 112.56C97.9401 112.56 101.76 110.7 103.52 113.05C103.52 113.05 106.16 116.47 102.15 117.35C102.15 117.35 104.01 118.33 104.01 119.01C104.01 119.01 103.91 120.28 104.21 121.94L107.24 126.34L107.34 127.71C107.34 127.71 103.33 131.72 102.16 132.21C102.16 132.21 99.8101 133.68 96.4901 128.3C95.9001 126.54 94.4401 123.9 92.0901 123.12C92.0901 123.12 88.5701 122.44 87.8801 123.12C87.8801 123.12 92.8701 121.95 96.2001 129.67C96.2001 129.67 96.8801 133.97 102.27 133.29C102.27 133.29 105.99 128.3 109.41 129.87C109.41 129.87 112.25 132.02 111.66 135.25C111.66 135.25 111.66 141.12 110.68 146.5L109.7 149.92L108.72 152.27C108.72 152.27 98.1501 164.6 90.1301 169.49C82.1101 174.38 78.1801 176.53 78.1801 176.53C78.1801 176.53 77.5101 177.9 72.9101 177.31C72.9101 177.31 68.3101 176.23 66.5501 179.36C66.5501 179.36 64.5001 180.73 64.5901 177.7C64.5901 177.7 65.9601 175.35 68.1101 174.37L69.2801 172.9C69.2801 172.9 65.8601 176.72 64.8801 172.7L64.4901 170.55L63.9001 173.09C63.9001 173.09 61.7001 170.64 58.8901 175.05C58.8901 175.05 58.1301 176.22 55.3901 173.78C55.3901 173.78 52.5501 174.17 50.7901 176.62C50.7901 176.62 49.8101 177.7 48.2501 175.35C48.2501 175.35 46.9801 174.27 46.9801 175.64L49.3301 181.71C49.3301 181.71 50.5001 183.86 48.0601 184.74L45.7101 184.15L45.0301 184.74L46.6001 185.52L46.6501 186.25L44.6901 185.96C44.6901 185.96 45.3301 186.11 46.6501 186.94L46.4501 187.82C46.4501 187.82 45.6201 187.09 44.7901 187.09C44.7901 187.09 43.3201 187.43 44.0601 187.82C44.0601 187.82 45.2801 186.99 45.9701 188.46L45.5801 188.9H43.1801L43.0801 189.68H43.7601V190.8C43.7601 190.8 44.5901 190.85 44.6401 191.09C44.6401 191.09 44.4901 191.77 43.2201 192.56L42.7801 194.57L42.4401 196.28L41.4101 197.55L42.6301 197.79L43.7501 197.11L44.2901 197.79L43.4101 198.38H42.0901L41.9901 199.26L41.8401 200.14L41.4001 200.58L40.9101 199.85L41.0101 198.63L40.7701 197.75L39.8901 197.9L39.5501 199.61L40.5801 200.2V201.03H39.0101L39.1601 202.64L38.9601 203.28H40.4801C40.4801 203.28 40.6301 201.18 41.2101 202.16C41.2101 202.16 42.1901 204.65 40.9201 206.76C40.9201 206.76 40.0401 211.26 39.6501 211.85L39.1101 211.21C39.1101 211.21 39.1101 209.3 39.2101 209.11C39.3101 208.92 40.4301 204.85 40.4301 204.85L40.0901 203.87C40.0901 203.87 38.9201 207.29 38.9201 207.49C38.9201 207.69 38.3301 208.91 38.3301 208.91L38.1801 207.54L38.1301 205.53L37.3001 209.3L37.4001 210.03L38.3801 210.27L39.4101 213.45L39.7001 215.5L39.8501 216.53L39.0701 216.24L38.4301 213.79C38.4301 213.79 36.6201 213.55 37.4001 215.01L35.2001 216.72L36.3201 218.33L37.6401 220.82C37.6401 220.82 37.2001 223.27 34.8501 220.38C34.8501 220.38 33.1901 219.28 33.2401 221.79C33.2401 221.79 33.2901 223.56 31.2801 223.9L31.9601 224.54L30.0501 227.13L28.6801 226.59L28.2901 226.74C28.2901 226.74 29.4601 227.08 29.3201 227.72L28.2901 230.12L27.2101 228.75L23.7901 230.56L25.3101 231.88C25.3101 231.88 24.6301 232.52 23.7901 232.56C23.7901 232.56 24.3301 234.47 22.2201 235.64V237.4L19.4301 238.57C19.4301 238.57 16.1501 237.1 15.4201 233.24C15.4201 233.24 14.4901 228.5 18.0601 225.02L20.5101 227.51L23.1001 224.67L22.3201 223.64C22.3201 223.64 22.4201 221.44 24.6701 222.81C24.6701 222.81 25.5001 222.71 26.2401 223.74C26.2401 223.74 27.2701 223.1 27.7601 222.27C27.7601 222.27 29.2301 221.34 27.4201 220.07C27.4201 220.07 25.1201 220.27 24.4401 219.24C24.4401 219.24 23.1201 218.46 24.7301 216.7C24.7301 216.7 26.4401 215.77 27.0801 211.96L27.0301 208.14C27.0301 208.14 26.7401 204.67 20.2301 200.46C20.2301 200.46 18.7601 199.38 17.5401 201.34C17.5401 201.34 17.1501 202.56 15.6801 202.12C15.6801 202.12 14.4101 204.22 12.6001 204.91C12.6001 204.91 11.6701 206.13 10.9401 206.72C10.9401 206.72 10.4001 207.65 10.7001 208.53C10.7001 208.53 10.4601 210.58 8.84006 210.14C8.84006 210.14 7.86006 209.9 8.84006 207.84C8.84006 207.84 9.38006 206.96 8.11006 205.05C8.11006 205.05 7.57006 203.63 8.94006 201.38C8.94006 201.38 14.0301 194.53 14.7101 192.62C14.7101 192.62 15.4401 192.13 14.3701 191.01C14.3701 191.01 13.5401 189.98 15.2001 188.61L15.8401 187.88L16.2301 186.9L16.6701 186.7V185.09L18.0901 184.85L20.4901 182.89L21.6601 181.57C21.6601 181.57 22.3901 179.71 20.5401 179.27C20.5401 179.27 19.7601 180.59 19.4201 178.88C19.4201 178.88 19.3701 178.44 20.2501 177.61L19.9601 169.78L20.3001 168.46L23.0401 162.98C23.0401 162.98 23.1901 161.61 22.5001 160.49L22.3001 158.78L22.2501 156.38C22.2501 156.38 22.1501 155.7 21.7101 154.57L21.9501 154.23L23.3201 155.21C23.3201 155.21 25.1301 158.1 25.1801 158.98C25.1801 158.98 26.4001 160.79 29.1401 159.13C29.1401 159.13 31.7301 158.93 35.6901 150.91C35.6901 150.91 37.3001 146.56 35.2501 142.84C35.2501 142.84 33.9301 142.01 37.2601 141.52C37.2601 141.52 38.7301 141.81 40.9801 140.15C40.9801 140.15 43.2301 139.86 44.3601 139.27C44.3601 139.27 46.8101 139.37 47.8301 136.78C47.8301 136.78 48.8101 134.77 51.3001 136.54C51.3001 136.54 57.6601 138.4 58.9101 139.08L61.5201 139.91C61.5201 139.91 59.1201 138.64 55.7501 137.07C55.7501 137.07 55.2101 136.83 48.5101 135.06C48.5101 135.06 46.6501 138.92 42.4401 139.27C42.4401 139.27 36.8201 141.13 35.7401 141.42C35.7401 141.42 34.6201 141.57 33.5401 140.59L30.8001 143.28L26.8401 146.31L26.3501 145.53L25.8101 144.7C25.8101 144.7 24.3401 145.68 23.9001 145.24C23.9001 145.24 22.3801 145.34 24.2901 142.55L25.8101 138.83L26.4501 137.02L27.6701 136.97C27.6701 136.97 28.6501 136.53 27.3301 135.85L25.9601 135.41L25.6701 134.24C25.6701 134.24 26.0101 132.77 26.5001 131.45C26.5001 131.45 27.1401 129.74 26.1101 127.54C26.1101 127.54 26.2601 125.94 25.5201 124.69L25.7201 122.9L27.4801 120.51C27.4801 120.51 28.2601 120.35 27.6801 119.33C27.6801 119.33 27.3901 119.48 26.6001 118.65V117.28L26.9901 117.33V118.36C26.9901 118.36 28.0701 117.72 28.3601 116.5C28.3601 116.5 29.1901 114.4 28.8001 111.22C28.8001 111.22 27.4301 106.04 26.7901 103.54C26.7901 103.54 27.0301 100.07 21.4601 90.6305C21.4601 90.6305 19.8901 86.6205 15.7901 83.3605L14.7501 83.8205L14.1001 83.6905C14.1001 83.6905 16.5801 77.3005 19.9001 74.1705C19.9001 74.1705 23.6801 71.2405 24.4701 68.6905L25.4501 67.3205L26.9501 66.5405L26.6901 66.0205L28.5801 63.9305L30.3401 62.6305L31.1901 62.3705L30.8001 61.0005C30.8001 61.0005 30.0801 62.2405 27.9301 62.7005C27.9301 62.7005 27.0201 65.9005 25.1301 66.5505C25.1301 66.5505 23.7001 67.8505 22.9801 67.7205C22.9801 67.7205 22.5901 69.5505 21.4101 70.0705L20.6901 71.3105L21.9901 71.5105L19.4501 72.9405C19.4501 72.9405 17.0401 74.3705 16.5201 75.5505C16.5201 75.5505 15.2201 77.0505 14.8901 79.0105C14.8901 79.0105 15.1501 80.7105 12.4101 82.1405C12.4101 82.1405 10.1901 82.4705 10.1901 83.3105C10.1901 83.3105 10.8401 84.2205 11.1001 85.0105C11.3601 85.8005 11.5601 86.5805 11.5601 86.5805L11.0401 87.7505L10.1301 87.9505L9.93006 88.8005C9.93006 88.8005 7.19006 88.9305 6.08006 89.8405L5.17006 89.7705L6.28006 88.2705C6.28006 88.2705 5.69006 87.8805 5.69006 86.3805C5.69006 86.3805 5.89006 85.3405 6.15006 84.2305C6.15006 84.2305 6.48006 83.5105 5.43006 81.3605C5.43006 81.3605 5.23006 81.1005 5.82006 79.7305C5.82006 79.7305 7.06006 79.0805 5.49006 76.5305C5.49006 76.5305 4.64006 75.1005 3.99006 75.0305C3.99006 75.0305 3.21006 75.8105 2.56006 75.8105C2.56006 75.8105 1.06006 75.2905 1.06006 74.5105C1.06006 74.5105 1.65006 73.9205 3.34006 73.2705C3.34006 73.2705 3.93006 71.9705 1.58006 72.3605C1.58006 72.3605 1.78006 71.2505 2.56006 70.6605C2.56006 70.6605 3.93006 70.2705 1.84006 68.8305C1.84006 68.8305 1.25006 67.9805 1.06006 66.9405C1.06006 66.9405 1.71006 64.2705 3.93006 65.9005H5.33006L7.29006 63.0605L9.05006 61.6905C9.05006 61.6905 11.6901 57.5805 11.5001 55.0405C11.5001 55.0405 10.5201 52.5005 10.5201 51.8105C10.5201 51.1205 10.6201 50.7305 11.1101 49.5605L11.6001 48.7805C11.6001 48.7805 11.7001 46.7305 11.5001 46.4305C11.5001 46.4305 13.3601 46.3305 13.8501 44.7705C13.8501 44.7705 14.9301 44.1805 14.9301 41.5405L16.9801 37.7205L18.2501 37.4305L17.2701 36.4505L18.9301 34.5905L20.3001 32.2405L21.5701 30.7705L26.1701 25.7805L27.4401 23.6305L27.8301 21.0905L28.7101 20.2105L29.3001 17.7605L30.0801 16.4905L31.5501 15.9005L33.1201 15.0205L34.0001 14.4305L33.9901 14.4505Z" fill="#CECECE"/>
<path d="M10.42 37.8504L11.4 36.4804C11.4 36.4804 14.73 34.0004 16.16 30.4804C16.16 30.4804 18.64 25.3904 19.55 24.4804C19.55 24.4804 24.77 19.6504 25.81 17.8304C25.81 17.8304 28.42 14.7004 27.9 13.1304C27.9 13.1304 27.64 11.9604 27.1 11.7104C26.56 11.4604 28.67 12.0504 29.74 10.3904C29.74 10.3904 31.5 9.90037 28.08 8.14037L27 7.46037H25.14L20.84 4.62037L18.49 2.17037L16.73 0.210368C16.73 0.210368 15.16 -0.569632 13.6 0.800368C13.6 0.800368 12.03 0.750368 10.42 -0.0096321H5.57999L4.59999 1.39037L3.22999 2.56037L4.39999 3.34037L4.59999 7.64037L4.10999 11.6504C4.10999 11.6504 4.10999 12.2404 3.61999 13.8004C3.61999 13.8004 4.10999 15.4604 2.14999 15.3704V16.6404C2.14999 16.6404 2.04999 18.1104 2.63999 18.4004C2.63999 18.4004 3.89999 19.3804 2.13999 22.6104C2.13999 22.6104 0.57999 23.9804 0.57999 24.6604C0.57999 24.6604 0.96999 26.6204 2.43999 28.4804C2.43999 28.4804 5.46999 32.2004 1.35999 34.8404L-0.0100098 35.4304L1.64999 36.9004C1.64999 36.9004 5.75999 36.6104 6.04999 37.2904C6.04999 37.2904 6.24999 39.7404 4.47999 39.4404L4.08999 42.8604L4.86999 44.6204H9.65999L11.23 44.0304L11.62 42.7604L11.33 40.5104L10.65 39.7304L10.41 37.8404L10.42 37.8504Z" fill="#CECECE"/>
</svg>
