<svg width="60" height="60" viewBox="0 0 60 60" fill="none" xmlns="http://www.w3.org/2000/svg">
<circle cx="30" cy="30" r="29" stroke="#827E78" stroke-opacity="0.8" stroke-width="2"/>
<path d="M17.356 31.7597H12.4004C12.1245 31.7597 11.86 31.8692 11.665 32.0643C11.4699 32.2593 11.3604 32.5238 11.3604 32.7997V43.1997C11.3604 43.4755 11.4699 43.74 11.665 43.935C11.86 44.1301 12.1245 44.2397 12.4004 44.2397H17.356C17.6318 44.2397 17.8963 44.1301 18.0913 43.935C18.2864 43.74 18.396 43.4755 18.396 43.1997V32.7997C18.396 32.5238 18.2864 32.2593 18.0913 32.0643C17.8963 31.8692 17.6318 31.7597 17.356 31.7597ZM16.316 42.1597H13.4404V33.8397H16.316V42.1597ZM26.1024 28.4888H21.1468C20.8709 28.4888 20.6064 28.5984 20.4114 28.7935C20.2163 28.9885 20.1068 29.253 20.1068 29.5288V43.1789C20.1068 43.4547 20.2163 43.7192 20.4114 43.9142C20.6064 44.1093 20.8709 44.2189 21.1468 44.2189H26.1024C26.3782 44.2189 26.6427 44.1093 26.8377 43.9142C27.0328 43.7192 27.1424 43.4547 27.1424 43.1789V29.5288C27.1424 29.253 27.0328 28.9885 26.8377 28.7935C26.6427 28.5984 26.3782 28.4888 26.1024 28.4888ZM25.0624 42.1389H22.1868V30.5689H25.0624V42.1389ZM34.854 25.7641H29.8984C29.6225 25.7641 29.358 25.8736 29.163 26.0687C28.9679 26.2637 28.8584 26.5282 28.8584 26.8041V43.1789C28.8584 43.4547 28.9679 43.7192 29.163 43.9142C29.358 44.1093 29.6225 44.2189 29.8984 44.2189H34.854C34.9905 44.2189 35.1258 44.192 35.2519 44.1397C35.3781 44.0874 35.4928 44.0108 35.5893 43.9142C35.6859 43.8177 35.7625 43.703 35.8148 43.5768C35.867 43.4507 35.894 43.3154 35.894 43.1789V26.8041C35.894 26.6675 35.867 26.5322 35.8148 26.4061C35.7625 26.2799 35.6859 26.1652 35.5893 26.0687C35.4928 25.9721 35.3781 25.8955 35.2519 25.8432C35.1258 25.791 34.9905 25.7641 34.854 25.7641ZM33.814 42.1389H30.9384V27.8441H33.814V42.1389ZM43.6004 20.4289H38.6448C38.3689 20.4289 38.1044 20.5384 37.9094 20.7335C37.7143 20.9285 37.6048 21.193 37.6048 21.4689V43.1789C37.6048 43.4547 37.7143 43.7192 37.9094 43.9142C38.1044 44.1093 38.3689 44.2189 38.6448 44.2189H43.6004C43.8762 44.2189 44.1407 44.1093 44.3357 43.9142C44.5308 43.7192 44.6404 43.4547 44.6404 43.1789V21.4689C44.6404 21.193 44.5308 20.9285 44.3357 20.7335C44.1407 20.5384 43.8762 20.4289 43.6004 20.4289ZM42.5604 42.1389H39.6848V22.5089H42.5604V42.1389ZM12.6656 26.9237C12.6496 26.7877 12.6607 26.65 12.6981 26.5183C12.7355 26.3867 12.7985 26.2637 12.8835 26.1565C12.9685 26.0492 13.0739 25.9598 13.1935 25.8934C13.3132 25.8269 13.4448 25.7847 13.5808 25.7693C13.7368 25.7693 28.8012 23.8661 39.092 13.8613H36.8092C36.5333 13.8613 36.2688 13.7517 36.0738 13.5566C35.8787 13.3616 35.7692 13.0971 35.7692 12.8213C35.7692 12.5454 35.8787 12.2809 36.0738 12.0859C36.2688 11.8908 36.5333 11.7812 36.8092 11.7812H41.7648C42.0406 11.7812 42.3051 11.8908 42.5001 12.0859C42.6952 12.2809 42.8048 12.5454 42.8048 12.8213V17.7821C42.8048 18.0579 42.6952 18.3224 42.5001 18.5174C42.3051 18.7125 42.0406 18.8221 41.7648 18.8221C41.4889 18.8221 41.2244 18.7125 41.0294 18.5174C40.8343 18.3224 40.7248 18.0579 40.7248 17.7821V15.1821C29.94 25.8421 14.4804 27.7557 13.82 27.8389H13.7004C13.4457 27.8394 13.1998 27.7466 13.009 27.5779C12.8183 27.4092 12.6961 27.1764 12.6656 26.9237Z" fill="#005496"/>
</svg>
