<svg width="60" height="61" viewBox="0 0 60 61" fill="none" xmlns="http://www.w3.org/2000/svg">
<circle cx="30" cy="30" r="29" stroke="#827E78" stroke-opacity="0.8" stroke-width="2"/>
<mask id="path-2-outside-1_812_127" maskUnits="userSpaceOnUse" x="9.47266" y="7.57471" width="42" height="42" fill="black">
<rect fill="white" x="9.47266" y="7.57471" width="42" height="42"/>
<path d="M29.1653 39.1029H21.8213C21.4524 39.1029 21.1537 38.8059 21.1537 38.4392C21.1537 38.0726 21.4524 37.7756 21.8213 37.7756H29.1653C29.5341 37.7756 29.8329 38.0726 29.8329 38.4392C29.8329 38.8059 29.5341 39.1029 29.1653 39.1029ZM21.8213 41.7575C21.4524 41.7575 21.1537 42.0545 21.1537 42.4212C21.1537 42.7879 21.4524 43.0848 21.8213 43.0848H27.8296C28.1985 43.0848 28.4972 42.7879 28.4972 42.4212C28.4972 42.0545 28.1985 41.7575 27.8296 41.7575H21.8213ZM33.1705 34.4571C33.1705 34.2812 33.1004 34.112 32.9752 33.9875C32.8501 33.8631 32.6798 33.7934 32.5029 33.7934H21.8211C21.4522 33.7934 21.1535 34.0904 21.1535 34.4571C21.1535 34.8237 21.4522 35.1207 21.8211 35.1207H32.5029C32.6798 35.1207 32.85 35.0511 32.9752 34.9266C33.1004 34.8022 33.1705 34.633 33.1705 34.4571ZM21.8213 31.1388H25.827C26.1958 31.1388 26.4946 30.8418 26.4946 30.4751C26.4946 30.1085 26.1958 29.8115 25.827 29.8115H21.8213C21.4524 29.8115 21.1537 30.1085 21.1537 30.4751C21.1537 30.8418 21.4524 31.1388 21.8213 31.1388ZM37.1766 30.4751C37.1766 30.2993 37.1065 30.13 36.9813 30.0056C36.8562 29.8811 36.6859 29.8115 36.509 29.8115H28.4976C28.1288 29.8115 27.83 30.1085 27.83 30.4751C27.83 30.8418 28.1288 31.1388 28.4976 31.1388H36.509C36.6859 31.1388 36.8562 31.0691 36.9813 30.9447C37.1065 30.8202 37.1766 30.651 37.1766 30.4751ZM41.1823 26.4932C41.1823 26.3173 41.1122 26.1481 40.987 26.0236C40.8619 25.8992 40.6916 25.8295 40.5147 25.8295H29.1655C28.7966 25.8295 28.4978 26.1265 28.4978 26.4932C28.4978 26.8599 28.7966 27.1568 29.1655 27.1568H40.5147C40.6916 27.1568 40.8618 27.0872 40.987 26.9627C41.1122 26.8383 41.1823 26.6691 41.1823 26.4932ZM29.8331 22.5113C29.8331 22.6871 29.9032 22.8564 30.0284 22.9808C30.1535 23.1053 30.3238 23.1749 30.5007 23.1749H33.8388C34.2076 23.1749 34.5064 22.8779 34.5064 22.5113C34.5064 22.1446 34.2076 21.8476 33.8388 21.8476H30.5007C30.1319 21.8476 29.8331 22.1446 29.8331 22.5113ZM40.5149 21.8476H36.5092C36.1404 21.8476 35.8416 22.1446 35.8416 22.5113C35.8416 22.8779 36.1404 23.1749 36.5092 23.1749H40.5149C40.8838 23.1749 41.1825 22.8779 41.1825 22.5113C41.1825 22.1446 40.8838 21.8476 40.5149 21.8476ZM35.174 19.193C35.5429 19.193 35.8416 18.896 35.8416 18.5293C35.8416 18.1626 35.5429 17.8657 35.174 17.8657H32.5035C32.1347 17.8657 31.8359 18.1626 31.8359 18.5293C31.8359 18.896 32.1347 19.193 32.5035 19.193H35.174ZM29.8331 13.2203C29.8331 12.8536 30.1318 12.5566 30.5007 12.5566H37.4054C38.2917 12.5549 39.1412 12.9034 39.7671 13.5289L43.5441 17.2835H43.5424C44.17 17.904 44.5222 18.7485 44.5205 19.6295V23.8388C44.5205 24.2055 44.2217 24.5024 43.8529 24.5024C43.484 24.5024 43.1853 24.2055 43.1853 23.8388V19.6295C43.1836 19.4818 43.1652 19.3358 43.1319 19.1932H39.8472C38.7423 19.1915 37.846 18.3005 37.8444 17.2022V13.9354C37.7008 13.9022 37.5539 13.8856 37.4054 13.8839H30.5007C30.1318 13.8839 29.8331 13.5869 29.8331 13.2203ZM39.1797 14.8213V17.2022C39.1797 17.5689 39.4784 17.8659 39.8473 17.8659H42.2407L39.1797 14.8213ZM43.8532 39.1029C43.4843 39.1029 43.1856 39.3999 43.1856 39.7666V45.0758C43.1839 46.1742 42.2876 47.0651 41.1827 47.0668H21.1543C20.0494 47.0651 19.1531 46.1742 19.1515 45.0758V30.4754C19.1515 30.1087 18.8527 29.8117 18.4839 29.8117C18.115 29.8117 17.8163 30.1087 17.8163 30.4754V45.0758C17.8179 46.9075 19.3117 48.3924 21.1543 48.3941H41.1827C43.0253 48.3924 44.5191 46.9075 44.5208 45.0758V39.7666C44.5208 39.5907 44.4507 39.4215 44.3255 39.297C44.2003 39.1726 44.0301 39.1029 43.8532 39.1029ZM49.5047 31.1059L36.3144 44.2181C36.2293 44.3027 36.1208 44.3641 36.0039 44.3923L30.663 45.7196C30.436 45.776 30.194 45.7096 30.0288 45.5454C29.8636 45.3795 29.7968 45.1405 29.8535 44.9149L31.1888 39.6056C31.2188 39.4895 31.2789 39.3816 31.364 39.297L44.5544 26.1849C45.9213 24.826 48.1378 24.826 49.5047 26.1849C50.8717 27.5437 50.8717 29.747 49.5047 31.1059ZM35.8418 42.8096L46.9142 31.8029L45.856 30.751L34.7836 41.7577L35.8418 42.8096ZM44.9115 29.8117L43.8534 28.7598L32.781 39.7665L33.8392 40.8184L44.9115 29.8117ZM31.4191 44.1633L34.5369 43.3885L32.1986 41.064L31.4191 44.1633ZM48.56 27.1239C47.7038 26.3109 46.3552 26.3109 45.499 27.1239L44.798 27.8208L47.859 30.8637L48.56 30.1668C49.4046 29.3256 49.4046 27.9651 48.56 27.1239ZM17.9566 26.0804C17.5961 25.9626 17.2423 25.8182 16.9018 25.649L15.5866 26.3757C15.0641 26.661 14.4149 26.5698 13.9926 26.1533L12.8176 24.9837C12.3987 24.5639 12.3069 23.9201 12.594 23.4008L13.325 22.0934C13.1564 21.7533 13.0096 21.4032 12.8911 21.0448L11.4424 20.6334L11.4407 20.6317C10.8699 20.4674 10.4743 19.9481 10.4727 19.3558V17.7033C10.4743 17.111 10.8699 16.5917 11.4407 16.4274L12.8894 16.016L12.8911 16.0143C13.0096 15.6559 13.1564 15.3058 13.325 14.9657L12.594 13.6583C12.3069 13.1406 12.3987 12.4953 12.8176 12.0755L13.9943 10.9058C14.4166 10.4877 15.0658 10.3981 15.5866 10.6835L16.9018 11.4101C17.2422 11.2409 17.5961 11.0966 17.9566 10.9788L18.3705 9.537C18.5358 8.96793 19.0599 8.57636 19.6557 8.57471H21.3197H21.318C21.9139 8.57637 22.438 8.96958 22.6032 9.53866L23.0171 10.9788C23.3776 11.0966 23.7298 11.2409 24.072 11.4101L25.3888 10.6835H25.3871C25.9096 10.3981 26.5588 10.4877 26.9811 10.9058L28.1561 12.0738V12.0755C28.575 12.4952 28.6668 13.139 28.3781 13.6583L27.647 14.9657H27.6487C27.8173 15.3042 27.9625 15.6559 28.0826 16.0143L29.5314 16.4258C30.1038 16.59 30.4994 17.111 30.5011 17.7033V19.3558C30.4994 19.9481 30.1038 20.4674 29.533 20.6317L28.0843 21.0432L28.0826 21.0448C27.9641 21.4032 27.8173 21.7533 27.6487 22.0934L28.3797 23.4008C28.6668 23.9185 28.575 24.5639 28.1561 24.9837L26.9794 26.1533C26.5571 26.5698 25.9079 26.661 25.3871 26.374L24.0719 25.6473V25.649C23.7315 25.8166 23.3776 25.9609 23.0171 26.0803L22.6032 27.5221C22.4379 28.0912 21.9139 28.4828 21.318 28.4844H19.6557C19.0598 28.4828 18.5358 28.0895 18.3705 27.5205L17.9566 26.0804ZM17.2222 24.315C17.6829 24.5705 18.1719 24.7713 18.681 24.9123C18.903 24.9754 19.0782 25.1479 19.1416 25.3702L19.6557 27.1571H21.318L21.8304 25.3686H21.8321C21.8955 25.1479 22.0707 24.9754 22.2927 24.9123C22.8018 24.7713 23.2908 24.5705 23.7515 24.315C23.9534 24.2022 24.2004 24.2006 24.4024 24.3134L26.0347 25.2143L27.2113 24.0446L26.3051 22.422V22.4236C26.1916 22.2212 26.1932 21.9773 26.3067 21.7749C26.5638 21.317 26.7657 20.8309 26.9076 20.3248C26.971 20.1042 27.1446 19.9299 27.3682 19.8669L29.1657 19.3559V17.7034L27.3682 17.1924C27.1446 17.1293 26.971 16.9551 26.9076 16.7345C26.7657 16.2284 26.5637 15.7407 26.3067 15.2827C26.1932 15.082 26.1916 14.8381 26.3051 14.6357L27.2113 13.013L26.0363 11.845L24.4024 12.7459C24.2004 12.8587 23.9534 12.8571 23.7515 12.7443C23.2908 12.4887 22.8018 12.288 22.2927 12.147C22.0707 12.0839 21.8955 11.9114 21.8321 11.6907L21.318 9.90219H19.6557L19.1433 11.6907H19.1416C19.0782 11.9114 18.9029 12.0839 18.681 12.147C18.1719 12.288 17.6829 12.4888 17.2222 12.7443C17.0203 12.8571 16.7732 12.8587 16.5713 12.7459L14.9373 11.845L13.7623 13.013L14.6686 14.6357C14.7821 14.8381 14.7805 15.082 14.667 15.2844C14.4099 15.7423 14.208 16.2284 14.0661 16.7345C14.0027 16.9551 13.8291 17.1294 13.6055 17.1924L11.8079 17.7034V19.3559L13.6055 19.8669C13.8291 19.93 14.0027 20.1042 14.0661 20.3248C14.208 20.8309 14.4099 21.3186 14.667 21.7766C14.7804 21.9773 14.7821 22.2212 14.6686 22.4236L13.7623 24.0463L14.939 25.2143L16.5713 24.3134C16.7733 24.2006 17.0203 24.2022 17.2222 24.315ZM20.4868 23.1752C18.5975 23.1752 16.8934 22.0437 16.1692 20.3082C15.4466 18.5711 15.8455 16.5735 17.1824 15.2444C18.5193 13.9154 20.5288 13.5189 22.2763 14.2373C24.0221 14.9574 25.1604 16.6514 25.1604 18.5294C25.1571 21.0944 23.0674 23.1718 20.4868 23.1752ZM20.4868 21.8479C21.8371 21.8479 23.0538 21.0399 23.5712 19.7989C24.087 18.5595 23.8016 17.1326 22.8469 16.1836C21.8922 15.2346 20.4568 14.9509 19.2101 15.4635C17.9616 15.9778 17.1488 17.1874 17.1488 18.5296C17.1505 20.3613 18.6442 21.8462 20.4868 21.8479Z"/>
</mask>
<path d="M29.1653 39.1029H21.8213C21.4524 39.1029 21.1537 38.8059 21.1537 38.4392C21.1537 38.0726 21.4524 37.7756 21.8213 37.7756H29.1653C29.5341 37.7756 29.8329 38.0726 29.8329 38.4392C29.8329 38.8059 29.5341 39.1029 29.1653 39.1029ZM21.8213 41.7575C21.4524 41.7575 21.1537 42.0545 21.1537 42.4212C21.1537 42.7879 21.4524 43.0848 21.8213 43.0848H27.8296C28.1985 43.0848 28.4972 42.7879 28.4972 42.4212C28.4972 42.0545 28.1985 41.7575 27.8296 41.7575H21.8213ZM33.1705 34.4571C33.1705 34.2812 33.1004 34.112 32.9752 33.9875C32.8501 33.8631 32.6798 33.7934 32.5029 33.7934H21.8211C21.4522 33.7934 21.1535 34.0904 21.1535 34.4571C21.1535 34.8237 21.4522 35.1207 21.8211 35.1207H32.5029C32.6798 35.1207 32.85 35.0511 32.9752 34.9266C33.1004 34.8022 33.1705 34.633 33.1705 34.4571ZM21.8213 31.1388H25.827C26.1958 31.1388 26.4946 30.8418 26.4946 30.4751C26.4946 30.1085 26.1958 29.8115 25.827 29.8115H21.8213C21.4524 29.8115 21.1537 30.1085 21.1537 30.4751C21.1537 30.8418 21.4524 31.1388 21.8213 31.1388ZM37.1766 30.4751C37.1766 30.2993 37.1065 30.13 36.9813 30.0056C36.8562 29.8811 36.6859 29.8115 36.509 29.8115H28.4976C28.1288 29.8115 27.83 30.1085 27.83 30.4751C27.83 30.8418 28.1288 31.1388 28.4976 31.1388H36.509C36.6859 31.1388 36.8562 31.0691 36.9813 30.9447C37.1065 30.8202 37.1766 30.651 37.1766 30.4751ZM41.1823 26.4932C41.1823 26.3173 41.1122 26.1481 40.987 26.0236C40.8619 25.8992 40.6916 25.8295 40.5147 25.8295H29.1655C28.7966 25.8295 28.4978 26.1265 28.4978 26.4932C28.4978 26.8599 28.7966 27.1568 29.1655 27.1568H40.5147C40.6916 27.1568 40.8618 27.0872 40.987 26.9627C41.1122 26.8383 41.1823 26.6691 41.1823 26.4932ZM29.8331 22.5113C29.8331 22.6871 29.9032 22.8564 30.0284 22.9808C30.1535 23.1053 30.3238 23.1749 30.5007 23.1749H33.8388C34.2076 23.1749 34.5064 22.8779 34.5064 22.5113C34.5064 22.1446 34.2076 21.8476 33.8388 21.8476H30.5007C30.1319 21.8476 29.8331 22.1446 29.8331 22.5113ZM40.5149 21.8476H36.5092C36.1404 21.8476 35.8416 22.1446 35.8416 22.5113C35.8416 22.8779 36.1404 23.1749 36.5092 23.1749H40.5149C40.8838 23.1749 41.1825 22.8779 41.1825 22.5113C41.1825 22.1446 40.8838 21.8476 40.5149 21.8476ZM35.174 19.193C35.5429 19.193 35.8416 18.896 35.8416 18.5293C35.8416 18.1626 35.5429 17.8657 35.174 17.8657H32.5035C32.1347 17.8657 31.8359 18.1626 31.8359 18.5293C31.8359 18.896 32.1347 19.193 32.5035 19.193H35.174ZM29.8331 13.2203C29.8331 12.8536 30.1318 12.5566 30.5007 12.5566H37.4054C38.2917 12.5549 39.1412 12.9034 39.7671 13.5289L43.5441 17.2835H43.5424C44.17 17.904 44.5222 18.7485 44.5205 19.6295V23.8388C44.5205 24.2055 44.2217 24.5024 43.8529 24.5024C43.484 24.5024 43.1853 24.2055 43.1853 23.8388V19.6295C43.1836 19.4818 43.1652 19.3358 43.1319 19.1932H39.8472C38.7423 19.1915 37.846 18.3005 37.8444 17.2022V13.9354C37.7008 13.9022 37.5539 13.8856 37.4054 13.8839H30.5007C30.1318 13.8839 29.8331 13.5869 29.8331 13.2203ZM39.1797 14.8213V17.2022C39.1797 17.5689 39.4784 17.8659 39.8473 17.8659H42.2407L39.1797 14.8213ZM43.8532 39.1029C43.4843 39.1029 43.1856 39.3999 43.1856 39.7666V45.0758C43.1839 46.1742 42.2876 47.0651 41.1827 47.0668H21.1543C20.0494 47.0651 19.1531 46.1742 19.1515 45.0758V30.4754C19.1515 30.1087 18.8527 29.8117 18.4839 29.8117C18.115 29.8117 17.8163 30.1087 17.8163 30.4754V45.0758C17.8179 46.9075 19.3117 48.3924 21.1543 48.3941H41.1827C43.0253 48.3924 44.5191 46.9075 44.5208 45.0758V39.7666C44.5208 39.5907 44.4507 39.4215 44.3255 39.297C44.2003 39.1726 44.0301 39.1029 43.8532 39.1029ZM49.5047 31.1059L36.3144 44.2181C36.2293 44.3027 36.1208 44.3641 36.0039 44.3923L30.663 45.7196C30.436 45.776 30.194 45.7096 30.0288 45.5454C29.8636 45.3795 29.7968 45.1405 29.8535 44.9149L31.1888 39.6056C31.2188 39.4895 31.2789 39.3816 31.364 39.297L44.5544 26.1849C45.9213 24.826 48.1378 24.826 49.5047 26.1849C50.8717 27.5437 50.8717 29.747 49.5047 31.1059ZM35.8418 42.8096L46.9142 31.8029L45.856 30.751L34.7836 41.7577L35.8418 42.8096ZM44.9115 29.8117L43.8534 28.7598L32.781 39.7665L33.8392 40.8184L44.9115 29.8117ZM31.4191 44.1633L34.5369 43.3885L32.1986 41.064L31.4191 44.1633ZM48.56 27.1239C47.7038 26.3109 46.3552 26.3109 45.499 27.1239L44.798 27.8208L47.859 30.8637L48.56 30.1668C49.4046 29.3256 49.4046 27.9651 48.56 27.1239ZM17.9566 26.0804C17.5961 25.9626 17.2423 25.8182 16.9018 25.649L15.5866 26.3757C15.0641 26.661 14.4149 26.5698 13.9926 26.1533L12.8176 24.9837C12.3987 24.5639 12.3069 23.9201 12.594 23.4008L13.325 22.0934C13.1564 21.7533 13.0096 21.4032 12.8911 21.0448L11.4424 20.6334L11.4407 20.6317C10.8699 20.4674 10.4743 19.9481 10.4727 19.3558V17.7033C10.4743 17.111 10.8699 16.5917 11.4407 16.4274L12.8894 16.016L12.8911 16.0143C13.0096 15.6559 13.1564 15.3058 13.325 14.9657L12.594 13.6583C12.3069 13.1406 12.3987 12.4953 12.8176 12.0755L13.9943 10.9058C14.4166 10.4877 15.0658 10.3981 15.5866 10.6835L16.9018 11.4101C17.2422 11.2409 17.5961 11.0966 17.9566 10.9788L18.3705 9.537C18.5358 8.96793 19.0599 8.57636 19.6557 8.57471H21.3197H21.318C21.9139 8.57637 22.438 8.96958 22.6032 9.53866L23.0171 10.9788C23.3776 11.0966 23.7298 11.2409 24.072 11.4101L25.3888 10.6835H25.3871C25.9096 10.3981 26.5588 10.4877 26.9811 10.9058L28.1561 12.0738V12.0755C28.575 12.4952 28.6668 13.139 28.3781 13.6583L27.647 14.9657H27.6487C27.8173 15.3042 27.9625 15.6559 28.0826 16.0143L29.5314 16.4258C30.1038 16.59 30.4994 17.111 30.5011 17.7033V19.3558C30.4994 19.9481 30.1038 20.4674 29.533 20.6317L28.0843 21.0432L28.0826 21.0448C27.9641 21.4032 27.8173 21.7533 27.6487 22.0934L28.3797 23.4008C28.6668 23.9185 28.575 24.5639 28.1561 24.9837L26.9794 26.1533C26.5571 26.5698 25.9079 26.661 25.3871 26.374L24.0719 25.6473V25.649C23.7315 25.8166 23.3776 25.9609 23.0171 26.0803L22.6032 27.5221C22.4379 28.0912 21.9139 28.4828 21.318 28.4844H19.6557C19.0598 28.4828 18.5358 28.0895 18.3705 27.5205L17.9566 26.0804ZM17.2222 24.315C17.6829 24.5705 18.1719 24.7713 18.681 24.9123C18.903 24.9754 19.0782 25.1479 19.1416 25.3702L19.6557 27.1571H21.318L21.8304 25.3686H21.8321C21.8955 25.1479 22.0707 24.9754 22.2927 24.9123C22.8018 24.7713 23.2908 24.5705 23.7515 24.315C23.9534 24.2022 24.2004 24.2006 24.4024 24.3134L26.0347 25.2143L27.2113 24.0446L26.3051 22.422V22.4236C26.1916 22.2212 26.1932 21.9773 26.3067 21.7749C26.5638 21.317 26.7657 20.8309 26.9076 20.3248C26.971 20.1042 27.1446 19.9299 27.3682 19.8669L29.1657 19.3559V17.7034L27.3682 17.1924C27.1446 17.1293 26.971 16.9551 26.9076 16.7345C26.7657 16.2284 26.5637 15.7407 26.3067 15.2827C26.1932 15.082 26.1916 14.8381 26.3051 14.6357L27.2113 13.013L26.0363 11.845L24.4024 12.7459C24.2004 12.8587 23.9534 12.8571 23.7515 12.7443C23.2908 12.4887 22.8018 12.288 22.2927 12.147C22.0707 12.0839 21.8955 11.9114 21.8321 11.6907L21.318 9.90219H19.6557L19.1433 11.6907H19.1416C19.0782 11.9114 18.9029 12.0839 18.681 12.147C18.1719 12.288 17.6829 12.4888 17.2222 12.7443C17.0203 12.8571 16.7732 12.8587 16.5713 12.7459L14.9373 11.845L13.7623 13.013L14.6686 14.6357C14.7821 14.8381 14.7805 15.082 14.667 15.2844C14.4099 15.7423 14.208 16.2284 14.0661 16.7345C14.0027 16.9551 13.8291 17.1294 13.6055 17.1924L11.8079 17.7034V19.3559L13.6055 19.8669C13.8291 19.93 14.0027 20.1042 14.0661 20.3248C14.208 20.8309 14.4099 21.3186 14.667 21.7766C14.7804 21.9773 14.7821 22.2212 14.6686 22.4236L13.7623 24.0463L14.939 25.2143L16.5713 24.3134C16.7733 24.2006 17.0203 24.2022 17.2222 24.315ZM20.4868 23.1752C18.5975 23.1752 16.8934 22.0437 16.1692 20.3082C15.4466 18.5711 15.8455 16.5735 17.1824 15.2444C18.5193 13.9154 20.5288 13.5189 22.2763 14.2373C24.0221 14.9574 25.1604 16.6514 25.1604 18.5294C25.1571 21.0944 23.0674 23.1718 20.4868 23.1752ZM20.4868 21.8479C21.8371 21.8479 23.0538 21.0399 23.5712 19.7989C24.087 18.5595 23.8016 17.1326 22.8469 16.1836C21.8922 15.2346 20.4568 14.9509 19.2101 15.4635C17.9616 15.9778 17.1488 17.1874 17.1488 18.5296C17.1505 20.3613 18.6442 21.8462 20.4868 21.8479Z" fill="#005496"/>
<path d="M17.2206 24.415H17.2222V24.215H17.2206V24.415ZM37.4054 12.5566V12.7566L37.4058 12.7566L37.4054 12.5566ZM39.7671 13.5289L39.6257 13.6703L39.6261 13.6707L39.7671 13.5289ZM43.5441 17.2835V17.4835H44.029L43.6851 17.1417L43.5441 17.2835ZM43.5424 17.2835V17.0835H43.0557L43.4018 17.4257L43.5424 17.2835ZM44.5205 19.6295L44.3205 19.6291V19.6295H44.5205ZM43.1853 19.6295H43.3853L43.3853 19.6273L43.1853 19.6295ZM43.1319 19.1932L43.3266 19.1476L43.2905 18.9932H43.1319V19.1932ZM39.8472 19.1932L39.8469 19.3932H39.8472V19.1932ZM37.8444 17.2022H37.6444L37.6444 17.2025L37.8444 17.2022ZM37.8444 13.9354H38.0444V13.7763L37.8894 13.7405L37.8444 13.9354ZM37.4054 13.8839L37.4077 13.6839H37.4054V13.8839ZM39.1797 14.8213L39.3207 14.6795L38.9797 14.3403V14.8213H39.1797ZM42.2407 17.8659V18.0659H42.7254L42.3817 17.7241L42.2407 17.8659ZM43.1856 45.0758L43.3856 45.0761V45.0758H43.1856ZM41.1827 47.0668V47.2668L41.183 47.2668L41.1827 47.0668ZM21.1543 47.0668L21.154 47.2668H21.1543V47.0668ZM19.1515 45.0758H18.9515L18.9515 45.0761L19.1515 45.0758ZM17.8163 45.0758H17.6163V45.076L17.8163 45.0758ZM21.1543 48.3941L21.1541 48.5941H21.1543V48.3941ZM41.1827 48.3941V48.5941H41.1829L41.1827 48.3941ZM44.5208 45.0758L44.7208 45.076V45.0758H44.5208ZM49.5047 31.1059L49.6457 31.2477L49.6457 31.2477L49.5047 31.1059ZM36.3144 44.2181L36.1734 44.0762L36.3144 44.2181ZM36.0039 44.3923L35.957 44.1978L35.9557 44.1982L36.0039 44.3923ZM30.663 45.7196L30.7113 45.9137L30.663 45.7196ZM30.0288 45.5454L29.8871 45.6865L29.8878 45.6872L30.0288 45.5454ZM29.8535 44.9149L29.6596 44.8661V44.8661L29.8535 44.9149ZM31.1888 39.6056L30.9951 39.5555L30.9948 39.5568L31.1888 39.6056ZM31.364 39.297L31.223 39.1552L31.364 39.297ZM49.5047 26.1849L49.6457 26.043V26.043L49.5047 26.1849ZM35.8418 42.8096L35.7008 42.9515L35.8418 43.0916L35.9828 42.9515L35.8418 42.8096ZM46.9142 31.8029L47.0552 31.9447L47.1979 31.8029L47.0552 31.661L46.9142 31.8029ZM45.856 30.751L45.997 30.6091L45.856 30.469L45.715 30.6091L45.856 30.751ZM34.7836 41.7577L34.6426 41.6159L34.5 41.7577L34.6426 41.8995L34.7836 41.7577ZM44.9115 29.8117L45.0525 29.9535L45.1952 29.8117L45.0525 29.6699L44.9115 29.8117ZM43.8534 28.7598L43.9944 28.6179L43.8534 28.4778L43.7124 28.6179L43.8534 28.7598ZM32.781 39.7665L32.64 39.6247L32.4973 39.7665L32.64 39.9084L32.781 39.7665ZM33.8392 40.8184L33.6982 40.9603L33.8392 41.1004L33.9802 40.9603L33.8392 40.8184ZM31.4191 44.1633L31.2252 44.1145L31.1439 44.4378L31.4674 44.3574L31.4191 44.1633ZM34.5369 43.3885L34.5851 43.5825L34.9297 43.4969L34.6779 43.2466L34.5369 43.3885ZM32.1986 41.064L32.3396 40.9221L32.0903 40.6744L32.0046 41.0152L32.1986 41.064ZM48.56 27.1239L48.7012 26.9822L48.6977 26.9789L48.56 27.1239ZM45.499 27.1239L45.3612 26.9789L45.358 26.9821L45.499 27.1239ZM44.798 27.8208L44.657 27.6789L44.5143 27.8208L44.657 27.9626L44.798 27.8208ZM47.859 30.8637L47.718 31.0055L47.859 31.1457L48 31.0055L47.859 30.8637ZM48.56 30.1668L48.701 30.3087L48.7012 30.3085L48.56 30.1668ZM17.9566 26.0804L18.1488 26.0251L18.1195 25.9232L18.0187 25.8902L17.9566 26.0804ZM16.9018 25.649L16.9908 25.4699L16.8968 25.4232L16.805 25.4739L16.9018 25.649ZM15.5866 26.3757L15.6825 26.5512L15.6833 26.5507L15.5866 26.3757ZM13.9926 26.1533L13.8515 26.2951L13.8522 26.2957L13.9926 26.1533ZM12.8176 24.9837L12.6761 25.1249L12.6765 25.1254L12.8176 24.9837ZM12.594 23.4008L12.4194 23.3032L12.4189 23.3041L12.594 23.4008ZM13.325 22.0934L13.4996 22.191L13.551 22.099L13.5042 22.0046L13.325 22.0934ZM12.8911 21.0448L13.081 20.982L13.0477 20.8814L12.9457 20.8524L12.8911 21.0448ZM11.4424 20.6334L11.3014 20.7752L11.338 20.8116L11.3877 20.8257L11.4424 20.6334ZM11.4407 20.6317L11.5817 20.4899L11.5453 20.4537L11.496 20.4395L11.4407 20.6317ZM10.4727 19.3558H10.2727L10.2727 19.3564L10.4727 19.3558ZM10.4727 17.7033L10.2727 17.7028V17.7033H10.4727ZM11.4407 16.4274L11.386 16.235L11.3854 16.2352L11.4407 16.4274ZM12.8894 16.016L12.944 16.2084L12.9937 16.1942L13.0304 16.1578L12.8894 16.016ZM12.8911 16.0143L13.0321 16.1562L13.066 16.1225L13.081 16.0771L12.8911 16.0143ZM13.325 14.9657L13.5042 15.0545L13.551 14.9601L13.4996 14.8681L13.325 14.9657ZM12.594 13.6583L12.4191 13.7553L12.4194 13.7559L12.594 13.6583ZM12.8176 12.0755L12.6766 11.9336L12.6761 11.9342L12.8176 12.0755ZM13.9943 10.9058L13.8536 10.7637L13.8533 10.7639L13.9943 10.9058ZM15.5866 10.6835L15.6833 10.5084L15.6827 10.5081L15.5866 10.6835ZM16.9018 11.4101L16.805 11.5852L16.8969 11.6359L16.9908 11.5892L16.9018 11.4101ZM17.9566 10.9788L18.0187 11.1689L18.1196 11.1359L18.1488 11.034L17.9566 10.9788ZM18.3705 9.537L18.1785 9.48123L18.1783 9.48181L18.3705 9.537ZM19.6557 8.57471V8.37471L19.6551 8.37471L19.6557 8.57471ZM21.318 8.57471V8.37471L21.3175 8.77471L21.318 8.57471ZM22.6032 9.53866L22.7954 9.48341L22.7952 9.48289L22.6032 9.53866ZM23.0171 10.9788L22.8249 11.034L22.8542 11.136L22.955 11.1689L23.0171 10.9788ZM24.072 11.4101L23.9833 11.5894L24.077 11.6358L24.1686 11.5853L24.072 11.4101ZM25.3888 10.6835L25.4854 10.8586L25.3888 10.4835V10.6835ZM25.3871 10.6835L25.2913 10.5079L25.3871 10.8835V10.6835ZM26.9811 10.9058L27.1221 10.7639L27.1218 10.7637L26.9811 10.9058ZM28.1561 12.0738H28.3561V11.9906L28.2971 11.932L28.1561 12.0738ZM28.1561 12.0755H27.9561V12.1582L28.0145 12.2168L28.1561 12.0755ZM28.3781 13.6583L28.5526 13.7559L28.5529 13.7555L28.3781 13.6583ZM27.647 14.9657L27.4725 14.8681L27.3061 15.1657H27.647V14.9657ZM27.6487 14.9657L27.8277 14.8766L27.7725 14.7657H27.6487V14.9657ZM28.0826 16.0143L27.893 16.0779L27.9265 16.1779L28.028 16.2067L28.0826 16.0143ZM29.5314 16.4258L29.5865 16.2335L29.586 16.2334L29.5314 16.4258ZM30.5011 17.7033H30.7011L30.701 17.7028L30.5011 17.7033ZM30.5011 19.3558L30.7011 19.3564V19.3558H30.5011ZM29.533 20.6317L29.5877 20.8241L29.5883 20.8239L29.533 20.6317ZM28.0843 21.0432L28.0297 20.8508L27.98 20.8649L27.9433 20.9013L28.0843 21.0432ZM28.0826 21.0448L27.9416 20.903L27.9078 20.9367L27.8928 20.982L28.0826 21.0448ZM27.6487 22.0934L27.4695 22.0046L27.4227 22.099L27.4741 22.191L27.6487 22.0934ZM28.3797 23.4008L28.5546 23.3038L28.5543 23.3032L28.3797 23.4008ZM28.1561 24.9837L28.2971 25.1255L28.2976 25.1249L28.1561 24.9837ZM26.9794 26.1533L27.1198 26.2957L27.1204 26.2952L26.9794 26.1533ZM25.3871 26.374L25.2904 26.5491L25.2906 26.5492L25.3871 26.374ZM24.0719 25.6473L24.1687 25.4723L23.8719 25.3083V25.6473H24.0719ZM24.0719 25.649L24.1603 25.8284L24.2719 25.7735V25.649H24.0719ZM23.0171 26.0803L22.9542 25.8905L22.854 25.9237L22.8249 26.0252L23.0171 26.0803ZM22.6032 27.5221L22.7952 27.5779L22.7954 27.5773L22.6032 27.5221ZM21.318 28.4844V28.6844L21.3186 28.6844L21.318 28.4844ZM19.6557 28.4844L19.6551 28.6844H19.6557V28.4844ZM18.3705 27.5205L18.1783 27.5757L18.1785 27.5762L18.3705 27.5205ZM17.2222 24.315L17.1247 24.4896L17.1252 24.4899L17.2222 24.315ZM18.681 24.9123L18.7356 24.7199L18.7344 24.7196L18.681 24.9123ZM19.1416 25.3702L18.9493 25.4251L18.9494 25.4255L19.1416 25.3702ZM19.6557 27.1571L19.4635 27.2124L19.5051 27.3571H19.6557V27.1571ZM21.318 27.1571V27.3571H21.4688L21.5103 27.2122L21.318 27.1571ZM21.8304 25.3686V25.1686H21.6796L21.6381 25.3135L21.8304 25.3686ZM21.8321 25.3686V25.5686H21.9827L22.0243 25.4238L21.8321 25.3686ZM22.2927 24.9123L22.2393 24.7196L22.2381 24.7199L22.2927 24.9123ZM23.7515 24.315L23.8485 24.4899L23.849 24.4896L23.7515 24.315ZM24.4024 24.3134L24.3048 24.488L24.3057 24.4885L24.4024 24.3134ZM26.0347 25.2143L25.938 25.3894L26.0693 25.4619L26.1757 25.3561L26.0347 25.2143ZM27.2113 24.0446L27.3523 24.1864L27.4599 24.0795L27.386 23.9471L27.2113 24.0446ZM26.3051 22.422L26.4797 22.3244L26.1051 21.6537V22.422H26.3051ZM26.3051 22.4236L26.1306 22.5214L26.5051 23.1893V22.4236H26.3051ZM26.3067 21.7749L26.1323 21.677L26.1323 21.6771L26.3067 21.7749ZM26.9076 20.3248L26.7153 20.2696L26.715 20.2708L26.9076 20.3248ZM27.3682 19.8669L27.4225 20.0594L27.4229 20.0593L27.3682 19.8669ZM29.1657 19.3559L29.2204 19.5483L29.3657 19.507V19.3559H29.1657ZM29.1657 17.7034H29.3657V17.5523L29.2204 17.511L29.1657 17.7034ZM27.3682 17.1924L27.4229 17L27.4225 16.9999L27.3682 17.1924ZM26.9076 16.7345L26.715 16.7885L26.7153 16.7897L26.9076 16.7345ZM26.3067 15.2827L26.4811 15.1848L26.4808 15.1843L26.3067 15.2827ZM26.3051 14.6357L26.4795 14.7335L26.4797 14.7332L26.3051 14.6357ZM27.2113 13.013L27.386 13.1106L27.4599 12.9781L27.3523 12.8712L27.2113 13.013ZM26.0363 11.845L26.1773 11.7032L26.071 11.5975L25.9398 11.6699L26.0363 11.845ZM24.4024 12.7459L24.3058 12.5708L24.3048 12.5713L24.4024 12.7459ZM23.7515 12.7443L23.849 12.5697L23.8485 12.5694L23.7515 12.7443ZM22.2927 12.147L22.2381 12.3394L22.2393 12.3397L22.2927 12.147ZM21.8321 11.6907L22.0243 11.6355L22.0243 11.6355L21.8321 11.6907ZM21.318 9.90219L21.5102 9.84694L21.4686 9.70219H21.318V9.90219ZM19.6557 9.90219V9.70219H19.5049L19.4634 9.84711L19.6557 9.90219ZM19.1433 11.6907V11.8907H19.294L19.3355 11.7458L19.1433 11.6907ZM19.1416 11.6907V11.4907H18.991L18.9494 11.6355L19.1416 11.6907ZM18.681 12.147L18.7344 12.3397L18.7356 12.3394L18.681 12.147ZM17.2222 12.7443L17.1252 12.5693L17.1247 12.5697L17.2222 12.7443ZM16.5713 12.7459L16.6689 12.5713L16.6679 12.5708L16.5713 12.7459ZM14.9373 11.845L15.0339 11.6699L14.9026 11.5975L14.7963 11.7032L14.9373 11.845ZM13.7623 13.013L13.6213 12.8712L13.5138 12.9781L13.5877 13.1106L13.7623 13.013ZM14.6686 14.6357L14.494 14.7332L14.4942 14.7335L14.6686 14.6357ZM14.667 15.2844L14.8414 15.3823L14.8414 15.3822L14.667 15.2844ZM14.0661 16.7345L14.2583 16.7897L14.2587 16.7885L14.0661 16.7345ZM13.6055 17.1924L13.5512 16.9999L13.5508 17L13.6055 17.1924ZM11.8079 17.7034L11.7533 17.511L11.6079 17.5523V17.7034H11.8079ZM11.8079 19.3559H11.6079V19.507L11.7533 19.5483L11.8079 19.3559ZM13.6055 19.8669L13.5508 20.0593L13.5512 20.0594L13.6055 19.8669ZM14.0661 20.3248L14.2587 20.2708L14.2583 20.2696L14.0661 20.3248ZM14.667 21.7766L14.4925 21.8745L14.4929 21.875L14.667 21.7766ZM14.6686 22.4236L14.4942 22.3258L14.494 22.3261L14.6686 22.4236ZM13.7623 24.0463L13.5877 23.9487L13.5137 24.0813L13.6214 24.1882L13.7623 24.0463ZM14.939 25.2143L14.7981 25.3562L14.9045 25.4618L15.0356 25.3894L14.939 25.2143ZM16.5713 24.3134L16.668 24.4885L16.6689 24.488L16.5713 24.3134ZM20.4868 23.1752V23.3752H20.4871L20.4868 23.1752ZM16.1692 20.3082L15.9846 20.385L15.9847 20.3852L16.1692 20.3082ZM22.2763 14.2373L22.3526 14.0525L22.3523 14.0524L22.2763 14.2373ZM25.1604 18.5294L25.3604 18.5296V18.5294H25.1604ZM20.4868 21.8479L20.4867 22.0479H20.4868V21.8479ZM23.5712 19.7989L23.7558 19.8758L23.7559 19.8757L23.5712 19.7989ZM22.8469 16.1836L22.9879 16.0418L22.9879 16.0418L22.8469 16.1836ZM19.2101 15.4635L19.134 15.2786L19.1339 15.2786L19.2101 15.4635ZM17.1488 18.5296H16.9488V18.5298L17.1488 18.5296ZM29.1653 38.9029H21.8213V39.3029H29.1653V38.9029ZM21.8213 38.9029C21.5618 38.9029 21.3537 38.6943 21.3537 38.4392H20.9537C20.9537 38.9175 21.3431 39.3029 21.8213 39.3029V38.9029ZM21.3537 38.4392C21.3537 38.1842 21.5618 37.9756 21.8213 37.9756V37.5756C21.3431 37.5756 20.9537 37.961 20.9537 38.4392H21.3537ZM21.8213 37.9756H29.1653V37.5756H21.8213V37.9756ZM29.1653 37.9756C29.4248 37.9756 29.6329 38.1842 29.6329 38.4392H30.0329C30.0329 37.961 29.6434 37.5756 29.1653 37.5756V37.9756ZM29.6329 38.4392C29.6329 38.6943 29.4248 38.9029 29.1653 38.9029V39.3029C29.6434 39.3029 30.0329 38.9175 30.0329 38.4392H29.6329ZM21.8213 41.5575C21.3431 41.5575 20.9537 41.9429 20.9537 42.4212H21.3537C21.3537 42.1661 21.5618 41.9575 21.8213 41.9575V41.5575ZM20.9537 42.4212C20.9537 42.8994 21.3431 43.2848 21.8213 43.2848V42.8848C21.5618 42.8848 21.3537 42.6763 21.3537 42.4212H20.9537ZM21.8213 43.2848H27.8296V42.8848H21.8213V43.2848ZM27.8296 43.2848C28.3078 43.2848 28.6972 42.8994 28.6972 42.4212H28.2972C28.2972 42.6763 28.0891 42.8848 27.8296 42.8848V43.2848ZM28.6972 42.4212C28.6972 41.9429 28.3078 41.5575 27.8296 41.5575V41.9575C28.0891 41.9575 28.2972 42.1661 28.2972 42.4212H28.6972ZM27.8296 41.5575H21.8213V41.9575H27.8296V41.5575ZM33.3705 34.4571C33.3705 34.2281 33.2793 34.0078 33.1162 33.8457L32.8342 34.1294C32.9216 34.2162 32.9705 34.3343 32.9705 34.4571H33.3705ZM33.1162 33.8457C32.9532 33.6837 32.7322 33.5934 32.5029 33.5934V33.9934C32.6275 33.9934 32.7469 34.0425 32.8342 34.1294L33.1162 33.8457ZM32.5029 33.5934H21.8211V33.9934H32.5029V33.5934ZM21.8211 33.5934C21.3429 33.5934 20.9535 33.9788 20.9535 34.4571H21.3535C21.3535 34.202 21.5615 33.9934 21.8211 33.9934V33.5934ZM20.9535 34.4571C20.9535 34.9353 21.3429 35.3207 21.8211 35.3207V34.9207C21.5615 34.9207 21.3535 34.7122 21.3535 34.4571H20.9535ZM21.8211 35.3207H32.5029V34.9207H21.8211V35.3207ZM32.5029 35.3207C32.7322 35.3207 32.9532 35.2305 33.1162 35.0685L32.8342 34.7848C32.7469 34.8716 32.6274 34.9207 32.5029 34.9207V35.3207ZM33.1162 35.0685C33.2793 34.9064 33.3705 34.6861 33.3705 34.4571H32.9705C32.9705 34.5798 32.9216 34.698 32.8342 34.7848L33.1162 35.0685ZM21.8213 31.3388H25.827V30.9388H21.8213V31.3388ZM25.827 31.3388C26.3052 31.3388 26.6946 30.9534 26.6946 30.4751H26.2946C26.2946 30.7302 26.0865 30.9388 25.827 30.9388V31.3388ZM26.6946 30.4751C26.6946 29.9969 26.3052 29.6115 25.827 29.6115V30.0115C26.0865 30.0115 26.2946 30.22 26.2946 30.4751H26.6946ZM25.827 29.6115H21.8213V30.0115H25.827V29.6115ZM21.8213 29.6115C21.3431 29.6115 20.9537 29.9969 20.9537 30.4751H21.3537C21.3537 30.22 21.5618 30.0115 21.8213 30.0115V29.6115ZM20.9537 30.4751C20.9537 30.9534 21.3431 31.3388 21.8213 31.3388V30.9388C21.5618 30.9388 21.3537 30.7302 21.3537 30.4751H20.9537ZM37.3766 30.4751C37.3766 30.2461 37.2854 30.0258 37.1224 29.8638L36.8403 30.1474C36.9277 30.2343 36.9766 30.3524 36.9766 30.4751H37.3766ZM37.1224 29.8638C36.9594 29.7017 36.7383 29.6115 36.509 29.6115V30.0115C36.6336 30.0115 36.753 30.0606 36.8403 30.1474L37.1224 29.8638ZM36.509 29.6115H28.4976V30.0115H36.509V29.6115ZM28.4976 29.6115C28.0194 29.6115 27.63 29.9969 27.63 30.4751H28.03C28.03 30.22 28.2381 30.0115 28.4976 30.0115V29.6115ZM27.63 30.4751C27.63 30.9534 28.0194 31.3388 28.4976 31.3388V30.9388C28.2381 30.9388 28.03 30.7302 28.03 30.4751H27.63ZM28.4976 31.3388H36.509V30.9388H28.4976V31.3388ZM36.509 31.3388C36.7383 31.3388 36.9593 31.2485 37.1223 31.0865L36.8404 30.8028C36.753 30.8897 36.6336 30.9388 36.509 30.9388V31.3388ZM37.1223 31.0865C37.2854 30.9244 37.3766 30.7041 37.3766 30.4751H36.9766C36.9766 30.5979 36.9277 30.716 36.8404 30.8028L37.1223 31.0865ZM41.3823 26.4932C41.3823 26.2642 41.2911 26.0439 41.128 25.8818L40.846 26.1655C40.9334 26.2523 40.9823 26.3705 40.9823 26.4932H41.3823ZM41.128 25.8818C40.965 25.7198 40.744 25.6295 40.5147 25.6295V26.0295C40.6393 26.0295 40.7587 26.0786 40.846 26.1655L41.128 25.8818ZM40.5147 25.6295H29.1655V26.0295H40.5147V25.6295ZM29.1655 25.6295C28.6873 25.6295 28.2978 26.0149 28.2978 26.4932H28.6978C28.6978 26.2381 28.9059 26.0295 29.1655 26.0295V25.6295ZM28.2978 26.4932C28.2978 26.9714 28.6873 27.3568 29.1655 27.3568V26.9568C28.9059 26.9568 28.6978 26.7483 28.6978 26.4932H28.2978ZM29.1655 27.3568H40.5147V26.9568H29.1655V27.3568ZM40.5147 27.3568C40.744 27.3568 40.965 27.2666 41.128 27.1046L40.846 26.8209C40.7586 26.9077 40.6392 26.9568 40.5147 26.9568V27.3568ZM41.128 27.1046C41.2911 26.9425 41.3823 26.7222 41.3823 26.4932H40.9823C40.9823 26.616 40.9334 26.7341 40.846 26.8209L41.128 27.1046ZM29.6331 22.5113C29.6331 22.7402 29.7243 22.9606 29.8874 23.1226L30.1694 22.839C30.082 22.7521 30.0331 22.634 30.0331 22.5113H29.6331ZM29.8874 23.1226C30.0504 23.2847 30.2714 23.3749 30.5007 23.3749V22.9749C30.3761 22.9749 30.2567 22.9258 30.1694 22.839L29.8874 23.1226ZM30.5007 23.3749H33.8388V22.9749H30.5007V23.3749ZM33.8388 23.3749C34.317 23.3749 34.7064 22.9895 34.7064 22.5113H34.3064C34.3064 22.7664 34.0983 22.9749 33.8388 22.9749V23.3749ZM34.7064 22.5113C34.7064 22.033 34.317 21.6476 33.8388 21.6476V22.0476C34.0983 22.0476 34.3064 22.2562 34.3064 22.5113H34.7064ZM33.8388 21.6476H30.5007V22.0476H33.8388V21.6476ZM30.5007 21.6476C30.0225 21.6476 29.6331 22.033 29.6331 22.5113H30.0331C30.0331 22.2562 30.2412 22.0476 30.5007 22.0476V21.6476ZM40.5149 21.6476H36.5092V22.0476H40.5149V21.6476ZM36.5092 21.6476C36.031 21.6476 35.6416 22.033 35.6416 22.5113H36.0416C36.0416 22.2562 36.2497 22.0476 36.5092 22.0476V21.6476ZM35.6416 22.5113C35.6416 22.9895 36.031 23.3749 36.5092 23.3749V22.9749C36.2497 22.9749 36.0416 22.7663 36.0416 22.5113H35.6416ZM36.5092 23.3749H40.5149V22.9749H36.5092V23.3749ZM40.5149 23.3749C40.9931 23.3749 41.3825 22.9895 41.3825 22.5113H40.9825C40.9825 22.7663 40.7744 22.9749 40.5149 22.9749V23.3749ZM41.3825 22.5113C41.3825 22.033 40.9931 21.6476 40.5149 21.6476V22.0476C40.7744 22.0476 40.9825 22.2562 40.9825 22.5113H41.3825ZM35.174 19.393C35.6522 19.393 36.0416 19.0076 36.0416 18.5293H35.6416C35.6416 18.7844 35.4335 18.993 35.174 18.993V19.393ZM36.0416 18.5293C36.0416 18.0511 35.6522 17.6657 35.174 17.6657V18.0657C35.4335 18.0657 35.6416 18.2742 35.6416 18.5293H36.0416ZM35.174 17.6657H32.5035V18.0657H35.174V17.6657ZM32.5035 17.6657C32.0253 17.6657 31.6359 18.0511 31.6359 18.5293H32.0359C32.0359 18.2742 32.244 18.0657 32.5035 18.0657V17.6657ZM31.6359 18.5293C31.6359 19.0076 32.0253 19.393 32.5035 19.393V18.993C32.244 18.993 32.0359 18.7844 32.0359 18.5293H31.6359ZM32.5035 19.393H35.174V18.993H32.5035V19.393ZM30.0331 13.2203C30.0331 12.9652 30.2412 12.7566 30.5007 12.7566V12.3566C30.0225 12.3566 29.6331 12.742 29.6331 13.2203H30.0331ZM30.5007 12.7566H37.4054V12.3566H30.5007V12.7566ZM37.4058 12.7566C38.2393 12.755 39.0377 13.0827 39.6257 13.6703L39.9085 13.3874C39.2447 12.724 38.344 12.3548 37.4051 12.3566L37.4058 12.7566ZM39.6261 13.6707L43.4031 17.4253L43.6851 17.1417L39.9081 13.387L39.6261 13.6707ZM43.5441 17.0835H43.5424V17.4835H43.5441V17.0835ZM43.4018 17.4257C43.9914 18.0087 44.3221 18.8018 44.3205 19.6291L44.7205 19.6299C44.7223 18.6952 44.3486 17.7994 43.683 17.1413L43.4018 17.4257ZM44.3205 19.6295V23.8388H44.7205V19.6295H44.3205ZM44.3205 23.8388C44.3205 24.0939 44.1124 24.3024 43.8529 24.3024V24.7024C44.3311 24.7024 44.7205 24.317 44.7205 23.8388H44.3205ZM43.8529 24.3024C43.5934 24.3024 43.3853 24.0939 43.3853 23.8388H42.9853C42.9853 24.317 43.3747 24.7024 43.8529 24.7024V24.3024ZM43.3853 23.8388V19.6295H42.9853V23.8388H43.3853ZM43.3853 19.6273C43.3834 19.4645 43.3632 19.3039 43.3266 19.1476L42.9371 19.2387C42.9673 19.3678 42.9838 19.4992 42.9853 19.6318L43.3853 19.6273ZM43.1319 18.9932H39.8472V19.3932H43.1319V18.9932ZM39.8475 18.9932C38.8517 18.9917 38.0459 18.1889 38.0444 17.2019L37.6444 17.2025C37.6462 18.4122 38.6329 19.3914 39.8469 19.3932L39.8475 18.9932ZM38.0444 17.2022V13.9354H37.6444V17.2022H38.0444ZM37.8894 13.7405C37.7309 13.7039 37.5696 13.6857 37.4077 13.6839L37.4032 14.0839C37.5383 14.0854 37.6707 14.1005 37.7993 14.1302L37.8894 13.7405ZM37.4054 13.6839H30.5007V14.0839H37.4054V13.6839ZM30.5007 13.6839C30.2412 13.6839 30.0331 13.4754 30.0331 13.2203H29.6331C29.6331 13.6985 30.0225 14.0839 30.5007 14.0839V13.6839ZM38.9797 14.8213V17.2022H39.3797V14.8213H38.9797ZM38.9797 17.2022C38.9797 17.6805 39.3691 18.0659 39.8473 18.0659V17.6659C39.5878 17.6659 39.3797 17.4573 39.3797 17.2022H38.9797ZM39.8473 18.0659H42.2407V17.6659H39.8473V18.0659ZM42.3817 17.7241L39.3207 14.6795L39.0386 14.9631L42.0997 18.0077L42.3817 17.7241ZM43.8532 38.9029C43.375 38.9029 42.9856 39.2883 42.9856 39.7666H43.3856C43.3856 39.5115 43.5937 39.3029 43.8532 39.3029V38.9029ZM42.9856 39.7666V45.0758H43.3856V39.7666H42.9856ZM42.9856 45.0755C42.9841 46.0625 42.1782 46.8653 41.1824 46.8668L41.183 47.2668C42.397 47.265 43.3837 46.2858 43.3856 45.0761L42.9856 45.0755ZM41.1827 46.8668H21.1543V47.2668H41.1827V46.8668ZM21.1546 46.8668C20.1588 46.8653 19.353 46.0625 19.3515 45.0755L18.9515 45.0761C18.9533 46.2858 19.94 47.265 21.154 47.2668L21.1546 46.8668ZM19.3515 45.0758V30.4754H18.9515V45.0758H19.3515ZM19.3515 30.4754C19.3515 29.9971 18.9621 29.6117 18.4839 29.6117V30.0117C18.7434 30.0117 18.9515 30.2203 18.9515 30.4754H19.3515ZM18.4839 29.6117C18.0057 29.6117 17.6163 29.9971 17.6163 30.4754H18.0163C18.0163 30.2203 18.2243 30.0117 18.4839 30.0117V29.6117ZM17.6163 30.4754V45.0758H18.0163V30.4754H17.6163ZM17.6163 45.076C17.618 47.0191 19.2023 48.5924 21.1541 48.5941L21.1545 48.1941C19.4211 48.1925 18.0178 46.7959 18.0163 45.0756L17.6163 45.076ZM21.1543 48.5941H41.1827V48.1941H21.1543V48.5941ZM41.1829 48.5941C43.1347 48.5923 44.719 47.0191 44.7208 45.076L44.3208 45.0756C44.3192 46.7959 42.916 48.1925 41.1826 48.1941L41.1829 48.5941ZM44.7208 45.0758V39.7666H44.3208V45.0758H44.7208ZM44.7208 39.7666C44.7208 39.5376 44.6296 39.3172 44.4665 39.1552L44.1845 39.4388C44.2718 39.5257 44.3208 39.6438 44.3208 39.7666H44.7208ZM44.4665 39.1552C44.3035 38.9931 44.0825 38.9029 43.8532 38.9029V39.3029C43.9778 39.3029 44.0972 39.352 44.1845 39.4388L44.4665 39.1552ZM49.3637 30.964L36.1734 44.0762L36.4554 44.3599L49.6457 31.2477L49.3637 30.964ZM36.1734 44.0762C36.1137 44.1356 36.0376 44.1784 35.957 44.1979L36.0509 44.5867C36.204 44.5497 36.3448 44.4698 36.4554 44.3599L36.1734 44.0762ZM35.9557 44.1982L30.6148 45.5255L30.7113 45.9137L36.0522 44.5864L35.9557 44.1982ZM30.6148 45.5255C30.4552 45.5651 30.2851 45.5182 30.1698 45.4035L29.8878 45.6872C30.1029 45.9011 30.4168 45.9868 30.7113 45.9137L30.6148 45.5255ZM30.1705 45.4042C30.0542 45.2874 30.0081 45.1203 30.0475 44.9637L29.6596 44.8661C29.5855 45.1607 29.673 45.4715 29.8871 45.6865L30.1705 45.4042ZM30.0475 44.9637L31.3827 39.6544L30.9948 39.5568L29.6596 44.8661L30.0475 44.9637ZM31.3824 39.6557C31.4039 39.5726 31.4466 39.4969 31.505 39.4389L31.223 39.1552C31.1112 39.2663 31.0337 39.4064 30.9951 39.5555L31.3824 39.6557ZM31.505 39.4389L44.6954 26.3267L44.4134 26.043L31.223 39.1552L31.505 39.4389ZM44.6954 26.3267C45.9843 25.0454 48.0748 25.0454 49.3637 26.3267L49.6457 26.043C48.2008 24.6066 45.8583 24.6066 44.4134 26.043L44.6954 26.3267ZM49.3637 26.3267C50.652 27.6073 50.652 29.6834 49.3637 30.964L49.6457 31.2477C51.0913 29.8107 51.0913 27.48 49.6457 26.043L49.3637 26.3267ZM35.9828 42.9515L47.0552 31.9447L46.7732 31.661L35.7008 42.6678L35.9828 42.9515ZM47.0552 31.661L45.997 30.6091L45.715 30.8928L46.7732 31.9447L47.0552 31.661ZM45.715 30.6091L34.6426 41.6159L34.9246 41.8995L45.997 30.8928L45.715 30.6091ZM34.6426 41.8995L35.7008 42.9515L35.9828 42.6678L34.9246 41.6159L34.6426 41.8995ZM45.0525 29.6699L43.9944 28.6179L43.7124 28.9016L44.7705 29.9535L45.0525 29.6699ZM43.7124 28.6179L32.64 39.6247L32.922 39.9084L43.9944 28.9016L43.7124 28.6179ZM32.64 39.9084L33.6982 40.9603L33.9802 40.6766L32.922 39.6247L32.64 39.9084ZM33.9802 40.9603L45.0525 29.9535L44.7705 29.6699L33.6982 40.6766L33.9802 40.9603ZM31.4674 44.3574L34.5851 43.5825L34.4887 43.1944L31.3709 43.9692L31.4674 44.3574ZM34.6779 43.2466L32.3396 40.9221L32.0576 41.2058L34.3959 43.5303L34.6779 43.2466ZM32.0046 41.0152L31.2252 44.1145L31.6131 44.212L32.3925 41.1128L32.0046 41.0152ZM48.6977 26.9789C47.7643 26.0926 46.2947 26.0926 45.3613 26.9789L45.6367 27.269C46.4157 26.5293 47.6433 26.5293 48.4223 27.269L48.6977 26.9789ZM45.358 26.9821L44.657 27.6789L44.939 27.9626L45.64 27.2658L45.358 26.9821ZM44.657 27.9626L47.718 31.0055L48 30.7218L44.939 27.6789L44.657 27.9626ZM48 31.0055L48.701 30.3087L48.419 30.025L47.718 30.7218L48 31.0055ZM48.7012 30.3085C49.6242 29.3892 49.6242 27.9016 48.7012 26.9822L48.4189 27.2656C49.1849 28.0287 49.1849 29.2621 48.4189 30.0251L48.7012 30.3085ZM18.0187 25.8902C17.6673 25.7754 17.3225 25.6347 16.9908 25.4699L16.8128 25.8281C17.1621 26.0017 17.5249 26.1497 17.8945 26.2705L18.0187 25.8902ZM16.805 25.4739L15.4899 26.2006L15.6833 26.5507L16.9985 25.824L16.805 25.4739ZM15.4907 26.2002C15.0456 26.4433 14.4924 26.3653 14.1331 26.0109L13.8522 26.2957C14.3374 26.7742 15.0827 26.8788 15.6825 26.5512L15.4907 26.2002ZM14.1337 26.0116L12.9587 24.8419L12.6765 25.1254L13.8515 26.2951L14.1337 26.0116ZM12.9592 24.8424C12.6029 24.4854 12.5252 23.9387 12.769 23.4976L12.4189 23.3041C12.0886 23.9016 12.1945 24.6424 12.6761 25.1249L12.9592 24.8424ZM12.7685 23.4984L13.4996 22.191L13.1504 21.9958L12.4194 23.3032L12.7685 23.4984ZM13.5042 22.0046C13.3393 21.6719 13.1962 21.3306 13.081 20.982L12.7012 21.1076C12.8229 21.4759 12.9735 21.8346 13.1458 22.1822L13.5042 22.0046ZM12.9457 20.8524L11.497 20.441L11.3877 20.8257L12.8364 21.2372L12.9457 20.8524ZM11.5834 20.4915L11.5817 20.4899L11.2997 20.7735L11.3014 20.7752L11.5834 20.4915ZM11.496 20.4395C11.0097 20.2996 10.6741 19.8576 10.6727 19.3553L10.2727 19.3564C10.2746 20.0386 10.73 20.6353 11.3854 20.8239L11.496 20.4395ZM10.6727 19.3558V17.7033H10.2727V19.3558H10.6727ZM10.6727 17.7039C10.6741 17.2015 11.0097 16.7596 11.496 16.6196L11.3854 16.2352C10.73 16.4238 10.2746 17.0205 10.2727 17.7028L10.6727 17.7039ZM11.4953 16.6198L12.944 16.2084L12.8348 15.8236L11.386 16.235L11.4953 16.6198ZM13.0304 16.1578L13.0321 16.1562L12.7501 15.8725L12.7484 15.8741L13.0304 16.1578ZM13.081 16.0771C13.1962 15.7286 13.3393 15.3872 13.5042 15.0545L13.1458 14.8769C12.9735 15.2245 12.8229 15.5833 12.7012 15.9515L13.081 16.0771ZM13.4996 14.8681L12.7685 13.5607L12.4194 13.7559L13.1504 15.0633L13.4996 14.8681ZM12.7689 13.5613C12.5253 13.1221 12.6029 12.5738 12.9592 12.2168L12.6761 11.9342C12.1945 12.4167 12.0885 13.1592 12.4191 13.7553L12.7689 13.5613ZM12.9586 12.2173L14.1353 11.0476L13.8533 10.7639L12.6766 11.9336L12.9586 12.2173ZM14.135 11.0479C14.4941 10.6924 15.0469 10.6158 15.4905 10.8589L15.6827 10.5081C15.0847 10.1804 14.339 10.283 13.8536 10.7637L14.135 11.0479ZM15.4899 10.8585L16.805 11.5852L16.9985 11.2351L15.6833 10.5084L15.4899 10.8585ZM16.9908 11.5892C17.3224 11.4244 17.6673 11.2837 18.0187 11.1689L17.8945 10.7887C17.5249 10.9094 17.1621 11.0574 16.8127 11.2311L16.9908 11.5892ZM18.1488 11.034L18.5628 9.59219L18.1783 9.48181L17.7644 10.9236L18.1488 11.034ZM18.5626 9.59277C18.7028 9.10993 19.1482 8.77612 19.6562 8.77471L19.6551 8.37471C18.9716 8.37661 18.3687 8.82593 18.1785 9.48123L18.5626 9.59277ZM19.6557 8.77471H21.3197V8.37471H19.6557V8.77471ZM21.3197 8.37471H21.318V8.77471H21.3197V8.37471ZM21.3175 8.77471C21.8252 8.77612 22.2708 9.11122 22.4111 9.59442L22.7952 9.48289C22.6051 8.82795 22.0026 8.37661 21.3186 8.37471L21.3175 8.77471ZM22.411 9.5939L22.8249 11.034L23.2093 10.9235L22.7954 9.48341L22.411 9.5939ZM22.955 11.1689C23.3062 11.2836 23.6495 11.4243 23.9833 11.5894L24.1606 11.2309C23.8101 11.0575 23.449 10.9095 23.0792 10.7887L22.955 11.1689ZM24.1686 11.5853L25.4854 10.8586L25.2922 10.5084L23.9753 11.235L24.1686 11.5853ZM25.3888 10.4835H25.3871V10.8835H25.3888V10.4835ZM25.483 10.859C25.9285 10.6157 26.4814 10.6925 26.8404 11.0479L27.1218 10.7637C26.6362 10.2829 25.8907 10.1805 25.2913 10.5079L25.483 10.859ZM26.8401 11.0476L28.0151 12.2157L28.2971 11.932L27.1221 10.7639L26.8401 11.0476ZM27.9561 12.0738V12.0755H28.3561V12.0738H27.9561ZM28.0145 12.2168C28.3708 12.5737 28.4484 13.1202 28.2033 13.5611L28.5529 13.7555C28.8852 13.1577 28.7793 12.4168 28.2976 11.9342L28.0145 12.2168ZM28.2035 13.5607L27.4725 14.8681L27.8216 15.0633L28.5526 13.7559L28.2035 13.5607ZM27.647 15.1657H27.6487V14.7657H27.647V15.1657ZM27.4697 15.0549C27.6341 15.3849 27.7757 15.7281 27.893 16.0779L28.2723 15.9507C28.1492 15.5837 28.0005 15.2234 27.8277 14.8766L27.4697 15.0549ZM28.028 16.2067L29.4767 16.6182L29.586 16.2334L28.1373 15.8219L28.028 16.2067ZM29.4762 16.618C29.9638 16.7579 30.2996 17.2013 30.3011 17.7039L30.701 17.7028C30.6991 17.0207 30.2438 16.4221 29.5865 16.2335L29.4762 16.618ZM30.3011 17.7033V19.3558H30.7011V17.7033H30.3011ZM30.3011 19.3553C30.2996 19.8576 29.964 20.2996 29.4777 20.4395L29.5883 20.8239C30.2437 20.6353 30.6991 20.0386 30.701 19.3564L30.3011 19.3553ZM29.4784 20.4393L28.0297 20.8508L28.139 21.2356L29.5877 20.8241L29.4784 20.4393ZM27.9433 20.9013L27.9416 20.903L28.2236 21.1867L28.2253 21.185L27.9433 20.9013ZM27.8928 20.982C27.7775 21.3305 27.6344 21.6719 27.4695 22.0046L27.8279 22.1822C28.0002 21.8346 28.1508 21.4759 28.2725 21.1076L27.8928 20.982ZM27.4741 22.191L28.2052 23.4984L28.5543 23.3032L27.8233 21.9958L27.4741 22.191ZM28.2048 23.4978C28.4484 23.937 28.3708 24.4853 28.0145 24.8424L28.2976 25.1249C28.7792 24.6424 28.8852 23.8999 28.5546 23.3038L28.2048 23.4978ZM28.0151 24.8418L26.8384 26.0115L27.1204 26.2952L28.2971 25.1255L28.0151 24.8418ZM26.839 26.0109C26.4795 26.3654 25.9266 26.443 25.4837 26.1989L25.2906 26.5492C25.8892 26.8791 26.6348 26.7741 27.1198 26.2957L26.839 26.0109ZM25.4839 26.199L24.1687 25.4723L23.9752 25.8224L25.2904 26.5491L25.4839 26.199ZM23.8719 25.6473V25.649H24.2719V25.6473H23.8719ZM23.9836 25.4695C23.6515 25.633 23.3062 25.7739 22.9542 25.8905L23.08 26.2702C23.4491 26.1479 23.8114 26.0001 24.1603 25.8284L23.9836 25.4695ZM22.8249 26.0252L22.4109 27.4669L22.7954 27.5773L23.2093 26.1355L22.8249 26.0252ZM22.4111 27.4664C22.2709 27.9492 21.8256 28.283 21.3175 28.2844L21.3186 28.6844C22.0022 28.6825 22.605 28.2332 22.7952 27.5779L22.4111 27.4664ZM21.318 28.2844H19.6557V28.6844H21.318V28.2844ZM19.6562 28.2844C19.1485 28.283 18.7029 27.9479 18.5626 27.4647L18.1785 27.5762C18.3686 28.2312 18.9712 28.6825 19.6551 28.6844L19.6562 28.2844ZM18.5627 27.4652L18.1488 26.0251L17.7644 26.1356L18.1783 27.5757L18.5627 27.4652ZM17.1252 24.4899C17.5995 24.753 18.1032 24.9598 18.6276 25.1051L18.7344 24.7196C18.2406 24.5828 17.7662 24.3881 17.3192 24.1401L17.1252 24.4899ZM18.6263 25.1047C18.7828 25.1491 18.9052 25.2705 18.9493 25.4251L19.3339 25.3154C19.2512 25.0254 19.0231 24.8016 18.7356 24.7199L18.6263 25.1047ZM18.9494 25.4255L19.4635 27.2124L19.8479 27.1018L19.3338 25.3149L18.9494 25.4255ZM19.6557 27.3571H21.318V26.9571H19.6557V27.3571ZM21.5103 27.2122L22.0227 25.4237L21.6381 25.3135L21.1257 27.102L21.5103 27.2122ZM21.8304 25.5686H21.8321V25.1686H21.8304V25.5686ZM22.0243 25.4238C22.0683 25.2707 22.1907 25.1492 22.3474 25.1047L22.2381 24.7199C21.9508 24.8015 21.7227 25.0251 21.6399 25.3133L22.0243 25.4238ZM22.3461 25.1051C22.8705 24.9598 23.3741 24.753 23.8485 24.4899L23.6545 24.1401C23.2074 24.3881 22.733 24.5828 22.2393 24.7196L22.3461 25.1051ZM23.849 24.4896C23.9913 24.4101 24.1645 24.4096 24.3048 24.488L24.4999 24.1388C24.2364 23.9915 23.9155 23.9943 23.6539 24.1404L23.849 24.4896ZM24.3057 24.4885L25.938 25.3894L26.1313 25.0392L24.499 24.1383L24.3057 24.4885ZM26.1757 25.3561L27.3523 24.1864L27.0703 23.9028L25.8937 25.0725L26.1757 25.3561ZM27.386 23.9471L26.4797 22.3244L26.1304 22.5195L27.0367 24.1421L27.386 23.9471ZM26.1051 22.422V22.4236H26.5051V22.422H26.1051ZM26.4795 22.3258C26.4006 22.1852 26.4012 22.0154 26.4812 21.8727L26.1323 21.6771C25.9853 21.9393 25.9825 22.2573 26.1306 22.5214L26.4795 22.3258ZM26.4811 21.8728C26.7459 21.4012 26.9539 20.9003 27.1001 20.3788L26.715 20.2708C26.5775 20.7614 26.3817 21.2328 26.1323 21.677L26.4811 21.8728ZM27.0998 20.3801C27.1441 20.2257 27.2657 20.1036 27.4225 20.0594L27.3139 19.6744C27.0234 19.7563 26.7978 19.9826 26.7153 20.2696L27.0998 20.3801ZM27.4229 20.0593L29.2204 19.5483L29.111 19.1635L27.3135 19.6745L27.4229 20.0593ZM29.3657 19.3559V17.7034H28.9657V19.3559H29.3657ZM29.2204 17.511L27.4229 17L27.3135 17.3848L29.111 17.8958L29.2204 17.511ZM27.4225 16.9999C27.2657 16.9557 27.1441 16.8336 27.0998 16.6792L26.7153 16.7897C26.7978 17.0767 27.0234 17.303 27.3139 17.3849L27.4225 16.9999ZM27.1001 16.6805C26.954 16.1591 26.7459 15.6566 26.4811 15.1848L26.1323 15.3806C26.3816 15.8247 26.5774 16.2978 26.715 16.7885L27.1001 16.6805ZM26.4808 15.1843C26.4014 15.0439 26.4005 14.8744 26.4795 14.7335L26.1306 14.5378C25.9826 14.8018 25.985 15.1201 26.1326 15.3811L26.4808 15.1843ZM26.4797 14.7332L27.386 13.1106L27.0367 12.9155L26.1304 14.5381L26.4797 14.7332ZM27.3523 12.8712L26.1773 11.7032L25.8953 11.9868L27.0703 13.1549L27.3523 12.8712ZM25.9398 11.6699L24.3058 12.5708L24.4989 12.9211L26.1329 12.0201L25.9398 11.6699ZM24.3048 12.5713C24.1645 12.6497 23.9913 12.6492 23.849 12.5697L23.6539 12.9189C23.9155 13.065 24.2364 13.0677 24.4999 12.9205L24.3048 12.5713ZM23.8485 12.5694C23.3742 12.3063 22.8705 12.0995 22.3461 11.9542L22.2393 12.3397C22.733 12.4765 23.2075 12.6712 23.6545 12.9192L23.8485 12.5694ZM22.3474 11.9546C22.1907 11.9101 22.0683 11.7885 22.0243 11.6355L21.6398 11.746C21.7227 12.0342 21.9508 12.2578 22.2381 12.3394L22.3474 11.9546ZM22.0243 11.6355L21.5102 9.84694L21.1258 9.95743L21.6398 11.746L22.0243 11.6355ZM21.318 9.70219H19.6557V10.1022H21.318V9.70219ZM19.4634 9.84711L18.951 11.6356L19.3355 11.7458L19.8479 9.95727L19.4634 9.84711ZM19.1433 11.4907H19.1416V11.8907H19.1433V11.4907ZM18.9494 11.6355C18.9054 11.7886 18.783 11.9101 18.6263 11.9546L18.7356 12.3394C19.0229 12.2578 19.251 12.0342 19.3338 11.746L18.9494 11.6355ZM18.6276 11.9542C18.1032 12.0995 17.5996 12.3063 17.1252 12.5694L17.3192 12.9192C17.7663 12.6712 18.2406 12.4765 18.7344 12.3397L18.6276 11.9542ZM17.1247 12.5697C16.9823 12.6492 16.8092 12.6497 16.6689 12.5713L16.4738 12.9205C16.7373 13.0678 17.0582 13.065 17.3198 12.9189L17.1247 12.5697ZM16.6679 12.5708L15.0339 11.6699L14.8408 12.0201L16.4747 12.9211L16.6679 12.5708ZM14.7963 11.7032L13.6213 12.8712L13.9033 13.1549L15.0783 11.9868L14.7963 11.7032ZM13.5877 13.1106L14.494 14.7332L14.8432 14.5381L13.9369 12.9155L13.5877 13.1106ZM14.4942 14.7335C14.573 14.8741 14.5725 15.0439 14.4925 15.1866L14.8414 15.3822C14.9884 15.12 14.9912 14.802 14.8431 14.5379L14.4942 14.7335ZM14.4926 15.1865C14.2278 15.6581 14.0197 16.159 13.8735 16.6805L14.2587 16.7885C14.3962 16.2979 14.592 15.8265 14.8414 15.3823L14.4926 15.1865ZM13.8739 16.6792C13.8295 16.8336 13.7079 16.9557 13.5512 16.9999L13.6597 17.3849C13.9503 17.303 14.1759 17.0767 14.2583 16.7897L13.8739 16.6792ZM13.5508 17L11.7533 17.511L11.8626 17.8958L13.6602 17.3848L13.5508 17ZM11.6079 17.7034V19.3559H12.0079V17.7034H11.6079ZM11.7533 19.5483L13.5508 20.0593L13.6602 19.6745L11.8626 19.1635L11.7533 19.5483ZM13.5512 20.0594C13.708 20.1036 13.8295 20.2257 13.8739 20.3801L14.2583 20.2696C14.1759 19.9826 13.9503 19.7563 13.6597 19.6744L13.5512 20.0594ZM13.8735 20.3788C14.0197 20.9002 14.2278 21.4027 14.4925 21.8745L14.8414 21.6787C14.5921 21.2346 14.3963 20.7615 14.2587 20.2708L13.8735 20.3788ZM14.4929 21.875C14.5722 22.0154 14.5732 22.1849 14.4942 22.3258L14.8431 22.5215C14.9911 22.2575 14.9887 21.9392 14.8411 21.6782L14.4929 21.875ZM14.494 22.3261L13.5877 23.9487L13.9369 24.1438L14.8432 22.5212L14.494 22.3261ZM13.6214 24.1882L14.7981 25.3562L15.0799 25.0724L13.9032 23.9043L13.6214 24.1882ZM15.0356 25.3894L16.668 24.4885L16.4747 24.1383L14.8424 25.0392L15.0356 25.3894ZM16.6689 24.488C16.8092 24.4096 16.9824 24.4101 17.1247 24.4896L17.3198 24.1404C17.0582 23.9943 16.7373 23.9916 16.4738 24.1388L16.6689 24.488ZM20.4868 22.9752C18.6777 22.9752 17.0467 21.8917 16.3538 20.2312L15.9847 20.3852C16.7401 22.1956 18.5173 23.3752 20.4868 23.3752V22.9752ZM16.3539 20.2314C15.6624 18.5694 16.044 16.6581 17.3234 15.3863L17.0414 15.1026C15.6469 16.4888 15.2307 18.5728 15.9846 20.385L16.3539 20.2314ZM17.3234 15.3863C18.6029 14.1143 20.5268 13.7344 22.2003 14.4223L22.3523 14.0524C20.5307 13.3035 18.4356 13.7166 17.0414 15.1026L17.3234 15.3863ZM22.2 14.4222C23.8715 15.1116 24.9604 16.733 24.9604 18.5294H25.3604C25.3604 16.5698 24.1727 14.8032 22.3526 14.0525L22.2 14.4222ZM24.9604 18.5291C24.9572 20.9828 22.958 22.972 20.4866 22.9752L20.4871 23.3752C23.1768 23.3717 25.3569 21.206 25.3604 18.5296L24.9604 18.5291ZM20.4868 22.0479C21.9173 22.0479 23.2071 21.1918 23.7558 19.8758L23.3866 19.7219C22.9005 20.888 21.7569 21.6479 20.4868 21.6479V22.0479ZM23.7559 19.8757C24.3029 18.5611 24 17.0479 22.9879 16.0418L22.7059 16.3254C23.6031 17.2174 23.871 18.5578 23.3866 19.722L23.7559 19.8757ZM22.9879 16.0418C21.9759 15.0358 20.4549 14.7354 19.134 15.2786L19.2861 15.6485C20.4587 15.1664 21.8084 15.4333 22.7059 16.3254L22.9879 16.0418ZM19.1339 15.2786C17.811 15.8236 16.9488 17.1058 16.9488 18.5296H17.3488C17.3488 17.269 18.1122 16.1321 19.2862 15.6485L19.1339 15.2786ZM16.9488 18.5298C16.9506 20.473 18.5348 22.0461 20.4867 22.0479L20.487 21.6479C18.7536 21.6463 17.3504 20.2497 17.3488 18.5295L16.9488 18.5298Z" fill="#005496" mask="url(#path-2-outside-1_812_127)"/>
</svg>
