<svg width="60" height="60" viewBox="0 0 60 60" fill="none" xmlns="http://www.w3.org/2000/svg">
<circle cx="30" cy="30" r="29" stroke="#827E78" stroke-opacity="0.8" stroke-width="2"/>
<g clip-path="url(#clip0_812_128)">
<path d="M46.0647 14.3863L46.0673 14.2812L45.9622 14.2838C41.8096 14.3873 37.7328 15.4194 34.0312 17.3044C30.3443 19.182 27.1228 21.8582 24.6012 25.138C21.7084 25.1469 18.9308 26.2769 16.853 28.2916C14.7634 30.3178 13.5464 33.079 13.4606 35.9884L13.454 36.2114L13.6248 36.068C15.6369 34.3787 17.9996 33.1598 20.5406 32.499C20.2243 33.3597 19.9506 34.2356 19.7208 35.1234L19.7064 35.1788L19.7469 35.2192L25.1293 40.6017L25.1698 40.6421L25.2251 40.6278C26.1129 40.3979 26.9888 40.1243 27.8495 39.8079C27.1888 42.349 25.9698 44.7117 24.2806 46.7237L24.1371 46.8945L24.3601 46.8879C27.269 46.8022 30.0298 45.5855 32.0559 43.4965C34.0705 41.4194 35.2009 38.6425 35.2105 35.7502C38.4907 33.2283 41.1671 30.0063 43.0447 26.3188C44.9297 22.6167 45.9616 18.5394 46.0647 14.3863ZM44.2925 16.056C43.8207 21.2614 41.7995 26.207 38.4884 30.2535C35.1646 34.3155 30.6956 37.2827 25.6632 38.7699L21.5787 34.6854C23.0658 29.6529 26.0331 25.1839 30.095 21.8601C34.1415 18.549 39.0871 16.5278 44.2925 16.056ZM21.3157 30.6096C19.4332 30.9733 17.6158 31.6146 15.9227 32.5124C16.5703 31.0295 17.5864 29.7349 18.8764 28.7529C20.1839 27.7575 21.7261 27.1187 23.3519 26.8973C22.5799 28.0811 21.8992 29.3222 21.3157 30.6096ZM29.7389 39.0329C31.0263 38.4494 32.2674 37.7686 33.4512 36.9966C33.2298 38.6224 32.591 40.1646 31.5956 41.4722C30.6136 42.7621 29.319 43.7782 27.8361 44.4258C28.7339 42.7327 29.3752 40.9153 29.7389 39.0329Z" fill="#005496" stroke="#005496" stroke-width="0.2"/>
<path d="M14.5314 46.8598L14.6021 46.9305L14.6728 46.8598L22.5811 38.9515L22.6518 38.8808L22.5811 38.8101L21.5396 37.7686L21.4689 37.6979L21.3982 37.7686L13.4898 45.677L13.4191 45.7477L13.4898 45.8184L14.5314 46.8598Z" fill="#005496" stroke="#005496" stroke-width="0.2"/>
<path d="M14.5314 42.5185L14.6021 42.5892L14.6728 42.5185L20.4104 36.7808L20.4812 36.7101L20.4104 36.6394L19.3689 35.598L19.2982 35.5273L19.2275 35.598L13.4898 41.3357L13.4191 41.4064L13.4898 41.4771L14.5314 42.5185Z" fill="#005496" stroke="#005496" stroke-width="0.2"/>
<path d="M17.8316 45.677L17.7609 45.7477L17.8316 45.8184L18.8732 46.8599L18.9439 46.9306L19.0146 46.8599L24.7522 41.1222L24.8229 41.0515L24.7522 40.9808L23.7107 39.9392L23.64 39.8685L23.5693 39.9392L17.8316 45.677Z" fill="#005496" stroke="#005496" stroke-width="0.2"/>
</g>
<defs>
<clipPath id="clip0_812_128">
<rect width="35.35" height="44.1875" fill="white" transform="translate(12 13)"/>
</clipPath>
</defs>
</svg>
