<svg width="60" height="60" viewBox="0 0 60 60" fill="none" xmlns="http://www.w3.org/2000/svg">
<mask id="path-1-outside-1_813_136" maskUnits="userSpaceOnUse" x="9.51367" y="10.1602" width="41" height="41" fill="black">
<rect fill="white" x="9.51367" y="10.1602" width="41" height="41"/>
<path d="M48.723 36.4993C47.9584 35.681 46.7827 35.4203 45.7367 35.8259C44.5321 36.2893 43.1616 37.0932 41.6757 38.2157C41.0337 38.7009 40.2186 39.0557 39.3241 39.3164C39.49 38.4546 39.3025 37.3104 38.4802 36.6804C38.1628 36.4414 37.7877 36.3038 37.3405 36.2604C35.1116 36.0648 31.8945 35.1524 28.2733 33.6968C23.5197 31.7921 18.0811 36.2749 17.8503 36.4704C17.807 36.5066 17.7781 36.5573 17.7493 36.6008L17.3525 35.9128C17.2588 35.7462 17.1001 35.6231 16.9125 35.5724C16.7322 35.5217 16.5302 35.5507 16.3643 35.6448L10.8749 38.8312C10.5287 39.034 10.4132 39.4757 10.608 39.8234L16.35 49.8025C16.4437 49.9691 16.6024 50.0922 16.79 50.1429C16.8477 50.1574 16.9126 50.1646 16.9775 50.1646C17.1001 50.1646 17.23 50.1284 17.3382 50.0705L22.8276 46.884C23.1738 46.6813 23.2893 46.2395 23.0945 45.8919L22.6473 45.1098C24.4145 44.4001 26.5569 44.755 29.1897 45.1967C31.0507 45.5081 33.0849 45.8557 35.3139 45.8557C36.1146 45.8557 36.9369 45.8123 37.7881 45.7036C42.5126 45.1171 46.2634 42.5028 48.5864 40.4024C49.1491 39.881 49.4737 39.1496 49.4737 38.3819C49.4737 37.6722 49.2063 37.0063 48.723 36.4993ZM17.2443 48.4483L12.2239 39.7219L16.4653 37.2597L21.0024 45.1462V45.168L21.0168 45.1824L21.4784 45.9863L17.2371 48.4485L17.2443 48.4483ZM47.6192 39.3307C45.852 40.9312 42.2023 43.6903 37.6144 44.2626C34.6137 44.6392 31.8582 44.1757 29.4345 43.7629C26.5997 43.285 24.1113 42.8722 21.9254 43.8354L18.4125 37.723C18.5496 37.7085 18.6794 37.6651 18.7876 37.5709C18.8381 37.5275 23.8006 33.4503 27.7463 35.0363C31.49 36.5426 34.8585 37.484 37.2244 37.694C37.2893 37.694 37.4696 37.7157 37.6139 37.8244C37.888 38.0344 38.0178 38.5848 37.9096 39.07C37.9096 39.0772 37.9096 39.0917 37.9024 39.0989C37.8303 39.3669 37.6211 39.5986 37.3398 39.729C34.1371 40.1997 30.7899 39.8376 30.7396 39.8376C30.3357 39.8014 29.9894 40.0838 29.9461 40.4749C29.9029 40.8732 30.1842 41.2281 30.5809 41.2715C30.7612 41.2933 33.0911 41.5395 35.7961 41.344H35.8033C38.1693 41.1701 40.8094 40.6632 42.5406 39.3597C44.2574 38.0634 45.5052 37.4479 46.2554 37.1654C46.7531 36.9699 47.3085 37.093 47.6764 37.4841C47.9072 37.723 48.0299 38.0417 48.0299 38.3748C48.0299 38.7369 47.8784 39.0773 47.6187 39.3235L47.6192 39.3307Z"/>
<path d="M29.9978 20.705C32.6162 20.705 34.7514 18.5687 34.7514 15.9326C34.7514 13.2965 32.6235 11.1602 29.9978 11.1602C27.3721 11.1602 25.2442 13.2965 25.2442 15.9326C25.2442 18.5687 27.3721 20.705 29.9978 20.705ZM29.9978 12.6159C31.8227 12.6159 33.3087 14.1078 33.3087 15.94C33.3087 17.7721 31.8227 19.264 29.9978 19.264C28.1729 19.264 26.6869 17.7721 26.6869 15.94C26.6869 14.1078 28.1729 12.6159 29.9978 12.6159Z"/>
<path d="M21.9407 32.1687C22.3374 32.1687 22.662 31.8428 22.662 31.4445C22.662 27.3818 25.9512 24.0794 29.998 24.0794C34.0448 24.0794 37.334 27.3816 37.334 31.4445C37.334 31.8428 37.6586 32.1687 38.0554 32.1687C38.4521 32.1687 38.7767 31.8428 38.7767 31.4445C38.7767 26.5854 34.8383 22.631 29.998 22.631C25.1577 22.631 21.2194 26.585 21.2194 31.4445C21.2194 31.8428 21.5439 32.1687 21.9407 32.1687Z"/>
<path d="M19.2501 21.7983C21.5006 21.7983 23.3328 19.9588 23.3328 17.6993C23.3328 15.4399 21.5006 13.6077 19.2501 13.6077C16.9996 13.6077 15.1674 15.4472 15.1674 17.6993C15.1674 19.9515 16.9996 21.7983 19.2501 21.7983ZM19.2501 15.056C20.7072 15.056 21.8902 16.2437 21.8902 17.6993C21.8902 19.1549 20.7072 20.3498 19.2501 20.3498C17.793 20.3498 16.6101 19.1622 16.6101 17.6993C16.6101 16.2364 17.793 15.056 19.2501 15.056Z"/>
<path d="M12.5345 31.3502C12.9312 31.3502 13.2558 31.0244 13.2558 30.6261C13.2558 27.3093 15.9463 24.6083 19.2498 24.6083C20.0072 24.6083 20.7429 24.7459 21.4426 25.021C21.8177 25.1659 22.2288 24.9848 22.3803 24.6155C22.5246 24.2462 22.3442 23.8261 21.9764 23.6741C21.1108 23.3337 20.1947 23.1599 19.257 23.1599C15.1527 23.1599 11.8203 26.5129 11.8203 30.6261C11.8203 31.0244 12.1449 31.3503 12.5417 31.3503L12.5345 31.3502Z"/>
<path d="M40.7454 21.7983C42.9959 21.7983 44.8281 19.9588 44.8281 17.6993C44.8281 15.4399 42.9959 13.6077 40.7454 13.6077C38.4949 13.6077 36.6627 15.4472 36.6627 17.6993C36.6627 19.9515 38.4949 21.7983 40.7454 21.7983ZM40.7454 15.056C42.2024 15.056 43.3855 16.2437 43.3855 17.6993C43.3855 19.1549 42.2025 20.3498 40.7454 20.3498C39.2883 20.3498 38.1053 19.1622 38.1053 17.6993C38.1053 16.2364 39.2883 15.056 40.7454 15.056Z"/>
<path d="M38.0189 23.6741C37.6511 23.8189 37.4635 24.239 37.615 24.6155C37.7665 24.992 38.1777 25.1731 38.5527 25.021C39.2524 24.7459 39.9881 24.6083 40.7455 24.6083C44.0492 24.6083 46.7395 27.3095 46.7395 30.6261C46.7395 31.0244 47.0641 31.3503 47.4609 31.3503C47.8576 31.3503 48.1822 31.0244 48.1822 30.6261C48.1822 26.5055 44.8424 23.1599 40.7455 23.1599C39.8078 23.1599 38.8917 23.3337 38.0261 23.6741L38.0189 23.6741Z"/>
</mask>
<path d="M48.723 36.4993C47.9584 35.681 46.7827 35.4203 45.7367 35.8259C44.5321 36.2893 43.1616 37.0932 41.6757 38.2157C41.0337 38.7009 40.2186 39.0557 39.3241 39.3164C39.49 38.4546 39.3025 37.3104 38.4802 36.6804C38.1628 36.4414 37.7877 36.3038 37.3405 36.2604C35.1116 36.0648 31.8945 35.1524 28.2733 33.6968C23.5197 31.7921 18.0811 36.2749 17.8503 36.4704C17.807 36.5066 17.7781 36.5573 17.7493 36.6008L17.3525 35.9128C17.2588 35.7462 17.1001 35.6231 16.9125 35.5724C16.7322 35.5217 16.5302 35.5507 16.3643 35.6448L10.8749 38.8312C10.5287 39.034 10.4132 39.4757 10.608 39.8234L16.35 49.8025C16.4437 49.9691 16.6024 50.0922 16.79 50.1429C16.8477 50.1574 16.9126 50.1646 16.9775 50.1646C17.1001 50.1646 17.23 50.1284 17.3382 50.0705L22.8276 46.884C23.1738 46.6813 23.2893 46.2395 23.0945 45.8919L22.6473 45.1098C24.4145 44.4001 26.5569 44.755 29.1897 45.1967C31.0507 45.5081 33.0849 45.8557 35.3139 45.8557C36.1146 45.8557 36.9369 45.8123 37.7881 45.7036C42.5126 45.1171 46.2634 42.5028 48.5864 40.4024C49.1491 39.881 49.4737 39.1496 49.4737 38.3819C49.4737 37.6722 49.2063 37.0063 48.723 36.4993ZM17.2443 48.4483L12.2239 39.7219L16.4653 37.2597L21.0024 45.1462V45.168L21.0168 45.1824L21.4784 45.9863L17.2371 48.4485L17.2443 48.4483ZM47.6192 39.3307C45.852 40.9312 42.2023 43.6903 37.6144 44.2626C34.6137 44.6392 31.8582 44.1757 29.4345 43.7629C26.5997 43.285 24.1113 42.8722 21.9254 43.8354L18.4125 37.723C18.5496 37.7085 18.6794 37.6651 18.7876 37.5709C18.8381 37.5275 23.8006 33.4503 27.7463 35.0363C31.49 36.5426 34.8585 37.484 37.2244 37.694C37.2893 37.694 37.4696 37.7157 37.6139 37.8244C37.888 38.0344 38.0178 38.5848 37.9096 39.07C37.9096 39.0772 37.9096 39.0917 37.9024 39.0989C37.8303 39.3669 37.6211 39.5986 37.3398 39.729C34.1371 40.1997 30.7899 39.8376 30.7396 39.8376C30.3357 39.8014 29.9894 40.0838 29.9461 40.4749C29.9029 40.8732 30.1842 41.2281 30.5809 41.2715C30.7612 41.2933 33.0911 41.5395 35.7961 41.344H35.8033C38.1693 41.1701 40.8094 40.6632 42.5406 39.3597C44.2574 38.0634 45.5052 37.4479 46.2554 37.1654C46.7531 36.9699 47.3085 37.093 47.6764 37.4841C47.9072 37.723 48.0299 38.0417 48.0299 38.3748C48.0299 38.7369 47.8784 39.0773 47.6187 39.3235L47.6192 39.3307Z" fill="#005496"/>
<path d="M29.9978 20.705C32.6162 20.705 34.7514 18.5687 34.7514 15.9326C34.7514 13.2965 32.6235 11.1602 29.9978 11.1602C27.3721 11.1602 25.2442 13.2965 25.2442 15.9326C25.2442 18.5687 27.3721 20.705 29.9978 20.705ZM29.9978 12.6159C31.8227 12.6159 33.3087 14.1078 33.3087 15.94C33.3087 17.7721 31.8227 19.264 29.9978 19.264C28.1729 19.264 26.6869 17.7721 26.6869 15.94C26.6869 14.1078 28.1729 12.6159 29.9978 12.6159Z" fill="#005496"/>
<path d="M21.9407 32.1687C22.3374 32.1687 22.662 31.8428 22.662 31.4445C22.662 27.3818 25.9512 24.0794 29.998 24.0794C34.0448 24.0794 37.334 27.3816 37.334 31.4445C37.334 31.8428 37.6586 32.1687 38.0554 32.1687C38.4521 32.1687 38.7767 31.8428 38.7767 31.4445C38.7767 26.5854 34.8383 22.631 29.998 22.631C25.1577 22.631 21.2194 26.585 21.2194 31.4445C21.2194 31.8428 21.5439 32.1687 21.9407 32.1687Z" fill="#005496"/>
<path d="M19.2501 21.7983C21.5006 21.7983 23.3328 19.9588 23.3328 17.6993C23.3328 15.4399 21.5006 13.6077 19.2501 13.6077C16.9996 13.6077 15.1674 15.4472 15.1674 17.6993C15.1674 19.9515 16.9996 21.7983 19.2501 21.7983ZM19.2501 15.056C20.7072 15.056 21.8902 16.2437 21.8902 17.6993C21.8902 19.1549 20.7072 20.3498 19.2501 20.3498C17.793 20.3498 16.6101 19.1622 16.6101 17.6993C16.6101 16.2364 17.793 15.056 19.2501 15.056Z" fill="#005496"/>
<path d="M12.5345 31.3502C12.9312 31.3502 13.2558 31.0244 13.2558 30.6261C13.2558 27.3093 15.9463 24.6083 19.2498 24.6083C20.0072 24.6083 20.7429 24.7459 21.4426 25.021C21.8177 25.1659 22.2288 24.9848 22.3803 24.6155C22.5246 24.2462 22.3442 23.8261 21.9764 23.6741C21.1108 23.3337 20.1947 23.1599 19.257 23.1599C15.1527 23.1599 11.8203 26.5129 11.8203 30.6261C11.8203 31.0244 12.1449 31.3503 12.5417 31.3503L12.5345 31.3502Z" fill="#005496"/>
<path d="M40.7454 21.7983C42.9959 21.7983 44.8281 19.9588 44.8281 17.6993C44.8281 15.4399 42.9959 13.6077 40.7454 13.6077C38.4949 13.6077 36.6627 15.4472 36.6627 17.6993C36.6627 19.9515 38.4949 21.7983 40.7454 21.7983ZM40.7454 15.056C42.2024 15.056 43.3855 16.2437 43.3855 17.6993C43.3855 19.1549 42.2025 20.3498 40.7454 20.3498C39.2883 20.3498 38.1053 19.1622 38.1053 17.6993C38.1053 16.2364 39.2883 15.056 40.7454 15.056Z" fill="#005496"/>
<path d="M38.0189 23.6741C37.6511 23.8189 37.4635 24.239 37.615 24.6155C37.7665 24.992 38.1777 25.1731 38.5527 25.021C39.2524 24.7459 39.9881 24.6083 40.7455 24.6083C44.0492 24.6083 46.7395 27.3095 46.7395 30.6261C46.7395 31.0244 47.0641 31.3503 47.4609 31.3503C47.8576 31.3503 48.1822 31.0244 48.1822 30.6261C48.1822 26.5055 44.8424 23.1599 40.7455 23.1599C39.8078 23.1599 38.8917 23.3337 38.0261 23.6741L38.0189 23.6741Z" fill="#005496"/>
<path d="M48.723 36.4993C47.9584 35.681 46.7827 35.4203 45.7367 35.8259C44.5321 36.2893 43.1616 37.0932 41.6757 38.2157C41.0337 38.7009 40.2186 39.0557 39.3241 39.3164C39.49 38.4546 39.3025 37.3104 38.4802 36.6804C38.1628 36.4414 37.7877 36.3038 37.3405 36.2604C35.1116 36.0648 31.8945 35.1524 28.2733 33.6968C23.5197 31.7921 18.0811 36.2749 17.8503 36.4704C17.807 36.5066 17.7781 36.5573 17.7493 36.6008L17.3525 35.9128C17.2588 35.7462 17.1001 35.6231 16.9125 35.5724C16.7322 35.5217 16.5302 35.5507 16.3643 35.6448L10.8749 38.8312C10.5287 39.034 10.4132 39.4757 10.608 39.8234L16.35 49.8025C16.4437 49.9691 16.6024 50.0922 16.79 50.1429C16.8477 50.1574 16.9126 50.1646 16.9775 50.1646C17.1001 50.1646 17.23 50.1284 17.3382 50.0705L22.8276 46.884C23.1738 46.6813 23.2893 46.2395 23.0945 45.8919L22.6473 45.1098C24.4145 44.4001 26.5569 44.755 29.1897 45.1967C31.0507 45.5081 33.0849 45.8557 35.3139 45.8557C36.1146 45.8557 36.9369 45.8123 37.7881 45.7036C42.5126 45.1171 46.2634 42.5028 48.5864 40.4024C49.1491 39.881 49.4737 39.1496 49.4737 38.3819C49.4737 37.6722 49.2063 37.0063 48.723 36.4993ZM17.2443 48.4483L12.2239 39.7219L16.4653 37.2597L21.0024 45.1462V45.168L21.0168 45.1824L21.4784 45.9863L17.2371 48.4485L17.2443 48.4483ZM47.6192 39.3307C45.852 40.9312 42.2023 43.6903 37.6144 44.2626C34.6137 44.6392 31.8582 44.1757 29.4345 43.7629C26.5997 43.285 24.1113 42.8722 21.9254 43.8354L18.4125 37.723C18.5496 37.7085 18.6794 37.6651 18.7876 37.5709C18.8381 37.5275 23.8006 33.4503 27.7463 35.0363C31.49 36.5426 34.8585 37.484 37.2244 37.694C37.2893 37.694 37.4696 37.7157 37.6139 37.8244C37.888 38.0344 38.0178 38.5848 37.9096 39.07C37.9096 39.0772 37.9096 39.0917 37.9024 39.0989C37.8303 39.3669 37.6211 39.5986 37.3398 39.729C34.1371 40.1997 30.7899 39.8376 30.7396 39.8376C30.3357 39.8014 29.9894 40.0838 29.9461 40.4749C29.9029 40.8732 30.1842 41.2281 30.5809 41.2715C30.7612 41.2933 33.0911 41.5395 35.7961 41.344H35.8033C38.1693 41.1701 40.8094 40.6632 42.5406 39.3597C44.2574 38.0634 45.5052 37.4479 46.2554 37.1654C46.7531 36.9699 47.3085 37.093 47.6764 37.4841C47.9072 37.723 48.0299 38.0417 48.0299 38.3748C48.0299 38.7369 47.8784 39.0773 47.6187 39.3235L47.6192 39.3307Z" stroke="#005496" stroke-width="0.5" mask="url(#path-1-outside-1_813_136)"/>
<path d="M29.9978 20.705C32.6162 20.705 34.7514 18.5687 34.7514 15.9326C34.7514 13.2965 32.6235 11.1602 29.9978 11.1602C27.3721 11.1602 25.2442 13.2965 25.2442 15.9326C25.2442 18.5687 27.3721 20.705 29.9978 20.705ZM29.9978 12.6159C31.8227 12.6159 33.3087 14.1078 33.3087 15.94C33.3087 17.7721 31.8227 19.264 29.9978 19.264C28.1729 19.264 26.6869 17.7721 26.6869 15.94C26.6869 14.1078 28.1729 12.6159 29.9978 12.6159Z" stroke="#005496" stroke-width="0.5" mask="url(#path-1-outside-1_813_136)"/>
<path d="M21.9407 32.1687C22.3374 32.1687 22.662 31.8428 22.662 31.4445C22.662 27.3818 25.9512 24.0794 29.998 24.0794C34.0448 24.0794 37.334 27.3816 37.334 31.4445C37.334 31.8428 37.6586 32.1687 38.0554 32.1687C38.4521 32.1687 38.7767 31.8428 38.7767 31.4445C38.7767 26.5854 34.8383 22.631 29.998 22.631C25.1577 22.631 21.2194 26.585 21.2194 31.4445C21.2194 31.8428 21.5439 32.1687 21.9407 32.1687Z" stroke="#005496" stroke-width="0.5" mask="url(#path-1-outside-1_813_136)"/>
<path d="M19.2501 21.7983C21.5006 21.7983 23.3328 19.9588 23.3328 17.6993C23.3328 15.4399 21.5006 13.6077 19.2501 13.6077C16.9996 13.6077 15.1674 15.4472 15.1674 17.6993C15.1674 19.9515 16.9996 21.7983 19.2501 21.7983ZM19.2501 15.056C20.7072 15.056 21.8902 16.2437 21.8902 17.6993C21.8902 19.1549 20.7072 20.3498 19.2501 20.3498C17.793 20.3498 16.6101 19.1622 16.6101 17.6993C16.6101 16.2364 17.793 15.056 19.2501 15.056Z" stroke="#005496" stroke-width="0.5" mask="url(#path-1-outside-1_813_136)"/>
<path d="M12.5345 31.3502C12.9312 31.3502 13.2558 31.0244 13.2558 30.6261C13.2558 27.3093 15.9463 24.6083 19.2498 24.6083C20.0072 24.6083 20.7429 24.7459 21.4426 25.021C21.8177 25.1659 22.2288 24.9848 22.3803 24.6155C22.5246 24.2462 22.3442 23.8261 21.9764 23.6741C21.1108 23.3337 20.1947 23.1599 19.257 23.1599C15.1527 23.1599 11.8203 26.5129 11.8203 30.6261C11.8203 31.0244 12.1449 31.3503 12.5417 31.3503L12.5345 31.3502Z" stroke="#005496" stroke-width="0.5" mask="url(#path-1-outside-1_813_136)"/>
<path d="M40.7454 21.7983C42.9959 21.7983 44.8281 19.9588 44.8281 17.6993C44.8281 15.4399 42.9959 13.6077 40.7454 13.6077C38.4949 13.6077 36.6627 15.4472 36.6627 17.6993C36.6627 19.9515 38.4949 21.7983 40.7454 21.7983ZM40.7454 15.056C42.2024 15.056 43.3855 16.2437 43.3855 17.6993C43.3855 19.1549 42.2025 20.3498 40.7454 20.3498C39.2883 20.3498 38.1053 19.1622 38.1053 17.6993C38.1053 16.2364 39.2883 15.056 40.7454 15.056Z" stroke="#005496" stroke-width="0.5" mask="url(#path-1-outside-1_813_136)"/>
<path d="M38.0189 23.6741C37.6511 23.8189 37.4635 24.239 37.615 24.6155C37.7665 24.992 38.1777 25.1731 38.5527 25.021C39.2524 24.7459 39.9881 24.6083 40.7455 24.6083C44.0492 24.6083 46.7395 27.3095 46.7395 30.6261C46.7395 31.0244 47.0641 31.3503 47.4609 31.3503C47.8576 31.3503 48.1822 31.0244 48.1822 30.6261C48.1822 26.5055 44.8424 23.1599 40.7455 23.1599C39.8078 23.1599 38.8917 23.3337 38.0261 23.6741L38.0189 23.6741Z" stroke="#005496" stroke-width="0.5" mask="url(#path-1-outside-1_813_136)"/>
<circle cx="30" cy="30" r="29" stroke="#827E78" stroke-width="2"/>
</svg>
