<svg width="60" height="61" viewBox="0 0 60 61" fill="none" xmlns="http://www.w3.org/2000/svg">
<mask id="path-2-outside-1_812_131" maskUnits="userSpaceOnUse" x="6.59961" y="12.6024" width="46" height="32" fill="black">
<rect fill="white" x="6.59961" y="12.6024" width="46" height="32"/>
<path d="M52.3599 34.2771C52.3599 33.5923 52.3599 32.8615 52.2214 32.1325C51.4864 28.0253 48.4111 24.9666 44.2774 24.2355C46.1133 23.2771 47.3083 21.3603 47.3083 19.2597C47.2621 16.1109 44.7834 13.645 41.7064 13.645C38.585 13.645 36.0142 16.1549 35.9678 19.2137C35.9678 20.6292 36.5182 22.043 37.4824 23.0932C36.7011 22.682 36.0584 22.1348 35.5541 21.4958C34.2686 19.8984 33.672 18.0275 33.1198 16.2467L33.0736 16.019C32.6137 14.6034 31.5129 13.6909 30.1351 13.645H29.9966C28.6187 13.645 27.5179 14.5575 27.058 16.019L26.7402 16.8415C26.465 17.5722 26.1898 18.347 25.9146 19.0778C25.0889 20.9946 24.0325 22.2725 22.5623 23.095C23.5264 22.0907 24.0768 20.7669 24.0768 19.3531C24.0768 16.0666 21.5981 13.6024 18.3382 13.6024C15.2167 13.6024 12.69 16.1582 12.69 19.261C12.69 21.4055 13.8832 23.3223 15.8576 24.3267C11.4045 25.0556 8.23673 28.2963 7.73264 32.6331C7.54976 33.9569 7.59415 35.3265 7.64032 36.6503V38.0659C7.64032 39.7091 8.87968 40.987 10.5789 41.0788H10.7174C11.2678 41.0788 11.7738 40.9411 12.2319 40.6217V42.0372C12.2319 43.4528 13.0132 44.2277 14.4354 44.2277H23.0222C24.5368 44.2277 25.2257 43.4969 25.2257 42.0372V28.5698C26.8788 27.749 28.3472 26.5153 29.5421 24.9638C29.6806 24.7361 29.8635 24.5066 30.002 24.3248C31.3337 26.2417 32.8944 27.6113 34.7302 28.5697V42.217C34.7302 43.5867 35.4653 44.3156 36.8413 44.3156H45.5186C47.0331 44.3156 47.7221 43.5849 47.7221 42.1252V40.7555C48.1358 41.0291 48.6862 41.1668 49.2366 41.1668C51.0264 41.1668 52.3137 39.8889 52.3137 38.108L52.3598 35.3245C52.406 34.9609 52.406 34.6414 52.3598 34.2761L52.3599 34.2771ZM18.3845 23.4593C17.2375 23.4593 16.1349 23.048 15.3074 22.2273C14.4818 21.4065 14.0219 20.3104 14.0219 19.1685C14.0219 16.7486 15.904 14.8317 18.3384 14.8317C20.9094 14.8317 22.7453 16.7027 22.7453 19.2585C22.6991 21.5425 20.7265 23.4593 18.3845 23.4593ZM23.8481 28.389V41.9906C23.8481 42.7214 23.7096 42.8573 22.9763 42.8573H14.3895C13.7006 42.8573 13.5177 42.6755 13.5177 41.9906V34.2314C13.5177 34.0938 13.5177 33.8661 13.4715 33.7302C13.3792 33.4566 13.1963 33.1371 12.8287 33.1371C12.415 33.1371 12.186 33.4107 12.186 33.8678V36.9267C12.186 37.3379 12.186 37.7474 12.1398 38.1128C12.0475 39.0694 11.497 39.6625 10.6714 39.6625H10.5791C9.56874 39.5707 8.92602 38.9317 8.92602 37.9733V36.5136C8.87985 35.2816 8.87985 33.9579 9.01834 32.7258C9.47821 28.8921 12.2321 26.1085 16.227 25.4239C16.9159 25.2862 17.6048 25.2421 18.2938 25.2421C18.4766 25.2421 18.6613 25.2421 18.8442 25.1962C20.3587 25.1503 21.6904 24.8309 22.9298 24.2837C24.7657 23.3712 26.1435 21.8197 27.1538 19.4918C27.4752 18.7611 27.7504 17.9862 27.9795 17.2096C28.0718 16.8901 28.1624 16.6165 28.3009 16.2971C28.6222 15.3846 29.2188 14.8815 29.9539 14.8815H30.0462C30.918 14.9274 31.4702 15.4287 31.7455 16.3412C31.4702 18.4399 30.8275 20.3585 29.8634 21.9998C29.6343 22.3192 29.4035 22.6846 29.1745 23.0041C28.9454 23.3695 28.7146 23.7348 28.4394 24.0543C27.429 25.4699 26.1435 26.5183 24.5828 27.249C24.0306 27.4767 23.8477 27.7962 23.8477 28.3892L23.8481 28.389ZM47.7686 33.8659C47.7224 33.5464 47.4472 33.2269 46.9429 33.2269C46.5754 33.2269 46.3925 33.5923 46.3925 33.9577V41.9902C46.3925 42.721 46.254 42.8569 45.5207 42.8569H36.888C36.2452 42.8569 36.1067 42.7192 36.1067 42.0803V28.3431C36.1067 27.9777 36.0606 27.5664 35.5563 27.3846C33.628 26.4262 32.0212 24.9647 30.7818 23.0038C31.563 21.7718 32.1134 20.3562 32.5271 18.8965C33.0775 20.2662 33.6741 21.3164 34.3631 22.229C35.6948 23.9181 37.4845 24.8765 39.8267 25.1501C40.3771 25.196 40.9294 25.2419 41.4336 25.2878C42.1687 25.3336 42.8576 25.3795 43.5448 25.4696C47.3089 26.0167 50.1107 28.6643 50.7534 32.316C50.8457 32.955 50.8457 33.5939 50.8457 34.2788C50.8457 34.5982 50.8457 34.9636 50.8919 35.2831C50.9381 36.1956 50.9381 37.1082 50.9381 37.9765C50.9381 38.9809 50.2491 39.7116 49.1927 39.7116C48.2747 39.7116 47.6781 39.0267 47.6781 37.9324V34.4182C47.8149 34.2311 47.8147 34.0495 47.7686 33.8659ZM37.3018 19.1703C37.3479 16.7963 39.2762 14.9254 41.7087 14.9254C44.0507 14.9254 45.9328 16.7963 45.9789 19.2162C45.9789 21.6361 44.0507 23.5071 41.6164 23.5071C40.5137 23.5071 39.459 23.0958 38.6316 22.275C37.806 21.4525 37.3018 20.3105 37.3018 19.1703Z"/>
</mask>
<path d="M52.3599 34.2771C52.3599 33.5923 52.3599 32.8615 52.2214 32.1325C51.4864 28.0253 48.4111 24.9666 44.2774 24.2355C46.1133 23.2771 47.3083 21.3603 47.3083 19.2597C47.2621 16.1109 44.7834 13.645 41.7064 13.645C38.585 13.645 36.0142 16.1549 35.9678 19.2137C35.9678 20.6292 36.5182 22.043 37.4824 23.0932C36.7011 22.682 36.0584 22.1348 35.5541 21.4958C34.2686 19.8984 33.672 18.0275 33.1198 16.2467L33.0736 16.019C32.6137 14.6034 31.5129 13.6909 30.1351 13.645H29.9966C28.6187 13.645 27.5179 14.5575 27.058 16.019L26.7402 16.8415C26.465 17.5722 26.1898 18.347 25.9146 19.0778C25.0889 20.9946 24.0325 22.2725 22.5623 23.095C23.5264 22.0907 24.0768 20.7669 24.0768 19.3531C24.0768 16.0666 21.5981 13.6024 18.3382 13.6024C15.2167 13.6024 12.69 16.1582 12.69 19.261C12.69 21.4055 13.8832 23.3223 15.8576 24.3267C11.4045 25.0556 8.23673 28.2963 7.73264 32.6331C7.54976 33.9569 7.59415 35.3265 7.64032 36.6503V38.0659C7.64032 39.7091 8.87968 40.987 10.5789 41.0788H10.7174C11.2678 41.0788 11.7738 40.9411 12.2319 40.6217V42.0372C12.2319 43.4528 13.0132 44.2277 14.4354 44.2277H23.0222C24.5368 44.2277 25.2257 43.4969 25.2257 42.0372V28.5698C26.8788 27.749 28.3472 26.5153 29.5421 24.9638C29.6806 24.7361 29.8635 24.5066 30.002 24.3248C31.3337 26.2417 32.8944 27.6113 34.7302 28.5697V42.217C34.7302 43.5867 35.4653 44.3156 36.8413 44.3156H45.5186C47.0331 44.3156 47.7221 43.5849 47.7221 42.1252V40.7555C48.1358 41.0291 48.6862 41.1668 49.2366 41.1668C51.0264 41.1668 52.3137 39.8889 52.3137 38.108L52.3598 35.3245C52.406 34.9609 52.406 34.6414 52.3598 34.2761L52.3599 34.2771ZM18.3845 23.4593C17.2375 23.4593 16.1349 23.048 15.3074 22.2273C14.4818 21.4065 14.0219 20.3104 14.0219 19.1685C14.0219 16.7486 15.904 14.8317 18.3384 14.8317C20.9094 14.8317 22.7453 16.7027 22.7453 19.2585C22.6991 21.5425 20.7265 23.4593 18.3845 23.4593ZM23.8481 28.389V41.9906C23.8481 42.7214 23.7096 42.8573 22.9763 42.8573H14.3895C13.7006 42.8573 13.5177 42.6755 13.5177 41.9906V34.2314C13.5177 34.0938 13.5177 33.8661 13.4715 33.7302C13.3792 33.4566 13.1963 33.1371 12.8287 33.1371C12.415 33.1371 12.186 33.4107 12.186 33.8678V36.9267C12.186 37.3379 12.186 37.7474 12.1398 38.1128C12.0475 39.0694 11.497 39.6625 10.6714 39.6625H10.5791C9.56874 39.5707 8.92602 38.9317 8.92602 37.9733V36.5136C8.87985 35.2816 8.87985 33.9579 9.01834 32.7258C9.47821 28.8921 12.2321 26.1085 16.227 25.4239C16.9159 25.2862 17.6048 25.2421 18.2938 25.2421C18.4766 25.2421 18.6613 25.2421 18.8442 25.1962C20.3587 25.1503 21.6904 24.8309 22.9298 24.2837C24.7657 23.3712 26.1435 21.8197 27.1538 19.4918C27.4752 18.7611 27.7504 17.9862 27.9795 17.2096C28.0718 16.8901 28.1624 16.6165 28.3009 16.2971C28.6222 15.3846 29.2188 14.8815 29.9539 14.8815H30.0462C30.918 14.9274 31.4702 15.4287 31.7455 16.3412C31.4702 18.4399 30.8275 20.3585 29.8634 21.9998C29.6343 22.3192 29.4035 22.6846 29.1745 23.0041C28.9454 23.3695 28.7146 23.7348 28.4394 24.0543C27.429 25.4699 26.1435 26.5183 24.5828 27.249C24.0306 27.4767 23.8477 27.7962 23.8477 28.3892L23.8481 28.389ZM47.7686 33.8659C47.7224 33.5464 47.4472 33.2269 46.9429 33.2269C46.5754 33.2269 46.3925 33.5923 46.3925 33.9577V41.9902C46.3925 42.721 46.254 42.8569 45.5207 42.8569H36.888C36.2452 42.8569 36.1067 42.7192 36.1067 42.0803V28.3431C36.1067 27.9777 36.0606 27.5664 35.5563 27.3846C33.628 26.4262 32.0212 24.9647 30.7818 23.0038C31.563 21.7718 32.1134 20.3562 32.5271 18.8965C33.0775 20.2662 33.6741 21.3164 34.3631 22.229C35.6948 23.9181 37.4845 24.8765 39.8267 25.1501C40.3771 25.196 40.9294 25.2419 41.4336 25.2878C42.1687 25.3336 42.8576 25.3795 43.5448 25.4696C47.3089 26.0167 50.1107 28.6643 50.7534 32.316C50.8457 32.955 50.8457 33.5939 50.8457 34.2788C50.8457 34.5982 50.8457 34.9636 50.8919 35.2831C50.9381 36.1956 50.9381 37.1082 50.9381 37.9765C50.9381 38.9809 50.2491 39.7116 49.1927 39.7116C48.2747 39.7116 47.6781 39.0267 47.6781 37.9324V34.4182C47.8149 34.2311 47.8147 34.0495 47.7686 33.8659ZM37.3018 19.1703C37.3479 16.7963 39.2762 14.9254 41.7087 14.9254C44.0507 14.9254 45.9328 16.7963 45.9789 19.2162C45.9789 21.6361 44.0507 23.5071 41.6164 23.5071C40.5137 23.5071 39.459 23.0958 38.6316 22.275C37.806 21.4525 37.3018 20.3105 37.3018 19.1703Z" fill="#005496"/>
<path d="M52.3599 34.2771C52.3599 33.5923 52.3599 32.8615 52.2214 32.1325C51.4864 28.0253 48.4111 24.9666 44.2774 24.2355C46.1133 23.2771 47.3083 21.3603 47.3083 19.2597C47.2621 16.1109 44.7834 13.645 41.7064 13.645C38.585 13.645 36.0142 16.1549 35.9678 19.2137C35.9678 20.6292 36.5182 22.043 37.4824 23.0932C36.7011 22.682 36.0584 22.1348 35.5541 21.4958C34.2686 19.8984 33.672 18.0275 33.1198 16.2467L33.0736 16.019C32.6137 14.6034 31.5129 13.6909 30.1351 13.645H29.9966C28.6187 13.645 27.5179 14.5575 27.058 16.019L26.7402 16.8415C26.465 17.5722 26.1898 18.347 25.9146 19.0778C25.0889 20.9946 24.0325 22.2725 22.5623 23.095C23.5264 22.0907 24.0768 20.7669 24.0768 19.3531C24.0768 16.0666 21.5981 13.6024 18.3382 13.6024C15.2167 13.6024 12.69 16.1582 12.69 19.261C12.69 21.4055 13.8832 23.3223 15.8576 24.3267C11.4045 25.0556 8.23673 28.2963 7.73264 32.6331C7.54976 33.9569 7.59415 35.3265 7.64032 36.6503V38.0659C7.64032 39.7091 8.87968 40.987 10.5789 41.0788H10.7174C11.2678 41.0788 11.7738 40.9411 12.2319 40.6217V42.0372C12.2319 43.4528 13.0132 44.2277 14.4354 44.2277H23.0222C24.5368 44.2277 25.2257 43.4969 25.2257 42.0372V28.5698C26.8788 27.749 28.3472 26.5153 29.5421 24.9638C29.6806 24.7361 29.8635 24.5066 30.002 24.3248C31.3337 26.2417 32.8944 27.6113 34.7302 28.5697V42.217C34.7302 43.5867 35.4653 44.3156 36.8413 44.3156H45.5186C47.0331 44.3156 47.7221 43.5849 47.7221 42.1252V40.7555C48.1358 41.0291 48.6862 41.1668 49.2366 41.1668C51.0264 41.1668 52.3137 39.8889 52.3137 38.108L52.3598 35.3245C52.406 34.9609 52.406 34.6414 52.3598 34.2761L52.3599 34.2771ZM18.3845 23.4593C17.2375 23.4593 16.1349 23.048 15.3074 22.2273C14.4818 21.4065 14.0219 20.3104 14.0219 19.1685C14.0219 16.7486 15.904 14.8317 18.3384 14.8317C20.9094 14.8317 22.7453 16.7027 22.7453 19.2585C22.6991 21.5425 20.7265 23.4593 18.3845 23.4593ZM23.8481 28.389V41.9906C23.8481 42.7214 23.7096 42.8573 22.9763 42.8573H14.3895C13.7006 42.8573 13.5177 42.6755 13.5177 41.9906V34.2314C13.5177 34.0938 13.5177 33.8661 13.4715 33.7302C13.3792 33.4566 13.1963 33.1371 12.8287 33.1371C12.415 33.1371 12.186 33.4107 12.186 33.8678V36.9267C12.186 37.3379 12.186 37.7474 12.1398 38.1128C12.0475 39.0694 11.497 39.6625 10.6714 39.6625H10.5791C9.56874 39.5707 8.92602 38.9317 8.92602 37.9733V36.5136C8.87985 35.2816 8.87985 33.9579 9.01834 32.7258C9.47821 28.8921 12.2321 26.1085 16.227 25.4239C16.9159 25.2862 17.6048 25.2421 18.2938 25.2421C18.4766 25.2421 18.6613 25.2421 18.8442 25.1962C20.3587 25.1503 21.6904 24.8309 22.9298 24.2837C24.7657 23.3712 26.1435 21.8197 27.1538 19.4918C27.4752 18.7611 27.7504 17.9862 27.9795 17.2096C28.0718 16.8901 28.1624 16.6165 28.3009 16.2971C28.6222 15.3846 29.2188 14.8815 29.9539 14.8815H30.0462C30.918 14.9274 31.4702 15.4287 31.7455 16.3412C31.4702 18.4399 30.8275 20.3585 29.8634 21.9998C29.6343 22.3192 29.4035 22.6846 29.1745 23.0041C28.9454 23.3695 28.7146 23.7348 28.4394 24.0543C27.429 25.4699 26.1435 26.5183 24.5828 27.249C24.0306 27.4767 23.8477 27.7962 23.8477 28.3892L23.8481 28.389ZM47.7686 33.8659C47.7224 33.5464 47.4472 33.2269 46.9429 33.2269C46.5754 33.2269 46.3925 33.5923 46.3925 33.9577V41.9902C46.3925 42.721 46.254 42.8569 45.5207 42.8569H36.888C36.2452 42.8569 36.1067 42.7192 36.1067 42.0803V28.3431C36.1067 27.9777 36.0606 27.5664 35.5563 27.3846C33.628 26.4262 32.0212 24.9647 30.7818 23.0038C31.563 21.7718 32.1134 20.3562 32.5271 18.8965C33.0775 20.2662 33.6741 21.3164 34.3631 22.229C35.6948 23.9181 37.4845 24.8765 39.8267 25.1501C40.3771 25.196 40.9294 25.2419 41.4336 25.2878C42.1687 25.3336 42.8576 25.3795 43.5448 25.4696C47.3089 26.0167 50.1107 28.6643 50.7534 32.316C50.8457 32.955 50.8457 33.5939 50.8457 34.2788C50.8457 34.5982 50.8457 34.9636 50.8919 35.2831C50.9381 36.1956 50.9381 37.1082 50.9381 37.9765C50.9381 38.9809 50.2491 39.7116 49.1927 39.7116C48.2747 39.7116 47.6781 39.0267 47.6781 37.9324V34.4182C47.8149 34.2311 47.8147 34.0495 47.7686 33.8659ZM37.3018 19.1703C37.3479 16.7963 39.2762 14.9254 41.7087 14.9254C44.0507 14.9254 45.9328 16.7963 45.9789 19.2162C45.9789 21.6361 44.0507 23.5071 41.6164 23.5071C40.5137 23.5071 39.459 23.0958 38.6316 22.275C37.806 21.4525 37.3018 20.3105 37.3018 19.1703Z" stroke="#005496" stroke-width="0.4" mask="url(#path-2-outside-1_812_131)"/>
<circle cx="30" cy="30" r="29" stroke="#827E78" stroke-opacity="0.8" stroke-width="2"/>
</svg>
