<svg width="337" height="312" viewBox="0 0 337 312" fill="none" xmlns="http://www.w3.org/2000/svg">
<g clip-path="url(#clip0_431_1832)">
<path d="M303.97 206.143L303.645 206.316C304.057 205.384 304.491 204.43 304.881 203.476C306.638 199.141 308.243 194.805 309.609 190.209C312.013 191.803 314.88 192.554 317.758 192.342C320.635 192.13 323.361 190.968 325.506 189.038C333.638 181.841 336.523 169.831 337 164.758C329.67 170.308 321.298 167.446 313.317 173.928C314.242 168.4 314.887 162.829 315.248 157.236C317.994 158.104 320.952 158.036 323.656 157.044C326.36 156.051 328.658 154.19 330.19 151.751C336.024 142.624 335.504 130.289 334.528 125.26C329.258 132.283 320.93 132.175 315.009 139.503C314.559 134.15 313.835 128.825 312.84 123.547C315.718 123.708 318.567 122.91 320.942 121.278C323.316 119.646 325.082 117.272 325.961 114.529C329.388 104.253 325.853 92.4164 323.792 87.7771C320.453 95.7549 312.537 97.771 308.611 105.987C307.084 100.911 305.274 95.9245 303.189 91.0506C306.027 90.584 308.631 89.1907 310.593 87.0883C312.555 84.986 313.764 82.2932 314.033 79.4308C315.139 68.5914 309.175 57.7521 306.095 53.7849C304.512 62.4564 297.03 66.055 295.057 75.2251C291.431 69.1702 287.387 63.3752 282.955 57.8822C285.682 56.9638 288.028 55.1677 289.625 52.7749C291.222 50.3822 291.98 47.5277 291.782 44.6581C291.153 33.8188 283.497 24.1501 279.789 20.6381C279.637 30.0684 271.743 34.9027 272.393 45.8071V46.2624C269.574 43.4441 266.668 40.7126 263.718 38.1112C262.461 37.0272 261.181 35.9433 259.88 34.9678C262.285 33.356 264.083 30.9885 264.991 28.2399C265.898 25.4913 265.863 22.5187 264.889 19.7927C261.333 9.62535 251.335 2.38466 246.824 0C249.144 8.88827 243.311 15.5653 246.282 25.4291C242.147 22.8277 237.896 20.3997 233.53 18.1451C234.063 15.51 233.778 12.7749 232.712 10.3065C231.646 7.83824 229.85 5.75481 227.566 4.33574C218.348 -1.64758 207.917 6.91551 199.524 2.36298C202.256 9.56031 208.654 17.6465 217.329 20.7032C221.68 22.401 226.511 22.401 230.862 20.7032C232.771 21.6787 234.679 22.6543 236.544 23.7165L238.149 24.6704H237.997C227.153 25.6459 223.532 34.144 214.141 35.7265C218.175 38.8483 228.888 44.9833 239.689 44.0078C242.571 43.8042 245.303 42.6477 247.455 40.7204C249.607 38.7932 251.056 36.2049 251.573 33.3635C254.827 35.7048 258.08 38.1545 261.051 40.7777C262.699 42.1868 264.282 43.6392 265.865 45.1134C264.293 44.639 262.645 44.4625 261.007 44.5931C250.164 45.2868 246.282 53.6765 236.934 55.0206C240.882 58.2507 251.422 64.6459 262.265 63.9739C265.122 63.8165 267.847 62.7224 270.019 60.8609C272.191 58.9995 273.688 56.4744 274.28 53.6765C278.712 58.5494 282.813 63.7132 286.555 69.1334C285.612 68.6824 284.623 68.3336 283.606 68.0928C272.979 65.6215 266.885 72.5586 257.581 71.1062C260.422 75.4419 268.663 84.547 279.268 86.9967C282.048 87.6743 284.974 87.4171 287.593 86.2649C290.212 85.1127 292.378 83.1299 293.755 80.6231C295.707 84.1134 297.551 87.647 299.177 91.2891C300.37 93.9339 301.346 96.622 302.474 99.3535C301.493 98.4763 300.39 97.7461 299.199 97.1857C289.309 92.5031 281.849 98.0095 273.174 94.6276C275.061 99.3752 281.177 110.106 290.979 114.724C293.567 115.982 296.499 116.348 299.316 115.763C302.134 115.179 304.678 113.677 306.551 111.494C306.855 112.534 307.115 113.661 307.375 114.659C307.478 115.27 307.63 115.872 307.831 116.458C309.07 121.691 310.018 126.989 310.672 132.327C309.837 131.103 308.812 130.02 307.635 129.118C298.96 122.441 290.567 126.235 282.651 121.054C283.476 126.083 287.184 137.855 295.664 144.489C297.92 146.264 300.7 147.244 303.572 147.276C306.443 147.307 309.245 146.388 311.539 144.662C311.779 151.948 311.431 159.241 310.498 166.471C310.001 165.024 309.268 163.669 308.329 162.46C301.628 153.789 292.519 155.415 286.143 148.434C285.688 153.507 286.338 165.777 292.996 174.449C294.743 176.731 297.197 178.371 299.975 179.113C302.753 179.854 305.698 179.655 308.351 178.546C308.351 178.914 308.199 179.283 308.112 179.651C306.553 186.115 304.605 192.478 302.279 198.707C302.099 197.458 301.749 196.24 301.238 195.087C296.9 185.049 287.726 184.247 283.345 175.879C281.61 180.692 279.008 192.789 283.345 202.739C284.467 205.374 286.42 207.569 288.907 208.99C291.393 210.411 294.277 210.979 297.117 210.609C294.341 216.279 291.16 221.742 287.596 226.954C287.596 226.478 287.596 225.979 287.596 225.459C286.794 214.619 278.357 210.804 276.948 201.46C273.76 205.427 267.427 216.028 268.273 226.846C268.453 229.714 269.579 232.442 271.474 234.603C273.369 236.763 275.927 238.236 278.748 238.791C275.755 242.39 272.617 245.837 269.335 249.132C268.164 250.302 266.95 251.43 265.735 252.557C265.945 251.848 266.097 251.123 266.191 250.389C267.492 239.55 259.923 234.26 260.313 224.83C256.41 228.125 248.19 237.317 246.911 248.091C246.541 250.941 247.125 253.833 248.573 256.315C250.021 258.798 252.25 260.731 254.913 261.814C249.692 265.772 244.223 269.393 238.539 272.653C239.087 271.729 239.531 270.748 239.862 269.727C243.202 259.342 236.783 252.687 238.995 243.495C234.527 245.988 224.681 253.467 221.363 263.787C220.459 266.51 220.482 269.456 221.427 272.165C222.372 274.875 224.187 277.196 226.59 278.767C223.662 280.132 220.712 281.411 217.698 282.582C214.683 283.753 211.192 284.902 208.004 285.921C208.85 285.051 209.579 284.074 210.172 283.016C215.486 273.477 210.498 265.673 214.51 257.001C209.652 258.584 198.548 263.982 193.278 273.455C191.849 275.95 191.287 278.847 191.679 281.694C192.071 284.542 193.396 287.179 195.447 289.194C193.668 289.563 191.911 289.909 190.133 290.235C189.956 284.669 187.62 279.391 183.619 275.517C179.618 271.642 174.266 269.476 168.695 269.476C163.125 269.476 157.773 271.642 153.772 275.517C149.771 279.391 147.434 284.669 147.257 290.235C145.479 289.909 143.722 289.563 141.965 289.194C144.016 287.179 145.341 284.542 145.733 281.694C146.125 278.847 145.563 275.95 144.134 273.455C138.864 263.982 127.76 258.584 122.902 257.001C126.849 265.673 121.861 273.369 127.24 283.016C127.826 284.079 128.556 285.056 129.409 285.921C126.134 284.902 122.902 283.753 119.693 282.582C116.483 281.411 113.729 280.132 110.801 278.767C113.203 277.196 115.018 274.875 115.963 272.165C116.909 269.456 116.931 266.51 116.027 263.787C112.709 253.467 102.863 245.988 98.4173 243.495C100.586 252.687 94.0798 259.342 97.5281 269.727C97.8691 270.744 98.3123 271.725 98.851 272.653C93.1712 269.398 87.7089 265.777 82.4987 261.814C85.1577 260.728 87.3824 258.793 88.826 256.31C90.2697 253.828 90.8511 250.938 90.4797 248.091C89.2001 237.252 80.9806 228.125 77.0769 224.83C77.4673 234.26 69.8984 239.55 71.1996 250.389C71.2932 251.123 71.4455 251.848 71.6551 252.557C70.4623 251.43 69.2261 250.389 68.055 249.132C64.7729 245.837 61.6355 242.39 58.6426 238.791C61.4634 238.236 64.021 236.763 65.9161 234.603C67.8111 232.442 68.9369 229.714 69.1176 226.846C69.8984 216.007 63.5874 205.427 60.4427 201.46C59.033 210.804 50.5966 214.467 49.8159 225.459C49.7837 225.957 49.7837 226.456 49.8159 226.954C46.2604 221.737 43.0789 216.275 40.2951 210.609C43.1476 211.013 46.0537 210.46 48.5577 209.036C51.0618 207.612 53.0222 205.397 54.1317 202.739C58.4691 192.789 55.91 180.692 54.1317 175.879C49.7942 184.247 40.5554 185.049 36.2396 195.087C35.7344 196.241 35.3914 197.459 35.2203 198.707C32.8771 192.482 30.9215 186.118 29.3647 179.651C29.3647 179.283 29.2129 178.914 29.1261 178.546C31.7788 179.655 34.724 179.854 37.5019 179.113C40.2798 178.371 42.7338 176.731 44.4808 174.449C51.1388 165.777 51.7894 153.55 51.334 148.434C44.6543 155.458 35.5456 153.919 28.8225 162.59C27.892 163.804 27.16 165.158 26.6538 166.601C25.7211 159.371 25.373 152.078 25.6128 144.792C27.9072 146.518 30.7084 147.437 33.5799 147.406C36.4514 147.375 39.2318 146.395 41.4879 144.619C50.1629 137.985 53.763 126.213 54.5004 121.184C46.6061 126.365 38.1698 122.571 29.5165 129.248C28.3453 130.155 27.3212 131.238 26.4803 132.457C27.1335 127.119 28.0819 121.821 29.3213 116.588C29.5214 116.002 29.6737 115.4 29.7768 114.789C30.037 113.727 30.3189 112.621 30.6009 111.624C32.4738 113.807 35.018 115.309 37.8355 115.893C40.653 116.478 43.5849 116.112 46.1724 114.854C55.9751 110.236 62.0909 99.5053 63.9777 94.7577C55.151 98.1395 47.7339 92.5898 37.9529 97.3157C36.7525 97.8707 35.6414 98.6013 34.6564 99.4836C35.6757 96.7521 36.8251 94.0639 37.9529 91.4191C39.6011 87.7771 41.4446 84.2435 43.3747 80.7532C44.7525 83.2599 46.9185 85.2428 49.5374 86.395C52.1563 87.5471 55.082 87.8043 57.8619 87.1267C68.4236 84.677 76.6648 75.4853 79.5493 71.2363C70.202 72.6887 64.1079 65.7515 53.5244 68.2229C52.508 68.4673 51.5196 68.816 50.5749 69.2635C54.3171 63.8433 58.418 58.6794 62.85 53.8066C63.4427 56.6079 64.9435 59.1355 67.1198 60.9974C69.2961 62.8592 72.0261 63.9512 74.8865 64.104C85.7302 64.776 96.2485 58.3808 100.196 55.1506C90.8484 53.8066 87.0097 45.4169 76.1227 44.7232C74.485 44.5926 72.8374 44.7691 71.2647 45.2435C72.8479 43.7476 74.431 42.2952 76.0793 40.9077C79.1372 38.2846 82.3036 35.8349 85.5567 33.4936C86.0641 36.3187 87.4921 38.8968 89.6183 40.826C91.7444 42.7552 94.4492 43.9272 97.3112 44.1595C108.155 45.1351 118.825 39 122.859 35.8783C113.555 34.2957 109.847 25.7977 99.0028 24.8221H98.8727C99.3932 24.4969 99.9137 24.1718 100.456 23.8683C102.321 22.806 104.229 21.8305 106.16 20.8549C110.503 22.5556 115.328 22.5556 119.671 20.8549C128.346 17.7982 134.852 9.71206 137.476 2.51473C129.083 6.91551 118.652 -1.64758 109.434 4.33574C107.154 5.75342 105.361 7.8333 104.295 10.2972C103.229 12.7611 102.942 15.4916 103.47 18.1234C99.1329 20.378 94.8822 22.806 90.7183 25.4075C93.6894 15.5653 87.8555 8.88827 90.1761 0C85.6651 2.38466 75.6672 9.62535 72.1322 19.8794C71.157 22.6031 71.118 25.5741 72.0214 28.3224C72.9248 31.0708 74.719 33.4397 77.1203 35.0545C75.819 36.0734 74.5395 37.114 73.2816 38.1979C70.2454 40.7993 67.3393 43.5309 64.6067 46.3491C64.6172 46.1975 64.6172 46.0454 64.6067 45.8938C65.2573 35.0545 57.3848 30.1551 57.2113 20.7248C53.5027 24.2368 45.8471 33.9272 45.2182 44.7449C45.021 47.6172 45.7827 50.4737 47.384 52.8668C48.9853 55.2599 51.3356 57.0543 54.0666 57.9689C49.6207 63.4563 45.5694 69.2518 41.9434 75.3119C39.9915 66.1418 32.4877 62.4997 30.9045 53.8716C27.8466 57.9472 21.8609 68.7432 22.9886 79.5175C23.2573 82.38 24.4671 85.0728 26.429 87.1751C28.3909 89.2774 30.9943 90.6707 33.8323 91.1373C31.688 95.968 29.8057 100.911 28.1936 105.944C24.2465 97.7276 16.3523 95.7115 13.0124 87.7337C10.8437 92.373 7.3737 104.21 10.8437 114.485C11.7066 117.222 13.4506 119.597 15.8041 121.24C18.1576 122.883 20.9886 123.701 23.8561 123.569C22.8976 128.849 22.21 134.174 21.7958 139.524C16.027 132.24 7.69902 132.24 2.42899 125.216C1.49643 130.246 0.975931 142.559 6.76646 151.708C8.29109 154.15 10.583 156.017 13.283 157.017C15.9831 158.018 18.9389 158.094 21.6874 157.236C22.0484 162.829 22.6926 168.4 23.6175 173.928C15.7233 167.446 7.33033 170.308 0 164.758C0.477122 169.831 3.38323 181.841 11.4943 189.038C13.6392 190.968 16.3648 192.13 19.2424 192.342C22.1201 192.554 24.9866 191.803 27.3911 190.209C28.7574 194.718 30.3623 199.162 32.119 203.476C32.5094 204.43 32.9431 205.384 33.3552 206.316L33.0299 206.143C23.1404 201.504 15.68 207.032 7.00502 203.671C8.91351 208.419 15.0727 219.107 24.8754 223.724C27.4768 224.976 30.4206 225.327 33.2436 224.723C36.0665 224.118 38.6082 222.593 40.4686 220.386C42.0518 223.182 43.7 225.936 45.4567 228.624C47.6255 231.832 49.7942 234.867 52.1581 237.859C41.9217 235.691 35.8492 242.368 26.6971 240.959C29.5382 245.186 37.7577 254.4 48.3845 256.871C51.1945 257.564 54.1553 257.301 56.7987 256.123C59.4421 254.945 61.6173 252.92 62.9801 250.367L65.691 253.251C68.7049 256.384 71.9138 259.324 75.2985 262.052C64.932 262.421 60.5511 270.182 51.4424 270.897C55.1943 274.387 65.3223 281.433 76.166 281.433C79.0421 281.457 81.8449 280.527 84.1364 278.789C86.4279 277.052 88.0789 274.604 88.8315 271.829L90.6749 273.065C94.8822 275.753 99.3498 278.225 103.687 280.501C93.8846 282.972 91.0436 291.34 82.2602 293.703C86.294 296.348 97.5932 301.334 108.22 299.166C111.054 298.64 113.634 297.188 115.553 295.038C117.473 292.888 118.624 290.161 118.825 287.286C124.076 289.274 129.434 290.967 134.874 292.359C126.394 296.803 125.049 305.128 117.133 309.117C121.905 310.916 133.941 313.626 143.982 309.529C145.539 308.949 146.961 308.06 148.165 306.916C149.369 305.773 150.329 304.397 150.987 302.873C152.964 305.674 155.584 307.958 158.628 309.535C161.672 311.112 165.05 311.936 168.478 311.936C171.907 311.936 175.285 311.112 178.329 309.535C181.373 307.958 183.993 305.674 185.969 302.873C186.629 304.412 187.593 305.8 188.805 306.955C190.016 308.11 191.449 309.008 193.018 309.594C203.059 313.691 215.095 310.981 219.888 309.182C211.951 305.193 210.628 296.868 202.126 292.424C207.566 291.032 212.924 289.339 218.175 287.351C218.376 290.226 219.527 292.953 221.447 295.103C223.366 297.253 225.946 298.705 228.78 299.231C239.407 301.399 250.706 296.348 255.043 293.66C246.368 291.21 243.419 282.82 233.616 280.457C238.055 278.174 242.392 275.695 246.629 273.022L248.472 271.786C249.241 274.552 250.896 276.989 253.184 278.723C255.472 280.458 258.266 281.395 261.138 281.39C271.981 281.39 282.131 274.344 285.861 270.854C276.666 270.138 272.285 262.377 261.897 262.009C265.281 259.28 268.49 256.341 271.504 253.207C272.437 252.254 273.304 251.278 274.215 250.324C275.578 252.876 277.753 254.901 280.396 256.079C283.04 257.257 286.001 257.521 288.811 256.828C299.372 254.356 307.614 245.143 310.498 240.916C301.324 242.325 295.317 235.713 285.015 237.815C287.358 234.824 289.635 231.789 291.738 228.58C293.495 225.892 295.122 223.139 296.705 220.342C298.56 222.556 301.099 224.09 303.922 224.703C306.745 225.315 309.692 224.971 312.298 223.724C322.122 219.107 328.26 208.419 330.168 203.671C321.255 207.032 313.86 201.612 303.97 206.143ZM168.511 304.087C165.837 304.087 163.223 303.296 160.999 301.812C158.775 300.328 157.041 298.219 156.014 295.751C154.988 293.283 154.716 290.567 155.233 287.945C155.75 285.322 157.033 282.912 158.919 281.017C160.805 279.123 163.21 277.829 165.831 277.3C168.452 276.771 171.171 277.03 173.645 278.043C176.119 279.057 178.237 280.781 179.731 282.997C181.226 285.213 182.031 287.822 182.044 290.495C182.049 292.276 181.704 294.041 181.027 295.688C180.349 297.336 179.354 298.833 178.097 300.096C176.84 301.358 175.346 302.361 173.701 303.046C172.057 303.73 170.293 304.084 168.511 304.087Z" fill="url(#paint0_linear_431_1832)"/>
</g>
<defs>
<linearGradient id="paint0_linear_431_1832" x1="0" y1="156" x2="337" y2="156" gradientUnits="userSpaceOnUse">
<stop offset="0.08" stop-color="#C7A366"/>
<stop offset="0.11" stop-color="#C8A56A"/>
<stop offset="0.13" stop-color="#CCAC76"/>
<stop offset="0.16" stop-color="#D2B889"/>
<stop offset="0.18" stop-color="#D8C39B"/>
<stop offset="0.21" stop-color="#D7C095"/>
<stop offset="0.26" stop-color="#D2B784"/>
<stop offset="0.32" stop-color="#CCAA68"/>
<stop offset="0.33" stop-color="#CAA661"/>
<stop offset="0.56" stop-color="#CCA761"/>
<stop offset="0.57" stop-color="#E2C987"/>
<stop offset="0.65" stop-color="#D9BD7A"/>
<stop offset="0.8" stop-color="#CFAD6A"/>
<stop offset="0.91" stop-color="#CBA864"/>
</linearGradient>
<clipPath id="clip0_431_1832">
<rect width="337" height="312" fill="white"/>
</clipPath>
</defs>
</svg>
