<svg width="101" height="90" viewBox="0 0 101 90" fill="none" xmlns="http://www.w3.org/2000/svg">
<mask id="path-1-outside-1_431_559" maskUnits="userSpaceOnUse" x="11.7832" y="7.22852" width="77" height="77" fill="black">
<rect fill="white" x="11.7832" y="7.22852" width="77" height="77"/>
<path d="M61.1339 49.3807C65.5203 49.3807 69.6557 47.3398 72.3274 43.8608C74.9959 40.3818 75.8961 35.8591 74.7627 31.6233C73.6258 27.3839 70.5843 23.9192 66.5314 22.2404C62.4821 20.5619 57.8768 20.8631 54.0818 23.0546C50.2836 25.2496 47.7191 29.0837 47.1488 33.4309C46.5749 37.7816 48.0562 42.1465 51.1587 45.2489C53.7984 47.903 57.3887 49.3914 61.1329 49.3807L61.1339 49.3807ZM52.0382 26.1782C56.3781 21.8383 63.1822 21.1677 68.2817 24.5786C73.3856 27.9894 75.369 34.528 73.0198 40.1987C70.6705 45.8694 64.6449 49.09 58.6227 47.892C52.6043 46.6941 48.272 41.4109 48.272 35.2744C48.2612 31.8598 49.6171 28.5848 52.0382 26.1782ZM61.1339 43.642C65.1223 43.6384 68.551 40.8194 69.3258 36.9063C70.1005 32.9969 68.0059 29.0803 64.3189 27.5592C60.6354 26.0349 56.3888 27.3261 54.1757 30.6402C51.9591 33.9543 52.3968 38.373 55.2158 41.192C56.7832 42.7665 58.9137 43.6492 61.1339 43.642ZM56.0946 30.2531C58.5013 27.8429 62.2709 27.4662 65.1043 29.3564C67.9377 31.2466 69.0389 34.8727 67.7369 38.0182C66.4349 41.1673 63.0922 42.9534 59.753 42.2899C56.4139 41.6263 54.0108 38.696 54.0108 35.2923C54.0036 33.395 54.7533 31.5729 56.0946 30.2316V30.2531ZM14.9665 38.6782L26.6265 39.5676H26.6731C26.9888 39.5425 27.2327 39.2879 27.247 38.9723C27.2578 38.6566 27.0318 38.3841 26.7234 38.3338L15.8668 37.491C18.7935 29.1807 23.4239 23.4997 29.6395 20.601C37.8924 16.774 46.6727 18.9475 49.4768 19.8263L33.3581 35.934C29.5993 39.6928 29.5993 45.7897 33.3581 49.5524L46.8545 63.0488C50.6169 66.8077 56.7139 66.8077 60.473 63.0488L76.5981 46.9127C77.4768 49.7139 79.679 58.4937 75.8233 66.75C72.954 72.9656 67.2154 77.5956 58.9334 80.5227L57.9757 68.7011C57.9506 68.3568 57.6493 68.0986 57.3086 68.1273C56.9643 68.1524 56.7061 68.4537 56.7348 68.7944L57.6924 81.4194H57.6888C57.7104 81.6095 57.8108 81.7817 57.9686 81.8893C58.069 81.9538 58.191 81.9933 58.3129 81.9933C58.3775 82.0076 58.4456 82.0076 58.5138 81.9933C67.5808 78.9697 73.818 74.0273 76.9059 67.2913C81.3067 57.8405 78.2724 48.038 77.5371 45.962L79.2694 44.2296L79.2659 44.2332C85.2555 38.2327 88.4688 30.0087 88.132 21.5367L87.9491 16.9744H87.9527C87.7339 12.3512 84.0361 8.65336 79.4093 8.43456L74.847 8.25164C66.3789 7.92166 58.1545 11.1353 52.1505 17.1178L50.497 18.8107C48.4204 18.0755 38.6176 15.0411 29.1677 19.442C22.4714 22.5803 17.4893 28.767 14.4657 37.8341H14.4693C14.4048 38.017 14.4263 38.2179 14.5339 38.3793C14.6379 38.5335 14.8029 38.6339 14.9858 38.659L14.9665 38.6782ZM53.0922 17.9621C58.5618 12.5104 65.9678 9.44388 73.6943 9.42946H74.86L79.4222 9.61238C83.3998 9.7953 86.5848 12.9803 86.7677 16.9578L86.9506 21.5201C87.2662 29.6439 84.1853 37.5314 78.4467 43.2875L76.4382 45.296L59.595 62.1676C58.0241 63.7421 55.89 64.628 53.6663 64.628C51.439 64.628 49.3086 63.7421 47.7341 62.1676L34.2414 48.6749C32.6669 47.1004 31.7809 44.9698 31.7809 42.7426C31.7809 40.5189 32.6668 38.3848 34.2414 36.8139L53.0922 17.9621ZM28.4445 52.1754C27.9137 53.9867 28.4158 55.945 29.7537 57.2828L39.1255 66.6547C40.4597 67.9889 42.4145 68.4911 44.2258 67.9639L46.7508 67.2286C47.0807 67.1353 47.4286 67.329 47.5255 67.659C47.6151 67.9854 47.4286 68.3261 47.1022 68.423L44.5773 69.1582V69.1618C42.332 69.8182 39.9075 69.1941 38.2576 67.5335L28.8747 58.1506C27.2212 56.4971 26.5971 54.0762 27.2464 51.8309L27.9817 49.3059H27.9852C28.0821 48.9759 28.43 48.7859 28.76 48.8827C29.0899 48.9831 29.2764 49.3274 29.1796 49.6574L28.4445 52.1754ZM16.8525 83.6305C17.2327 83.6341 17.6128 83.5875 17.9787 83.4871L26.4719 81.2095V81.2131C29.6281 80.3487 32.0886 77.8704 32.9242 74.707C33.7599 71.5435 32.8453 68.1721 30.5248 65.8659C28.2078 63.5561 24.8363 62.6558 21.6729 63.5059C18.5131 64.3559 16.0455 66.8235 15.1954 69.9834L12.9215 78.4766C12.5951 79.7031 12.8533 81.0087 13.6244 82.0166C14.392 83.0245 15.5828 83.6198 16.8525 83.6305ZM14.1266 78.8496L16.4041 70.3456H16.4005C17.125 67.6054 19.2663 65.4642 22.0065 64.7432C22.688 64.5639 23.3874 64.4742 24.0903 64.4742C27.9926 64.5818 31.2313 67.5086 31.7334 71.3785C32.2392 75.2485 29.8504 78.9069 26.1096 80.008L17.6057 82.2532C16.6372 82.4827 15.6222 82.1958 14.9157 81.4928C14.2127 80.7863 13.9258 79.7712 14.1553 78.8028L14.1266 78.8496Z"/>
</mask>
<path d="M61.1339 49.3807C65.5203 49.3807 69.6557 47.3398 72.3274 43.8608C74.9959 40.3818 75.8961 35.8591 74.7627 31.6233C73.6258 27.3839 70.5843 23.9192 66.5314 22.2404C62.4821 20.5619 57.8768 20.8631 54.0818 23.0546C50.2836 25.2496 47.7191 29.0837 47.1488 33.4309C46.5749 37.7816 48.0562 42.1465 51.1587 45.2489C53.7984 47.903 57.3887 49.3914 61.1329 49.3807L61.1339 49.3807ZM52.0382 26.1782C56.3781 21.8383 63.1822 21.1677 68.2817 24.5786C73.3856 27.9894 75.369 34.528 73.0198 40.1987C70.6705 45.8694 64.6449 49.09 58.6227 47.892C52.6043 46.6941 48.272 41.4109 48.272 35.2744C48.2612 31.8598 49.6171 28.5848 52.0382 26.1782ZM61.1339 43.642C65.1223 43.6384 68.551 40.8194 69.3258 36.9063C70.1005 32.9969 68.0059 29.0803 64.3189 27.5592C60.6354 26.0349 56.3888 27.3261 54.1757 30.6402C51.9591 33.9543 52.3968 38.373 55.2158 41.192C56.7832 42.7665 58.9137 43.6492 61.1339 43.642ZM56.0946 30.2531C58.5013 27.8429 62.2709 27.4662 65.1043 29.3564C67.9377 31.2466 69.0389 34.8727 67.7369 38.0182C66.4349 41.1673 63.0922 42.9534 59.753 42.2899C56.4139 41.6263 54.0108 38.696 54.0108 35.2923C54.0036 33.395 54.7533 31.5729 56.0946 30.2316V30.2531ZM14.9665 38.6782L26.6265 39.5676H26.6731C26.9888 39.5425 27.2327 39.2879 27.247 38.9723C27.2578 38.6566 27.0318 38.3841 26.7234 38.3338L15.8668 37.491C18.7935 29.1807 23.4239 23.4997 29.6395 20.601C37.8924 16.774 46.6727 18.9475 49.4768 19.8263L33.3581 35.934C29.5993 39.6928 29.5993 45.7897 33.3581 49.5524L46.8545 63.0488C50.6169 66.8077 56.7139 66.8077 60.473 63.0488L76.5981 46.9127C77.4768 49.7139 79.679 58.4937 75.8233 66.75C72.954 72.9656 67.2154 77.5956 58.9334 80.5227L57.9757 68.7011C57.9506 68.3568 57.6493 68.0986 57.3086 68.1273C56.9643 68.1524 56.7061 68.4537 56.7348 68.7944L57.6924 81.4194H57.6888C57.7104 81.6095 57.8108 81.7817 57.9686 81.8893C58.069 81.9538 58.191 81.9933 58.3129 81.9933C58.3775 82.0076 58.4456 82.0076 58.5138 81.9933C67.5808 78.9697 73.818 74.0273 76.9059 67.2913C81.3067 57.8405 78.2724 48.038 77.5371 45.962L79.2694 44.2296L79.2659 44.2332C85.2555 38.2327 88.4688 30.0087 88.132 21.5367L87.9491 16.9744H87.9527C87.7339 12.3512 84.0361 8.65336 79.4093 8.43456L74.847 8.25164C66.3789 7.92166 58.1545 11.1353 52.1505 17.1178L50.497 18.8107C48.4204 18.0755 38.6176 15.0411 29.1677 19.442C22.4714 22.5803 17.4893 28.767 14.4657 37.8341H14.4693C14.4048 38.017 14.4263 38.2179 14.5339 38.3793C14.6379 38.5335 14.8029 38.6339 14.9858 38.659L14.9665 38.6782ZM53.0922 17.9621C58.5618 12.5104 65.9678 9.44388 73.6943 9.42946H74.86L79.4222 9.61238C83.3998 9.7953 86.5848 12.9803 86.7677 16.9578L86.9506 21.5201C87.2662 29.6439 84.1853 37.5314 78.4467 43.2875L76.4382 45.296L59.595 62.1676C58.0241 63.7421 55.89 64.628 53.6663 64.628C51.439 64.628 49.3086 63.7421 47.7341 62.1676L34.2414 48.6749C32.6669 47.1004 31.7809 44.9698 31.7809 42.7426C31.7809 40.5189 32.6668 38.3848 34.2414 36.8139L53.0922 17.9621ZM28.4445 52.1754C27.9137 53.9867 28.4158 55.945 29.7537 57.2828L39.1255 66.6547C40.4597 67.9889 42.4145 68.4911 44.2258 67.9639L46.7508 67.2286C47.0807 67.1353 47.4286 67.329 47.5255 67.659C47.6151 67.9854 47.4286 68.3261 47.1022 68.423L44.5773 69.1582V69.1618C42.332 69.8182 39.9075 69.1941 38.2576 67.5335L28.8747 58.1506C27.2212 56.4971 26.5971 54.0762 27.2464 51.8309L27.9817 49.3059H27.9852C28.0821 48.9759 28.43 48.7859 28.76 48.8827C29.0899 48.9831 29.2764 49.3274 29.1796 49.6574L28.4445 52.1754ZM16.8525 83.6305C17.2327 83.6341 17.6128 83.5875 17.9787 83.4871L26.4719 81.2095V81.2131C29.6281 80.3487 32.0886 77.8704 32.9242 74.707C33.7599 71.5435 32.8453 68.1721 30.5248 65.8659C28.2078 63.5561 24.8363 62.6558 21.6729 63.5059C18.5131 64.3559 16.0455 66.8235 15.1954 69.9834L12.9215 78.4766C12.5951 79.7031 12.8533 81.0087 13.6244 82.0166C14.392 83.0245 15.5828 83.6198 16.8525 83.6305ZM14.1266 78.8496L16.4041 70.3456H16.4005C17.125 67.6054 19.2663 65.4642 22.0065 64.7432C22.688 64.5639 23.3874 64.4742 24.0903 64.4742C27.9926 64.5818 31.2313 67.5086 31.7334 71.3785C32.2392 75.2485 29.8504 78.9069 26.1096 80.008L17.6057 82.2532C16.6372 82.4827 15.6222 82.1958 14.9157 81.4928C14.2127 80.7863 13.9258 79.7712 14.1553 78.8028L14.1266 78.8496Z" fill="white"/>
<path d="M61.1339 49.3807C65.5203 49.3807 69.6557 47.3398 72.3274 43.8608C74.9959 40.3818 75.8961 35.8591 74.7627 31.6233C73.6258 27.3839 70.5843 23.9192 66.5314 22.2404C62.4821 20.5619 57.8768 20.8631 54.0818 23.0546C50.2836 25.2496 47.7191 29.0837 47.1488 33.4309C46.5749 37.7816 48.0562 42.1465 51.1587 45.2489C53.7984 47.903 57.3887 49.3914 61.1329 49.3807L61.1339 49.3807ZM52.0382 26.1782C56.3781 21.8383 63.1822 21.1677 68.2817 24.5786C73.3856 27.9894 75.369 34.528 73.0198 40.1987C70.6705 45.8694 64.6449 49.09 58.6227 47.892C52.6043 46.6941 48.272 41.4109 48.272 35.2744C48.2612 31.8598 49.6171 28.5848 52.0382 26.1782ZM61.1339 43.642C65.1223 43.6384 68.551 40.8194 69.3258 36.9063C70.1005 32.9969 68.0059 29.0803 64.3189 27.5592C60.6354 26.0349 56.3888 27.3261 54.1757 30.6402C51.9591 33.9543 52.3968 38.373 55.2158 41.192C56.7832 42.7665 58.9137 43.6492 61.1339 43.642ZM56.0946 30.2531C58.5013 27.8429 62.2709 27.4662 65.1043 29.3564C67.9377 31.2466 69.0389 34.8727 67.7369 38.0182C66.4349 41.1673 63.0922 42.9534 59.753 42.2899C56.4139 41.6263 54.0108 38.696 54.0108 35.2923C54.0036 33.395 54.7533 31.5729 56.0946 30.2316V30.2531ZM14.9665 38.6782L26.6265 39.5676H26.6731C26.9888 39.5425 27.2327 39.2879 27.247 38.9723C27.2578 38.6566 27.0318 38.3841 26.7234 38.3338L15.8668 37.491C18.7935 29.1807 23.4239 23.4997 29.6395 20.601C37.8924 16.774 46.6727 18.9475 49.4768 19.8263L33.3581 35.934C29.5993 39.6928 29.5993 45.7897 33.3581 49.5524L46.8545 63.0488C50.6169 66.8077 56.7139 66.8077 60.473 63.0488L76.5981 46.9127C77.4768 49.7139 79.679 58.4937 75.8233 66.75C72.954 72.9656 67.2154 77.5956 58.9334 80.5227L57.9757 68.7011C57.9506 68.3568 57.6493 68.0986 57.3086 68.1273C56.9643 68.1524 56.7061 68.4537 56.7348 68.7944L57.6924 81.4194H57.6888C57.7104 81.6095 57.8108 81.7817 57.9686 81.8893C58.069 81.9538 58.191 81.9933 58.3129 81.9933C58.3775 82.0076 58.4456 82.0076 58.5138 81.9933C67.5808 78.9697 73.818 74.0273 76.9059 67.2913C81.3067 57.8405 78.2724 48.038 77.5371 45.962L79.2694 44.2296L79.2659 44.2332C85.2555 38.2327 88.4688 30.0087 88.132 21.5367L87.9491 16.9744H87.9527C87.7339 12.3512 84.0361 8.65336 79.4093 8.43456L74.847 8.25164C66.3789 7.92166 58.1545 11.1353 52.1505 17.1178L50.497 18.8107C48.4204 18.0755 38.6176 15.0411 29.1677 19.442C22.4714 22.5803 17.4893 28.767 14.4657 37.8341H14.4693C14.4048 38.017 14.4263 38.2179 14.5339 38.3793C14.6379 38.5335 14.8029 38.6339 14.9858 38.659L14.9665 38.6782ZM53.0922 17.9621C58.5618 12.5104 65.9678 9.44388 73.6943 9.42946H74.86L79.4222 9.61238C83.3998 9.7953 86.5848 12.9803 86.7677 16.9578L86.9506 21.5201C87.2662 29.6439 84.1853 37.5314 78.4467 43.2875L76.4382 45.296L59.595 62.1676C58.0241 63.7421 55.89 64.628 53.6663 64.628C51.439 64.628 49.3086 63.7421 47.7341 62.1676L34.2414 48.6749C32.6669 47.1004 31.7809 44.9698 31.7809 42.7426C31.7809 40.5189 32.6668 38.3848 34.2414 36.8139L53.0922 17.9621ZM28.4445 52.1754C27.9137 53.9867 28.4158 55.945 29.7537 57.2828L39.1255 66.6547C40.4597 67.9889 42.4145 68.4911 44.2258 67.9639L46.7508 67.2286C47.0807 67.1353 47.4286 67.329 47.5255 67.659C47.6151 67.9854 47.4286 68.3261 47.1022 68.423L44.5773 69.1582V69.1618C42.332 69.8182 39.9075 69.1941 38.2576 67.5335L28.8747 58.1506C27.2212 56.4971 26.5971 54.0762 27.2464 51.8309L27.9817 49.3059H27.9852C28.0821 48.9759 28.43 48.7859 28.76 48.8827C29.0899 48.9831 29.2764 49.3274 29.1796 49.6574L28.4445 52.1754ZM16.8525 83.6305C17.2327 83.6341 17.6128 83.5875 17.9787 83.4871L26.4719 81.2095V81.2131C29.6281 80.3487 32.0886 77.8704 32.9242 74.707C33.7599 71.5435 32.8453 68.1721 30.5248 65.8659C28.2078 63.5561 24.8363 62.6558 21.6729 63.5059C18.5131 64.3559 16.0455 66.8235 15.1954 69.9834L12.9215 78.4766C12.5951 79.7031 12.8533 81.0087 13.6244 82.0166C14.392 83.0245 15.5828 83.6198 16.8525 83.6305ZM14.1266 78.8496L16.4041 70.3456H16.4005C17.125 67.6054 19.2663 65.4642 22.0065 64.7432C22.688 64.5639 23.3874 64.4742 24.0903 64.4742C27.9926 64.5818 31.2313 67.5086 31.7334 71.3785C32.2392 75.2485 29.8504 78.9069 26.1096 80.008L17.6057 82.2532C16.6372 82.4827 15.6222 82.1958 14.9157 81.4928C14.2127 80.7863 13.9258 79.7712 14.1553 78.8028L14.1266 78.8496Z" stroke="white" stroke-width="0.46" mask="url(#path-1-outside-1_431_559)"/>
</svg>
