<svg width="88" height="90" viewBox="0 0 88 90" fill="none" xmlns="http://www.w3.org/2000/svg">
<path d="M83.0456 40.0423C78.0648 34.8539 72.1952 30.7816 65.604 27.9215C58.784 24.9654 51.5152 23.4568 44 23.4568C36.4936 23.4568 29.2248 24.9567 22.396 27.9215C15.8048 30.7816 9.93522 34.8626 4.95442 40.0423C3.03602 42.0391 3.03602 45.1609 4.95442 47.1491C9.93522 52.3375 15.8048 56.4097 22.396 59.2699C29.216 62.2259 36.4848 63.7345 44 63.7345C51.5064 63.7345 58.7752 62.2347 65.604 59.2699C72.1952 56.4097 78.0648 52.3287 83.0456 47.1491C84.964 45.1609 84.964 42.0391 83.0456 40.0423ZM26.048 43.6C26.048 33.79 34.1 25.8112 44 25.8112C53.9 25.8112 61.952 33.79 61.952 43.6C61.952 53.41 53.9 61.3888 44 61.3888C34.1 61.3888 26.048 53.41 26.048 43.6ZM6.38883 45.8062C5.20083 44.5679 5.20083 42.6321 6.38883 41.3939C14.036 33.4325 23.76 28.2528 34.3992 26.2995C28.248 29.6655 24.068 36.1619 24.068 43.6C24.068 51.0382 28.2392 57.5346 34.3904 60.9005C23.7512 58.9472 14.036 53.7675 6.38883 45.8062ZM81.6112 45.8062C73.964 53.7675 64.24 58.9472 53.6008 60.9005C59.752 57.5259 63.932 51.0382 63.932 43.6C63.932 36.1619 59.752 29.6655 53.6096 26.2995C64.2488 28.2528 73.964 33.4325 81.62 41.3939C82.7992 42.6321 82.7992 44.5679 81.6112 45.8062ZM44 35.0719C39.2568 35.0719 35.3936 38.8999 35.3936 43.6C35.3936 48.3001 39.2568 52.1282 44 52.1282C48.7432 52.1282 52.6064 48.3001 52.6064 43.6C52.6064 38.8999 48.7432 35.0719 44 35.0719ZM44 50.1662C40.348 50.1662 37.3736 47.2188 37.3736 43.6C37.3736 39.9812 40.348 37.0339 44 37.0339C47.652 37.0339 50.6264 39.9812 50.6264 43.6C50.6264 47.2188 47.652 50.1662 44 50.1662ZM43.0144 15.3821V7.0981C43.0144 6.55746 43.4544 6.12146 44 6.12146C44.5456 6.12146 44.9856 6.55746 44.9856 7.0981V15.3821C44.9856 15.9227 44.5456 16.3587 44 16.3587C43.4544 16.3587 43.0144 15.9227 43.0144 15.3821ZM66.8536 21.1896L71.0336 14.0131C71.3064 13.5422 71.9136 13.3852 72.38 13.6555C72.8552 13.9259 73.0136 14.5275 72.7408 14.9897L68.5608 22.1663C68.376 22.4802 68.0504 22.6546 67.7072 22.6546C67.54 22.6546 67.3728 22.611 67.2144 22.5238C66.7392 22.2535 66.5808 21.6605 66.8536 21.1896ZM15.2504 14.9897C14.9776 14.5188 15.136 13.9259 15.6112 13.6555C16.0864 13.3852 16.6848 13.5422 16.9576 14.0131L21.1376 21.1896C21.4104 21.6605 21.252 22.2535 20.7768 22.5238C20.6184 22.611 20.4512 22.6546 20.284 22.6546C19.9408 22.6546 19.6152 22.4802 19.4304 22.1663L15.2504 14.9897ZM44.9856 71.8179V80.1019C44.9856 80.6426 44.5456 81.0786 44 81.0786C43.4544 81.0786 43.0144 80.6426 43.0144 80.1019V71.8179C43.0144 71.2773 43.4544 70.8413 44 70.8413C44.5456 70.8413 44.9856 71.2773 44.9856 71.8179ZM72.7496 72.2103C73.0224 72.6812 72.864 73.2742 72.3888 73.5445C72.2304 73.6317 72.0632 73.6753 71.896 73.6753C71.5528 73.6753 71.2272 73.5009 71.0424 73.187L66.8624 66.0104C66.5896 65.5395 66.748 64.9466 67.2232 64.6763C67.6984 64.4059 68.2968 64.5629 68.5696 65.0338L72.7496 72.2103ZM21.1464 66.0104L16.9664 73.187C16.7816 73.5009 16.456 73.6753 16.1128 73.6753C15.9456 73.6753 15.7784 73.6317 15.62 73.5445C15.1448 73.2742 14.9864 72.6725 15.2592 72.2103L19.4392 65.0338C19.712 64.5629 20.3192 64.4059 20.7856 64.6763C21.2608 64.9466 21.4192 65.5395 21.1464 66.0104Z" fill="white"/>
</svg>
