<svg width="76" height="89" viewBox="0 0 76 89" fill="none" xmlns="http://www.w3.org/2000/svg">
<path d="M72.034 49.718C70.596 48.538 68.262 48.119 66.535 49.984L58.249 58.934C57.799 56.48 55.645 54.615 53.063 54.615H38.883L37.305 53.704C35.475 52.647 33.638 52.155 31.524 52.155H25.584C22.461 52.155 19.713 53.291 17.417 55.533L9.862 62.91L8.003 61.051C7.592 60.639 6.924 60.639 6.512 61.051L0.309 67.254C0.111 67.452 0 67.72 0 67.999C0 68.278 0.111 68.547 0.309 68.744L19.799 88.234C20.005 88.44 20.274 88.543 20.544 88.543C20.814 88.543 21.084 88.44 21.289 88.234L27.492 82.031C27.69 81.833 27.801 81.565 27.801 81.286C27.801 81.007 27.69 80.738 27.492 80.541L25.592 78.641L26.62 77.46C27.602 76.332 28.858 75.76 30.354 75.76H51.829C55.794 75.76 59.32 73.909 61.758 70.547L72.858 55.241C74.304 53.247 73.537 50.953 72.032 49.718H72.034ZM20.544 85.999L2.545 68L7.257 63.288L25.256 81.287L20.544 85.999ZM71.152 54.004L60.052 69.31C57.992 72.151 55.149 73.652 51.83 73.652H30.355C28.253 73.652 26.412 74.49 25.031 76.076L24.098 77.147L11.352 64.401L18.889 57.042C20.804 55.173 22.993 54.264 25.583 54.264H31.523C33.275 54.264 34.733 54.655 36.25 55.531L38.072 56.583C38.232 56.675 38.414 56.724 38.599 56.724H53.062C54.806 56.724 56.226 58.143 56.226 59.888C56.226 60.663 55.939 61.41 55.418 61.992C54.815 62.666 53.957 63.052 53.062 63.052H40.732C40.15 63.052 39.678 63.524 39.678 64.106C39.678 64.688 40.15 65.16 40.732 65.16H53.062C54.548 65.16 55.972 64.523 56.974 63.413C56.974 63.413 56.976 63.411 56.977 63.41L68.081 51.416C68.941 50.487 70.027 50.798 70.696 51.347C71.385 51.912 71.918 52.948 71.152 54.004ZM44.96 6.498V1.054C44.96 0.472 45.432 0 46.014 0C46.596 0 47.068 0.472 47.068 1.054V6.498C47.068 7.08 46.596 7.552 46.014 7.552C45.432 7.552 44.96 7.08 44.96 6.498ZM28.416 6.052C28.125 5.548 28.298 4.903 28.802 4.612C29.306 4.321 29.951 4.494 30.242 4.998L32.964 9.712C33.255 10.216 33.082 10.861 32.578 11.152C32.412 11.248 32.231 11.293 32.052 11.293C31.688 11.293 31.333 11.104 31.138 10.766L28.416 6.052ZM16.202 17.212C16.493 16.708 17.138 16.535 17.642 16.826L22.356 19.548C22.86 19.839 23.033 20.484 22.742 20.988C22.547 21.326 22.192 21.515 21.828 21.515C21.649 21.515 21.468 21.469 21.302 21.374L16.588 18.652C16.084 18.361 15.911 17.716 16.202 17.212ZM59.064 9.712L61.786 4.998C62.077 4.494 62.721 4.321 63.226 4.612C63.73 4.903 63.903 5.548 63.612 6.052L60.89 10.766C60.695 11.104 60.34 11.293 59.976 11.293C59.797 11.293 59.616 11.247 59.45 11.152C58.946 10.861 58.773 10.216 59.064 9.712ZM75.44 18.651L70.726 21.373C70.56 21.469 70.379 21.514 70.2 21.514C69.836 21.514 69.481 21.325 69.286 20.987C68.995 20.483 69.168 19.838 69.672 19.547L74.386 16.825C74.89 16.534 75.535 16.707 75.826 17.211C76.117 17.715 75.944 18.36 75.44 18.651ZM22.876 33.369C23.458 33.369 23.93 33.841 23.93 34.423C23.93 35.005 23.458 35.477 22.876 35.477H17.432C16.85 35.477 16.378 35.005 16.378 34.423C16.378 33.841 16.85 33.369 17.432 33.369H22.876ZM75.65 34.423C75.65 35.005 75.178 35.477 74.596 35.477H69.152C68.57 35.477 68.098 35.005 68.098 34.423C68.098 33.841 68.57 33.369 69.152 33.369H74.596C75.178 33.369 75.65 33.841 75.65 34.423ZM28.625 25.231C28.625 33.835 37.086 42.296 45.269 50.478C45.475 50.684 45.745 50.787 46.014 50.787C46.283 50.787 46.554 50.684 46.759 50.478C54.941 42.296 63.402 33.835 63.402 25.231C63.402 20.146 59.265 16.01 54.181 16.01C50.127 16.01 47.843 17.941 46.014 20.987C44.185 17.941 41.901 16.01 37.847 16.01C32.762 16.01 28.625 20.147 28.625 25.231ZM37.846 18.118C41.176 18.118 42.998 19.517 45.071 23.661C45.249 24.018 45.615 24.244 46.014 24.244C46.413 24.244 46.778 24.018 46.957 23.661C49.029 19.517 50.852 18.118 54.182 18.118C58.104 18.118 61.295 21.309 61.295 25.231C61.295 32.719 53.653 40.596 46.015 48.242C38.376 40.596 30.734 32.718 30.734 25.231C30.734 21.309 33.924 18.118 37.846 18.118Z" fill="white"/>
</svg>
