<svg width="86" height="78" viewBox="0 0 86 78" fill="none" xmlns="http://www.w3.org/2000/svg">
<path fill-rule="evenodd" clip-rule="evenodd" d="M43.4091 34.8198C48.042 36.1269 51.3282 40.9105 52.8855 45.7608V45.7578C54.4919 43.3599 55.1699 40.4623 54.7912 37.6013C54.4125 34.7433 53.0016 32.117 50.8241 30.2218C48.6466 28.3236 45.8522 27.2816 42.9598 27.2908C40.0674 27.2999 37.2794 28.3602 35.1143 30.2736C32.949 32.1871 31.5564 34.8196 31.1991 37.6806C30.8387 40.5447 31.535 43.4392 33.1597 45.8246C34.8028 40.9221 38.2568 36.1144 42.9168 34.8102V34.8132C43.0787 34.7675 43.2503 34.771 43.4091 34.8198ZM53.4625 47.8692C55.692 45.2062 56.8158 41.7937 56.6081 38.3321C56.3974 34.8678 54.8673 31.6168 52.3325 29.2405C49.8007 26.8639 46.4506 25.5446 42.9718 25.5507C39.4964 25.5568 36.1522 26.8882 33.6267 29.2739C31.1012 31.6596 29.5832 34.9167 29.3878 38.3812C29.1893 41.8455 30.3253 45.2549 32.5639 47.9089C32.1455 49.6609 31.9165 51.4555 31.8829 53.2562L26.9415 56.1599C25.1122 57.2354 22.8218 58.1312 21.7711 59.8588L20.0915 58.1831C19.6975 57.7839 19.6975 57.1411 20.0915 56.7418L24.3151 52.5281C25.161 51.6902 25.3412 50.3891 24.7518 49.3532C23.9425 47.9182 23.3103 46.3947 22.8644 44.8134C22.5468 43.6616 21.4962 42.8695 20.3022 42.8756H14.3378C13.7758 42.8725 13.3208 42.4185 13.3177 41.8548V36.4497C13.3208 35.8891 13.7758 35.4351 14.3378 35.432H20.3022C21.4962 35.4381 22.5438 34.6429 22.8614 33.4942C23.3073 31.9098 23.9425 30.3863 24.7488 28.9513C25.3382 27.9154 25.158 26.6143 24.3121 25.7765L20.0915 21.5688C19.6975 21.1696 19.6975 20.5268 20.0915 20.1276L23.9211 16.3068H23.9242C24.3243 15.9107 24.9686 15.9107 25.3688 16.3068L29.5893 20.5145C30.4322 21.3585 31.7332 21.5383 32.7746 20.9502C34.21 20.1459 35.737 19.5121 37.325 19.0672C38.4764 18.7534 39.2735 17.7053 39.2674 16.514V10.5604C39.2704 9.99976 39.7255 9.54576 40.2874 9.54272H45.7113C46.2732 9.54576 46.7283 9.99975 46.7313 10.5604V16.5109V16.5079C46.7252 17.7022 47.5223 18.7473 48.6737 19.0642C50.2617 19.509 51.7887 20.1397 53.2241 20.9472C54.2655 21.5352 55.5665 21.3555 56.4094 20.5115L60.6269 16.3007C61.027 15.9077 61.6713 15.9077 62.0715 16.3007L65.9011 20.1215V20.1245C66.2981 20.5237 66.2981 21.1665 65.9011 21.5657L61.6836 25.7765C60.8377 26.6143 60.6575 27.9154 61.2469 28.9513C62.0531 30.3863 62.6884 31.9098 63.1343 33.4942C63.4519 34.6429 64.4994 35.4381 65.6935 35.432H71.6579C72.2198 35.4351 72.6749 35.889 72.6779 36.4497V41.8579C72.6749 42.4216 72.2198 42.8756 71.6579 42.8786H65.6965C64.5024 42.8725 63.4518 43.6677 63.1373 44.8164C62.6914 46.3977 62.0562 47.9243 61.2499 49.3563C60.6605 50.3922 60.8376 51.6932 61.6836 52.5341L65.9011 56.7449C66.2981 57.144 66.2981 57.7869 65.9011 58.1861L64.2245 59.8558C63.1739 58.1282 60.8835 57.2293 59.0541 56.1568L54.1158 53.2562C54.0853 51.4433 53.8657 49.6394 53.4625 47.8692ZM64.8294 61.7142C64.8477 61.8879 64.8538 62.0707 64.8538 62.2596V69.825C64.8538 70.1114 64.7164 70.3795 64.4812 70.541C64.2461 70.7025 63.9437 70.739 63.6781 70.6385L54.1219 67.8292V71.2265C54.1219 71.7049 53.731 72.0949 53.2515 72.0949H50.8175L52.1032 76.8998C52.1734 77.1619 52.1184 77.4391 51.9535 77.6524C51.7886 77.8657 51.5321 77.9906 51.2633 77.9906H34.7349C34.4539 77.9937 34.1913 77.8596 34.0264 77.6341C33.8645 77.4087 33.8187 77.1192 33.9042 76.8541L35.1808 72.0979H32.7498C32.2673 72.0979 31.8763 71.7079 31.8763 71.2296V67.8353L22.3202 70.6446L22.3232 70.6415C22.0545 70.7421 21.7552 70.7055 21.5201 70.544C21.2849 70.3825 21.1444 70.1144 21.1444 69.828V62.2626C21.1444 62.0737 21.1536 61.8939 21.1689 61.7172L18.8601 59.4138H18.8631C17.7851 58.3352 17.7851 56.5924 18.8631 55.5138L23.0807 51.3061C23.383 51.0197 23.4471 50.5657 23.2364 50.2061C22.3599 48.6522 21.6728 47.0008 21.1872 45.2854C21.0803 44.8833 20.7138 44.609 20.2985 44.6151H14.3371C12.8132 44.6121 11.5764 43.3812 11.5732 41.8577V36.4495C11.5793 34.9291 12.8131 33.6982 14.3371 33.6951H20.3015C20.7138 33.7043 21.0803 33.427 21.1872 33.0248C21.6697 31.3094 22.3569 29.658 23.2303 28.1041C23.441 27.7446 23.3769 27.2906 23.0746 27.0041L18.857 22.7964C17.779 21.7209 17.779 19.975 18.857 18.8964L22.6867 15.0757C23.7678 14.0001 25.5177 14.0001 26.5958 15.0757L30.8164 19.2864H30.8194C31.1065 19.5881 31.5615 19.649 31.9188 19.4388C33.4763 18.5643 35.1347 17.8788 36.854 17.3943C37.2571 17.2877 37.5351 16.922 37.5259 16.5077V10.5602C37.529 9.03981 38.7627 7.80585 40.2898 7.80273H45.7137H45.7106C47.2345 7.80883 48.4683 9.03974 48.4714 10.5602V16.5107V16.5077C48.4622 16.9221 48.7401 17.2877 49.1402 17.3943C50.8596 17.8757 52.5179 18.5613 54.0724 19.4327C54.4327 19.6429 54.8878 19.582 55.1749 19.2803L59.3954 15.0726C60.4765 14.0001 62.2265 14.0001 63.3045 15.0726L67.1372 18.8964C68.2122 19.972 68.2122 21.7178 67.1372 22.7964L62.9197 27.0041V27.0011C62.6204 27.2905 62.5563 27.7445 62.767 28.101C63.6435 29.655 64.3276 31.3094 64.8102 33.0248C64.917 33.4239 65.2835 33.7012 65.6988 33.6921H71.6602C73.1841 33.6951 74.421 34.9291 74.4241 36.4495V41.8577C74.421 43.3811 73.1842 44.6121 71.6602 44.6152H65.6958C65.2835 44.606 64.917 44.8833 64.8102 45.2824C64.3276 46.9978 63.6405 48.6523 62.767 50.2032C62.5563 50.5627 62.6174 51.0167 62.9197 51.3031L67.1372 55.5108H67.1342C68.2122 56.5894 68.2122 58.3322 67.1342 59.4108L64.8294 61.7142ZM49.0187 72.0975H36.9802L35.8655 76.2565H50.1306L49.0187 72.0975ZM31.8765 66.0251V55.2697L27.8208 57.6523C27.3414 57.9327 26.9107 58.1673 26.4863 58.3927C24.6112 59.4074 22.8887 60.3306 22.8887 62.2561V68.6637L31.8796 66.0251L31.8765 66.0251ZM54.1216 55.2697V66.0251L63.1125 68.6637V62.2561C63.1125 60.3305 61.3931 59.4012 59.5149 58.3927C59.0904 58.1642 58.6597 57.9326 58.1803 57.6523L54.1246 55.2697L54.1216 55.2697ZM42.9987 46.242C40.7204 46.242 38.6651 47.61 37.7947 49.7123C36.9213 51.8116 37.4038 54.2309 39.0163 55.8366C40.6258 57.4453 43.0507 57.9267 45.1549 57.0553C47.259 56.1839 48.6333 54.1364 48.6333 51.8635C48.6333 50.3705 48.0378 48.9415 46.9811 47.8873C45.9244 46.833 44.4921 46.242 42.9987 46.242ZM45.7503 49.1182C44.6386 48.0061 42.9651 47.674 41.5113 48.2743C40.0576 48.8775 39.1079 50.2913 39.1079 51.8635C39.1079 53.4326 40.0576 54.8464 41.5113 55.4497C42.9651 56.0499 44.6386 55.7178 45.7503 54.6088C47.2681 53.0914 47.2681 50.6355 45.7503 49.1182ZM49.5953 42.4882C51.4551 45.9495 52.4141 49.825 52.3805 53.7522V70.3576H33.6169V53.7522C33.5985 49.8461 34.5941 45.9979 36.4998 42.5888C38.2406 39.5633 40.6013 37.3574 43.1514 36.556C45.6679 37.3451 47.9339 39.5114 49.5953 42.4882Z" fill="white"/>
</svg>
