<svg width="87" height="75" viewBox="0 0 87 75" fill="none" xmlns="http://www.w3.org/2000/svg">
<path d="M71.2584 14.0408H69.2935V9.69687C69.2935 9.17501 68.8612 8.73901 68.3258 8.73901C51.9725 8.73901 45.4997 12.4752 43.5054 14.0408C41.5111 12.4752 35.0262 8.73901 18.6876 8.73901C18.1522 8.73901 17.7025 9.17501 17.7025 9.69687V14.0408H15.7524C13.3405 14.0408 11.377 16.0102 11.377 18.4115V60.0864C11.377 62.4891 13.3418 64.4612 15.7524 64.4612H58.3288C58.8642 64.4612 59.2966 64.0252 59.2966 63.4738C59.2966 62.9251 58.8642 62.5186 58.3288 62.5186H46.6829C48.2864 61.6788 50.7719 60.725 54.5142 60.0005C55.0496 59.912 55.3963 59.3928 55.2812 58.871C55.1928 58.3196 54.6748 57.9721 54.1542 58.0875C49.1122 59.0722 46.1207 60.4929 44.4731 61.5044V52.0949C47.0737 51.9205 49.6329 51.1102 51.9297 49.6036L53.9655 51.6293L53.5479 52.0653C53.3591 52.2371 53.2574 52.4987 53.2574 52.7294C53.2574 52.991 53.3578 53.2513 53.5479 53.4257L62.8502 62.7494C63.6466 63.5623 64.6999 63.9648 65.7413 63.9648C66.7946 63.9648 67.8359 63.561 68.6297 62.7494L69.5264 61.88C71.1152 60.2581 71.1152 57.6542 69.5264 56.0591L60.2241 46.7354C59.848 46.3584 59.227 46.3584 58.8509 46.7354L58.4306 47.1687L56.3948 45.1135C60.3807 39.0605 59.6017 31.0689 54.4152 25.8852C51.6553 23.1029 48.1017 21.6272 44.4744 21.4246V15.719C45.6161 14.7343 51.1078 10.8519 67.3608 10.6802V50.0061C67.3608 50.5574 67.7931 50.9908 68.3285 50.9908C68.8639 50.9908 69.2962 50.5574 69.2962 50.0061V16.0102H71.2611C72.5902 16.0102 73.6877 17.0807 73.6877 18.4128V60.0877C73.6877 60.6364 73.5016 61.1583 73.155 61.5943C72.8204 61.9981 72.894 62.6353 73.3116 62.9559C73.7319 63.3034 74.3529 63.2175 74.6701 62.8111C75.2912 62.0276 75.6258 61.0738 75.6258 60.0891V18.4128C75.6231 16.0102 73.673 14.0408 71.2584 14.0408ZM19.6553 10.7111C35.7624 10.8533 41.3812 14.7652 42.523 15.7499V21.4259C38.9546 21.6875 35.4452 23.1337 32.7294 25.8866C26.7465 31.8806 26.7465 41.6094 32.7294 47.6061C35.4572 50.3576 38.9399 51.8346 42.523 52.0962V61.5057C39.7778 59.798 33.2769 57.0183 19.6553 56.9029V10.7111ZM15.7524 62.5186C14.4086 62.5186 13.3258 61.4185 13.3258 60.0864V18.4128C13.3258 17.0807 14.4086 16.0102 15.7524 16.0102H17.7025V57.8568C17.7025 58.4054 18.1522 58.8414 18.6876 58.8414C30.8208 58.8414 37.236 60.9557 40.3132 62.5186H15.7524ZM68.1371 57.4503C68.9777 58.2901 68.9777 59.6504 68.1371 60.4929L67.2577 61.3622C66.4172 62.2315 65.06 62.2315 64.2221 61.3622L55.6118 52.7294L59.5268 48.8202L68.1371 57.4503ZM54.3563 44.652C54.0699 45.0585 54.1114 45.5777 54.442 45.9278L57.0573 48.5612L55.3387 50.269L52.7381 47.6624C52.5373 47.4612 52.3058 47.3753 52.0461 47.3753C51.8453 47.3753 51.6406 47.4317 51.4692 47.547C46.1074 51.5153 38.8114 50.9371 34.1014 46.2457C28.888 41.003 28.888 32.4883 34.1014 27.2482C39.3321 22.035 47.8126 22.035 53.0285 27.2482C57.7372 31.9651 58.2847 39.2925 54.3563 44.652Z" fill="white"/>
<path d="M23.8713 18.6437C28.2361 18.8744 32.0788 19.4271 35.3005 20.2951C35.3861 20.3246 35.4571 20.3246 35.5454 20.3246C35.9777 20.3246 36.3685 20.0335 36.4837 19.6015C36.6282 19.0797 36.3244 18.5578 35.8064 18.4129C32.4535 17.5141 28.4663 16.9359 23.9744 16.7052C23.439 16.6461 22.9772 17.0526 22.9478 17.604C22.9183 18.1513 23.3239 18.6169 23.8713 18.6437Z" fill="white"/>
<path d="M23.8713 25.4492C25.519 25.5646 27.1225 25.6799 28.6255 25.8852C28.6697 25.8852 28.6965 25.8852 28.7407 25.8852C29.2319 25.8852 29.6521 25.5082 29.7084 25.0427C29.7673 24.494 29.3911 24.0017 28.8558 23.9426C27.3112 23.7709 25.6635 23.5952 23.9744 23.5093C23.439 23.4798 22.9772 23.8863 22.9478 24.435C22.9183 24.9568 23.3239 25.4197 23.8713 25.4492Z" fill="white"/>
<path d="M23.8713 32.2856C24.4509 32.342 25.0278 32.3715 25.5779 32.401C25.6046 32.401 25.6341 32.401 25.6341 32.401C26.1695 32.401 26.5871 32.024 26.6312 31.5022C26.6754 30.9803 26.2699 30.5175 25.7345 30.4611C25.1723 30.4316 24.5807 30.3726 23.9744 30.3457C23.4537 30.3162 22.9772 30.7227 22.9478 31.2419C22.9183 31.7933 23.3239 32.2561 23.8713 32.2856Z" fill="white"/>
<path d="M23.8713 39.1208C24.2769 39.1476 24.6677 39.1772 25.0572 39.2067C25.0867 39.2067 25.0987 39.2067 25.1281 39.2067C25.6341 39.2067 26.0544 38.8002 26.0959 38.3078C26.1253 37.7591 25.7198 37.2936 25.187 37.2373C24.7962 37.2373 24.3907 37.2078 23.9744 37.1783C23.439 37.1514 22.9772 37.5552 22.9478 38.1066C22.9183 38.6285 23.3239 39.0913 23.8713 39.1208Z" fill="white"/>
<path d="M27.2538 44.2454C26.2004 44.1596 25.1002 44.0737 23.9759 43.9838C23.4405 43.9543 22.9787 44.3903 22.9493 44.9122C22.9198 45.4609 23.3254 45.9264 23.8728 45.9532C24.973 46.0122 26.0411 46.0981 27.0677 46.184C27.0945 46.184 27.1386 46.184 27.1681 46.184C27.6593 46.184 28.0769 45.8365 28.1358 45.3146C28.18 44.7673 27.7891 44.3045 27.2538 44.2454Z" fill="white"/>
<path d="M36.8159 29.969C33.1056 33.7025 33.1056 39.785 36.8159 43.4917C38.6803 45.3752 41.1244 46.2995 43.5644 46.2995C46.0057 46.2995 48.4605 45.3739 50.3102 43.4917C54.0379 39.785 54.0379 33.7025 50.3102 29.969C46.5826 26.2623 40.5448 26.2623 36.8159 29.969ZM48.9383 31.3575C51.9003 34.341 51.9003 39.1773 48.9383 42.1314C45.9763 45.0854 41.1659 45.0854 38.2038 42.1314C35.2418 39.1773 35.2418 34.341 38.2038 31.3575C39.6775 29.8804 41.6276 29.1278 43.5657 29.1278C45.5145 29.1265 47.4499 29.8804 48.9383 31.3575Z" fill="white"/>
<path d="M63.0404 16.7037C58.5459 16.9344 54.5613 17.5126 51.2084 18.4115C50.6878 18.5564 50.3826 19.0782 50.5138 19.6001C50.6289 20.0334 51.0344 20.3232 51.4547 20.3232C51.5404 20.3232 51.626 20.3232 51.7157 20.2937C54.9347 19.4243 58.7788 18.873 63.1421 18.6422C63.6775 18.6154 64.0951 18.1499 64.0657 17.6012C64.0362 17.0512 63.5865 16.6447 63.0404 16.7037Z" fill="white"/>
<path d="M63.0404 23.5108C61.3366 23.5967 59.7023 23.7724 58.155 23.9441C57.6223 24.0031 57.2462 24.4955 57.3024 25.0442C57.3613 25.5097 57.7789 25.8867 58.2701 25.8867C58.2996 25.8867 58.3438 25.8867 58.3852 25.8867C59.8883 25.6814 61.4918 25.566 63.1395 25.4507C63.6749 25.4211 64.0924 24.9583 64.063 24.4365C64.0362 23.8864 63.5865 23.4813 63.0404 23.5108Z" fill="white"/>
<path d="M63.0404 30.3457C62.4341 30.3726 61.8398 30.4316 61.2776 30.4611C60.7423 30.5175 60.3394 30.9803 60.3809 31.5022C60.425 32.024 60.8453 32.401 61.3486 32.401C61.378 32.401 61.4075 32.401 61.4075 32.401C61.9843 32.3715 62.5492 32.342 63.1408 32.2856C63.6762 32.2561 64.0938 31.7933 64.0643 31.2419C64.0362 30.7227 63.5718 30.3162 63.0404 30.3457Z" fill="white"/>
<path d="M63.04 37.1783C62.6197 37.2078 62.2142 37.2373 61.8127 37.2373C61.2773 37.2936 60.8717 37.7591 60.9159 38.3078C60.9453 38.8002 61.3777 39.2067 61.8836 39.2067C61.913 39.2067 61.9278 39.2067 61.9572 39.2067C62.3454 39.1772 62.7349 39.1476 63.1404 39.1208C63.6758 39.0913 64.0934 38.6285 64.0639 38.1066C64.0358 37.5552 63.5607 37.1514 63.04 37.1783Z" fill="white"/>
</svg>
