<svg width="94" height="79" viewBox="0 0 94 79" fill="none" xmlns="http://www.w3.org/2000/svg">
<path d="M53.11 37.5458C53.11 37.5458 52.9534 37.5458 52.8098 37.5458H40.7464C40.5898 37.5458 40.5898 37.5458 40.4462 37.5458C39.6889 35.8666 38.6314 34.4914 37.7306 32.9577C35.3153 28.8323 34.2578 24.707 36.3728 20.1321C38.3312 16.1654 42.4045 13.7193 46.7781 13.7193C51.3084 13.7193 55.225 16.1654 57.1834 20.1321C59.442 24.7202 58.3845 28.8323 55.9823 32.9577C54.9117 34.4914 53.8673 35.8666 53.11 37.5458ZM24.0092 51.4423C24.0092 52.8174 22.0509 52.8174 22.0509 51.4423V33.7246C22.0509 33.2618 22.3512 32.8122 22.8081 32.6536L28.8398 30.8157C30.0409 30.3529 30.6545 32.3494 29.4403 32.799L24.0092 34.4782V51.4423ZM71.9623 51.4423C71.9623 52.0506 71.5053 52.5133 70.9048 52.5133C70.3042 52.5133 69.8473 52.0506 69.8473 51.4423V34.4914L64.5728 32.8122C63.215 32.3494 63.8156 30.3661 65.1734 30.8289L71.205 32.6668C71.5053 32.8254 71.9623 33.275 71.9623 33.7378V51.4423ZM46.9217 56.7841C50.5381 56.7841 53.5539 59.6798 53.5539 63.3556C53.5539 65.1934 52.7967 66.8727 51.5956 68.0891C51.2953 68.3932 51.1387 68.5519 50.8384 68.6973C54.0109 69.9138 56.5698 72.3599 56.5698 76.4852V77.5562C56.5698 78.1645 56.1128 78.6272 55.5123 78.6272H38.3312C37.7306 78.6272 37.2737 78.1645 37.2737 77.5562V76.4852C37.2737 72.3599 39.8325 69.9138 43.1487 68.6973C42.8484 68.5387 42.5481 68.3932 42.2478 68.0891C41.0467 66.8727 40.4331 65.1934 40.4331 63.3556C40.4462 59.693 43.3053 56.7841 46.9217 56.7841ZM46.9217 58.622C44.3628 58.622 42.2478 60.764 42.2478 63.3556C42.2478 64.7307 42.8484 65.8017 43.6056 66.714C45.4203 68.5519 48.4362 68.5519 50.2378 66.714C50.995 65.8017 51.5956 64.7307 51.5956 63.3556C51.5956 60.764 49.4937 58.622 46.9217 58.622ZM63.215 76.4852V76.6439H78.5945V76.4852C78.5945 73.4309 76.6362 71.4476 74.0642 70.6807C73.7639 70.522 70.8917 69.9138 70.8917 70.0724C69.6906 70.0724 68.6331 70.2311 67.5756 70.6807C65.1734 71.4476 63.215 73.4309 63.215 76.4852ZM70.9048 56.7841C74.5212 56.7841 77.3934 59.6798 77.3934 63.3556C77.3934 65.1934 76.7928 66.8727 75.5787 68.0891C75.2784 68.3932 74.9781 68.5519 74.6778 68.6973C77.9939 69.9138 80.5528 72.3599 80.5528 76.4852V77.5562C80.5528 78.1645 80.0959 78.6272 79.4953 78.6272H62.3012C61.7006 78.6272 61.2437 78.1645 61.2437 77.5562V76.4852C61.2437 72.3599 63.8025 69.9138 66.975 68.6973C66.6748 68.5387 66.5181 68.3932 66.2178 68.0891C65.0167 66.8727 64.2595 65.1934 64.2595 63.3556C64.2725 59.693 67.2884 56.7841 70.9048 56.7841ZM70.9048 58.622C68.3459 58.622 66.2309 60.764 66.2309 63.3556C66.2309 64.7307 66.8314 65.8017 67.5887 66.714C69.4034 68.5519 72.4192 68.5519 74.2209 66.714C74.9781 65.8017 75.5787 64.7307 75.5787 63.3556C75.5787 60.764 73.4637 58.622 70.9048 58.622ZM30.6414 76.6439V76.4852C30.6414 73.4309 28.6831 71.4476 26.2678 70.6807C24.1528 69.9138 21.8942 69.9138 19.7792 70.6807C17.3639 71.4476 15.4056 73.4309 15.4056 76.4852L30.6414 76.6439ZM22.9517 58.622C20.3928 58.622 18.4214 60.764 18.4214 63.3556C18.4214 64.7307 18.8784 65.8017 19.7792 66.714C21.5939 68.5519 24.4531 68.5519 26.2678 66.714C27.1687 65.8017 27.6256 64.7307 27.6256 63.3556C27.6256 60.764 25.5106 58.622 22.9517 58.622ZM22.9517 56.7841C26.7248 56.7841 29.5839 59.6798 29.5839 63.3556C29.5839 65.1934 28.8267 66.8727 27.6256 68.0891C27.4689 68.3932 27.1687 68.5519 26.8684 68.6973C30.0409 69.9138 32.5998 72.3599 32.5998 76.4852V77.5562C32.5998 78.1645 32.1428 78.6272 31.6989 78.6272H14.3481C13.8912 78.6272 13.4473 78.1645 13.4473 77.5562V76.4852C13.4473 72.3599 15.8625 69.9138 19.1787 68.6973C18.8784 68.5387 18.5781 68.3932 18.4214 68.0891C17.2203 66.8727 16.4631 65.1934 16.4631 63.3556C16.4631 59.693 19.3223 56.7841 22.9517 56.7841ZM39.232 76.4852V76.6439H54.6114V76.4852C54.6114 73.4309 52.6531 71.4476 50.2378 70.6807C48.1228 69.9138 45.7075 69.9138 43.7492 70.6807C41.1903 71.4476 39.232 73.4309 39.232 76.4852ZM34.7148 7.30655C33.9575 6.23555 32.2995 7.30655 33.0567 8.37755L35.1717 11.2732C35.9289 12.3442 37.4303 11.2732 36.6862 10.2022L34.7148 7.30655ZM25.9675 18.0033C24.7664 17.6992 24.1528 19.5371 25.367 19.9867L28.8398 21.0577C30.0409 21.5204 30.6545 19.6826 29.4403 19.2198L25.9675 18.0033ZM59.2853 7.30655C60.0425 6.23555 61.5439 7.30655 60.7998 8.37755L58.6848 11.2732C57.9275 12.3442 56.4262 11.2732 57.1703 10.2022L59.2853 7.30655ZM67.8889 18.0033C69.09 17.6992 69.7037 19.5371 68.4895 19.9867L65.0167 21.0577C63.8156 21.5204 63.202 19.6826 64.4162 19.2198L67.8889 18.0033ZM46.0209 3.48533C46.0209 2.26889 47.9792 2.26889 47.9792 3.48533V7.00244C47.9792 8.37755 46.0209 8.37755 46.0209 7.00244V3.48533ZM46.7781 30.6702L43.7623 31.8867C42.5612 32.3494 41.347 31.4239 41.5037 30.2074L41.6603 26.9944L39.702 24.4029C38.8012 23.4906 39.245 22.1154 40.4592 21.6527L43.6317 20.8858L45.4464 17.9901C46.2037 17.0778 47.5614 17.0778 48.162 17.9901L50.1203 20.8858L53.1362 21.6527C54.4939 22.1154 54.7942 23.4906 54.037 24.4029L52.0787 26.9944L52.2353 30.2074C52.2353 31.4239 51.0342 32.3494 49.9767 31.8867L46.7781 30.6702ZM46.1645 28.8456C46.6214 28.6869 47.0653 28.6869 47.3656 28.8456L50.2248 29.9166L50.0681 27.0209C50.0681 26.5581 50.2248 26.1086 50.525 25.8044L52.3398 23.517L49.4806 22.7501C49.0237 22.5914 48.7234 22.446 48.4231 21.9832L46.765 19.5371L45.107 21.9832C44.8067 22.446 44.5064 22.5914 44.2062 22.7501L41.347 23.517L43.1617 25.8044C43.462 26.1086 43.6187 26.5713 43.6187 27.0209L43.462 29.9166L46.1645 28.8456ZM58.6848 38.9209C57.4837 38.4581 58.2278 36.6334 59.442 37.083L63.215 38.6168C63.672 38.7754 63.9723 39.0796 63.9723 39.5291V55.5677C63.9723 56.0304 63.672 56.3346 63.215 56.48L59.442 58.0138C58.8414 58.1724 58.3845 57.8551 58.0842 57.4056C57.9275 56.9428 58.2409 56.3346 58.6848 56.0304L61.8573 54.814V40.1373L58.6848 38.9209ZM34.4145 37.083C35.7723 36.6202 36.3728 38.4581 35.1717 38.9209L31.9992 40.1373V54.8008L35.1717 56.0172C36.3728 56.6254 35.7723 58.4633 34.4145 58.0006L30.6414 56.4668C30.3412 56.3081 30.0409 56.004 30.0409 55.5544V39.5291C30.0409 39.0663 30.1975 38.7622 30.6414 38.6168L34.4145 37.083ZM46.7781 11.736C41.5037 11.736 36.5295 14.949 34.4145 19.9867C32.2995 25.0243 33.357 29.6124 36.0725 34.0419C36.9734 35.417 38.0309 36.7921 38.6314 38.1672C36.8167 39.5423 36.6731 42.2926 38.1745 43.8131C36.2162 45.7964 37.117 50.0804 40.7334 50.0804H41.7909C42.3914 56.1891 51.4389 56.1891 52.0395 50.0804H52.7967C56.5698 50.0804 57.327 45.8097 55.3556 43.8131C56.87 42.2793 56.7134 39.5423 55.0553 38.1672C55.6559 36.7921 56.7134 35.417 57.4706 34.0419C60.1862 29.6124 61.3873 25.0376 59.2853 19.9867C57.0267 14.9358 52.1962 11.736 46.7781 11.736ZM52.8098 42.8876H40.7464C38.6314 42.8876 38.6314 39.5291 40.7464 39.5291H52.8098C55.0684 39.5291 55.0684 42.8876 52.8098 42.8876ZM52.3528 44.8709H52.8098C55.0684 44.8709 55.0684 48.2293 52.8098 48.2293H40.7464C38.6314 48.2293 38.6314 44.8709 40.7464 44.8709H52.3528ZM50.0942 50.0672C49.4937 53.5843 44.3628 53.5843 43.7623 50.0672H50.0942Z" fill="white"/>
</svg>
