<svg width="95" height="79" viewBox="0 0 95 79" fill="none" xmlns="http://www.w3.org/2000/svg">
<path d="M82.0315 56.8966L81.512 56.1783C81.4277 56.0608 81.3433 55.95 81.2522 55.8258C78.324 51.9928 73.6111 49.7036 68.6518 49.7036H68.5371C66.5635 49.7036 64.6305 50.056 62.7953 50.7509C62.1273 51.006 61.7899 51.7478 62.0464 52.4157C62.3028 53.0803 63.0517 53.416 63.7197 53.1608C65.258 52.5768 66.8807 52.2815 68.5405 52.2815H68.6552C72.8114 52.2815 76.7518 54.1913 79.1872 57.38L79.9328 58.407C80.8639 59.6926 80.9854 61.3037 80.2566 62.71C79.5313 64.1197 78.1448 64.9622 76.5524 64.9622H69.0225C68.3073 64.9622 67.7271 65.5396 67.7271 66.2511C67.7271 66.9627 68.3073 67.54 69.0225 67.54H76.5524C79.0961 67.54 81.4003 66.1404 82.5607 63.8882C83.7178 61.6293 83.5159 58.9541 82.0315 56.8966Z" fill="white"/>
<path d="M68.5919 47.8106C73.487 47.8106 77.4675 43.85 77.4675 38.98C77.4675 34.1101 73.4866 30.1494 68.5919 30.1494C63.7002 30.1494 59.7163 34.1101 59.7163 38.98C59.7163 43.85 63.7005 47.8106 68.5919 47.8106ZM68.5919 32.7263C72.0599 32.7263 74.8768 35.5323 74.8768 38.9794C74.8768 42.4265 72.0566 45.2325 68.5919 45.2325C65.1239 45.2325 62.307 42.4265 62.307 38.9794C62.307 35.529 65.1272 32.7263 68.5919 32.7263Z" fill="white"/>
<path d="M25.98 64.9588H18.4501C16.8578 64.9588 15.4747 64.1163 14.7459 62.7066C14.0206 61.2969 14.142 59.6858 15.0698 58.4003L15.5893 57.6786C15.6635 57.5779 15.7344 57.4806 15.8086 57.3833C18.2511 54.1878 22.1914 52.2781 26.3441 52.2781H26.4588C28.1186 52.2781 29.7379 52.5734 31.2796 53.1574C31.9476 53.4092 32.6965 53.0769 32.9495 52.4123C33.2026 51.7477 32.8686 51.0026 32.1972 50.7475C30.362 50.0527 28.4323 49.7002 26.4554 49.7002H26.3407C21.3816 49.7002 16.6689 51.9893 13.7368 55.8258C13.6491 55.9399 13.5648 56.054 13.4804 56.1748L12.9609 56.8965C11.4833 58.954 11.2809 61.6291 12.4414 63.8813C13.6019 66.1369 15.906 67.5332 18.4497 67.5332H25.9796C26.6948 67.5332 27.275 66.9559 27.275 66.2443C27.275 65.5361 26.6952 64.9588 25.98 64.9588Z" fill="white"/>
<path d="M26.4083 47.8106C31.3034 47.8106 35.2839 43.85 35.2839 38.98C35.2839 34.1101 31.3031 30.1494 26.4083 30.1494C21.5136 30.1494 17.5327 34.1101 17.5327 38.98C17.5293 43.8503 21.5136 47.8106 26.4083 47.8106ZM26.4083 32.7263C29.873 32.7263 32.6933 35.5323 32.6933 38.9794C32.6933 42.4265 29.873 45.2325 26.4083 45.2325C22.9437 45.2325 20.1234 42.4265 20.1234 38.9794C20.12 35.529 22.9403 32.7263 26.4083 32.7263Z" fill="white"/>
<path d="M63.2314 57.6251C63.1268 57.4774 63.0189 57.3365 62.9143 57.1955C59.3484 52.5266 53.6129 49.7407 47.5709 49.7407H47.4292C41.3871 49.7407 35.6518 52.5266 32.0858 57.1955C31.9779 57.3365 31.8733 57.4774 31.7687 57.6218L31.1244 58.5146C29.3532 60.9649 29.1137 64.1535 30.4969 66.8387C31.88 69.5239 34.6227 71.192 37.6557 71.192H57.3371C60.3699 71.192 63.1126 69.5239 64.4958 66.8387C65.879 64.1535 65.6395 60.9649 63.8684 58.5146L63.2314 57.6251ZM62.1957 65.6606C61.2443 67.5066 59.4294 68.6109 57.3445 68.6109L37.6596 68.6143C35.5714 68.6143 33.7598 67.51 32.805 65.6639C31.8537 63.8179 32.0122 61.7066 33.2301 60.0217L33.8778 59.1288C33.9689 59.0046 34.06 58.8804 34.1545 58.7596C37.2312 54.7285 42.1971 52.3219 47.4329 52.3219H47.5746C52.8104 52.3219 57.7733 54.7285 60.853 58.7596C60.9441 58.8804 61.0352 59.0013 61.1262 59.1288L61.7706 60.0217C62.9885 61.7066 63.1471 63.8145 62.1957 65.6606Z" fill="white"/>
<path d="M47.5003 47.1593C53.3839 47.1593 58.174 42.3965 58.174 36.5398C58.174 30.686 53.3835 25.9202 47.5003 25.9202C41.6172 25.9202 36.8267 30.683 36.8267 36.5398C36.8267 42.3965 41.6172 47.1593 47.5003 47.1593ZM47.5003 28.4971C51.9569 28.4971 55.5835 32.1053 55.5835 36.5392C55.5835 40.9732 51.9569 44.5814 47.5003 44.5814C43.0438 44.5814 39.4172 40.9732 39.4172 36.5392C39.4172 32.1053 43.0438 28.4971 47.5003 28.4971Z" fill="white"/>
</svg>
