<svg width="91" height="92" viewBox="0 0 91 92" fill="none" xmlns="http://www.w3.org/2000/svg">
<mask id="path-1-outside-1_338_434" maskUnits="userSpaceOnUse" x="0" y="0" width="91" height="92" fill="black">
<rect fill="white" width="91" height="92"/>
<path fill-rule="evenodd" clip-rule="evenodd" d="M46.1539 15.0802L46.1559 15.0842L46.1589 15.0872C47.4369 16.4912 48.7859 17.9182 50.1809 19.3962C62.9839 32.9482 79.6229 50.5592 62.3099 69.5872C61.7799 70.1692 61.2299 70.7192 60.6639 71.2342C56.2839 75.2192 50.8809 77.2122 45.4759 77.2122C40.0709 77.2122 34.6669 75.2202 30.2879 71.2342C29.7219 70.7182 29.1709 70.1692 28.6409 69.5872C11.3279 50.5592 27.9669 32.9472 40.7719 19.3962C42.1679 17.9172 43.5199 16.4872 44.7989 15.0812C45.1389 14.7082 45.7189 14.6802 46.0929 15.0202C46.1149 15.0402 46.1339 15.0602 46.1539 15.0802ZM52.1119 89.4442L49.1539 86.3262C58.2069 85.5172 66.4569 81.7212 72.8529 75.8902C79.7109 69.6392 84.4419 61.0492 85.7479 51.3022C85.813 50.8012 85.4599 50.3422 84.9589 50.2762C84.4569 50.2112 83.9979 50.5642 83.9329 51.0652C82.6879 60.3652 78.1709 68.5642 71.6199 74.5342C65.6619 79.9652 58.0229 83.5502 49.6369 84.4392L52.3129 81.9002C52.6789 81.5512 52.6939 80.9722 52.3449 80.6052C51.9959 80.2392 51.4159 80.2242 51.0499 80.5732L46.5149 84.8762C46.1489 85.2252 46.1339 85.8052 46.4829 86.1712L50.7859 90.7072C51.1349 91.0732 51.7149 91.0882 52.0809 90.7392C52.4469 90.3902 52.4599 89.8102 52.1119 89.4442ZM88.3179 38.7402L85.9109 41.7922C85.0239 32.9022 81.2549 24.8062 75.5139 18.5072C69.2619 11.6482 60.6719 6.91816 50.9249 5.61216C50.4239 5.54716 49.9649 5.90016 49.8989 6.40216C49.8349 6.90316 50.1869 7.36216 50.6889 7.42716C59.9879 8.67316 68.1869 13.1902 74.1579 19.7402C79.6949 25.8152 83.3119 33.6372 84.1119 42.2192L80.8219 39.6232C80.4259 39.3102 79.8509 39.3772 79.5379 39.7732C79.2249 40.1692 79.2929 40.7442 79.6889 41.0562L84.5599 44.9012C84.7299 45.0502 84.9549 45.1362 85.1989 45.1272C85.4939 45.1162 85.7499 44.9662 85.9089 44.7442L89.7539 39.8722C90.0669 39.4762 89.9989 38.9002 89.6039 38.5882C89.2059 38.2762 88.631 38.3452 88.3179 38.7402ZM38.6529 2.58416L41.6769 5.42516C32.6839 6.26216 24.4889 10.0502 18.1289 15.8472C11.2709 22.0982 6.54094 30.6872 5.23594 40.4342C5.17094 40.9352 5.52394 41.3952 6.02494 41.4602C6.52594 41.5242 6.98494 41.1722 7.04994 40.6702C8.29594 31.3712 12.8129 23.1722 19.3629 17.2012C25.3729 11.7232 33.0919 8.12416 41.5669 7.27316L38.8879 10.1252C38.5409 10.4932 38.5599 11.0732 38.9279 11.4202C39.2959 11.7672 39.8759 11.7492 40.2229 11.3802L44.5029 6.82416C44.8499 6.45616 44.8319 5.87616 44.4639 5.52916L39.9069 1.24916C39.5389 0.902162 38.9589 0.920162 38.6119 1.28716C38.2669 1.65716 38.2849 2.23716 38.6529 2.58416ZM2.62894 52.9752L5.06894 49.9222C5.95094 58.8202 9.72294 66.9262 15.4679 73.2302C21.7189 80.0892 30.3089 84.8192 40.0559 86.1242C40.5569 86.1902 41.0169 85.8372 41.0819 85.3352C41.1459 84.8342 40.7939 84.3752 40.2929 84.3102C30.9929 83.0652 22.7939 78.5482 16.8229 71.9972C11.2899 65.9272 7.67394 58.1102 6.87094 49.5352L10.1309 52.1412C10.5259 52.4562 11.0999 52.3922 11.4149 51.9972C11.7289 51.6032 11.6649 51.0282 11.2709 50.7132L6.43194 46.8442C6.25994 46.6892 6.03094 46.5982 5.78294 46.6092C5.48594 46.6202 5.22894 46.7712 5.06994 46.9962L1.19994 51.8362C0.884944 52.2302 0.948944 52.8052 1.34394 53.1192C1.73994 53.4342 2.31394 53.3702 2.62894 52.9752ZM35.7549 43.6532C35.2559 43.5752 34.9139 43.1082 34.9909 42.6082C35.0679 42.1092 35.5359 41.7672 36.0349 41.8442C36.5199 41.9192 37.0079 42.0162 37.4959 42.1322C37.9729 42.2462 38.4339 42.3742 38.8759 42.5162C38.9179 42.5272 38.9579 42.5402 38.9959 42.5562C41.6839 43.4392 44.0339 44.8752 45.9629 46.6992C46.1629 45.6012 45.9529 44.6282 45.4459 43.8042C44.8879 42.8982 43.9719 42.1462 42.8429 41.5842C41.6689 41.0002 40.2739 40.6292 38.8069 40.5092C36.0989 40.2872 33.1749 40.9222 30.9859 42.6552C33.4589 43.4002 35.4919 45.1922 37.3819 46.8582C38.0779 47.4722 38.7559 48.0692 39.3859 48.5532C41.2509 49.9842 43.0339 50.6272 45.1039 48.4222C43.2809 46.5802 41.0029 45.1342 38.3699 44.2782C37.9219 44.1322 37.4879 44.0102 37.0729 43.9112C36.6359 43.8082 36.1969 43.7222 35.7549 43.6532ZM47.4279 48.2512C48.1929 46.1952 47.9379 44.3612 47.0029 42.8442C46.2579 41.6342 45.0819 40.6522 43.6549 39.9432C42.2729 39.2552 40.6459 38.8202 38.9509 38.6812C35.1829 38.3722 31.0279 39.5272 28.3779 42.6362C28.0489 43.0212 28.0939 43.5992 28.4789 43.9282C28.6349 44.0622 28.8249 44.1342 29.0159 44.1462C31.7319 44.3232 34.0499 46.3682 36.1689 48.2372C36.8749 48.8592 37.5599 49.4632 38.2729 50.0102C40.9009 52.0272 43.4139 52.9312 46.3299 49.8102C47.0209 50.6842 47.6239 51.6242 48.1289 52.6142C50.0789 56.4392 50.5699 61.0072 49.1399 65.4102C49.0899 65.5642 49.0489 65.6882 49.0159 65.7812C48.9789 65.8872 48.9349 66.0092 48.8839 66.1452C48.7049 66.6192 48.9449 67.1482 49.4179 67.3262C49.8909 67.5052 50.4199 67.2642 50.5979 66.7922C50.6429 66.6732 50.6919 66.5362 50.7449 66.3842C50.7919 66.2482 50.8319 66.1322 50.8639 66.0352C50.8799 65.9962 50.8929 65.9562 50.9029 65.9142C52.1409 62.0552 52.0529 58.0862 50.8909 54.5022C51.1379 53.8002 51.4529 53.1192 51.8239 52.4852C53.9859 54.7742 55.6859 54.4082 57.3499 53.1152C57.9679 52.6342 58.5579 52.0112 59.1709 51.3642C60.4389 50.0272 61.8249 48.5652 63.5449 48.4902C63.7549 48.4902 63.9669 48.4202 64.1409 48.2722C64.5279 47.9452 64.5759 47.3672 64.2479 46.9812C62.0559 44.4022 58.9089 43.3772 56.1909 43.5522C55.0439 43.6262 53.9609 43.9162 53.0459 44.3952C52.0879 44.8962 51.3129 45.6052 50.8249 46.4962C50.1729 47.6862 50.0459 49.1592 50.7009 50.8382C50.4219 51.2472 50.1649 51.6782 49.9309 52.1232C49.8759 52.0092 49.8199 51.8952 49.7619 51.7822C49.1229 50.5232 48.3399 49.3382 47.4279 48.2512ZM52.1349 49.1152L52.1479 49.1022C53.4599 47.8232 55.0509 46.9562 56.8159 46.7832C57.3199 46.7332 57.7669 47.1012 57.8169 47.6042C57.8669 48.1082 57.4989 48.5552 56.9949 48.6052C55.6739 48.7352 54.4529 49.4122 53.4259 50.4152C53.2509 50.5862 53.0819 50.7662 52.9179 50.9532C54.3139 52.5172 55.3029 52.3822 56.2249 51.6652C56.7519 51.2552 57.2879 50.6892 57.8459 50.1012C58.9599 48.9262 60.1519 47.6692 61.6889 47.0492C60.0539 45.7752 58.0709 45.2682 56.3079 45.3822C55.4109 45.4402 54.5789 45.6582 53.8949 46.0162C53.2529 46.3522 52.7419 46.8102 52.4349 47.3702C52.1659 47.8582 52.0509 48.4432 52.1349 49.1152ZM25.4259 53.8702C25.6099 55.9842 26.1759 58.1192 27.2009 60.2792C28.2149 62.4172 29.6749 64.5712 31.6529 66.7452C32.2089 67.3552 32.7949 67.9262 33.4069 68.4562C34.0249 68.9902 34.6669 69.4782 35.3269 69.9202C35.7469 70.2012 36.3159 70.0892 36.5979 69.6692C36.8799 69.2492 36.7659 68.6812 36.3459 68.3982C35.7489 68.0002 35.1669 67.5562 34.6059 67.0712C34.0579 66.5962 33.5249 66.0782 33.0099 65.5102C31.1559 63.4732 29.7939 61.4702 28.8589 59.4972C27.9329 57.5462 27.4209 55.6182 27.2549 53.7112C27.2109 53.2062 26.7669 52.8322 26.2619 52.8752C25.7559 52.9202 25.3819 53.3652 25.4259 53.8702ZM48.8459 20.6512C47.6749 19.4112 46.5359 18.2072 45.4759 17.0542C44.4139 18.2062 43.2759 19.4102 42.1049 20.6512C29.8069 33.6662 13.8269 50.5812 29.9969 68.3522C30.4879 68.8922 30.9979 69.4012 31.5219 69.8782C35.5489 73.5422 40.5129 75.3742 45.4759 75.3742C50.4379 75.3742 55.4019 73.5422 59.4289 69.8782C59.9539 69.4002 60.4629 68.8922 60.9539 68.3522C77.1239 50.5812 61.1429 33.6662 48.8459 20.6512Z"/>
</mask>
<path fill-rule="evenodd" clip-rule="evenodd" d="M46.1539 15.0802L46.1559 15.0842L46.1589 15.0872C47.4369 16.4912 48.7859 17.9182 50.1809 19.3962C62.9839 32.9482 79.6229 50.5592 62.3099 69.5872C61.7799 70.1692 61.2299 70.7192 60.6639 71.2342C56.2839 75.2192 50.8809 77.2122 45.4759 77.2122C40.0709 77.2122 34.6669 75.2202 30.2879 71.2342C29.7219 70.7182 29.1709 70.1692 28.6409 69.5872C11.3279 50.5592 27.9669 32.9472 40.7719 19.3962C42.1679 17.9172 43.5199 16.4872 44.7989 15.0812C45.1389 14.7082 45.7189 14.6802 46.0929 15.0202C46.1149 15.0402 46.1339 15.0602 46.1539 15.0802ZM52.1119 89.4442L49.1539 86.3262C58.2069 85.5172 66.4569 81.7212 72.8529 75.8902C79.7109 69.6392 84.4419 61.0492 85.7479 51.3022C85.813 50.8012 85.4599 50.3422 84.9589 50.2762C84.4569 50.2112 83.9979 50.5642 83.9329 51.0652C82.6879 60.3652 78.1709 68.5642 71.6199 74.5342C65.6619 79.9652 58.0229 83.5502 49.6369 84.4392L52.3129 81.9002C52.6789 81.5512 52.6939 80.9722 52.3449 80.6052C51.9959 80.2392 51.4159 80.2242 51.0499 80.5732L46.5149 84.8762C46.1489 85.2252 46.1339 85.8052 46.4829 86.1712L50.7859 90.7072C51.1349 91.0732 51.7149 91.0882 52.0809 90.7392C52.4469 90.3902 52.4599 89.8102 52.1119 89.4442ZM88.3179 38.7402L85.9109 41.7922C85.0239 32.9022 81.2549 24.8062 75.5139 18.5072C69.2619 11.6482 60.6719 6.91816 50.9249 5.61216C50.4239 5.54716 49.9649 5.90016 49.8989 6.40216C49.8349 6.90316 50.1869 7.36216 50.6889 7.42716C59.9879 8.67316 68.1869 13.1902 74.1579 19.7402C79.6949 25.8152 83.3119 33.6372 84.1119 42.2192L80.8219 39.6232C80.4259 39.3102 79.8509 39.3772 79.5379 39.7732C79.2249 40.1692 79.2929 40.7442 79.6889 41.0562L84.5599 44.9012C84.7299 45.0502 84.9549 45.1362 85.1989 45.1272C85.4939 45.1162 85.7499 44.9662 85.9089 44.7442L89.7539 39.8722C90.0669 39.4762 89.9989 38.9002 89.6039 38.5882C89.2059 38.2762 88.631 38.3452 88.3179 38.7402ZM38.6529 2.58416L41.6769 5.42516C32.6839 6.26216 24.4889 10.0502 18.1289 15.8472C11.2709 22.0982 6.54094 30.6872 5.23594 40.4342C5.17094 40.9352 5.52394 41.3952 6.02494 41.4602C6.52594 41.5242 6.98494 41.1722 7.04994 40.6702C8.29594 31.3712 12.8129 23.1722 19.3629 17.2012C25.3729 11.7232 33.0919 8.12416 41.5669 7.27316L38.8879 10.1252C38.5409 10.4932 38.5599 11.0732 38.9279 11.4202C39.2959 11.7672 39.8759 11.7492 40.2229 11.3802L44.5029 6.82416C44.8499 6.45616 44.8319 5.87616 44.4639 5.52916L39.9069 1.24916C39.5389 0.902162 38.9589 0.920162 38.6119 1.28716C38.2669 1.65716 38.2849 2.23716 38.6529 2.58416ZM2.62894 52.9752L5.06894 49.9222C5.95094 58.8202 9.72294 66.9262 15.4679 73.2302C21.7189 80.0892 30.3089 84.8192 40.0559 86.1242C40.5569 86.1902 41.0169 85.8372 41.0819 85.3352C41.1459 84.8342 40.7939 84.3752 40.2929 84.3102C30.9929 83.0652 22.7939 78.5482 16.8229 71.9972C11.2899 65.9272 7.67394 58.1102 6.87094 49.5352L10.1309 52.1412C10.5259 52.4562 11.0999 52.3922 11.4149 51.9972C11.7289 51.6032 11.6649 51.0282 11.2709 50.7132L6.43194 46.8442C6.25994 46.6892 6.03094 46.5982 5.78294 46.6092C5.48594 46.6202 5.22894 46.7712 5.06994 46.9962L1.19994 51.8362C0.884944 52.2302 0.948944 52.8052 1.34394 53.1192C1.73994 53.4342 2.31394 53.3702 2.62894 52.9752ZM35.7549 43.6532C35.2559 43.5752 34.9139 43.1082 34.9909 42.6082C35.0679 42.1092 35.5359 41.7672 36.0349 41.8442C36.5199 41.9192 37.0079 42.0162 37.4959 42.1322C37.9729 42.2462 38.4339 42.3742 38.8759 42.5162C38.9179 42.5272 38.9579 42.5402 38.9959 42.5562C41.6839 43.4392 44.0339 44.8752 45.9629 46.6992C46.1629 45.6012 45.9529 44.6282 45.4459 43.8042C44.8879 42.8982 43.9719 42.1462 42.8429 41.5842C41.6689 41.0002 40.2739 40.6292 38.8069 40.5092C36.0989 40.2872 33.1749 40.9222 30.9859 42.6552C33.4589 43.4002 35.4919 45.1922 37.3819 46.8582C38.0779 47.4722 38.7559 48.0692 39.3859 48.5532C41.2509 49.9842 43.0339 50.6272 45.1039 48.4222C43.2809 46.5802 41.0029 45.1342 38.3699 44.2782C37.9219 44.1322 37.4879 44.0102 37.0729 43.9112C36.6359 43.8082 36.1969 43.7222 35.7549 43.6532ZM47.4279 48.2512C48.1929 46.1952 47.9379 44.3612 47.0029 42.8442C46.2579 41.6342 45.0819 40.6522 43.6549 39.9432C42.2729 39.2552 40.6459 38.8202 38.9509 38.6812C35.1829 38.3722 31.0279 39.5272 28.3779 42.6362C28.0489 43.0212 28.0939 43.5992 28.4789 43.9282C28.6349 44.0622 28.8249 44.1342 29.0159 44.1462C31.7319 44.3232 34.0499 46.3682 36.1689 48.2372C36.8749 48.8592 37.5599 49.4632 38.2729 50.0102C40.9009 52.0272 43.4139 52.9312 46.3299 49.8102C47.0209 50.6842 47.6239 51.6242 48.1289 52.6142C50.0789 56.4392 50.5699 61.0072 49.1399 65.4102C49.0899 65.5642 49.0489 65.6882 49.0159 65.7812C48.9789 65.8872 48.9349 66.0092 48.8839 66.1452C48.7049 66.6192 48.9449 67.1482 49.4179 67.3262C49.8909 67.5052 50.4199 67.2642 50.5979 66.7922C50.6429 66.6732 50.6919 66.5362 50.7449 66.3842C50.7919 66.2482 50.8319 66.1322 50.8639 66.0352C50.8799 65.9962 50.8929 65.9562 50.9029 65.9142C52.1409 62.0552 52.0529 58.0862 50.8909 54.5022C51.1379 53.8002 51.4529 53.1192 51.8239 52.4852C53.9859 54.7742 55.6859 54.4082 57.3499 53.1152C57.9679 52.6342 58.5579 52.0112 59.1709 51.3642C60.4389 50.0272 61.8249 48.5652 63.5449 48.4902C63.7549 48.4902 63.9669 48.4202 64.1409 48.2722C64.5279 47.9452 64.5759 47.3672 64.2479 46.9812C62.0559 44.4022 58.9089 43.3772 56.1909 43.5522C55.0439 43.6262 53.9609 43.9162 53.0459 44.3952C52.0879 44.8962 51.3129 45.6052 50.8249 46.4962C50.1729 47.6862 50.0459 49.1592 50.7009 50.8382C50.4219 51.2472 50.1649 51.6782 49.9309 52.1232C49.8759 52.0092 49.8199 51.8952 49.7619 51.7822C49.1229 50.5232 48.3399 49.3382 47.4279 48.2512ZM52.1349 49.1152L52.1479 49.1022C53.4599 47.8232 55.0509 46.9562 56.8159 46.7832C57.3199 46.7332 57.7669 47.1012 57.8169 47.6042C57.8669 48.1082 57.4989 48.5552 56.9949 48.6052C55.6739 48.7352 54.4529 49.4122 53.4259 50.4152C53.2509 50.5862 53.0819 50.7662 52.9179 50.9532C54.3139 52.5172 55.3029 52.3822 56.2249 51.6652C56.7519 51.2552 57.2879 50.6892 57.8459 50.1012C58.9599 48.9262 60.1519 47.6692 61.6889 47.0492C60.0539 45.7752 58.0709 45.2682 56.3079 45.3822C55.4109 45.4402 54.5789 45.6582 53.8949 46.0162C53.2529 46.3522 52.7419 46.8102 52.4349 47.3702C52.1659 47.8582 52.0509 48.4432 52.1349 49.1152ZM25.4259 53.8702C25.6099 55.9842 26.1759 58.1192 27.2009 60.2792C28.2149 62.4172 29.6749 64.5712 31.6529 66.7452C32.2089 67.3552 32.7949 67.9262 33.4069 68.4562C34.0249 68.9902 34.6669 69.4782 35.3269 69.9202C35.7469 70.2012 36.3159 70.0892 36.5979 69.6692C36.8799 69.2492 36.7659 68.6812 36.3459 68.3982C35.7489 68.0002 35.1669 67.5562 34.6059 67.0712C34.0579 66.5962 33.5249 66.0782 33.0099 65.5102C31.1559 63.4732 29.7939 61.4702 28.8589 59.4972C27.9329 57.5462 27.4209 55.6182 27.2549 53.7112C27.2109 53.2062 26.7669 52.8322 26.2619 52.8752C25.7559 52.9202 25.3819 53.3652 25.4259 53.8702ZM48.8459 20.6512C47.6749 19.4112 46.5359 18.2072 45.4759 17.0542C44.4139 18.2062 43.2759 19.4102 42.1049 20.6512C29.8069 33.6662 13.8269 50.5812 29.9969 68.3522C30.4879 68.8922 30.9979 69.4012 31.5219 69.8782C35.5489 73.5422 40.5129 75.3742 45.4759 75.3742C50.4379 75.3742 55.4019 73.5422 59.4289 69.8782C59.9539 69.4002 60.4629 68.8922 60.9539 68.3522C77.1239 50.5812 61.1429 33.6662 48.8459 20.6512Z" fill="#004B8B"/>
<path fill-rule="evenodd" clip-rule="evenodd" d="M46.1539 15.0802L46.1559 15.0842L46.1589 15.0872C47.4369 16.4912 48.7859 17.9182 50.1809 19.3962C62.9839 32.9482 79.6229 50.5592 62.3099 69.5872C61.7799 70.1692 61.2299 70.7192 60.6639 71.2342C56.2839 75.2192 50.8809 77.2122 45.4759 77.2122C40.0709 77.2122 34.6669 75.2202 30.2879 71.2342C29.7219 70.7182 29.1709 70.1692 28.6409 69.5872C11.3279 50.5592 27.9669 32.9472 40.7719 19.3962C42.1679 17.9172 43.5199 16.4872 44.7989 15.0812C45.1389 14.7082 45.7189 14.6802 46.0929 15.0202C46.1149 15.0402 46.1339 15.0602 46.1539 15.0802ZM52.1119 89.4442L49.1539 86.3262C58.2069 85.5172 66.4569 81.7212 72.8529 75.8902C79.7109 69.6392 84.4419 61.0492 85.7479 51.3022C85.813 50.8012 85.4599 50.3422 84.9589 50.2762C84.4569 50.2112 83.9979 50.5642 83.9329 51.0652C82.6879 60.3652 78.1709 68.5642 71.6199 74.5342C65.6619 79.9652 58.0229 83.5502 49.6369 84.4392L52.3129 81.9002C52.6789 81.5512 52.6939 80.9722 52.3449 80.6052C51.9959 80.2392 51.4159 80.2242 51.0499 80.5732L46.5149 84.8762C46.1489 85.2252 46.1339 85.8052 46.4829 86.1712L50.7859 90.7072C51.1349 91.0732 51.7149 91.0882 52.0809 90.7392C52.4469 90.3902 52.4599 89.8102 52.1119 89.4442ZM88.3179 38.7402L85.9109 41.7922C85.0239 32.9022 81.2549 24.8062 75.5139 18.5072C69.2619 11.6482 60.6719 6.91816 50.9249 5.61216C50.4239 5.54716 49.9649 5.90016 49.8989 6.40216C49.8349 6.90316 50.1869 7.36216 50.6889 7.42716C59.9879 8.67316 68.1869 13.1902 74.1579 19.7402C79.6949 25.8152 83.3119 33.6372 84.1119 42.2192L80.8219 39.6232C80.4259 39.3102 79.8509 39.3772 79.5379 39.7732C79.2249 40.1692 79.2929 40.7442 79.6889 41.0562L84.5599 44.9012C84.7299 45.0502 84.9549 45.1362 85.1989 45.1272C85.4939 45.1162 85.7499 44.9662 85.9089 44.7442L89.7539 39.8722C90.0669 39.4762 89.9989 38.9002 89.6039 38.5882C89.2059 38.2762 88.631 38.3452 88.3179 38.7402ZM38.6529 2.58416L41.6769 5.42516C32.6839 6.26216 24.4889 10.0502 18.1289 15.8472C11.2709 22.0982 6.54094 30.6872 5.23594 40.4342C5.17094 40.9352 5.52394 41.3952 6.02494 41.4602C6.52594 41.5242 6.98494 41.1722 7.04994 40.6702C8.29594 31.3712 12.8129 23.1722 19.3629 17.2012C25.3729 11.7232 33.0919 8.12416 41.5669 7.27316L38.8879 10.1252C38.5409 10.4932 38.5599 11.0732 38.9279 11.4202C39.2959 11.7672 39.8759 11.7492 40.2229 11.3802L44.5029 6.82416C44.8499 6.45616 44.8319 5.87616 44.4639 5.52916L39.9069 1.24916C39.5389 0.902162 38.9589 0.920162 38.6119 1.28716C38.2669 1.65716 38.2849 2.23716 38.6529 2.58416ZM2.62894 52.9752L5.06894 49.9222C5.95094 58.8202 9.72294 66.9262 15.4679 73.2302C21.7189 80.0892 30.3089 84.8192 40.0559 86.1242C40.5569 86.1902 41.0169 85.8372 41.0819 85.3352C41.1459 84.8342 40.7939 84.3752 40.2929 84.3102C30.9929 83.0652 22.7939 78.5482 16.8229 71.9972C11.2899 65.9272 7.67394 58.1102 6.87094 49.5352L10.1309 52.1412C10.5259 52.4562 11.0999 52.3922 11.4149 51.9972C11.7289 51.6032 11.6649 51.0282 11.2709 50.7132L6.43194 46.8442C6.25994 46.6892 6.03094 46.5982 5.78294 46.6092C5.48594 46.6202 5.22894 46.7712 5.06994 46.9962L1.19994 51.8362C0.884944 52.2302 0.948944 52.8052 1.34394 53.1192C1.73994 53.4342 2.31394 53.3702 2.62894 52.9752ZM35.7549 43.6532C35.2559 43.5752 34.9139 43.1082 34.9909 42.6082C35.0679 42.1092 35.5359 41.7672 36.0349 41.8442C36.5199 41.9192 37.0079 42.0162 37.4959 42.1322C37.9729 42.2462 38.4339 42.3742 38.8759 42.5162C38.9179 42.5272 38.9579 42.5402 38.9959 42.5562C41.6839 43.4392 44.0339 44.8752 45.9629 46.6992C46.1629 45.6012 45.9529 44.6282 45.4459 43.8042C44.8879 42.8982 43.9719 42.1462 42.8429 41.5842C41.6689 41.0002 40.2739 40.6292 38.8069 40.5092C36.0989 40.2872 33.1749 40.9222 30.9859 42.6552C33.4589 43.4002 35.4919 45.1922 37.3819 46.8582C38.0779 47.4722 38.7559 48.0692 39.3859 48.5532C41.2509 49.9842 43.0339 50.6272 45.1039 48.4222C43.2809 46.5802 41.0029 45.1342 38.3699 44.2782C37.9219 44.1322 37.4879 44.0102 37.0729 43.9112C36.6359 43.8082 36.1969 43.7222 35.7549 43.6532ZM47.4279 48.2512C48.1929 46.1952 47.9379 44.3612 47.0029 42.8442C46.2579 41.6342 45.0819 40.6522 43.6549 39.9432C42.2729 39.2552 40.6459 38.8202 38.9509 38.6812C35.1829 38.3722 31.0279 39.5272 28.3779 42.6362C28.0489 43.0212 28.0939 43.5992 28.4789 43.9282C28.6349 44.0622 28.8249 44.1342 29.0159 44.1462C31.7319 44.3232 34.0499 46.3682 36.1689 48.2372C36.8749 48.8592 37.5599 49.4632 38.2729 50.0102C40.9009 52.0272 43.4139 52.9312 46.3299 49.8102C47.0209 50.6842 47.6239 51.6242 48.1289 52.6142C50.0789 56.4392 50.5699 61.0072 49.1399 65.4102C49.0899 65.5642 49.0489 65.6882 49.0159 65.7812C48.9789 65.8872 48.9349 66.0092 48.8839 66.1452C48.7049 66.6192 48.9449 67.1482 49.4179 67.3262C49.8909 67.5052 50.4199 67.2642 50.5979 66.7922C50.6429 66.6732 50.6919 66.5362 50.7449 66.3842C50.7919 66.2482 50.8319 66.1322 50.8639 66.0352C50.8799 65.9962 50.8929 65.9562 50.9029 65.9142C52.1409 62.0552 52.0529 58.0862 50.8909 54.5022C51.1379 53.8002 51.4529 53.1192 51.8239 52.4852C53.9859 54.7742 55.6859 54.4082 57.3499 53.1152C57.9679 52.6342 58.5579 52.0112 59.1709 51.3642C60.4389 50.0272 61.8249 48.5652 63.5449 48.4902C63.7549 48.4902 63.9669 48.4202 64.1409 48.2722C64.5279 47.9452 64.5759 47.3672 64.2479 46.9812C62.0559 44.4022 58.9089 43.3772 56.1909 43.5522C55.0439 43.6262 53.9609 43.9162 53.0459 44.3952C52.0879 44.8962 51.3129 45.6052 50.8249 46.4962C50.1729 47.6862 50.0459 49.1592 50.7009 50.8382C50.4219 51.2472 50.1649 51.6782 49.9309 52.1232C49.8759 52.0092 49.8199 51.8952 49.7619 51.7822C49.1229 50.5232 48.3399 49.3382 47.4279 48.2512ZM52.1349 49.1152L52.1479 49.1022C53.4599 47.8232 55.0509 46.9562 56.8159 46.7832C57.3199 46.7332 57.7669 47.1012 57.8169 47.6042C57.8669 48.1082 57.4989 48.5552 56.9949 48.6052C55.6739 48.7352 54.4529 49.4122 53.4259 50.4152C53.2509 50.5862 53.0819 50.7662 52.9179 50.9532C54.3139 52.5172 55.3029 52.3822 56.2249 51.6652C56.7519 51.2552 57.2879 50.6892 57.8459 50.1012C58.9599 48.9262 60.1519 47.6692 61.6889 47.0492C60.0539 45.7752 58.0709 45.2682 56.3079 45.3822C55.4109 45.4402 54.5789 45.6582 53.8949 46.0162C53.2529 46.3522 52.7419 46.8102 52.4349 47.3702C52.1659 47.8582 52.0509 48.4432 52.1349 49.1152ZM25.4259 53.8702C25.6099 55.9842 26.1759 58.1192 27.2009 60.2792C28.2149 62.4172 29.6749 64.5712 31.6529 66.7452C32.2089 67.3552 32.7949 67.9262 33.4069 68.4562C34.0249 68.9902 34.6669 69.4782 35.3269 69.9202C35.7469 70.2012 36.3159 70.0892 36.5979 69.6692C36.8799 69.2492 36.7659 68.6812 36.3459 68.3982C35.7489 68.0002 35.1669 67.5562 34.6059 67.0712C34.0579 66.5962 33.5249 66.0782 33.0099 65.5102C31.1559 63.4732 29.7939 61.4702 28.8589 59.4972C27.9329 57.5462 27.4209 55.6182 27.2549 53.7112C27.2109 53.2062 26.7669 52.8322 26.2619 52.8752C25.7559 52.9202 25.3819 53.3652 25.4259 53.8702ZM48.8459 20.6512C47.6749 19.4112 46.5359 18.2072 45.4759 17.0542C44.4139 18.2062 43.2759 19.4102 42.1049 20.6512C29.8069 33.6662 13.8269 50.5812 29.9969 68.3522C30.4879 68.8922 30.9979 69.4012 31.5219 69.8782C35.5489 73.5422 40.5129 75.3742 45.4759 75.3742C50.4379 75.3742 55.4019 73.5422 59.4289 69.8782C59.9539 69.4002 60.4629 68.8922 60.9539 68.3522C77.1239 50.5812 61.1429 33.6662 48.8459 20.6512Z" stroke="#004B8B" stroke-width="0.8" mask="url(#path-1-outside-1_338_434)"/>
</svg>
