<svg width="93" height="101" viewBox="0 0 93 101" fill="none" xmlns="http://www.w3.org/2000/svg">
<mask id="path-1-outside-1_338_444" maskUnits="userSpaceOnUse" x="0" y="0" width="93" height="101" fill="black">
<rect fill="white" width="93" height="101"/>
<path d="M69.9498 43.4178H23.6553C22.5596 43.4178 21.9688 44.7632 22.7658 45.5697C23.1182 45.9233 23.4598 45.9427 23.9045 45.9427H69.7027C70.1475 45.9427 70.4826 45.9298 70.8414 45.5697C71.6385 44.7632 71.0477 43.4178 69.9498 43.4178ZM25.2752 41.2593H68.3299C68.2139 40.1963 67.3137 39.3705 66.2352 39.3705H27.3699C26.2914 39.3726 25.3891 40.1963 25.2752 41.2593ZM70.4869 41.3025C73.1961 41.7359 74.3412 45.1039 72.3561 47.0898C71.9049 47.5491 71.3205 47.879 70.676 48.0192L68.8971 64.3636C77.5703 53.2395 76.6379 37.3048 66.6326 27.2631C55.7186 16.3094 38.0219 16.3094 27.1078 27.2631C17.1756 37.2315 16.1766 53.026 24.6844 64.163L22.9313 48.0213C20.3359 47.4521 19.3262 44.1962 21.2512 42.2642C21.7496 41.7639 22.3963 41.4211 23.1203 41.3046C23.217 39.0319 25.0926 37.2164 27.3721 37.2164H36.3117V33.9583C36.3117 30.9827 38.7352 28.5439 41.7086 28.5439H51.9029C54.8742 28.5439 57.2998 30.9827 57.2998 33.9583V37.2164H66.2395C68.5125 37.2142 70.3902 39.0298 70.4869 41.3025ZM68.5082 48.099H25.0969L30.2188 95.2734C30.3648 96.6124 31.1941 98.0291 32.5025 98.0291H61.1004C62.4088 98.0291 63.2381 96.6103 63.3842 95.2734L68.5082 48.099ZM46.8025 54.6281C46.0484 54.6281 45.5607 55.6545 45.5607 56.5105V83.7159C45.5607 85.1714 46.7295 86.2473 47.5953 85.139C47.8746 84.7854 48.0465 84.283 48.0465 83.7159V56.5105C48.0443 55.6545 47.5566 54.6281 46.8025 54.6281ZM44.3232 53.7548C46.4115 51.0832 50.1949 52.8557 50.1949 56.5105V83.7159C50.1949 87.3708 46.4137 89.1432 44.3232 86.4716C43.7561 85.7557 43.4102 84.7789 43.4102 83.7159V56.5105C43.4102 55.4475 43.7582 54.475 44.3232 53.7548ZM33.0826 52.6594C35.1172 52.2929 36.7242 54.0588 36.9563 56.1138L39.934 83.0561C40.3293 86.6506 36.8531 88.9728 34.477 86.7605C33.7959 86.118 33.3254 85.1584 33.2094 84.1148L30.2316 57.1789C30.0125 55.165 31.1082 53.0152 33.0826 52.6594ZM33.508 54.7682C32.7152 54.848 32.2598 56.0146 32.3629 56.9374L35.3406 83.8798C35.4996 85.2986 36.735 86.105 37.4955 84.8156C37.7383 84.3994 37.8607 83.8561 37.8006 83.2868L34.8229 56.3445C34.7326 55.5639 34.2148 54.6885 33.508 54.7682ZM60.1465 54.7682C59.343 54.6885 58.8682 55.5812 58.7822 56.3445L55.8045 83.289C55.6455 84.738 56.724 86.0641 57.6672 85.1843C57.9959 84.8781 58.2022 84.421 58.2645 83.8819L61.2422 56.9396C61.3389 56.0448 60.9199 54.9084 60.1465 54.7682ZM60.3355 52.6292C62.3873 52.8557 63.6055 55.0809 63.3756 57.1768L60.3979 84.1127C59.9961 87.7503 56.0258 88.8931 54.2662 85.9088C53.7979 85.1088 53.5594 84.0933 53.6754 83.0539L56.6531 56.1116C56.8701 54.1451 58.3676 52.4093 60.3355 52.6292ZM68.4889 68.1047L67.5092 77.176C68.4588 77.3291 69.3418 77.7819 70.0422 78.4784L71.8684 80.3112C72.818 81.2643 74.3777 81.2643 75.3273 80.3112L80.0174 75.6041C80.967 74.6446 80.967 73.0856 80.0174 72.1261L78.1955 70.2976C76.7088 68.8054 76.4166 66.55 77.465 64.7301C79.0055 62.0521 80.1936 59.1864 80.9971 56.1784C81.5385 54.1429 83.3367 52.7565 85.4314 52.7565H88.0139C89.3588 52.7565 90.4631 51.6568 90.4631 50.2983V43.642C90.4631 42.2922 89.3609 41.1839 88.0139 41.1839H85.4314C83.3367 41.1839 81.5406 39.8017 80.9971 37.7662C80.1936 34.7583 79.0055 31.8861 77.465 29.2145C76.4166 27.386 76.7088 25.1371 78.1955 23.6471L80.0174 21.8143C80.9734 20.8547 80.9734 19.3022 80.0174 18.3427L75.3273 13.6356C74.3777 12.6826 72.818 12.6761 71.8684 13.6356L70.0422 15.4641C68.5619 16.9563 66.3082 17.2495 64.4949 16.1973C61.833 14.6512 58.9713 13.4588 55.9742 12.6524C53.9461 12.109 52.5647 10.3042 52.5647 8.19756H52.5711V5.61438H52.5647C52.5647 4.26456 51.469 3.15625 50.1219 3.15625H43.4832C42.1383 3.15625 41.0404 4.26241 41.0404 5.61438V8.19972C41.0404 10.3085 39.659 12.1112 37.6309 12.6545C34.6402 13.461 31.7721 14.6534 29.1102 16.1994C27.2947 17.2517 25.0475 16.9562 23.5629 15.4663L21.7367 13.6378C20.7871 12.6783 19.2273 12.6783 18.2777 13.6378L13.5877 18.3449C12.6381 19.2979 12.6381 20.8634 13.5877 21.8164L15.4096 23.6492C16.8963 25.1349 17.1885 27.3903 16.14 29.2167C14.5996 31.8883 13.4115 34.7604 12.608 37.7684C12.0666 39.8039 10.2684 41.186 8.17363 41.186H5.59121C4.24629 41.186 3.14199 42.2922 3.14199 43.6442V50.3005C3.14199 51.6568 4.24414 52.7586 5.59121 52.7586V52.7651H8.17363V52.7586C10.2684 52.7586 12.0645 54.1451 12.608 56.1806C13.4115 59.1886 14.5932 62.0413 16.14 64.7323C17.1885 66.5543 16.8941 68.8098 15.4096 70.2997L13.5877 72.1282C13.1064 72.6112 12.8701 73.2408 12.8701 73.8705H12.8766C12.8766 74.5001 13.115 75.1297 13.5898 75.6063L18.2799 80.3133C19.2295 81.2664 20.7893 81.2664 21.7389 80.3133L23.6338 78.418C24.3879 77.7388 25.1248 77.3291 26.1002 77.1782L25.1012 67.9494C22.5123 65.2304 20.4305 62.0262 18.9932 58.4943C14.3955 47.1675 17.0939 34.2709 25.5953 25.7451C37.3494 13.9483 56.4039 13.9483 68.158 25.7451C79.8047 37.4342 79.8906 56.2906 68.4889 68.1047ZM67.2707 79.3215L65.5176 95.5063C65.249 97.9579 63.5496 100.188 61.1025 100.188H32.5025C30.0533 100.188 28.3561 97.9558 28.0875 95.5063L26.3344 79.3215C25.8531 79.4185 25.4385 79.6449 25.0797 80.005L23.2578 81.8335C21.4682 83.6297 18.5506 83.6297 16.7588 81.8335L12.0645 77.1264C11.1686 76.2272 10.7238 75.0478 10.7238 73.8683H10.7303C10.7303 72.6824 11.175 71.5029 12.0709 70.6038L13.8928 68.7709C14.6963 67.9645 14.8488 66.7915 14.2816 65.8061C12.6488 62.9706 11.3834 59.9088 10.5369 56.7348C10.2447 55.6351 9.30586 54.9127 8.17363 54.9127V54.9062H5.59121V54.9127C3.0582 54.9127 1 52.8406 1 50.2983V43.642C1 41.0998 3.0582 39.0341 5.59121 39.0341H8.17363C9.30586 39.0341 10.2447 38.3139 10.5369 37.2121C11.3834 34.0273 12.6445 30.9827 14.2816 28.1407C14.8488 27.1575 14.6963 25.978 13.8928 25.1694L12.0709 23.3409C10.2748 21.5448 10.2748 18.6166 12.0709 16.8139L16.7609 12.1068C18.5506 10.3107 21.4682 10.3107 23.26 12.1068L25.0818 13.9397C25.8918 14.7461 27.0605 14.8992 28.0424 14.3299C30.874 12.6847 33.9076 11.4212 37.0809 10.5716C38.1766 10.2783 38.8963 9.33606 38.8963 8.19325V5.61438C38.8963 3.07216 40.9609 1 43.4875 1H50.1262C52.6527 1 54.7174 3.07216 54.7174 5.61438V8.19972C54.7174 9.34253 55.435 10.2848 56.5328 10.5781C59.7061 11.4276 62.7397 12.6933 65.5713 14.3364C66.551 14.9057 67.7262 14.7526 68.5318 13.9461L70.3537 12.1133C72.1434 10.3172 75.0609 10.3172 76.8527 12.1133L81.5471 16.8269H81.5406C83.3131 18.5497 83.3432 21.5383 81.5471 23.3495L79.7209 25.178C78.9174 26.0039 78.7584 27.1532 79.332 28.1493C80.9713 30.9913 82.2303 34.0359 83.0768 37.2207C83.3689 38.3204 84.3078 39.0427 85.44 39.0427H88.0225C90.5555 39.0427 92.6137 41.1084 92.6137 43.6506V50.307C92.6137 52.8492 90.5555 54.9213 88.0225 54.9213H85.4314C84.2992 54.9213 83.3604 55.6415 83.0682 56.7434C82.2217 59.9282 80.9605 62.9728 79.3234 65.8147C78.7563 66.798 78.9088 67.9731 79.7123 68.7796L81.5342 70.6124C83.3303 72.4085 83.3303 75.3367 81.5342 77.135L76.8441 81.8421C75.0545 83.6383 72.1369 83.6383 70.3451 81.8421L68.5232 80.0136C68.1666 79.6514 67.7412 79.412 67.2707 79.3215ZM51.9008 30.698H41.7064C39.9211 30.698 38.4602 32.1643 38.4602 33.9561V37.2142H39.6053V34.5987C39.6053 32.9362 40.9566 31.5799 42.6131 31.5799H50.992C52.6484 31.5799 53.9998 32.9362 53.9998 34.5987V37.2142H55.1449V33.9561C55.1449 32.1664 53.684 30.698 51.9008 30.698ZM51.8514 37.2142V34.5987C51.8514 34.1222 51.4625 33.7297 50.992 33.7297H42.6131C42.1447 33.7297 41.7537 34.12 41.7537 34.5987V37.2142H51.8514Z"/>
</mask>
<path d="M69.9498 43.4178H23.6553C22.5596 43.4178 21.9688 44.7632 22.7658 45.5697C23.1182 45.9233 23.4598 45.9427 23.9045 45.9427H69.7027C70.1475 45.9427 70.4826 45.9298 70.8414 45.5697C71.6385 44.7632 71.0477 43.4178 69.9498 43.4178ZM25.2752 41.2593H68.3299C68.2139 40.1963 67.3137 39.3705 66.2352 39.3705H27.3699C26.2914 39.3726 25.3891 40.1963 25.2752 41.2593ZM70.4869 41.3025C73.1961 41.7359 74.3412 45.1039 72.3561 47.0898C71.9049 47.5491 71.3205 47.879 70.676 48.0192L68.8971 64.3636C77.5703 53.2395 76.6379 37.3048 66.6326 27.2631C55.7186 16.3094 38.0219 16.3094 27.1078 27.2631C17.1756 37.2315 16.1766 53.026 24.6844 64.163L22.9313 48.0213C20.3359 47.4521 19.3262 44.1962 21.2512 42.2642C21.7496 41.7639 22.3963 41.4211 23.1203 41.3046C23.217 39.0319 25.0926 37.2164 27.3721 37.2164H36.3117V33.9583C36.3117 30.9827 38.7352 28.5439 41.7086 28.5439H51.9029C54.8742 28.5439 57.2998 30.9827 57.2998 33.9583V37.2164H66.2395C68.5125 37.2142 70.3902 39.0298 70.4869 41.3025ZM68.5082 48.099H25.0969L30.2188 95.2734C30.3648 96.6124 31.1941 98.0291 32.5025 98.0291H61.1004C62.4088 98.0291 63.2381 96.6103 63.3842 95.2734L68.5082 48.099ZM46.8025 54.6281C46.0484 54.6281 45.5607 55.6545 45.5607 56.5105V83.7159C45.5607 85.1714 46.7295 86.2473 47.5953 85.139C47.8746 84.7854 48.0465 84.283 48.0465 83.7159V56.5105C48.0443 55.6545 47.5566 54.6281 46.8025 54.6281ZM44.3232 53.7548C46.4115 51.0832 50.1949 52.8557 50.1949 56.5105V83.7159C50.1949 87.3708 46.4137 89.1432 44.3232 86.4716C43.7561 85.7557 43.4102 84.7789 43.4102 83.7159V56.5105C43.4102 55.4475 43.7582 54.475 44.3232 53.7548ZM33.0826 52.6594C35.1172 52.2929 36.7242 54.0588 36.9563 56.1138L39.934 83.0561C40.3293 86.6506 36.8531 88.9728 34.477 86.7605C33.7959 86.118 33.3254 85.1584 33.2094 84.1148L30.2316 57.1789C30.0125 55.165 31.1082 53.0152 33.0826 52.6594ZM33.508 54.7682C32.7152 54.848 32.2598 56.0146 32.3629 56.9374L35.3406 83.8798C35.4996 85.2986 36.735 86.105 37.4955 84.8156C37.7383 84.3994 37.8607 83.8561 37.8006 83.2868L34.8229 56.3445C34.7326 55.5639 34.2148 54.6885 33.508 54.7682ZM60.1465 54.7682C59.343 54.6885 58.8682 55.5812 58.7822 56.3445L55.8045 83.289C55.6455 84.738 56.724 86.0641 57.6672 85.1843C57.9959 84.8781 58.2022 84.421 58.2645 83.8819L61.2422 56.9396C61.3389 56.0448 60.9199 54.9084 60.1465 54.7682ZM60.3355 52.6292C62.3873 52.8557 63.6055 55.0809 63.3756 57.1768L60.3979 84.1127C59.9961 87.7503 56.0258 88.8931 54.2662 85.9088C53.7979 85.1088 53.5594 84.0933 53.6754 83.0539L56.6531 56.1116C56.8701 54.1451 58.3676 52.4093 60.3355 52.6292ZM68.4889 68.1047L67.5092 77.176C68.4588 77.3291 69.3418 77.7819 70.0422 78.4784L71.8684 80.3112C72.818 81.2643 74.3777 81.2643 75.3273 80.3112L80.0174 75.6041C80.967 74.6446 80.967 73.0856 80.0174 72.1261L78.1955 70.2976C76.7088 68.8054 76.4166 66.55 77.465 64.7301C79.0055 62.0521 80.1936 59.1864 80.9971 56.1784C81.5385 54.1429 83.3367 52.7565 85.4314 52.7565H88.0139C89.3588 52.7565 90.4631 51.6568 90.4631 50.2983V43.642C90.4631 42.2922 89.3609 41.1839 88.0139 41.1839H85.4314C83.3367 41.1839 81.5406 39.8017 80.9971 37.7662C80.1936 34.7583 79.0055 31.8861 77.465 29.2145C76.4166 27.386 76.7088 25.1371 78.1955 23.6471L80.0174 21.8143C80.9734 20.8547 80.9734 19.3022 80.0174 18.3427L75.3273 13.6356C74.3777 12.6826 72.818 12.6761 71.8684 13.6356L70.0422 15.4641C68.5619 16.9563 66.3082 17.2495 64.4949 16.1973C61.833 14.6512 58.9713 13.4588 55.9742 12.6524C53.9461 12.109 52.5647 10.3042 52.5647 8.19756H52.5711V5.61438H52.5647C52.5647 4.26456 51.469 3.15625 50.1219 3.15625H43.4832C42.1383 3.15625 41.0404 4.26241 41.0404 5.61438V8.19972C41.0404 10.3085 39.659 12.1112 37.6309 12.6545C34.6402 13.461 31.7721 14.6534 29.1102 16.1994C27.2947 17.2517 25.0475 16.9562 23.5629 15.4663L21.7367 13.6378C20.7871 12.6783 19.2273 12.6783 18.2777 13.6378L13.5877 18.3449C12.6381 19.2979 12.6381 20.8634 13.5877 21.8164L15.4096 23.6492C16.8963 25.1349 17.1885 27.3903 16.14 29.2167C14.5996 31.8883 13.4115 34.7604 12.608 37.7684C12.0666 39.8039 10.2684 41.186 8.17363 41.186H5.59121C4.24629 41.186 3.14199 42.2922 3.14199 43.6442V50.3005C3.14199 51.6568 4.24414 52.7586 5.59121 52.7586V52.7651H8.17363V52.7586C10.2684 52.7586 12.0645 54.1451 12.608 56.1806C13.4115 59.1886 14.5932 62.0413 16.14 64.7323C17.1885 66.5543 16.8941 68.8098 15.4096 70.2997L13.5877 72.1282C13.1064 72.6112 12.8701 73.2408 12.8701 73.8705H12.8766C12.8766 74.5001 13.115 75.1297 13.5898 75.6063L18.2799 80.3133C19.2295 81.2664 20.7893 81.2664 21.7389 80.3133L23.6338 78.418C24.3879 77.7388 25.1248 77.3291 26.1002 77.1782L25.1012 67.9494C22.5123 65.2304 20.4305 62.0262 18.9932 58.4943C14.3955 47.1675 17.0939 34.2709 25.5953 25.7451C37.3494 13.9483 56.4039 13.9483 68.158 25.7451C79.8047 37.4342 79.8906 56.2906 68.4889 68.1047ZM67.2707 79.3215L65.5176 95.5063C65.249 97.9579 63.5496 100.188 61.1025 100.188H32.5025C30.0533 100.188 28.3561 97.9558 28.0875 95.5063L26.3344 79.3215C25.8531 79.4185 25.4385 79.6449 25.0797 80.005L23.2578 81.8335C21.4682 83.6297 18.5506 83.6297 16.7588 81.8335L12.0645 77.1264C11.1686 76.2272 10.7238 75.0478 10.7238 73.8683H10.7303C10.7303 72.6824 11.175 71.5029 12.0709 70.6038L13.8928 68.7709C14.6963 67.9645 14.8488 66.7915 14.2816 65.8061C12.6488 62.9706 11.3834 59.9088 10.5369 56.7348C10.2447 55.6351 9.30586 54.9127 8.17363 54.9127V54.9062H5.59121V54.9127C3.0582 54.9127 1 52.8406 1 50.2983V43.642C1 41.0998 3.0582 39.0341 5.59121 39.0341H8.17363C9.30586 39.0341 10.2447 38.3139 10.5369 37.2121C11.3834 34.0273 12.6445 30.9827 14.2816 28.1407C14.8488 27.1575 14.6963 25.978 13.8928 25.1694L12.0709 23.3409C10.2748 21.5448 10.2748 18.6166 12.0709 16.8139L16.7609 12.1068C18.5506 10.3107 21.4682 10.3107 23.26 12.1068L25.0818 13.9397C25.8918 14.7461 27.0605 14.8992 28.0424 14.3299C30.874 12.6847 33.9076 11.4212 37.0809 10.5716C38.1766 10.2783 38.8963 9.33606 38.8963 8.19325V5.61438C38.8963 3.07216 40.9609 1 43.4875 1H50.1262C52.6527 1 54.7174 3.07216 54.7174 5.61438V8.19972C54.7174 9.34253 55.435 10.2848 56.5328 10.5781C59.7061 11.4276 62.7397 12.6933 65.5713 14.3364C66.551 14.9057 67.7262 14.7526 68.5318 13.9461L70.3537 12.1133C72.1434 10.3172 75.0609 10.3172 76.8527 12.1133L81.5471 16.8269H81.5406C83.3131 18.5497 83.3432 21.5383 81.5471 23.3495L79.7209 25.178C78.9174 26.0039 78.7584 27.1532 79.332 28.1493C80.9713 30.9913 82.2303 34.0359 83.0768 37.2207C83.3689 38.3204 84.3078 39.0427 85.44 39.0427H88.0225C90.5555 39.0427 92.6137 41.1084 92.6137 43.6506V50.307C92.6137 52.8492 90.5555 54.9213 88.0225 54.9213H85.4314C84.2992 54.9213 83.3604 55.6415 83.0682 56.7434C82.2217 59.9282 80.9605 62.9728 79.3234 65.8147C78.7563 66.798 78.9088 67.9731 79.7123 68.7796L81.5342 70.6124C83.3303 72.4085 83.3303 75.3367 81.5342 77.135L76.8441 81.8421C75.0545 83.6383 72.1369 83.6383 70.3451 81.8421L68.5232 80.0136C68.1666 79.6514 67.7412 79.412 67.2707 79.3215ZM51.9008 30.698H41.7064C39.9211 30.698 38.4602 32.1643 38.4602 33.9561V37.2142H39.6053V34.5987C39.6053 32.9362 40.9566 31.5799 42.6131 31.5799H50.992C52.6484 31.5799 53.9998 32.9362 53.9998 34.5987V37.2142H55.1449V33.9561C55.1449 32.1664 53.684 30.698 51.9008 30.698ZM51.8514 37.2142V34.5987C51.8514 34.1222 51.4625 33.7297 50.992 33.7297H42.6131C42.1447 33.7297 41.7537 34.12 41.7537 34.5987V37.2142H51.8514Z" fill="#004B8B"/>
<path d="M69.9498 43.4178H23.6553C22.5596 43.4178 21.9688 44.7632 22.7658 45.5697C23.1182 45.9233 23.4598 45.9427 23.9045 45.9427H69.7027C70.1475 45.9427 70.4826 45.9298 70.8414 45.5697C71.6385 44.7632 71.0477 43.4178 69.9498 43.4178ZM25.2752 41.2593H68.3299C68.2139 40.1963 67.3137 39.3705 66.2352 39.3705H27.3699C26.2914 39.3726 25.3891 40.1963 25.2752 41.2593ZM70.4869 41.3025C73.1961 41.7359 74.3412 45.1039 72.3561 47.0898C71.9049 47.5491 71.3205 47.879 70.676 48.0192L68.8971 64.3636C77.5703 53.2395 76.6379 37.3048 66.6326 27.2631C55.7186 16.3094 38.0219 16.3094 27.1078 27.2631C17.1756 37.2315 16.1766 53.026 24.6844 64.163L22.9313 48.0213C20.3359 47.4521 19.3262 44.1962 21.2512 42.2642C21.7496 41.7639 22.3963 41.4211 23.1203 41.3046C23.217 39.0319 25.0926 37.2164 27.3721 37.2164H36.3117V33.9583C36.3117 30.9827 38.7352 28.5439 41.7086 28.5439H51.9029C54.8742 28.5439 57.2998 30.9827 57.2998 33.9583V37.2164H66.2395C68.5125 37.2142 70.3902 39.0298 70.4869 41.3025ZM68.5082 48.099H25.0969L30.2188 95.2734C30.3648 96.6124 31.1941 98.0291 32.5025 98.0291H61.1004C62.4088 98.0291 63.2381 96.6103 63.3842 95.2734L68.5082 48.099ZM46.8025 54.6281C46.0484 54.6281 45.5607 55.6545 45.5607 56.5105V83.7159C45.5607 85.1714 46.7295 86.2473 47.5953 85.139C47.8746 84.7854 48.0465 84.283 48.0465 83.7159V56.5105C48.0443 55.6545 47.5566 54.6281 46.8025 54.6281ZM44.3232 53.7548C46.4115 51.0832 50.1949 52.8557 50.1949 56.5105V83.7159C50.1949 87.3708 46.4137 89.1432 44.3232 86.4716C43.7561 85.7557 43.4102 84.7789 43.4102 83.7159V56.5105C43.4102 55.4475 43.7582 54.475 44.3232 53.7548ZM33.0826 52.6594C35.1172 52.2929 36.7242 54.0588 36.9563 56.1138L39.934 83.0561C40.3293 86.6506 36.8531 88.9728 34.477 86.7605C33.7959 86.118 33.3254 85.1584 33.2094 84.1148L30.2316 57.1789C30.0125 55.165 31.1082 53.0152 33.0826 52.6594ZM33.508 54.7682C32.7152 54.848 32.2598 56.0146 32.3629 56.9374L35.3406 83.8798C35.4996 85.2986 36.735 86.105 37.4955 84.8156C37.7383 84.3994 37.8607 83.8561 37.8006 83.2868L34.8229 56.3445C34.7326 55.5639 34.2148 54.6885 33.508 54.7682ZM60.1465 54.7682C59.343 54.6885 58.8682 55.5812 58.7822 56.3445L55.8045 83.289C55.6455 84.738 56.724 86.0641 57.6672 85.1843C57.9959 84.8781 58.2022 84.421 58.2645 83.8819L61.2422 56.9396C61.3389 56.0448 60.9199 54.9084 60.1465 54.7682ZM60.3355 52.6292C62.3873 52.8557 63.6055 55.0809 63.3756 57.1768L60.3979 84.1127C59.9961 87.7503 56.0258 88.8931 54.2662 85.9088C53.7979 85.1088 53.5594 84.0933 53.6754 83.0539L56.6531 56.1116C56.8701 54.1451 58.3676 52.4093 60.3355 52.6292ZM68.4889 68.1047L67.5092 77.176C68.4588 77.3291 69.3418 77.7819 70.0422 78.4784L71.8684 80.3112C72.818 81.2643 74.3777 81.2643 75.3273 80.3112L80.0174 75.6041C80.967 74.6446 80.967 73.0856 80.0174 72.1261L78.1955 70.2976C76.7088 68.8054 76.4166 66.55 77.465 64.7301C79.0055 62.0521 80.1936 59.1864 80.9971 56.1784C81.5385 54.1429 83.3367 52.7565 85.4314 52.7565H88.0139C89.3588 52.7565 90.4631 51.6568 90.4631 50.2983V43.642C90.4631 42.2922 89.3609 41.1839 88.0139 41.1839H85.4314C83.3367 41.1839 81.5406 39.8017 80.9971 37.7662C80.1936 34.7583 79.0055 31.8861 77.465 29.2145C76.4166 27.386 76.7088 25.1371 78.1955 23.6471L80.0174 21.8143C80.9734 20.8547 80.9734 19.3022 80.0174 18.3427L75.3273 13.6356C74.3777 12.6826 72.818 12.6761 71.8684 13.6356L70.0422 15.4641C68.5619 16.9563 66.3082 17.2495 64.4949 16.1973C61.833 14.6512 58.9713 13.4588 55.9742 12.6524C53.9461 12.109 52.5647 10.3042 52.5647 8.19756H52.5711V5.61438H52.5647C52.5647 4.26456 51.469 3.15625 50.1219 3.15625H43.4832C42.1383 3.15625 41.0404 4.26241 41.0404 5.61438V8.19972C41.0404 10.3085 39.659 12.1112 37.6309 12.6545C34.6402 13.461 31.7721 14.6534 29.1102 16.1994C27.2947 17.2517 25.0475 16.9562 23.5629 15.4663L21.7367 13.6378C20.7871 12.6783 19.2273 12.6783 18.2777 13.6378L13.5877 18.3449C12.6381 19.2979 12.6381 20.8634 13.5877 21.8164L15.4096 23.6492C16.8963 25.1349 17.1885 27.3903 16.14 29.2167C14.5996 31.8883 13.4115 34.7604 12.608 37.7684C12.0666 39.8039 10.2684 41.186 8.17363 41.186H5.59121C4.24629 41.186 3.14199 42.2922 3.14199 43.6442V50.3005C3.14199 51.6568 4.24414 52.7586 5.59121 52.7586V52.7651H8.17363V52.7586C10.2684 52.7586 12.0645 54.1451 12.608 56.1806C13.4115 59.1886 14.5932 62.0413 16.14 64.7323C17.1885 66.5543 16.8941 68.8098 15.4096 70.2997L13.5877 72.1282C13.1064 72.6112 12.8701 73.2408 12.8701 73.8705H12.8766C12.8766 74.5001 13.115 75.1297 13.5898 75.6063L18.2799 80.3133C19.2295 81.2664 20.7893 81.2664 21.7389 80.3133L23.6338 78.418C24.3879 77.7388 25.1248 77.3291 26.1002 77.1782L25.1012 67.9494C22.5123 65.2304 20.4305 62.0262 18.9932 58.4943C14.3955 47.1675 17.0939 34.2709 25.5953 25.7451C37.3494 13.9483 56.4039 13.9483 68.158 25.7451C79.8047 37.4342 79.8906 56.2906 68.4889 68.1047ZM67.2707 79.3215L65.5176 95.5063C65.249 97.9579 63.5496 100.188 61.1025 100.188H32.5025C30.0533 100.188 28.3561 97.9558 28.0875 95.5063L26.3344 79.3215C25.8531 79.4185 25.4385 79.6449 25.0797 80.005L23.2578 81.8335C21.4682 83.6297 18.5506 83.6297 16.7588 81.8335L12.0645 77.1264C11.1686 76.2272 10.7238 75.0478 10.7238 73.8683H10.7303C10.7303 72.6824 11.175 71.5029 12.0709 70.6038L13.8928 68.7709C14.6963 67.9645 14.8488 66.7915 14.2816 65.8061C12.6488 62.9706 11.3834 59.9088 10.5369 56.7348C10.2447 55.6351 9.30586 54.9127 8.17363 54.9127V54.9062H5.59121V54.9127C3.0582 54.9127 1 52.8406 1 50.2983V43.642C1 41.0998 3.0582 39.0341 5.59121 39.0341H8.17363C9.30586 39.0341 10.2447 38.3139 10.5369 37.2121C11.3834 34.0273 12.6445 30.9827 14.2816 28.1407C14.8488 27.1575 14.6963 25.978 13.8928 25.1694L12.0709 23.3409C10.2748 21.5448 10.2748 18.6166 12.0709 16.8139L16.7609 12.1068C18.5506 10.3107 21.4682 10.3107 23.26 12.1068L25.0818 13.9397C25.8918 14.7461 27.0605 14.8992 28.0424 14.3299C30.874 12.6847 33.9076 11.4212 37.0809 10.5716C38.1766 10.2783 38.8963 9.33606 38.8963 8.19325V5.61438C38.8963 3.07216 40.9609 1 43.4875 1H50.1262C52.6527 1 54.7174 3.07216 54.7174 5.61438V8.19972C54.7174 9.34253 55.435 10.2848 56.5328 10.5781C59.7061 11.4276 62.7397 12.6933 65.5713 14.3364C66.551 14.9057 67.7262 14.7526 68.5318 13.9461L70.3537 12.1133C72.1434 10.3172 75.0609 10.3172 76.8527 12.1133L81.5471 16.8269H81.5406C83.3131 18.5497 83.3432 21.5383 81.5471 23.3495L79.7209 25.178C78.9174 26.0039 78.7584 27.1532 79.332 28.1493C80.9713 30.9913 82.2303 34.0359 83.0768 37.2207C83.3689 38.3204 84.3078 39.0427 85.44 39.0427H88.0225C90.5555 39.0427 92.6137 41.1084 92.6137 43.6506V50.307C92.6137 52.8492 90.5555 54.9213 88.0225 54.9213H85.4314C84.2992 54.9213 83.3604 55.6415 83.0682 56.7434C82.2217 59.9282 80.9605 62.9728 79.3234 65.8147C78.7563 66.798 78.9088 67.9731 79.7123 68.7796L81.5342 70.6124C83.3303 72.4085 83.3303 75.3367 81.5342 77.135L76.8441 81.8421C75.0545 83.6383 72.1369 83.6383 70.3451 81.8421L68.5232 80.0136C68.1666 79.6514 67.7412 79.412 67.2707 79.3215ZM51.9008 30.698H41.7064C39.9211 30.698 38.4602 32.1643 38.4602 33.9561V37.2142H39.6053V34.5987C39.6053 32.9362 40.9566 31.5799 42.6131 31.5799H50.992C52.6484 31.5799 53.9998 32.9362 53.9998 34.5987V37.2142H55.1449V33.9561C55.1449 32.1664 53.684 30.698 51.9008 30.698ZM51.8514 37.2142V34.5987C51.8514 34.1222 51.4625 33.7297 50.992 33.7297H42.6131C42.1447 33.7297 41.7537 34.12 41.7537 34.5987V37.2142H51.8514Z" stroke="#004B8B" stroke-width="0.4" mask="url(#path-1-outside-1_338_444)"/>
</svg>
