<svg width="95" height="96" viewBox="0 0 95 96" fill="none" xmlns="http://www.w3.org/2000/svg">
<mask id="path-1-outside-1_338_455" maskUnits="userSpaceOnUse" x="0" y="0" width="95" height="96" fill="black">
<rect fill="white" width="95" height="96"/>
<path fill-rule="evenodd" clip-rule="evenodd" d="M48.3021 15.2208L39.0951 29.0488L46.7201 29.3223C47.4193 29.3457 47.8412 30.0879 47.5404 30.6973L42.556 40.7523L55.306 26.3733L48.8333 26.3537C48.013 26.3537 47.5872 25.3889 48.1106 24.7795L56.4504 15.092L48.3021 15.2208ZM11.8571 44.0758C11.8532 44.1539 11.8414 44.2321 11.818 44.3063C11.7477 44.7672 11.7008 45.2555 11.6774 45.7555C11.5758 47.9586 11.986 50.9782 12.5914 52.2789C14.0211 55.3531 14.6031 56.7555 16.8336 59.3648L21.5953 64.6343C21.943 65.0288 21.9078 65.6304 21.5133 65.9781C21.1188 66.3257 20.5172 66.2906 20.1695 65.896C18.7515 64.2944 16.8883 62.3453 15.3843 60.6031C13.1382 57.9742 12.2593 56.1851 10.8491 53.0601C10.1186 51.439 9.65381 48.1968 9.77101 45.6695C9.79445 45.1304 9.84523 44.5992 9.92726 44.0875C9.2007 41.1813 9.20851 39.4547 9.22023 36.8687L9.22414 35.232C9.26711 33.1617 9.71633 31.4 10.0952 29.8922C10.6069 27.8766 10.9741 26.4156 9.8257 25.7008C9.70851 25.6617 9.59132 25.6383 9.47414 25.6304C8.6968 25.564 7.79834 26.0406 6.91164 26.9429C4.63824 29.2593 3.18114 33.6617 2.94684 37.2319C2.75934 42.5249 3.09528 46.6889 3.95074 50.6539C4.78277 54.4977 6.23984 58.6031 8.12264 63.0289C10.9781 69.5367 19.5206 74.7479 20.5956 82.4939H20.5995L20.9745 84.9822L37.2475 82.5291L36.853 79.9275C36.8491 79.9041 36.8452 79.8768 36.8452 79.8533C35.0288 54.6033 28.2671 65.0373 17.4542 48.0173C16.9073 47.1579 16.4776 46.0329 16.044 44.9001C15.2862 42.9196 14.5206 40.9079 13.4893 41.2712C12.5909 41.5876 12.1032 42.7008 11.8571 44.0758ZM11.1266 36.8766C11.1188 38.2868 11.1149 39.4235 11.2438 40.6539C11.6657 40.1188 12.2243 39.6891 12.8571 39.4664C16.7477 38.0914 17.4274 44.3961 19.068 46.9859C23.0485 53.2554 26.4157 55.5875 29.326 57.6029C34.2713 61.0287 37.5526 63.2982 38.7479 79.6619L39.1385 82.2361L41.7244 81.8455C42.2322 81.7635 42.7322 82.1228 42.8103 82.6502L43.8962 89.908C43.9743 90.4314 43.615 90.9158 43.0915 90.9939L18.4155 94.7166L18.4194 94.7244C17.9116 94.8064 17.4116 94.447 17.3335 93.9197L16.2476 86.6619C16.1695 86.1385 16.5289 85.6541 17.0523 85.576L19.0914 85.2674L18.7164 82.7752H18.7203C18.1188 78.7283 15.3414 75.5486 12.3219 72.0802C10.0602 69.4786 7.77893 66.8614 6.40003 63.8146C6.38831 63.7912 6.3766 63.7638 6.36488 63.7404C4.40788 59.0763 2.98598 55.174 2.09538 51.0564C1.20866 46.947 0.857076 42.6384 1.05238 37.1654C1.04847 37.1263 1.05238 37.0873 1.05628 37.0482C1.40394 32.9076 2.90008 28.3177 5.56408 25.6072C7.07188 24.072 8.84928 23.3064 10.5719 23.9353C10.6266 23.9548 10.6774 23.9783 10.7281 24.0056C13.2125 25.4275 12.689 27.4939 11.9625 30.3572C11.6032 31.7791 11.1813 33.4392 11.1422 35.2674C11.1344 35.8455 11.1305 36.3766 11.1266 36.8766ZM38.5326 84.2636L41.0599 83.8808L41.8646 89.2519L19.0796 92.6894L18.2749 87.3183L38.5326 84.2636ZM83.7866 44.3066C83.7632 44.2324 83.7514 44.1543 83.7475 44.0761C83.5093 42.7284 83.0288 41.662 82.2084 41.3066C82.2006 41.3027 82.1655 41.291 82.1108 41.2715C81.0835 40.9082 80.3139 42.9199 79.5561 44.9004C79.1459 45.9707 78.6381 47.2949 78.1108 48.0684C73.9624 54.6036 70.3491 57.1075 67.3568 59.1774C62.8607 62.2907 59.8802 64.3571 58.7552 79.8534C58.7513 79.8768 58.7513 79.9042 58.7474 79.9276L58.3528 82.5292L74.6258 84.9823L75.0008 82.494H75.0047C76.075 74.7479 84.6219 69.533 87.4777 63.029C89.3605 58.6032 90.8215 54.4938 91.6496 50.654C92.5051 46.6892 92.841 42.529 92.6535 37.232C92.4192 33.6617 90.966 29.2632 88.6887 26.943C87.802 26.0407 86.9035 25.5641 86.1262 25.6305C86.0051 25.6422 85.888 25.6657 85.7747 25.7008C84.6263 26.4157 84.9973 27.8805 85.5052 29.8922C85.8411 31.2164 86.3841 33.3961 86.3762 35.2555C86.3723 35.8376 86.3762 36.3688 86.3801 36.8688C86.3919 39.4586 86.3997 41.1813 85.6731 44.0876C85.7551 44.5993 85.8059 45.1306 85.8294 45.6696C85.9466 48.1969 85.4817 51.4391 84.7513 53.0602C83.3451 56.1852 82.4661 57.9743 80.2161 60.6032C78.7122 62.3415 76.8528 64.2946 75.4309 65.8962C75.0832 66.2907 74.4817 66.3259 74.0871 65.9782C73.6925 65.6306 73.6574 65.029 74.005 64.6344L78.7667 59.365C80.8409 56.9392 81.7237 55.1814 83.0284 52.2361C83.7745 50.5642 84.1694 46.7754 83.7866 44.3066ZM84.3608 40.6543C84.5132 39.1895 84.4897 36.959 84.478 35.2637C84.3999 30.1504 81.0718 26.1856 84.8921 23.9977C85.1577 23.8454 85.6772 23.7438 85.9741 23.7165C87.3374 23.5993 88.7632 24.2829 90.0561 25.5993C92.7202 28.3102 94.2163 32.9001 94.5639 37.0403C94.5678 37.0793 94.5678 37.1184 94.5678 37.1575C94.7631 42.6302 94.4154 46.9387 93.5248 51.0485C92.6342 55.1657 91.2084 59.068 89.2553 63.7325C89.2436 63.7598 89.2318 63.7832 89.2201 63.8067C87.8412 66.8536 85.5639 69.4708 83.3021 72.0723C80.2826 75.545 77.5052 78.7207 76.9037 82.7673H76.9076L76.5326 85.2595L78.5678 85.5681C79.1108 85.6501 79.4506 86.154 79.3686 86.6853L78.2866 93.9119C78.2085 94.4392 77.7085 94.8025 77.2007 94.7166L52.5247 90.9939C52.0013 90.9157 51.6419 90.4274 51.72 89.908L52.8059 82.6502C52.884 82.1228 53.384 81.7595 53.8918 81.8455L56.4777 82.2361L56.8683 79.6619C58.0636 63.2989 61.3449 61.0289 66.2902 57.6029C69.2004 55.5873 72.5636 53.2552 76.5482 46.9859C78.1927 44.3961 78.8724 38.0914 82.7591 39.4664C83.3802 39.693 83.935 40.1192 84.3608 40.6543ZM57.1768 84.2793L77.3248 87.3184L76.5201 92.6895L53.7351 89.2559L54.5398 83.8848L57.1768 84.2793ZM27.3838 37.1113C27.7276 37.5098 27.6846 38.1113 27.2862 38.4551C26.8877 38.7989 26.2862 38.7559 25.9424 38.3575L23.751 35.8302C27.0283 50.6462 43.302 59.2602 57.458 53.5602C57.9462 53.3648 58.501 53.6031 58.7002 54.0914C58.8955 54.5797 58.6572 55.1344 58.1689 55.3336C43.0599 61.4156 25.6919 52.3648 21.9739 36.6106L21.0403 39.2981C20.6302 40.4856 18.8294 39.8606 19.2395 38.677L21.3723 32.5247C21.6145 31.6302 22.5793 31.556 23.0364 32.0872L27.3838 37.1113ZM64.2358 45.0605C64.4077 44.5644 64.9507 44.2988 65.4467 44.4707C65.9428 44.6426 66.2084 45.1855 66.0366 45.6816L64.9468 48.8261C76.1618 38.5411 75.3918 20.1191 63.4273 10.7831C63.0132 10.4589 62.939 9.86121 63.2632 9.44718C63.5874 9.03312 64.1851 8.9589 64.5991 9.28312C77.4111 19.2871 78.2941 38.8881 66.4819 50.0021L69.2983 49.4591C70.5327 49.2209 70.8921 51.0958 69.6577 51.3341L63.1343 52.588V52.5841C62.4272 52.7209 61.7671 52.0373 62.0913 51.2403L64.2358 45.0605ZM52.6888 9.16952C51.4544 9.4078 51.095 7.53282 52.3294 7.29452L55.595 6.66561C41.099 2.09531 25.493 11.9664 23.4 26.9896C23.2243 28.2357 21.3375 27.9701 21.5094 26.7279C23.7516 10.6849 40.2944 0.0638862 55.8374 4.73989L53.9663 2.57579C53.6226 2.17735 53.6656 1.57579 54.064 1.23199C54.4624 0.888236 55.064 0.931206 55.4078 1.32964L59.7242 6.31404C60.2515 6.89217 59.9703 7.80234 59.1383 7.92734L52.6888 9.16952ZM36.5598 29.4155L46.9898 13.7515C47.1578 13.4976 47.4429 13.3296 47.7672 13.3257L58.5092 13.1539C59.3763 13.1226 59.8139 14.1109 59.2787 14.7281L50.9037 24.4547L57.4115 24.4742C58.2357 24.4742 58.6732 25.4468 58.1302 26.0601L39.2752 47.3261C38.5213 48.2245 37.1854 47.2987 37.6736 46.3105L45.1736 31.1775L37.365 30.8962C36.5525 30.8884 36.1536 30.021 36.5598 29.4155Z"/>
</mask>
<path fill-rule="evenodd" clip-rule="evenodd" d="M48.3021 15.2208L39.0951 29.0488L46.7201 29.3223C47.4193 29.3457 47.8412 30.0879 47.5404 30.6973L42.556 40.7523L55.306 26.3733L48.8333 26.3537C48.013 26.3537 47.5872 25.3889 48.1106 24.7795L56.4504 15.092L48.3021 15.2208ZM11.8571 44.0758C11.8532 44.1539 11.8414 44.2321 11.818 44.3063C11.7477 44.7672 11.7008 45.2555 11.6774 45.7555C11.5758 47.9586 11.986 50.9782 12.5914 52.2789C14.0211 55.3531 14.6031 56.7555 16.8336 59.3648L21.5953 64.6343C21.943 65.0288 21.9078 65.6304 21.5133 65.9781C21.1188 66.3257 20.5172 66.2906 20.1695 65.896C18.7515 64.2944 16.8883 62.3453 15.3843 60.6031C13.1382 57.9742 12.2593 56.1851 10.8491 53.0601C10.1186 51.439 9.65381 48.1968 9.77101 45.6695C9.79445 45.1304 9.84523 44.5992 9.92726 44.0875C9.2007 41.1813 9.20851 39.4547 9.22023 36.8687L9.22414 35.232C9.26711 33.1617 9.71633 31.4 10.0952 29.8922C10.6069 27.8766 10.9741 26.4156 9.8257 25.7008C9.70851 25.6617 9.59132 25.6383 9.47414 25.6304C8.6968 25.564 7.79834 26.0406 6.91164 26.9429C4.63824 29.2593 3.18114 33.6617 2.94684 37.2319C2.75934 42.5249 3.09528 46.6889 3.95074 50.6539C4.78277 54.4977 6.23984 58.6031 8.12264 63.0289C10.9781 69.5367 19.5206 74.7479 20.5956 82.4939H20.5995L20.9745 84.9822L37.2475 82.5291L36.853 79.9275C36.8491 79.9041 36.8452 79.8768 36.8452 79.8533C35.0288 54.6033 28.2671 65.0373 17.4542 48.0173C16.9073 47.1579 16.4776 46.0329 16.044 44.9001C15.2862 42.9196 14.5206 40.9079 13.4893 41.2712C12.5909 41.5876 12.1032 42.7008 11.8571 44.0758ZM11.1266 36.8766C11.1188 38.2868 11.1149 39.4235 11.2438 40.6539C11.6657 40.1188 12.2243 39.6891 12.8571 39.4664C16.7477 38.0914 17.4274 44.3961 19.068 46.9859C23.0485 53.2554 26.4157 55.5875 29.326 57.6029C34.2713 61.0287 37.5526 63.2982 38.7479 79.6619L39.1385 82.2361L41.7244 81.8455C42.2322 81.7635 42.7322 82.1228 42.8103 82.6502L43.8962 89.908C43.9743 90.4314 43.615 90.9158 43.0915 90.9939L18.4155 94.7166L18.4194 94.7244C17.9116 94.8064 17.4116 94.447 17.3335 93.9197L16.2476 86.6619C16.1695 86.1385 16.5289 85.6541 17.0523 85.576L19.0914 85.2674L18.7164 82.7752H18.7203C18.1188 78.7283 15.3414 75.5486 12.3219 72.0802C10.0602 69.4786 7.77893 66.8614 6.40003 63.8146C6.38831 63.7912 6.3766 63.7638 6.36488 63.7404C4.40788 59.0763 2.98598 55.174 2.09538 51.0564C1.20866 46.947 0.857076 42.6384 1.05238 37.1654C1.04847 37.1263 1.05238 37.0873 1.05628 37.0482C1.40394 32.9076 2.90008 28.3177 5.56408 25.6072C7.07188 24.072 8.84928 23.3064 10.5719 23.9353C10.6266 23.9548 10.6774 23.9783 10.7281 24.0056C13.2125 25.4275 12.689 27.4939 11.9625 30.3572C11.6032 31.7791 11.1813 33.4392 11.1422 35.2674C11.1344 35.8455 11.1305 36.3766 11.1266 36.8766ZM38.5326 84.2636L41.0599 83.8808L41.8646 89.2519L19.0796 92.6894L18.2749 87.3183L38.5326 84.2636ZM83.7866 44.3066C83.7632 44.2324 83.7514 44.1543 83.7475 44.0761C83.5093 42.7284 83.0288 41.662 82.2084 41.3066C82.2006 41.3027 82.1655 41.291 82.1108 41.2715C81.0835 40.9082 80.3139 42.9199 79.5561 44.9004C79.1459 45.9707 78.6381 47.2949 78.1108 48.0684C73.9624 54.6036 70.3491 57.1075 67.3568 59.1774C62.8607 62.2907 59.8802 64.3571 58.7552 79.8534C58.7513 79.8768 58.7513 79.9042 58.7474 79.9276L58.3528 82.5292L74.6258 84.9823L75.0008 82.494H75.0047C76.075 74.7479 84.6219 69.533 87.4777 63.029C89.3605 58.6032 90.8215 54.4938 91.6496 50.654C92.5051 46.6892 92.841 42.529 92.6535 37.232C92.4192 33.6617 90.966 29.2632 88.6887 26.943C87.802 26.0407 86.9035 25.5641 86.1262 25.6305C86.0051 25.6422 85.888 25.6657 85.7747 25.7008C84.6263 26.4157 84.9973 27.8805 85.5052 29.8922C85.8411 31.2164 86.3841 33.3961 86.3762 35.2555C86.3723 35.8376 86.3762 36.3688 86.3801 36.8688C86.3919 39.4586 86.3997 41.1813 85.6731 44.0876C85.7551 44.5993 85.8059 45.1306 85.8294 45.6696C85.9466 48.1969 85.4817 51.4391 84.7513 53.0602C83.3451 56.1852 82.4661 57.9743 80.2161 60.6032C78.7122 62.3415 76.8528 64.2946 75.4309 65.8962C75.0832 66.2907 74.4817 66.3259 74.0871 65.9782C73.6925 65.6306 73.6574 65.029 74.005 64.6344L78.7667 59.365C80.8409 56.9392 81.7237 55.1814 83.0284 52.2361C83.7745 50.5642 84.1694 46.7754 83.7866 44.3066ZM84.3608 40.6543C84.5132 39.1895 84.4897 36.959 84.478 35.2637C84.3999 30.1504 81.0718 26.1856 84.8921 23.9977C85.1577 23.8454 85.6772 23.7438 85.9741 23.7165C87.3374 23.5993 88.7632 24.2829 90.0561 25.5993C92.7202 28.3102 94.2163 32.9001 94.5639 37.0403C94.5678 37.0793 94.5678 37.1184 94.5678 37.1575C94.7631 42.6302 94.4154 46.9387 93.5248 51.0485C92.6342 55.1657 91.2084 59.068 89.2553 63.7325C89.2436 63.7598 89.2318 63.7832 89.2201 63.8067C87.8412 66.8536 85.5639 69.4708 83.3021 72.0723C80.2826 75.545 77.5052 78.7207 76.9037 82.7673H76.9076L76.5326 85.2595L78.5678 85.5681C79.1108 85.6501 79.4506 86.154 79.3686 86.6853L78.2866 93.9119C78.2085 94.4392 77.7085 94.8025 77.2007 94.7166L52.5247 90.9939C52.0013 90.9157 51.6419 90.4274 51.72 89.908L52.8059 82.6502C52.884 82.1228 53.384 81.7595 53.8918 81.8455L56.4777 82.2361L56.8683 79.6619C58.0636 63.2989 61.3449 61.0289 66.2902 57.6029C69.2004 55.5873 72.5636 53.2552 76.5482 46.9859C78.1927 44.3961 78.8724 38.0914 82.7591 39.4664C83.3802 39.693 83.935 40.1192 84.3608 40.6543ZM57.1768 84.2793L77.3248 87.3184L76.5201 92.6895L53.7351 89.2559L54.5398 83.8848L57.1768 84.2793ZM27.3838 37.1113C27.7276 37.5098 27.6846 38.1113 27.2862 38.4551C26.8877 38.7989 26.2862 38.7559 25.9424 38.3575L23.751 35.8302C27.0283 50.6462 43.302 59.2602 57.458 53.5602C57.9462 53.3648 58.501 53.6031 58.7002 54.0914C58.8955 54.5797 58.6572 55.1344 58.1689 55.3336C43.0599 61.4156 25.6919 52.3648 21.9739 36.6106L21.0403 39.2981C20.6302 40.4856 18.8294 39.8606 19.2395 38.677L21.3723 32.5247C21.6145 31.6302 22.5793 31.556 23.0364 32.0872L27.3838 37.1113ZM64.2358 45.0605C64.4077 44.5644 64.9507 44.2988 65.4467 44.4707C65.9428 44.6426 66.2084 45.1855 66.0366 45.6816L64.9468 48.8261C76.1618 38.5411 75.3918 20.1191 63.4273 10.7831C63.0132 10.4589 62.939 9.86121 63.2632 9.44718C63.5874 9.03312 64.1851 8.9589 64.5991 9.28312C77.4111 19.2871 78.2941 38.8881 66.4819 50.0021L69.2983 49.4591C70.5327 49.2209 70.8921 51.0958 69.6577 51.3341L63.1343 52.588V52.5841C62.4272 52.7209 61.7671 52.0373 62.0913 51.2403L64.2358 45.0605ZM52.6888 9.16952C51.4544 9.4078 51.095 7.53282 52.3294 7.29452L55.595 6.66561C41.099 2.09531 25.493 11.9664 23.4 26.9896C23.2243 28.2357 21.3375 27.9701 21.5094 26.7279C23.7516 10.6849 40.2944 0.0638862 55.8374 4.73989L53.9663 2.57579C53.6226 2.17735 53.6656 1.57579 54.064 1.23199C54.4624 0.888236 55.064 0.931206 55.4078 1.32964L59.7242 6.31404C60.2515 6.89217 59.9703 7.80234 59.1383 7.92734L52.6888 9.16952ZM36.5598 29.4155L46.9898 13.7515C47.1578 13.4976 47.4429 13.3296 47.7672 13.3257L58.5092 13.1539C59.3763 13.1226 59.8139 14.1109 59.2787 14.7281L50.9037 24.4547L57.4115 24.4742C58.2357 24.4742 58.6732 25.4468 58.1302 26.0601L39.2752 47.3261C38.5213 48.2245 37.1854 47.2987 37.6736 46.3105L45.1736 31.1775L37.365 30.8962C36.5525 30.8884 36.1536 30.021 36.5598 29.4155Z" fill="#004B8B"/>
<path fill-rule="evenodd" clip-rule="evenodd" d="M48.3021 15.2208L39.0951 29.0488L46.7201 29.3223C47.4193 29.3457 47.8412 30.0879 47.5404 30.6973L42.556 40.7523L55.306 26.3733L48.8333 26.3537C48.013 26.3537 47.5872 25.3889 48.1106 24.7795L56.4504 15.092L48.3021 15.2208ZM11.8571 44.0758C11.8532 44.1539 11.8414 44.2321 11.818 44.3063C11.7477 44.7672 11.7008 45.2555 11.6774 45.7555C11.5758 47.9586 11.986 50.9782 12.5914 52.2789C14.0211 55.3531 14.6031 56.7555 16.8336 59.3648L21.5953 64.6343C21.943 65.0288 21.9078 65.6304 21.5133 65.9781C21.1188 66.3257 20.5172 66.2906 20.1695 65.896C18.7515 64.2944 16.8883 62.3453 15.3843 60.6031C13.1382 57.9742 12.2593 56.1851 10.8491 53.0601C10.1186 51.439 9.65381 48.1968 9.77101 45.6695C9.79445 45.1304 9.84523 44.5992 9.92726 44.0875C9.2007 41.1813 9.20851 39.4547 9.22023 36.8687L9.22414 35.232C9.26711 33.1617 9.71633 31.4 10.0952 29.8922C10.6069 27.8766 10.9741 26.4156 9.8257 25.7008C9.70851 25.6617 9.59132 25.6383 9.47414 25.6304C8.6968 25.564 7.79834 26.0406 6.91164 26.9429C4.63824 29.2593 3.18114 33.6617 2.94684 37.2319C2.75934 42.5249 3.09528 46.6889 3.95074 50.6539C4.78277 54.4977 6.23984 58.6031 8.12264 63.0289C10.9781 69.5367 19.5206 74.7479 20.5956 82.4939H20.5995L20.9745 84.9822L37.2475 82.5291L36.853 79.9275C36.8491 79.9041 36.8452 79.8768 36.8452 79.8533C35.0288 54.6033 28.2671 65.0373 17.4542 48.0173C16.9073 47.1579 16.4776 46.0329 16.044 44.9001C15.2862 42.9196 14.5206 40.9079 13.4893 41.2712C12.5909 41.5876 12.1032 42.7008 11.8571 44.0758ZM11.1266 36.8766C11.1188 38.2868 11.1149 39.4235 11.2438 40.6539C11.6657 40.1188 12.2243 39.6891 12.8571 39.4664C16.7477 38.0914 17.4274 44.3961 19.068 46.9859C23.0485 53.2554 26.4157 55.5875 29.326 57.6029C34.2713 61.0287 37.5526 63.2982 38.7479 79.6619L39.1385 82.2361L41.7244 81.8455C42.2322 81.7635 42.7322 82.1228 42.8103 82.6502L43.8962 89.908C43.9743 90.4314 43.615 90.9158 43.0915 90.9939L18.4155 94.7166L18.4194 94.7244C17.9116 94.8064 17.4116 94.447 17.3335 93.9197L16.2476 86.6619C16.1695 86.1385 16.5289 85.6541 17.0523 85.576L19.0914 85.2674L18.7164 82.7752H18.7203C18.1188 78.7283 15.3414 75.5486 12.3219 72.0802C10.0602 69.4786 7.77893 66.8614 6.40003 63.8146C6.38831 63.7912 6.3766 63.7638 6.36488 63.7404C4.40788 59.0763 2.98598 55.174 2.09538 51.0564C1.20866 46.947 0.857076 42.6384 1.05238 37.1654C1.04847 37.1263 1.05238 37.0873 1.05628 37.0482C1.40394 32.9076 2.90008 28.3177 5.56408 25.6072C7.07188 24.072 8.84928 23.3064 10.5719 23.9353C10.6266 23.9548 10.6774 23.9783 10.7281 24.0056C13.2125 25.4275 12.689 27.4939 11.9625 30.3572C11.6032 31.7791 11.1813 33.4392 11.1422 35.2674C11.1344 35.8455 11.1305 36.3766 11.1266 36.8766ZM38.5326 84.2636L41.0599 83.8808L41.8646 89.2519L19.0796 92.6894L18.2749 87.3183L38.5326 84.2636ZM83.7866 44.3066C83.7632 44.2324 83.7514 44.1543 83.7475 44.0761C83.5093 42.7284 83.0288 41.662 82.2084 41.3066C82.2006 41.3027 82.1655 41.291 82.1108 41.2715C81.0835 40.9082 80.3139 42.9199 79.5561 44.9004C79.1459 45.9707 78.6381 47.2949 78.1108 48.0684C73.9624 54.6036 70.3491 57.1075 67.3568 59.1774C62.8607 62.2907 59.8802 64.3571 58.7552 79.8534C58.7513 79.8768 58.7513 79.9042 58.7474 79.9276L58.3528 82.5292L74.6258 84.9823L75.0008 82.494H75.0047C76.075 74.7479 84.6219 69.533 87.4777 63.029C89.3605 58.6032 90.8215 54.4938 91.6496 50.654C92.5051 46.6892 92.841 42.529 92.6535 37.232C92.4192 33.6617 90.966 29.2632 88.6887 26.943C87.802 26.0407 86.9035 25.5641 86.1262 25.6305C86.0051 25.6422 85.888 25.6657 85.7747 25.7008C84.6263 26.4157 84.9973 27.8805 85.5052 29.8922C85.8411 31.2164 86.3841 33.3961 86.3762 35.2555C86.3723 35.8376 86.3762 36.3688 86.3801 36.8688C86.3919 39.4586 86.3997 41.1813 85.6731 44.0876C85.7551 44.5993 85.8059 45.1306 85.8294 45.6696C85.9466 48.1969 85.4817 51.4391 84.7513 53.0602C83.3451 56.1852 82.4661 57.9743 80.2161 60.6032C78.7122 62.3415 76.8528 64.2946 75.4309 65.8962C75.0832 66.2907 74.4817 66.3259 74.0871 65.9782C73.6925 65.6306 73.6574 65.029 74.005 64.6344L78.7667 59.365C80.8409 56.9392 81.7237 55.1814 83.0284 52.2361C83.7745 50.5642 84.1694 46.7754 83.7866 44.3066ZM84.3608 40.6543C84.5132 39.1895 84.4897 36.959 84.478 35.2637C84.3999 30.1504 81.0718 26.1856 84.8921 23.9977C85.1577 23.8454 85.6772 23.7438 85.9741 23.7165C87.3374 23.5993 88.7632 24.2829 90.0561 25.5993C92.7202 28.3102 94.2163 32.9001 94.5639 37.0403C94.5678 37.0793 94.5678 37.1184 94.5678 37.1575C94.7631 42.6302 94.4154 46.9387 93.5248 51.0485C92.6342 55.1657 91.2084 59.068 89.2553 63.7325C89.2436 63.7598 89.2318 63.7832 89.2201 63.8067C87.8412 66.8536 85.5639 69.4708 83.3021 72.0723C80.2826 75.545 77.5052 78.7207 76.9037 82.7673H76.9076L76.5326 85.2595L78.5678 85.5681C79.1108 85.6501 79.4506 86.154 79.3686 86.6853L78.2866 93.9119C78.2085 94.4392 77.7085 94.8025 77.2007 94.7166L52.5247 90.9939C52.0013 90.9157 51.6419 90.4274 51.72 89.908L52.8059 82.6502C52.884 82.1228 53.384 81.7595 53.8918 81.8455L56.4777 82.2361L56.8683 79.6619C58.0636 63.2989 61.3449 61.0289 66.2902 57.6029C69.2004 55.5873 72.5636 53.2552 76.5482 46.9859C78.1927 44.3961 78.8724 38.0914 82.7591 39.4664C83.3802 39.693 83.935 40.1192 84.3608 40.6543ZM57.1768 84.2793L77.3248 87.3184L76.5201 92.6895L53.7351 89.2559L54.5398 83.8848L57.1768 84.2793ZM27.3838 37.1113C27.7276 37.5098 27.6846 38.1113 27.2862 38.4551C26.8877 38.7989 26.2862 38.7559 25.9424 38.3575L23.751 35.8302C27.0283 50.6462 43.302 59.2602 57.458 53.5602C57.9462 53.3648 58.501 53.6031 58.7002 54.0914C58.8955 54.5797 58.6572 55.1344 58.1689 55.3336C43.0599 61.4156 25.6919 52.3648 21.9739 36.6106L21.0403 39.2981C20.6302 40.4856 18.8294 39.8606 19.2395 38.677L21.3723 32.5247C21.6145 31.6302 22.5793 31.556 23.0364 32.0872L27.3838 37.1113ZM64.2358 45.0605C64.4077 44.5644 64.9507 44.2988 65.4467 44.4707C65.9428 44.6426 66.2084 45.1855 66.0366 45.6816L64.9468 48.8261C76.1618 38.5411 75.3918 20.1191 63.4273 10.7831C63.0132 10.4589 62.939 9.86121 63.2632 9.44718C63.5874 9.03312 64.1851 8.9589 64.5991 9.28312C77.4111 19.2871 78.2941 38.8881 66.4819 50.0021L69.2983 49.4591C70.5327 49.2209 70.8921 51.0958 69.6577 51.3341L63.1343 52.588V52.5841C62.4272 52.7209 61.7671 52.0373 62.0913 51.2403L64.2358 45.0605ZM52.6888 9.16952C51.4544 9.4078 51.095 7.53282 52.3294 7.29452L55.595 6.66561C41.099 2.09531 25.493 11.9664 23.4 26.9896C23.2243 28.2357 21.3375 27.9701 21.5094 26.7279C23.7516 10.6849 40.2944 0.0638862 55.8374 4.73989L53.9663 2.57579C53.6226 2.17735 53.6656 1.57579 54.064 1.23199C54.4624 0.888236 55.064 0.931206 55.4078 1.32964L59.7242 6.31404C60.2515 6.89217 59.9703 7.80234 59.1383 7.92734L52.6888 9.16952ZM36.5598 29.4155L46.9898 13.7515C47.1578 13.4976 47.4429 13.3296 47.7672 13.3257L58.5092 13.1539C59.3763 13.1226 59.8139 14.1109 59.2787 14.7281L50.9037 24.4547L57.4115 24.4742C58.2357 24.4742 58.6732 25.4468 58.1302 26.0601L39.2752 47.3261C38.5213 48.2245 37.1854 47.2987 37.6736 46.3105L45.1736 31.1775L37.365 30.8962C36.5525 30.8884 36.1536 30.021 36.5598 29.4155Z" stroke="#004B8B" stroke-width="0.6" mask="url(#path-1-outside-1_338_455)"/>
</svg>
