<svg width="92" height="72" viewBox="0 0 92 72" fill="none" xmlns="http://www.w3.org/2000/svg">
<path d="M89.7254 4.27408H77.1354C76.4944 4.27408 75.9324 4.70508 75.7674 5.32508L71.5104 21.2591H61.1864L50.3244 2.59108C49.5544 1.26708 48.2894 0.481081 46.7644 0.377081C44.9154 0.254081 42.9504 1.16008 41.7554 2.69208L35.1164 11.2001L22.4574 7.30108C20.7924 6.78808 18.8574 7.05908 17.1484 8.04608C15.4394 9.03208 14.2374 10.5721 13.8484 12.2711L11.7934 21.2591H2.91737C2.47137 21.2591 2.05237 21.4691 1.78437 21.8251C1.51737 22.1811 1.43338 22.6431 1.55738 23.0711L8.83337 48.0521C4.18437 49.7631 0.859375 54.2361 0.859375 59.4711C0.859375 66.1771 6.31537 71.6331 13.0214 71.6331C19.0834 71.6331 24.1234 67.1741 25.0354 61.3641L52.0344 55.6011L57.7774 65.2431C58.6134 66.6461 60.0764 67.4551 61.6374 67.4551C62.0324 67.4551 62.4334 67.4031 62.8324 67.2961C64.8084 66.7661 66.1554 65.0361 66.1824 62.9901L66.3364 51.5961L73.8744 23.3781L78.2214 7.10408H89.7244C90.5064 7.10408 91.1404 6.47008 91.1404 5.68808C91.1414 4.90808 90.5074 4.27408 89.7254 4.27408ZM16.6084 12.9031C16.8184 11.9831 17.5494 11.0851 18.5634 10.5001C19.5774 9.91408 20.7214 9.73208 21.6224 10.0091L35.2144 14.1951C35.7764 14.3681 36.3864 14.1761 36.7474 13.7131L43.9864 4.43608C44.6004 3.64908 45.6634 3.14208 46.5714 3.20408C47.1534 3.24308 47.5804 3.50908 47.8754 4.01608L57.9094 21.2591H14.6974L16.6084 12.9031ZM13.0224 68.8021C7.87737 68.8021 3.69237 64.6171 3.69237 59.4721C3.69237 54.3271 7.87737 50.1421 13.0224 50.1421C18.1674 50.1421 22.3524 54.3271 22.3524 59.4721C22.3514 64.6161 18.1664 68.8021 13.0224 68.8021ZM62.0984 64.5631C61.3484 64.7641 60.6074 64.4631 60.2104 63.7961L54.9594 54.9791L63.4834 53.1601L63.3504 62.9551C63.3394 63.7311 62.8484 64.3621 62.0984 64.5631ZM63.7784 50.2001L25.1374 58.4481C24.6154 52.2201 19.3824 47.3101 13.0214 47.3101C12.5374 47.3101 12.0614 47.3421 11.5924 47.3971L4.80537 24.0911H12.9164C12.9184 24.0911 12.9204 24.0911 12.9224 24.0911C12.9254 24.0911 12.9274 24.0911 12.9304 24.0911H70.7534L63.7784 50.2001ZM13.0224 54.4731C10.2664 54.4731 8.02437 56.7151 8.02437 59.4711C8.02437 62.2271 10.2664 64.4691 13.0224 64.4691C15.7784 64.4691 18.0204 62.2271 18.0204 59.4711C18.0204 56.7161 15.7774 54.4731 13.0224 54.4731ZM13.0224 61.6371C11.8284 61.6371 10.8564 60.6651 10.8564 59.4711C10.8564 58.2771 11.8284 57.3051 13.0224 57.3051C14.2164 57.3051 15.1884 58.2771 15.1884 59.4711C15.1874 60.6661 14.2164 61.6371 13.0224 61.6371Z" fill="#004B8B"/>
</svg>
