<svg width="112" height="59" viewBox="0 0 112 59" fill="none" xmlns="http://www.w3.org/2000/svg">
<path d="M47.4992 44.7588C42.5304 44.7588 37.9498 43.3743 34.1456 40.7088C29.7462 37.6291 27.0289 33.3979 24.4151 29.309C23.1859 27.394 21.9178 25.4013 20.4815 23.5509C16.2891 18.1552 9.24999 11.9054 3.09078 11.9054C3.02608 11.9054 2.96138 11.9054 2.89669 11.9054C1.92622 11.9183 1.11103 11.2843 0.89106 10.3526C0.671088 9.42099 1.12397 8.48935 1.99092 8.07529C8.4995 4.98274 16.1597 2.53717 23.574 1.19146C32.0753 -0.348342 39.9166 -0.4001 46.2699 1.06207C50.2553 1.98077 54.0725 3.66291 57.3074 5.94027C60.8657 8.43759 63.6218 11.5172 65.4981 15.1014C69.0047 21.8041 69.0953 29.7749 65.7569 38.1855L65.5369 38.729L65.0581 39.0654C60.5034 42.2486 55.0688 44.2412 49.7507 44.6812C49.0002 44.72 48.2497 44.7588 47.4992 44.7588ZM9.03002 9.26572C14.594 11.5172 19.8863 16.4342 23.5482 21.1571C25.088 23.1498 26.4078 25.2072 27.6888 27.1999C30.212 31.1464 32.6058 34.873 36.3842 37.5256C44.5102 43.219 55.1853 40.9934 62.3796 36.1929C65.0711 29.0761 64.9676 22.4123 62.082 16.8871C59.0154 11.0384 52.7785 6.53548 45.4159 4.82747C34.4303 2.30426 20.158 5.00862 9.03002 9.26572Z" fill="#004B8B"/>
<path d="M77.8676 53.3637C76.1466 53.3637 74.4128 53.1954 72.7177 52.859L72.1483 52.7426L71.7343 52.3285C66.4938 47.1398 63.9447 41.1358 64.3846 34.9637C64.6175 31.6641 65.6656 28.4551 67.516 25.4143C69.1981 22.6582 71.4884 20.1479 74.1669 18.1682C78.3981 15.0239 84.2338 12.5007 91.04 10.8962C96.9534 9.48575 103.423 8.81289 109.233 8.99405H109.246C110.178 9.03287 110.98 9.7316 111.135 10.6503C111.29 11.569 110.786 12.4877 109.932 12.8371C105.455 14.6874 102.31 21.5195 100.978 26.7988C100.525 28.6104 100.227 30.4737 99.9424 32.2722C99.3213 36.167 98.6873 40.1783 96.4099 43.9307C94.1326 47.6832 90.5225 50.4782 85.9936 52.0309C83.4316 52.9237 80.6625 53.3637 77.8676 53.3637ZM74.0504 49.1583C80.7272 50.3099 89.0603 48.5372 93.0845 41.9251C94.9736 38.8326 95.5171 35.3518 96.0994 31.677C96.397 29.7879 96.7075 27.8469 97.1992 25.8672C98.312 21.4677 100.434 16.4731 103.501 12.9794C94.2232 13.5488 83.4187 16.1367 76.4701 21.2995C71.6825 24.8579 68.6158 30.0725 68.2406 35.2483C67.9042 40.0877 69.9098 44.8883 74.0504 49.1583Z" fill="#004B8B"/>
<path d="M71.9911 58.7077C64.1627 41.1488 50.5115 25.5567 37.2227 18.9834L38.9436 15.5027C52.9959 22.4512 67.3459 38.7938 75.5236 57.1291L71.9911 58.7077Z" fill="#004B8B"/>
<path d="M74.1131 55.1364L70.3477 54.1918C72.6897 44.8236 77.5032 35.9859 84.2576 28.6233L87.1173 31.25C80.8028 38.1338 76.2998 46.3893 74.1131 55.1364Z" fill="#004B8B"/>
</svg>
